<svg width="1494" height="400" viewBox="0 0 1494 400" fill="none" xmlns="http://www.w3.org/2000/svg">
<rect width="1494" height="400" rx="46" fill="url(#paint0_linear)"/>
<path d="M0 50C0 22.3858 22.3858 0 50 0H436L74 80L0 331V50Z" fill="#000AF1" fill-opacity="0.11"/>
<path d="M0 50C0 22.3858 22.3858 0 50 0H436L87 100L0 331V50Z" fill="#000AF1" fill-opacity="0.2"/>
<g opacity="0.3">
<circle r="4.68218" transform="matrix(-1 0 0 1 1460.26 19.6822)" fill="#5E63D8"/>
<circle r="4.68218" transform="matrix(-1 0 0 1 1441.53 19.6822)" fill="#5E63D8"/>
<circle r="4.68218" transform="matrix(-1 0 0 1 1422.81 19.6822)" fill="#5E63D8"/>
<circle r="4.68218" transform="matrix(-1 0 0 1 1404.08 19.6822)" fill="#5E63D8"/>
<circle r="4.68218" transform="matrix(-1 0 0 1 1385.35 19.6822)" fill="#5E63D8"/>
<circle r="4.68218" transform="matrix(-1 0 0 1 1365.68 19.6822)" fill="#5E63D8"/>
<circle r="4.68218" transform="matrix(-1 0 0 1 1460.26 36.538)" fill="#5E63D8"/>
<circle r="4.68218" transform="matrix(-1 0 0 1 1441.53 36.538)" fill="#5E63D8"/>
<circle r="4.68218" transform="matrix(-1 0 0 1 1422.81 36.538)" fill="#5E63D8"/>
<circle r="4.68218" transform="matrix(-1 0 0 1 1404.08 36.538)" fill="#5E63D8"/>
<circle r="4.68218" transform="matrix(-1 0 0 1 1385.35 36.538)" fill="#5E63D8"/>
<circle r="4.68218" transform="matrix(-1 0 0 1 1460.26 55.2667)" fill="#5E63D8"/>
<circle r="4.68218" transform="matrix(-1 0 0 1 1441.53 55.2667)" fill="#5E63D8"/>
<circle r="4.68218" transform="matrix(-1 0 0 1 1422.81 55.2667)" fill="#5E63D8"/>
<circle r="4.68218" transform="matrix(-1 0 0 1 1404.08 55.2667)" fill="#5E63D8"/>
<circle r="4.68218" transform="matrix(-1 0 0 1 1460.26 73.9955)" fill="#5E63D8"/>
<circle r="4.68218" transform="matrix(-1 0 0 1 1441.53 73.9955)" fill="#5E63D8"/>
<circle r="4.68218" transform="matrix(-1 0 0 1 1422.81 73.9955)" fill="#5E63D8"/>
<circle r="4.68218" transform="matrix(-1 0 0 1 1460.26 92.7242)" fill="#5E63D8"/>
<circle r="4.68218" transform="matrix(-1 0 0 1 1441.53 92.7242)" fill="#5E63D8"/>
<circle r="4.68218" transform="matrix(-1 0 0 1 1460.26 111.453)" fill="#5E63D8"/>
</g>
<defs>
<linearGradient id="paint0_linear" x1="22.0591" y1="17.9999" x2="1493.44" y2="426.027" gradientUnits="userSpaceOnUse">
<stop stop-color="#237BFF"/>
<stop offset="1" stop-color="#3817FE"/>
</linearGradient>
</defs>
</svg>
