<svg width="162" height="162" viewBox="0 0 162 162" fill="none" xmlns="http://www.w3.org/2000/svg">
<path d="M81 81C86.5919 81 91.125 76.4669 91.125 70.875C91.125 65.2831 86.5919 60.75 81 60.75C75.4081 60.75 70.875 65.2831 70.875 70.875C70.875 76.4669 75.4081 81 81 81Z" fill="white"/>
<path d="M136.688 20.25H25.3125C16.7062 20.25 10.125 26.8312 10.125 35.4375V106.312C10.125 114.919 16.7062 121.5 25.3125 121.5H49.6125L45.0562 127.069C41.5125 131.625 40.5 137.7 43.0312 143.269C45.5625 148.331 51.1312 151.875 56.7 151.875H104.794C110.869 151.875 115.931 148.331 118.462 143.269C120.994 137.7 119.981 131.625 116.438 127.069L112.388 121.5H136.688C145.294 121.5 151.875 114.919 151.875 106.312V35.4375C151.875 26.8312 145.294 20.25 136.688 20.25ZM81 101.25C64.2938 101.25 50.625 87.5812 50.625 70.875C50.625 54.1688 64.2938 40.5 81 40.5C97.7062 40.5 111.375 54.1688 111.375 70.875C111.375 87.5812 97.7062 101.25 81 101.25ZM126.562 50.625H116.438C113.4 50.625 111.375 48.6 111.375 45.5625C111.375 42.525 113.4 40.5 116.438 40.5H126.562C129.6 40.5 131.625 42.525 131.625 45.5625C131.625 48.6 129.6 50.625 126.562 50.625Z" fill="white"/>
</svg>
