<svg width="191" height="77" viewBox="0 0 191 77" fill="none" xmlns="http://www.w3.org/2000/svg">
<path d="M75.6583 53.073H0.644531V63.8572H75.6583V53.073Z" fill="#444248"/>
<path d="M190.132 53.073H84.2637V63.8572H190.132V53.073Z" fill="#444248"/>
<path d="M142.432 15.3391H132.316V53.0729H142.432V15.3391Z" fill="#444248"/>
<path d="M142.431 38.4676V39.3217H140.731L134.358 49.9278V31.433H0.644531V54.9411H75.6583V47.9281H84.2636V54.9411H131.345L131.325 54.9744H186.586L188.474 53.0729V38.4676H142.431Z" fill="#8A92A1"/>
<path d="M138.832 5.98676V53.073H188.474V24.4882L167.197 5.98676H138.832Z" fill="#E9EAED"/>
<path opacity="0.32" d="M188.474 29.2901H138.832V53.073H188.474V29.2901Z" fill="#A9AFBA"/>
<path d="M148.492 11.8243V25.767H176.398L163.839 11.8243H148.492Z" fill="#444248"/>
<path d="M154.321 33.769H152.594C152.108 33.769 151.714 33.4859 151.714 33.1413V33.1279C151.714 32.78 152.108 32.5002 152.594 32.5002H154.321C154.807 32.5002 155.201 32.78 155.201 33.1279V33.1413C155.203 33.4859 154.809 33.769 154.321 33.769Z" fill="#444248"/>
<path d="M188.476 36.6178H184.115V42.3254H188.476V36.6178Z" fill="#F7B896"/>
<path d="M188.476 44.8629H184.115V49.1835H188.476V44.8629Z" fill="#EF3B3E"/>
<path d="M134.41 0.752014H0.644531V53.073H134.41V0.752014Z" fill="#F64A33"/>
<path d="M128.593 5.98676H6.45996V9.88786H128.593V5.98676Z" fill="#F98F81"/>
<path opacity="0.32" d="M134.41 29.2901H0.644531V53.073H134.41V29.2901Z" fill="#8A563E"/>
<path d="M7.44626 43.8339H0.644531V51.0633H7.44626V43.8339Z" fill="#F7B896"/>
<path d="M7.44626 53.073H0.644531V60.0577H7.44626V53.073Z" fill="#EF3B3E"/>
<path d="M7.44626 47.3987H0.644531V51.0634H7.44626V47.3987Z" fill="#F7B896"/>
<path opacity="0.55" d="M7.44626 56.6211H0.644531V60.0576H7.44626V56.6211Z" fill="#C94C3B"/>
<path d="M99.7223 48.6957C98.9552 48.5775 98.1749 48.4976 97.3746 48.4976C96.6275 48.4976 95.8988 48.5691 95.1816 48.6707C95.8771 48.6257 96.6026 48.5975 97.3746 48.5975C98.2015 48.5975 98.9802 48.6341 99.7223 48.6957Z" fill="#444248"/>
<path d="M101.772 66.6976H103.614C103.617 66.4695 103.627 63.7772 103.639 63.6224C104.035 58.7656 108.411 53.9271 114.906 53.9271C120.915 53.9271 125.893 58.9154 126.189 63.8471C126.192 63.9104 126.196 65.8235 126.197 66.6976H128.059C128.062 65.8235 128.066 63.9104 128.069 63.8455C128.452 56.2514 122.412 49.9744 114.906 49.9744C107.627 49.9744 101.726 55.8801 101.726 63.1645C101.726 63.3376 101.734 63.5091 101.744 63.6806C101.752 63.8155 101.762 66.4845 101.772 66.6976Z" fill="#8A92A1"/>
<path d="M114.907 76.0999C121.118 76.0999 126.154 71.0607 126.154 64.8445C126.154 58.6283 121.118 53.5891 114.907 53.5891C108.695 53.5891 103.659 58.6283 103.659 64.8445C103.659 71.0607 108.695 76.0999 114.907 76.0999Z" fill="#444248"/>
<path d="M114.905 72.0556C118.885 72.0556 122.111 68.8271 122.111 64.8445C122.111 60.8619 118.885 57.6334 114.905 57.6334C110.925 57.6334 107.699 60.8619 107.699 64.8445C107.699 68.8271 110.925 72.0556 114.905 72.0556Z" fill="#C8CCD3"/>
<path d="M114.906 67.2088C116.212 67.2088 117.271 66.1495 117.271 64.8428C117.271 63.5361 116.212 62.4769 114.906 62.4769C113.601 62.4769 112.542 63.5361 112.542 64.8428C112.542 66.1495 113.601 67.2088 114.906 67.2088Z" fill="#444248"/>
<path opacity="0.28" d="M105.154 67.3087C105.468 62.1538 109.732 58.0696 114.964 58.0696C120.195 58.0696 124.459 62.1538 124.773 67.3087H125.852C126.031 66.5112 126.156 65.6936 126.156 64.8445C126.156 58.6274 121.12 53.5874 114.909 53.5874C108.698 53.5874 103.661 58.6257 103.661 64.8445C103.661 65.6936 103.763 66.5161 103.941 67.3087H105.154Z" fill="#403F45"/>
<path d="M43.749 66.6976H45.5909C45.5959 66.4695 45.6042 63.7772 45.6158 63.6224C46.0118 58.7656 50.3877 53.9271 56.8833 53.9271C62.8914 53.9271 67.8696 58.9154 68.1657 63.8471C68.1691 63.9104 68.1724 65.8235 68.174 66.6976H70.0359C70.0392 65.8235 70.0425 63.9104 70.0459 63.8455C70.4285 56.2514 64.3888 49.9744 56.8833 49.9744C49.604 49.9744 43.7041 55.8801 43.7041 63.1645C43.7041 63.3376 43.7108 63.5091 43.7224 63.6806C43.7291 63.8155 43.7407 66.4845 43.749 66.6976Z" fill="#8A92A1"/>
<path d="M56.8832 76.0999C63.095 76.0999 68.1307 71.0607 68.1307 64.8445C68.1307 58.6283 63.095 53.5891 56.8832 53.5891C50.6714 53.5891 45.6357 58.6283 45.6357 64.8445C45.6357 71.0607 50.6714 76.0999 56.8832 76.0999Z" fill="#444248"/>
<path d="M56.8828 72.0556C60.8626 72.0556 64.0889 68.8271 64.0889 64.8445C64.0889 60.8619 60.8626 57.6334 56.8828 57.6334C52.903 57.6334 49.6768 60.8619 49.6768 64.8445C49.6768 68.8271 52.903 72.0556 56.8828 72.0556Z" fill="#C8CCD3"/>
<path d="M56.8829 67.2088C58.1886 67.2088 59.2472 66.1495 59.2472 64.8428C59.2472 63.5361 58.1886 62.4769 56.8829 62.4769C55.5771 62.4769 54.5186 63.5361 54.5186 64.8428C54.5186 66.1495 55.5771 67.2088 56.8829 67.2088Z" fill="#444248"/>
<path opacity="0.28" d="M47.1318 67.3087C47.4463 62.1538 51.7107 58.0696 56.9417 58.0696C62.1728 58.0696 66.4372 62.1538 66.7517 67.3087H67.8298C68.0095 66.5112 68.1327 65.6936 68.1327 64.8445C68.1327 58.6274 63.0962 53.5874 56.8852 53.5874C50.6741 53.5874 45.6377 58.6257 45.6377 64.8445C45.6377 65.6936 45.7392 66.5161 45.9172 67.3087H47.1318Z" fill="#403F45"/>
<path d="M12.5007 66.6976H14.3409C14.3459 66.4695 14.3542 63.7772 14.3675 63.6224C14.7635 58.7656 19.1394 53.9271 25.6333 53.9271C31.6414 53.9271 36.6196 58.9154 36.9157 63.8471C36.9191 63.9104 36.9224 65.8235 36.9257 66.6976H38.7859C38.7892 65.8235 38.7942 63.9104 38.7975 63.8455C39.1785 56.2514 33.1388 49.9744 25.6333 49.9744C18.354 49.9744 12.4541 55.8801 12.4541 63.1645C12.4541 63.3376 12.4608 63.5091 12.4724 63.6806C12.4807 63.8155 12.4907 66.4845 12.5007 66.6976Z" fill="#8A92A1"/>
<path d="M25.6352 76.0999C31.847 76.0999 36.8827 71.0607 36.8827 64.8445C36.8827 58.6283 31.847 53.5891 25.6352 53.5891C19.4234 53.5891 14.3877 58.6283 14.3877 64.8445C14.3877 71.0607 19.4234 76.0999 25.6352 76.0999Z" fill="#444248"/>
<path d="M25.6348 72.0556C29.6145 72.0556 32.8408 68.8271 32.8408 64.8445C32.8408 60.8619 29.6145 57.6334 25.6348 57.6334C21.655 57.6334 18.4287 60.8619 18.4287 64.8445C18.4287 68.8271 21.655 72.0556 25.6348 72.0556Z" fill="#C8CCD3"/>
<path d="M25.6348 67.2088C26.9406 67.2088 27.9991 66.1495 27.9991 64.8428C27.9991 63.5361 26.9406 62.4769 25.6348 62.4769C24.329 62.4769 23.2705 63.5361 23.2705 64.8428C23.2705 66.1495 24.329 67.2088 25.6348 67.2088Z" fill="#444248"/>
<path opacity="0.28" d="M15.8838 67.3087C16.1982 62.1538 20.4626 58.0696 25.6937 58.0696C30.9248 58.0696 35.1875 62.1538 35.5036 67.3087H36.5818C36.7615 66.5112 36.8846 65.6936 36.8846 64.8445C36.8846 58.6274 31.8499 53.5874 25.6371 53.5874C19.4261 53.5874 14.3896 58.6257 14.3896 64.8445C14.3896 65.6936 14.4911 66.5161 14.6692 67.3087H15.8838Z" fill="#403F45"/>
<path d="M151.898 66.6976H153.738C153.743 66.4695 153.752 63.7772 153.765 63.6224C154.161 58.7656 158.535 53.9271 165.031 53.9271C171.039 53.9271 176.017 58.9154 176.313 63.8471C176.317 63.9104 176.32 65.8235 176.323 66.6976H178.183C178.187 65.8235 178.192 63.9104 178.195 63.8455C178.576 56.2514 172.536 49.9744 165.031 49.9744C157.751 49.9744 151.852 55.8801 151.852 63.1645C151.852 63.3376 151.858 63.5091 151.87 63.6806C151.88 63.8155 151.89 66.4845 151.898 66.6976Z" fill="#8A92A1"/>
<path d="M165.033 76.0999C171.244 76.0999 176.28 71.0607 176.28 64.8445C176.28 58.6283 171.244 53.5891 165.033 53.5891C158.821 53.5891 153.785 58.6283 153.785 64.8445C153.785 71.0607 158.821 76.0999 165.033 76.0999Z" fill="#444248"/>
<path d="M165.032 72.0556C169.012 72.0556 172.238 68.8271 172.238 64.8445C172.238 60.8619 169.012 57.6334 165.032 57.6334C161.052 57.6334 157.826 60.8619 157.826 64.8445C157.826 68.8271 161.052 72.0556 165.032 72.0556Z" fill="#C8CCD3"/>
<path d="M165.032 67.2088C166.338 67.2088 167.397 66.1495 167.397 64.8428C167.397 63.5361 166.338 62.4769 165.032 62.4769C163.726 62.4769 162.668 63.5361 162.668 64.8428C162.668 66.1495 163.726 67.2088 165.032 67.2088Z" fill="#444248"/>
<path opacity="0.28" d="M155.281 67.3087C155.596 62.1538 159.86 58.0696 165.091 58.0696C170.322 58.0696 174.585 62.1538 174.901 67.3087H175.979C176.159 66.5112 176.282 65.6936 176.282 64.8445C176.282 58.6274 171.247 53.5874 165.035 53.5874C158.824 53.5874 153.787 58.6257 153.787 64.8445C153.787 65.6936 153.889 66.5161 154.067 67.3087H155.281Z" fill="#403F45"/>
<path d="M166.057 48.6957C165.29 48.5775 164.51 48.4976 163.708 48.4976C162.961 48.4976 162.233 48.5691 161.515 48.6707C162.21 48.6257 162.936 48.5975 163.708 48.5975C164.538 48.5975 165.313 48.6341 166.057 48.6957Z" fill="#444248"/>
</svg>
