<svg width="172" height="69" viewBox="0 0 172 69" fill="none" xmlns="http://www.w3.org/2000/svg">
<path d="M68.2614 47.4736H0.714844V57.1805H68.2614V47.4736Z" fill="#444248"/>
<path d="M171.339 47.4736H76.0098V57.1805H171.339V47.4736Z" fill="#444248"/>
<path d="M128.389 13.4926H119.279V47.4719H128.389V13.4926Z" fill="#444248"/>
<path d="M128.387 34.3201V35.0893H126.855L121.118 44.6397V27.9847H0.714844V49.1536H68.2613V42.8382H76.0098V49.1536H118.406L118.386 49.1835H168.144L169.846 47.4736V34.3201H128.387Z" fill="#8A92A1"/>
<path d="M125.146 5.07437V47.4736H169.846V21.7311L150.687 5.07437H125.146Z" fill="#E9EAED"/>
<path opacity="0.32" d="M169.846 26.0551H125.146V47.4719H169.846V26.0551Z" fill="#A9AFBA"/>
<path d="M133.845 10.3291V22.8849H158.972L147.664 10.3291H133.845Z" fill="#444248"/>
<path d="M139.094 30.0876H137.538C137.1 30.0876 136.744 29.8346 136.744 29.5215V29.5115C136.744 29.1985 137.099 28.9454 137.538 28.9454H139.094C139.531 28.9454 139.885 29.1985 139.885 29.5115V29.5215C139.885 29.8346 139.531 30.0876 139.094 30.0876Z" fill="#444248"/>
<path d="M169.847 32.6534H165.92V37.7916H169.847V32.6534Z" fill="#F7B896"/>
<path d="M169.847 40.0777H165.92V43.9671H169.847V40.0777Z" fill="#EF3B3E"/>
<path d="M121.164 0.35907H0.714844V47.4736H121.164V0.35907Z" fill="#FEA92C"/>
<path d="M115.927 5.07437H5.95117V8.58586H115.927V5.07437Z" fill="#FFCD84"/>
<path opacity="0.32" d="M121.164 26.0551H0.714844V47.4719H121.164V26.0551Z" fill="#BD905B"/>
<path d="M6.8394 39.1519H0.714844V45.6621H6.8394V39.1519Z" fill="#F7B896"/>
<path d="M6.8394 47.4736H0.714844V53.7623H6.8394V47.4736Z" fill="#EF3B3E"/>
<path d="M6.8394 42.3604H0.714844V45.6604H6.8394V42.3604Z" fill="#F7B896"/>
<path opacity="0.55" d="M6.8394 50.6654H0.714844V53.7623H6.8394V50.6654Z" fill="#C94C3B"/>
<path d="M89.9295 43.5275C89.2374 43.4226 88.5352 43.3494 87.8148 43.3494C87.1426 43.3494 86.4871 43.4143 85.8398 43.5092C86.4654 43.4676 87.1193 43.4409 87.8148 43.4409C88.5619 43.4409 89.2607 43.4742 89.9295 43.5275Z" fill="#444248"/>
<path d="M91.7743 59.7396H93.4331C93.4365 59.5348 93.4448 57.1089 93.4564 56.9724C93.8142 52.5985 97.7524 48.2412 103.602 48.2412C109.012 48.2412 113.496 52.735 113.762 57.1739C113.765 57.2321 113.767 58.9521 113.77 59.7396H115.446C115.449 58.9521 115.452 57.2288 115.456 57.1739C115.8 50.3357 110.361 44.683 103.602 44.683C97.0486 44.683 91.7344 49.9994 91.7344 56.5595C91.7344 56.716 91.741 56.8708 91.751 57.024C91.7577 57.1439 91.766 59.5481 91.7743 59.7396Z" fill="#8A92A1"/>
<path d="M103.6 68.2062C109.194 68.2062 113.728 63.6686 113.728 58.0713C113.728 52.474 109.194 47.9365 103.6 47.9365C98.007 47.9365 93.4727 52.474 93.4727 58.0713C93.4727 63.6686 98.007 68.2062 103.6 68.2062Z" fill="#444248"/>
<path d="M103.6 64.5648C107.184 64.5648 110.089 61.6576 110.089 58.0713C110.089 54.485 107.184 51.5778 103.6 51.5778C100.017 51.5778 97.1113 54.485 97.1113 58.0713C97.1113 61.6576 100.017 64.5648 103.6 64.5648Z" fill="#C8CCD3"/>
<path d="M103.6 60.2009C104.777 60.2009 105.73 59.2467 105.73 58.0697C105.73 56.8926 104.777 55.9385 103.6 55.9385C102.424 55.9385 101.471 56.8926 101.471 58.0697C101.471 59.2467 102.424 60.2009 103.6 60.2009Z" fill="#444248"/>
<path opacity="0.28" d="M94.819 60.2924C95.1018 55.6521 98.9436 51.9707 103.652 51.9707C108.363 51.9707 112.203 55.6521 112.486 60.2924H113.456C113.617 59.5731 113.73 58.8372 113.73 58.0713C113.73 52.4736 109.194 47.9348 103.602 47.9348C98.0102 47.9348 93.4746 52.4736 93.4746 58.0713C93.4746 58.8355 93.5645 59.5765 93.7258 60.2924H94.819Z" fill="#403F45"/>
<path d="M39.5282 59.7396H41.1871C41.1904 59.5348 41.1987 57.1089 41.2104 56.9724C41.5664 52.5985 45.5064 48.2412 51.3564 48.2412C56.7655 48.2412 61.2495 52.735 61.5157 57.1739C61.5191 57.2321 61.5207 58.9521 61.5241 59.7396H63.1995C63.2029 58.9521 63.2062 57.2288 63.2095 57.1739C63.5539 50.3357 58.1149 44.683 51.3564 44.683C44.8026 44.683 39.4883 49.9994 39.4883 56.5595C39.4883 56.716 39.4949 56.8708 39.5049 57.024C39.5116 57.1439 39.5199 59.5481 39.5282 59.7396Z" fill="#8A92A1"/>
<path d="M51.3543 68.2062C56.9477 68.2062 61.482 63.6686 61.482 58.0713C61.482 52.474 56.9477 47.9365 51.3543 47.9365C45.7609 47.9365 41.2266 52.474 41.2266 58.0713C41.2266 63.6686 45.7609 68.2062 51.3543 68.2062Z" fill="#444248"/>
<path d="M51.3542 64.5648C54.9379 64.5648 57.8431 61.6576 57.8431 58.0713C57.8431 54.485 54.9379 51.5778 51.3542 51.5778C47.7704 51.5778 44.8652 54.485 44.8652 58.0713C44.8652 61.6576 47.7704 64.5648 51.3542 64.5648Z" fill="#C8CCD3"/>
<path d="M51.3543 60.2009C52.5305 60.2009 53.484 59.2467 53.484 58.0697C53.484 56.8926 52.5305 55.9385 51.3543 55.9385C50.1781 55.9385 49.2246 56.8926 49.2246 58.0697C49.2246 59.2467 50.1781 60.2009 51.3543 60.2009Z" fill="#444248"/>
<path opacity="0.28" d="M42.5726 60.2924C42.8555 55.6521 46.6972 51.9707 51.4059 51.9707C56.1162 51.9707 59.9546 55.6521 60.2392 60.2924H61.2092C61.3706 59.5731 61.482 58.8372 61.482 58.0713C61.482 52.4736 56.9481 47.9348 51.3543 47.9348C45.7605 47.9348 41.2266 52.4736 41.2266 58.0713C41.2266 58.8355 41.3181 59.5765 41.4778 60.2924H42.5726Z" fill="#403F45"/>
<path d="M11.3915 59.7396H13.0503C13.0537 59.5348 13.062 57.1089 13.0736 56.9724C13.4313 52.5985 17.3713 48.2412 23.2196 48.2412C28.6287 48.2412 33.1128 52.735 33.379 57.1739C33.3823 57.2321 33.3856 58.9521 33.3873 59.7396H35.0628C35.0661 58.9521 35.0694 57.2288 35.0728 57.1739C35.4172 50.3357 29.9781 44.683 23.2196 44.683C16.6658 44.683 11.3516 49.9994 11.3516 56.5595C11.3516 56.716 11.3582 56.8708 11.3682 57.024C11.3732 57.1439 11.3832 59.5481 11.3915 59.7396Z" fill="#8A92A1"/>
<path d="M23.2176 68.2062C28.811 68.2062 33.3453 63.6686 33.3453 58.0713C33.3453 52.474 28.811 47.9365 23.2176 47.9365C17.6242 47.9365 13.0898 52.474 13.0898 58.0713C13.0898 63.6686 17.6242 68.2062 23.2176 68.2062Z" fill="#444248"/>
<path d="M23.2174 64.5648C26.8012 64.5648 29.7064 61.6576 29.7064 58.0713C29.7064 54.485 26.8012 51.5778 23.2174 51.5778C19.6337 51.5778 16.7285 54.485 16.7285 58.0713C16.7285 61.6576 19.6337 64.5648 23.2174 64.5648Z" fill="#C8CCD3"/>
<path d="M23.2176 60.2009C24.3938 60.2009 25.3473 59.2467 25.3473 58.0697C25.3473 56.8926 24.3938 55.9385 23.2176 55.9385C22.0414 55.9385 21.0879 56.8926 21.0879 58.0697C21.0879 59.2467 22.0414 60.2009 23.2176 60.2009Z" fill="#444248"/>
<path opacity="0.28" d="M14.4359 60.2924C14.7187 55.6521 18.5605 51.9707 23.2692 51.9707C27.9778 51.9707 31.8179 55.6521 32.1024 60.2924H33.0724C33.2338 59.5731 33.3453 58.8372 33.3453 58.0713C33.3453 52.4736 28.8097 47.9348 23.2176 47.9348C17.6254 47.9348 13.0898 52.4736 13.0898 58.0713C13.0898 58.8355 13.1797 59.5765 13.3411 60.2924H14.4359Z" fill="#403F45"/>
<path d="M136.913 59.7396H138.572C138.575 59.5348 138.583 57.1089 138.595 56.9724C138.951 52.5985 142.891 48.2412 148.741 48.2412C154.15 48.2412 158.634 52.735 158.9 57.1739C158.904 57.2321 158.905 58.9521 158.909 59.7396H160.584C160.588 58.9521 160.591 57.2288 160.594 57.1739C160.939 50.3357 155.5 44.683 148.741 44.683C142.187 44.683 136.873 49.9994 136.873 56.5595C136.873 56.716 136.88 56.8708 136.89 57.024C136.895 57.1439 136.903 59.5481 136.913 59.7396Z" fill="#8A92A1"/>
<path d="M148.738 68.2062C154.331 68.2062 158.866 63.6686 158.866 58.0713C158.866 52.474 154.331 47.9365 148.738 47.9365C143.145 47.9365 138.61 52.474 138.61 58.0713C138.61 63.6686 143.145 68.2062 148.738 68.2062Z" fill="#444248"/>
<path d="M148.74 64.5648C152.324 64.5648 155.229 61.6576 155.229 58.0713C155.229 54.485 152.324 51.5778 148.74 51.5778C145.156 51.5778 142.251 54.485 142.251 58.0713C142.251 61.6576 145.156 64.5648 148.74 64.5648Z" fill="#C8CCD3"/>
<path d="M148.739 60.2009C149.915 60.2009 150.869 59.2467 150.869 58.0697C150.869 56.8926 149.915 55.9385 148.739 55.9385C147.563 55.9385 146.609 56.8926 146.609 58.0697C146.609 59.2467 147.563 60.2009 148.739 60.2009Z" fill="#444248"/>
<path opacity="0.28" d="M139.957 60.2924C140.24 55.6521 144.082 51.9707 148.791 51.9707C153.501 51.9707 157.339 55.6521 157.624 60.2924H158.594C158.755 59.5731 158.867 58.8372 158.867 58.0713C158.867 52.4736 154.333 47.9348 148.739 47.9348C143.145 47.9348 138.611 52.4736 138.611 58.0713C138.611 58.8355 138.703 59.5765 138.863 60.2924H139.957Z" fill="#403F45"/>
<path d="M149.661 43.5275C148.971 43.4226 148.268 43.3494 147.546 43.3494C146.874 43.3494 146.219 43.4143 145.571 43.5092C146.197 43.4676 146.851 43.4409 147.546 43.4409C148.293 43.4409 148.992 43.4742 149.661 43.5275Z" fill="#444248"/>
</svg>
