<svg width="67" height="39" viewBox="0 0 67 39" fill="none" xmlns="http://www.w3.org/2000/svg">
<path d="M38.5877 24.9543H25.1562V34.8211H38.5877V24.9543Z" fill="#666666"/>
<path d="M48.1096 18.2193H47.3789V20.2488H48.1096V18.2193Z" fill="#4D4D4D"/>
<path d="M47.9693 19.7878H40.8531C40.6839 19.7878 40.5459 19.9247 40.5459 20.0946V20.7861H47.9693V19.7878Z" fill="#4D4D4D"/>
<path d="M47.6405 19.5313H41.1152V19.8069H47.6405V19.5313Z" fill="#333333"/>
<path d="M46.9833 18.3935L43.2026 17.877C42.5848 17.7929 41.9548 17.8787 41.3813 18.1248L40.7556 18.3935C40.5656 18.4749 40.4424 18.6621 40.4424 18.8692V19.0148C40.4424 19.2999 40.6749 19.5313 40.9613 19.5313H47.969V19.5217C47.969 18.9524 47.5482 18.4706 46.9833 18.3935Z" fill="#666666"/>
<path d="M48.375 18.5304C48.4479 18.5313 48.5208 18.533 48.5945 18.5339C48.6344 16.5979 49.0588 14.688 49.8432 12.9167C49.7764 12.8881 49.7096 12.8578 49.6427 12.8283C48.8462 14.6256 48.4149 16.5641 48.375 18.5304Z" fill="#333333"/>
<path d="M48.3753 18.5304C48.1757 18.5252 47.9744 18.5217 47.7748 18.5165C47.4763 18.5131 47.2221 18.2765 47.1796 17.9489C47.1501 17.7167 47.1249 17.4844 47.105 17.2487C47.0555 16.6733 47.1206 16.0823 47.2924 15.526C47.5328 14.7495 47.8304 13.9974 48.18 13.2746C48.3866 12.8465 48.8126 12.5909 49.243 12.6212C49.2664 12.623 49.2907 12.6247 49.315 12.6264C49.5137 12.6403 49.6317 12.8509 49.5528 13.0363C48.8135 14.7747 48.4135 16.6404 48.3753 18.5304Z" fill="#666666"/>
<path d="M66.8314 26.8382H39.3984V21.9542C39.3984 21.1249 40.0501 20.4343 40.8805 20.384L63.8482 18.9819C64.4452 18.9429 64.9832 19.3406 65.1281 19.9161L65.8648 22.9083L66.8314 26.8382Z" fill="#E9C330"/>
<path d="M37.2315 15.6825L36.749 15.1998L36.1196 15.8274L36.602 16.31L37.2315 15.6825Z" fill="#666666"/>
<path d="M34.0528 14.792L34.8919 15.63C35.062 15.8007 35.3396 15.8007 35.5097 15.63L35.5158 15.623C35.6858 15.4541 35.9635 15.4541 36.1336 15.623L36.7557 16.2444C36.931 16.4194 36.9822 16.6829 36.8842 16.9108L35.7145 19.6353C35.5409 20.0391 35.2745 20.397 34.9379 20.6795L33.1261 22.1969L34.2836 22.7913C34.681 22.995 34.9986 23.3269 35.1843 23.7333L35.5288 24.4898C35.659 24.774 35.9436 24.956 36.2559 24.956H39.3988L39.3659 26.2706H33.7274L30.8535 24.7368L34.0528 14.792Z" fill="#333333"/>
<path d="M49.8592 5.02572C50.0102 5.02572 50.1377 5.13923 50.156 5.28915L51.9816 20.6544C52.1413 21.9924 51.2475 23.229 49.9269 23.5011L39.3997 25.6684H33.8983C33.0887 24.982 32.1629 24.4725 31.1615 24.1588L36.4329 7.81175C36.9675 6.15139 38.5146 5.02572 40.2622 5.02572H49.8592ZM49.8592 3.85757H40.2613C38.0061 3.85757 36.0095 5.31081 35.3179 7.45385L29.6543 25.0202C31.119 25.2125 32.4336 25.8677 33.4497 26.8382H51.789C52.9092 26.8382 53.7778 25.8607 53.6468 24.7498L51.3178 5.15223C51.2311 4.41304 50.6037 3.85757 49.8592 3.85757Z" fill="#666666"/>
<path d="M33.4502 26.8374C33.9309 27.2958 34.344 27.8244 34.6737 28.4067C34.6772 28.4128 34.6806 28.418 34.6841 28.4241C34.7847 28.6043 34.8776 28.7906 34.9626 28.9813C34.9705 28.9986 34.98 29.0151 34.987 29.0341C35.0642 29.2109 35.1318 29.3929 35.1934 29.5775C35.2047 29.6095 35.2178 29.6416 35.229 29.6737C35.2837 29.8461 35.3279 30.0229 35.3687 30.2005C35.38 30.2473 35.3948 30.2924 35.4052 30.3401C35.4408 30.5125 35.465 30.6884 35.4885 30.8661C35.4954 30.9207 35.5067 30.9727 35.5128 31.0272C35.5362 31.2595 35.5492 31.4943 35.5492 31.7318V34.822H64.8921C65.5784 34.822 66.178 34.3428 66.316 33.672C66.7577 31.503 66.8288 29.4475 66.8288 26.8382H33.4502V26.8374Z" fill="#F4D81C"/>
<path d="M37.6793 15.1347L37.2842 14.7401L36.8105 15.2131L37.2056 15.6077L37.6793 15.1347Z" fill="#666666"/>
<path d="M37.2244 15.9445L36.4782 15.1984C36.4148 15.136 36.4148 15.0329 36.4782 14.9688L36.637 14.8093C36.7003 14.7461 36.8036 14.7461 36.8678 14.8093L37.6149 15.5546C37.6783 15.6187 37.6783 15.7209 37.6149 15.7851L37.4553 15.9445C37.391 16.0078 37.2878 16.0078 37.2244 15.9445Z" fill="#333333"/>
<path d="M36.0482 12.6784L36.0456 12.681C35.9796 12.7469 35.9796 12.8552 36.0456 12.921L36.3475 13.2226L36.6859 14.37L38.0144 15.6967L39.1208 15.9922L39.5026 16.3735C39.5694 16.4393 39.677 16.4393 39.7438 16.3735L39.7464 16.3709C39.8124 16.305 39.8124 16.1976 39.7464 16.1308L36.2894 12.6784C36.2234 12.6117 36.1159 12.6117 36.0482 12.6784Z" fill="#333333"/>
<path d="M58.9503 38.5838C62.4583 38.5838 65.302 35.7438 65.302 32.2404C65.302 28.7371 62.4583 25.8971 58.9503 25.8971C55.4424 25.8971 52.5986 28.7371 52.5986 32.2404C52.5986 35.7438 55.4424 38.5838 58.9503 38.5838Z" fill="#333333"/>
<path d="M58.9505 35.8454C60.9441 35.8454 62.5603 34.2314 62.5603 32.2404C62.5603 30.2495 60.9441 28.6355 58.9505 28.6355C56.957 28.6355 55.3408 30.2495 55.3408 32.2404C55.3408 34.2314 56.957 35.8454 58.9505 35.8454Z" fill="#B3B3B3"/>
<path d="M58.9506 35.036C60.4966 35.036 61.7499 33.7844 61.7499 32.2404C61.7499 30.6965 60.4966 29.4449 58.9506 29.4449C57.4046 29.4449 56.1514 30.6965 56.1514 32.2404C56.1514 33.7844 57.4046 35.036 58.9506 35.036Z" fill="#CCCCCC"/>
<path d="M58.9507 33.4805C59.6365 33.4805 60.1924 32.9253 60.1924 32.2404C60.1924 31.5556 59.6365 31.0004 58.9507 31.0004C58.2649 31.0004 57.709 31.5556 57.709 32.2404C57.709 32.9253 58.2649 33.4805 58.9507 33.4805Z" fill="#999999"/>
<path d="M57.924 31.0966C58.121 31.0966 58.2806 30.9371 58.2806 30.7404C58.2806 30.5437 58.121 30.3842 57.924 30.3842C57.7271 30.3842 57.5674 30.5437 57.5674 30.7404C57.5674 30.9371 57.7271 31.0966 57.924 31.0966Z" fill="#666666"/>
<path d="M59.7385 30.9588C59.9354 30.9588 60.0951 30.7993 60.0951 30.6026C60.0951 30.4059 59.9354 30.2465 59.7385 30.2465C59.5415 30.2465 59.3818 30.4059 59.3818 30.6026C59.3818 30.7993 59.5415 30.9588 59.7385 30.9588Z" fill="#666666"/>
<path d="M60.7639 32.458C60.9604 32.458 61.1197 32.2989 61.1197 32.1027C61.1197 31.9065 60.9604 31.7474 60.7639 31.7474C60.5675 31.7474 60.4082 31.9065 60.4082 32.1027C60.4082 32.2989 60.5675 32.458 60.7639 32.458Z" fill="#666666"/>
<path d="M59.9768 34.0966C60.1737 34.0966 60.3334 33.9372 60.3334 33.7405C60.3334 33.5438 60.1737 33.3843 59.9768 33.3843C59.7798 33.3843 59.6201 33.5438 59.6201 33.7405C59.6201 33.9372 59.7798 34.0966 59.9768 34.0966Z" fill="#666666"/>
<path d="M58.1623 34.2336C58.3593 34.2336 58.519 34.0741 58.519 33.8774C58.519 33.6807 58.3593 33.5212 58.1623 33.5212C57.9654 33.5212 57.8057 33.6807 57.8057 33.8774C57.8057 34.0741 57.9654 34.2336 58.1623 34.2336Z" fill="#666666"/>
<path d="M57.137 32.7326C57.3335 32.7326 57.4928 32.5736 57.4928 32.3774C57.4928 32.1811 57.3335 32.0221 57.137 32.0221C56.9405 32.0221 56.7812 32.1811 56.7812 32.3774C56.7812 32.5736 56.9405 32.7326 57.137 32.7326Z" fill="#666666"/>
<path d="M25.908 0.870483H22.9551V32.5091H25.908V0.870483Z" fill="#666666"/>
<path d="M29.648 2.29947H27.549H25.9072V3.64959V32.5091H27.549V3.64959H29.648V2.29947Z" fill="#333333"/>
<path d="M21.0039 24.9543V26.8374H21.9792V32.5836H23.5385V26.8374H23.7337V24.9543H21.0039Z" fill="#666666"/>
<path d="M19.5741 15.9922V31.73H2.6084V31.9822C2.6084 32.1962 2.77153 32.3765 2.98586 32.3973L13.2033 33.3817H19.5741V34.101H21.1993V15.9922H19.5741Z" fill="#333333"/>
<path d="M28.0461 38.5838C31.554 38.5838 34.3978 35.7438 34.3978 32.2404C34.3978 28.7371 31.554 25.8971 28.0461 25.8971C24.5381 25.8971 21.6943 28.7371 21.6943 32.2404C21.6943 35.7438 24.5381 38.5838 28.0461 38.5838Z" fill="#333333"/>
<path d="M28.0461 35.8463C30.0402 35.8463 31.6567 34.2319 31.6567 32.2405C31.6567 30.249 30.0402 28.6346 28.0461 28.6346C26.052 28.6346 24.4355 30.249 24.4355 32.2405C24.4355 34.2319 26.052 35.8463 28.0461 35.8463Z" fill="#B3B3B3"/>
<path d="M28.0465 35.0351C29.592 35.0351 30.8449 33.7839 30.8449 32.2404C30.8449 30.697 29.592 29.4457 28.0465 29.4457C26.5009 29.4457 25.248 30.697 25.248 32.2404C25.248 33.7839 26.5009 35.0351 28.0465 35.0351Z" fill="#CCCCCC"/>
<path d="M28.0465 33.4797C28.7318 33.4797 29.2874 32.9248 29.2874 32.2405C29.2874 31.5561 28.7318 31.0013 28.0465 31.0013C27.3612 31.0013 26.8057 31.5561 26.8057 32.2405C26.8057 32.9248 27.3612 33.4797 28.0465 33.4797Z" fill="#999999"/>
<path d="M27.0208 31.0957C27.2173 31.0957 27.3766 30.9366 27.3766 30.7404C27.3766 30.5442 27.2173 30.3851 27.0208 30.3851C26.8243 30.3851 26.665 30.5442 26.665 30.7404C26.665 30.9366 26.8243 31.0957 27.0208 31.0957Z" fill="#666666"/>
<path d="M28.8351 30.9588C29.0321 30.9588 29.1918 30.7993 29.1918 30.6026C29.1918 30.4059 29.0321 30.2465 28.8351 30.2465C28.6382 30.2465 28.4785 30.4059 28.4785 30.6026C28.4785 30.7993 28.6382 30.9588 28.8351 30.9588Z" fill="#666666"/>
<path d="M29.8607 32.458C30.0571 32.458 30.2164 32.2989 30.2164 32.1027C30.2164 31.9065 30.0571 31.7474 29.8607 31.7474C29.6642 31.7474 29.5049 31.9065 29.5049 32.1027C29.5049 32.2989 29.6642 32.458 29.8607 32.458Z" fill="#666666"/>
<path d="M29.0715 34.0966C29.2685 34.0966 29.4281 33.9372 29.4281 33.7405C29.4281 33.5438 29.2685 33.3843 29.0715 33.3843C28.8745 33.3843 28.7148 33.5438 28.7148 33.7405C28.7148 33.9372 28.8745 34.0966 29.0715 34.0966Z" fill="#666666"/>
<path d="M27.258 34.2336C27.455 34.2336 27.6147 34.0741 27.6147 33.8774C27.6147 33.6807 27.455 33.5212 27.258 33.5212C27.061 33.5212 26.9014 33.6807 26.9014 33.8774C26.9014 34.0741 27.061 34.2336 27.258 34.2336Z" fill="#666666"/>
<path d="M26.2317 32.7326C26.4282 32.7326 26.5875 32.5736 26.5875 32.3774C26.5875 32.1811 26.4282 32.0221 26.2317 32.0221C26.0352 32.0221 25.876 32.1811 25.876 32.3774C25.876 32.5736 26.0352 32.7326 26.2317 32.7326Z" fill="#666666"/>
<path d="M35.5499 36.66C35.228 36.66 34.9668 36.3991 34.9668 36.0776V31.73C34.9668 28.3149 32.1849 25.5366 28.7652 25.5366H25.1563C24.8344 25.5366 24.5732 25.2758 24.5732 24.9543C24.5732 24.6328 24.8344 24.3719 25.1563 24.3719H28.7652C32.8279 24.3719 36.133 27.6736 36.133 31.73V36.0776C36.133 36.3991 35.8718 36.66 35.5499 36.66Z" fill="#E9C330"/>
<path d="M66.8311 26.8382H66.6679C66.4666 26.8382 66.274 26.7524 66.1404 26.6025L63.4877 23.6328C63.2369 23.3529 63.4356 22.9092 63.8122 22.9092H65.8627L66.8311 26.8382Z" fill="#333333"/>
<path d="M19.5972 12.629H0.308594V31.8921H19.5972V12.629Z" fill="#DEAF7B"/>
<path d="M15.8894 29.8574H14.0498V30.1823H15.8894V29.8574Z" fill="#4D4D4D"/>
<path d="M14.4108 27.6823L14.0498 28.2767H14.2598V29.717H14.5618V28.2767H14.7718L14.4108 27.6823Z" fill="#4D4D4D"/>
<path d="M15.529 27.6823L15.168 28.2767H15.3771V29.717H15.6799V28.2767H15.8891L15.529 27.6823Z" fill="#4D4D4D"/>
<path d="M13.3708 28.6806C13.3526 28.9977 13.0897 29.2456 12.7721 29.2456H12.766H12.7608C12.4432 29.2456 12.1803 28.9977 12.1621 28.6806L12.0996 27.5904H13.4341L13.3708 28.6806Z" fill="#4D4D4D"/>
<path d="M12.837 29.1138H12.6738V30.1814H12.837V29.1138Z" fill="#4D4D4D"/>
<path d="M13.168 30.2127L12.7662 30.0784L12.3731 30.2118C12.3219 30.23 12.2881 30.2768 12.2881 30.3314V30.3323H13.253V30.3314C13.2539 30.2768 13.2192 30.2292 13.168 30.2127Z" fill="#4D4D4D"/>
<path d="M17.3714 27.4336C16.8264 27.4336 16.3848 27.8747 16.3848 28.4189H18.3571C18.358 27.8747 17.9163 27.4336 17.3714 27.4336Z" fill="#4D4D4D"/>
<path d="M17.1087 30.2023C16.9821 30.2023 16.8675 30.1373 16.8051 30.0315L16.7278 29.8998C16.7053 29.8591 16.7183 29.8088 16.7582 29.7846C16.7981 29.7603 16.8493 29.7742 16.8736 29.8149L16.95 29.9466C16.9821 30.0012 17.0402 30.035 17.1044 30.035C17.2068 30.035 17.2866 29.9553 17.2866 29.8574V28.2308C17.2866 28.184 17.3239 28.1459 17.3708 28.1459C17.4177 28.1459 17.455 28.184 17.455 28.2308V29.8574C17.455 30.048 17.2996 30.2023 17.1087 30.2023Z" fill="#4D4D4D"/>
<path d="M11.1663 17.8345C10.5728 18.306 10.0339 18.3086 9.87164 17.8588C9.64689 17.2409 9.11151 17.8839 8.73926 17.6049V12.629H11.1663V17.8345Z" fill="#BA9368"/>
</svg>
