<svg width="230" height="62" viewBox="0 0 230 62" fill="none" xmlns="http://www.w3.org/2000/svg">
<path d="M227.797 52.0394H229.214V41.2697H221.6L227.797 52.0394Z" fill="#333333"/>
<path d="M229.093 41.2697H97.2891V47.7776H229.093V41.2697Z" fill="#333333"/>
<path d="M33.2878 42.6518H10.7461V54.4762H33.2878V42.6518Z" fill="#333333"/>
<path d="M21.7121 61.265C26.2691 61.265 29.9633 57.5757 29.9633 53.0247C29.9633 48.4738 26.2691 44.7845 21.7121 44.7845C17.1551 44.7845 13.4609 48.4738 13.4609 53.0247C13.4609 57.5757 17.1551 61.265 21.7121 61.265Z" fill="#4D4D4D"/>
<path d="M21.7122 57.719C24.3081 57.719 26.4126 55.6173 26.4126 53.0247C26.4126 50.4322 24.3081 48.3305 21.7122 48.3305C19.1162 48.3305 17.0117 50.4322 17.0117 53.0247C17.0117 55.6173 19.1162 57.719 21.7122 57.719Z" fill="#E6E6E6"/>
<path d="M21.7117 56.3073C23.5271 56.3073 24.9987 54.8377 24.9987 53.0247C24.9987 51.2118 23.5271 49.7422 21.7117 49.7422C19.8964 49.7422 18.4248 51.2118 18.4248 53.0247C18.4248 54.8377 19.8964 56.3073 21.7117 56.3073Z" fill="#999999"/>
<path d="M21.7132 55.2224C22.9286 55.2224 23.9138 54.2384 23.9138 53.0247C23.9138 51.811 22.9286 50.8271 21.7132 50.8271C20.4979 50.8271 19.5127 51.811 19.5127 53.0247C19.5127 54.2384 20.4979 55.2224 21.7132 55.2224Z" fill="#E6E6E6"/>
<path d="M39.4464 39.7653V56.8498H33.0495C32.082 56.8498 31.3176 56.0326 31.3792 55.0672C31.4043 54.6686 31.4182 54.2891 31.4182 54.0014C31.4182 52.8505 31.216 50.7673 30.8447 49.7421C29.4988 46.0055 25.9177 43.3347 21.7145 43.3347C17.5078 43.3347 13.9267 46.0055 12.5809 49.7421C12.2095 50.7673 12.0073 51.8739 12.0073 53.0256C12.0073 53.7804 12.0984 54.5161 12.2607 55.2215H1.71699C0.914353 55.2215 0.262695 54.5716 0.262695 53.7691V47.1026C0.262695 46.0332 0.403266 44.9682 0.673127 43.9404C0.927369 42.9768 1.29875 42.0461 1.77773 41.1639L2.1847 40.423L2.54306 39.7662H39.4464V39.7653Z" fill="#236EA6"/>
<path d="M39.4464 39.7653V40.4221H2.18555L2.54392 39.7653H39.4464Z" fill="#CCCCCC"/>
<path d="M39.446 40.4221V41.6691H5.69421C5.28552 41.6691 4.98962 41.2783 5.10069 40.8866C5.10156 40.8814 5.10329 40.8762 5.10503 40.8701C5.17965 40.6041 5.42175 40.4213 5.69855 40.4213H39.446V40.4221Z" fill="#429DE0"/>
<path d="M39.4468 15.5801V39.7653H2.57557C2.01849 39.7653 1.56641 39.3138 1.56641 38.7566V36.572C1.56641 34.4723 1.674 32.3734 1.8892 30.285C2.12088 28.0388 2.47231 25.8031 2.95129 23.5942C3.10488 22.8914 3.30966 22.2042 3.55436 21.5274L5.30715 16.6633L5.69849 15.5792H39.4468V15.5801Z" fill="#236EA6"/>
<path d="M24.9979 15.5801V22.9642C24.9979 24.2796 23.9324 25.3429 22.6195 25.3429H12.2476C12.0984 25.3429 11.9517 25.3455 11.8051 25.3524C10.9608 25.3845 10.1495 25.5093 9.36767 25.7138C6.57881 26.4391 4.15787 28.1671 1.88965 30.2858C2.05885 28.6324 2.29661 26.9851 2.60031 25.3524C2.70791 24.7632 2.82505 24.1782 2.95174 23.5959C3.10532 22.8931 3.31011 22.2059 3.5548 21.5291L5.69894 15.5809H24.9979V15.5801Z" fill="#8AC8DB"/>
<path opacity="0.21" d="M15.8812 15.5801L11.8046 25.3516C10.9603 25.3836 10.149 25.5084 9.36719 25.7129L13.5973 15.5801H15.8812Z" fill="white"/>
<path d="M19.5125 25.342H19.0439V39.7653H19.5125V25.342Z" fill="#CCCCCC"/>
<path opacity="0.21" d="M18.0058 15.5801L13.9327 25.342H12.9678L17.0374 15.5801H18.0058Z" fill="white"/>
<path d="M11.8051 25.3516C10.9608 25.3836 10.1495 25.5084 9.36767 25.7129C6.57881 26.4382 4.15787 28.1662 1.88965 30.285C2.05885 28.6315 2.29661 26.9842 2.60031 25.3516H11.8051Z" fill="#4D4D4D"/>
<path d="M1.88849 30.4479C1.8451 30.4479 1.80171 30.4306 1.76961 30.3968C1.708 30.3309 1.71147 30.2278 1.77742 30.1663C4.45694 27.6627 6.85532 26.1982 9.32572 25.5552C10.1301 25.3446 10.9622 25.2207 11.7979 25.1887C11.9454 25.1817 12.0946 25.1783 12.2473 25.1783H22.6192C23.841 25.1783 24.8345 24.1852 24.8345 22.9624V15.5784C24.8345 15.4882 24.9074 15.4154 24.9976 15.4154C25.0879 15.4154 25.1608 15.4882 25.1608 15.5784V22.9624C25.1608 24.3637 24.0214 25.5041 22.6192 25.5041H12.2473C12.1007 25.5041 11.9558 25.5075 11.8126 25.5136C10.9987 25.5457 10.1908 25.6644 9.40816 25.8698C6.99155 26.4989 4.63829 27.9392 2.00042 30.4028C1.96832 30.4332 1.9284 30.4479 1.88849 30.4479Z" fill="#4D4D4D"/>
<path d="M39.4464 9.8763C39.4464 8.29393 38.1622 7.00967 36.5769 7.00967H12.6451C8.29002 7.00967 7.88826 11.3217 5.69727 15.5801H39.4455V9.8763H39.4464Z" fill="#236EA6"/>
<path d="M39.4463 15.5801V16.6642H33.8156V39.7653H31.8606V16.6642H5.30664L5.69798 15.5801H39.4463Z" fill="#CCCCCC"/>
<path d="M36.6721 8.98978H11.8969C11.5854 8.98978 11.332 8.73761 11.332 8.42651V8.41438C11.332 8.10328 11.5854 7.8511 11.8969 7.8511H36.673C36.9845 7.8511 37.237 8.10328 37.237 8.41438V8.42651C37.237 8.73761 36.9845 8.98978 36.6721 8.98978Z" fill="#429DE0"/>
<path d="M11.8052 15.2508C11.8052 15.0731 11.6603 14.9293 11.4824 14.9293H5.39707H5.20877C4.41568 14.9293 3.70154 15.4102 3.40478 16.1442L2.36352 18.7223C2.30278 18.873 2.41384 19.0377 2.57698 19.0377H2.81994C3.37441 19.0377 3.87335 18.7015 4.08074 18.1876L5.13415 15.5801H11.4824C11.6611 15.5801 11.8052 15.4353 11.8052 15.2577V15.2508Z" fill="#4D4D4D"/>
<path d="M5.53443 26.2745H4.5513C4.25454 26.2745 4.05583 26.0336 4.1079 25.7363L4.50358 23.472C4.55564 23.1739 4.83852 22.9338 5.13528 22.9338H6.1184L5.53443 26.2745Z" fill="#333333"/>
<path d="M12.58 49.7421C12.2086 50.7673 12.0064 51.8739 12.0064 53.0256C12.0064 53.7804 12.0975 54.5161 12.2598 55.2215H1.71699C0.914353 55.2215 0.262695 54.5715 0.262695 53.7691V49.7421H12.58Z" fill="#666666"/>
<path d="M39.4464 49.7421V56.8498H33.0496C32.0821 56.8498 31.3176 56.0326 31.3792 55.0672C31.4044 54.6686 31.4183 54.289 31.4183 54.0013C31.4183 52.8505 31.2161 50.7673 30.8447 49.7421H39.4464Z" fill="#666666"/>
<path d="M85.544 45.3556H39.4463V56.8498H85.544V45.3556Z" fill="#236EA6"/>
<path d="M85.544 49.7421H39.4463V56.8498H85.544V49.7421Z" fill="#666666"/>
<path d="M83.8273 61.265C88.3843 61.265 92.0785 57.5757 92.0785 53.0247C92.0785 48.4738 88.3843 44.7845 83.8273 44.7845C79.2703 44.7845 75.5762 48.4738 75.5762 53.0247C75.5762 57.5757 79.2703 61.265 83.8273 61.265Z" fill="#4D4D4D"/>
<path d="M83.8274 57.719C86.4234 57.719 88.5278 55.6173 88.5278 53.0247C88.5278 50.4322 86.4234 48.3305 83.8274 48.3305C81.2314 48.3305 79.127 50.4322 79.127 53.0247C79.127 55.6173 81.2314 57.719 83.8274 57.719Z" fill="#E6E6E6"/>
<path d="M83.827 56.3073C85.6423 56.3073 87.1139 54.8377 87.1139 53.0247C87.1139 51.2118 85.6423 49.7422 83.827 49.7422C82.0117 49.7422 80.54 51.2118 80.54 53.0247C80.54 54.8377 82.0117 56.3073 83.827 56.3073Z" fill="#999999"/>
<path d="M83.8275 55.2224C85.0428 55.2224 86.028 54.2384 86.028 53.0247C86.028 51.811 85.0428 50.8271 83.8275 50.8271C82.6122 50.8271 81.627 51.811 81.627 53.0247C81.627 54.2384 82.6122 55.2224 83.8275 55.2224Z" fill="#E6E6E6"/>
<path d="M159.105 61.265C163.662 61.265 167.356 57.5757 167.356 53.0247C167.356 48.4738 163.662 44.7845 159.105 44.7845C154.548 44.7845 150.854 48.4738 150.854 53.0247C150.854 57.5757 154.548 61.265 159.105 61.265Z" fill="#4D4D4D"/>
<path d="M159.105 57.719C161.701 57.719 163.805 55.6173 163.805 53.0247C163.805 50.4322 161.701 48.3305 159.105 48.3305C156.509 48.3305 154.404 50.4322 154.404 53.0247C154.404 55.6173 156.509 57.719 159.105 57.719Z" fill="#E6E6E6"/>
<path d="M159.104 56.3073C160.92 56.3073 162.391 54.8377 162.391 53.0247C162.391 51.2118 160.92 49.7422 159.104 49.7422C157.289 49.7422 155.817 51.2118 155.817 53.0247C155.817 54.8377 157.289 56.3073 159.104 56.3073Z" fill="#999999"/>
<path d="M159.105 55.2224C160.32 55.2224 161.305 54.2384 161.305 53.0247C161.305 51.811 160.32 50.8271 159.105 50.8271C157.89 50.8271 156.904 51.811 156.904 53.0247C156.904 54.2384 157.89 55.2224 159.105 55.2224Z" fill="#E6E6E6"/>
<path d="M176.6 61.265C181.157 61.265 184.851 57.5757 184.851 53.0247C184.851 48.4738 181.157 44.7845 176.6 44.7845C172.043 44.7845 168.349 48.4738 168.349 53.0247C168.349 57.5757 172.043 61.265 176.6 61.265Z" fill="#4D4D4D"/>
<path d="M176.6 57.719C179.196 57.719 181.3 55.6173 181.3 53.0247C181.3 50.4322 179.196 48.3305 176.6 48.3305C174.004 48.3305 171.899 50.4322 171.899 53.0247C171.899 55.6173 174.004 57.719 176.6 57.719Z" fill="#E6E6E6"/>
<path d="M176.599 56.3073C178.415 56.3073 179.886 54.8377 179.886 53.0247C179.886 51.2118 178.415 49.7422 176.599 49.7422C174.784 49.7422 173.312 51.2118 173.312 53.0247C173.312 54.8377 174.784 56.3073 176.599 56.3073Z" fill="#999999"/>
<path d="M176.6 55.2224C177.815 55.2224 178.801 54.2384 178.801 53.0247C178.801 51.811 177.815 50.8271 176.6 50.8271C175.385 50.8271 174.399 51.811 174.399 53.0247C174.399 54.2384 175.385 55.2224 176.6 55.2224Z" fill="#E6E6E6"/>
<path d="M194.097 61.265C198.654 61.265 202.348 57.5757 202.348 53.0247C202.348 48.4738 198.654 44.7845 194.097 44.7845C189.54 44.7845 185.846 48.4738 185.846 53.0247C185.846 57.5757 189.54 61.265 194.097 61.265Z" fill="#4D4D4D"/>
<path d="M194.096 57.719C196.692 57.719 198.796 55.6173 198.796 53.0247C198.796 50.4322 196.692 48.3305 194.096 48.3305C191.5 48.3305 189.396 50.4322 189.396 53.0247C189.396 55.6173 191.5 57.719 194.096 57.719Z" fill="#E6E6E6"/>
<path d="M194.096 56.3073C195.912 56.3073 197.383 54.8377 197.383 53.0247C197.383 51.2118 195.912 49.7422 194.096 49.7422C192.281 49.7422 190.81 51.2118 190.81 53.0247C190.81 54.8377 192.281 56.3073 194.096 56.3073Z" fill="#999999"/>
<path d="M194.097 55.2224C195.312 55.2224 196.298 54.2384 196.298 53.0247C196.298 51.811 195.312 50.8271 194.097 50.8271C192.882 50.8271 191.896 51.811 191.896 53.0247C191.896 54.2384 192.882 55.2224 194.097 55.2224Z" fill="#E6E6E6"/>
<path d="M68.9522 41.2697H51.1396V45.3555H68.9522V41.2697Z" fill="#333333"/>
<path d="M229.214 0.436707H46.4961V43.222H229.214V0.436707Z" fill="#EB7747"/>
<path d="M229.214 34.7608H46.4961V43.222H229.214V34.7608Z" fill="#74787A"/>
<path d="M95.0855 36.3891H95.0621C94.4234 36.3891 93.9062 36.9056 93.9062 37.5434V43.222H96.2413V37.5434C96.2413 36.9047 95.7241 36.3891 95.0855 36.3891Z" fill="#CCCCCC"/>
<path d="M141.818 36.3891H141.794C141.156 36.3891 140.639 36.9056 140.639 37.5434V43.222H142.974V37.5434C142.974 36.9047 142.457 36.3891 141.818 36.3891Z" fill="#CCCCCC"/>
<path d="M188.55 36.3891H188.527C187.888 36.3891 187.37 36.9056 187.37 37.5434V43.222H189.705V37.5434C189.706 36.9047 189.189 36.3891 188.55 36.3891Z" fill="#CCCCCC"/>
</svg>
