<svg width="99" height="63" viewBox="0 0 99 63" fill="none" xmlns="http://www.w3.org/2000/svg">
<path d="M47.766 0.289001H41.875V12.073H47.766V0.289001Z" fill="#D57D42"/>
<path d="M45.9341 0.289001H44.0801V3.824H45.9341V0.289001Z" fill="#E6D5C6"/>
<path d="M58.6346 0.289001H47.7656V12.073H58.6346V0.289001Z" fill="#F8A35A"/>
<path opacity="0.5" d="M58.2094 11.612V0.75H48.1943L58.2094 11.612Z" fill="#FCD5BF"/>
<path d="M45.7148 0.289001H43.9258V3.693H45.7148V0.289001Z" fill="#E6E7E8"/>
<path d="M52.5588 8.401H48.5488V8.96H52.5588V8.401Z" fill="#703E16"/>
<path d="M51.2638 9.46301H48.5488V10.022H51.2638V9.46301Z" fill="#703E16"/>
<path d="M49.6426 10.357H48.6836V11.222H49.6426V10.357Z" stroke="#703E16" stroke-width="0.2619" stroke-miterlimit="10" stroke-linecap="round" stroke-linejoin="round"/>
<path d="M51.1201 10.357H50.1602V11.222H51.1201V10.357Z" stroke="#703E16" stroke-width="0.2619" stroke-miterlimit="10" stroke-linecap="round" stroke-linejoin="round"/>
<path d="M64.5258 23.858H58.6348V35.641H64.5258V23.858Z" fill="#D57D42"/>
<path d="M62.6929 23.858H60.8389V27.393H62.6929V23.858Z" fill="#E6D5C6"/>
<path d="M75.3944 23.858H64.5254V35.641H75.3944V23.858Z" fill="#F8A35A"/>
<path opacity="0.5" d="M74.9691 35.18V24.32H64.9531L74.9691 35.18Z" fill="#FCD5BF"/>
<path d="M62.4745 23.858H60.6855V27.262H62.4745V23.858Z" fill="#E6E7E8"/>
<path d="M69.3196 31.97H65.3096V32.529H69.3196V31.97Z" fill="#703E16"/>
<path d="M68.0246 33.033H65.3096V33.591H68.0246V33.033Z" fill="#703E16"/>
<path d="M66.4024 33.926H65.4434V34.791H66.4024V33.926Z" stroke="#703E16" stroke-width="0.2619" stroke-miterlimit="10" stroke-linecap="round" stroke-linejoin="round"/>
<path d="M67.879 33.926H66.918V34.791H67.879V33.926Z" stroke="#703E16" stroke-width="0.2619" stroke-miterlimit="10" stroke-linecap="round" stroke-linejoin="round"/>
<path d="M47.766 23.858H41.875V35.641H47.766V23.858Z" fill="#D57D42"/>
<path d="M45.9341 23.858H44.0801V27.393H45.9341V23.858Z" fill="#E6D5C6"/>
<path d="M58.6346 23.858H47.7656V35.641H58.6346V23.858Z" fill="#F8A35A"/>
<path opacity="0.5" d="M58.2094 35.18V24.32H48.1943L58.2094 35.18Z" fill="#FCD5BF"/>
<path d="M45.7148 23.858H43.9258V27.262H45.7148V23.858Z" fill="#E6E7E8"/>
<path d="M52.5588 31.97H48.5488V32.529H52.5588V31.97Z" fill="#703E16"/>
<path d="M51.2638 33.033H48.5488V33.591H51.2638V33.033Z" fill="#703E16"/>
<path d="M49.6426 33.926H48.6836V34.791H49.6426V33.926Z" stroke="#703E16" stroke-width="0.2619" stroke-miterlimit="10" stroke-linecap="round" stroke-linejoin="round"/>
<path d="M51.1201 33.926H50.1602V34.791H51.1201V33.926Z" stroke="#703E16" stroke-width="0.2619" stroke-miterlimit="10" stroke-linecap="round" stroke-linejoin="round"/>
<path d="M64.5258 12.073H58.6348V23.858H64.5258V12.073Z" fill="#CA713A"/>
<path d="M62.6929 12.073H60.8389V15.608H62.6929V12.073Z" fill="#E6D5C6"/>
<path d="M75.3944 12.073H64.5254V23.858H75.3944V12.073Z" fill="#E7934D"/>
<path opacity="0.5" d="M74.9691 23.395V12.536H64.9531L74.9691 23.395Z" fill="#FCD5BF"/>
<path d="M62.4745 12.073H60.6855V15.477H62.4745V12.073Z" fill="#E6E7E8"/>
<path d="M69.3196 20.186H65.3096V20.745H69.3196V20.186Z" fill="#703E16"/>
<path d="M68.0246 21.249H65.3096V21.806H68.0246V21.249Z" fill="#703E16"/>
<path d="M66.4024 22.141H65.4434V23.006H66.4024V22.141Z" stroke="#703E16" stroke-width="0.2619" stroke-miterlimit="10" stroke-linecap="round" stroke-linejoin="round"/>
<path d="M67.879 22.141H66.918V23.006H67.879V22.141Z" stroke="#703E16" stroke-width="0.2619" stroke-miterlimit="10" stroke-linecap="round" stroke-linejoin="round"/>
<path d="M47.766 12.073H41.875V23.858H47.766V12.073Z" fill="#CA713A"/>
<path d="M45.9341 12.073H44.0801V15.608H45.9341V12.073Z" fill="#E6D5C6"/>
<path d="M58.6346 12.073H47.7656V23.858H58.6346V12.073Z" fill="#E7934D"/>
<path opacity="0.5" d="M58.2094 23.395V12.536H48.1943L58.2094 23.395Z" fill="#FCD5BF"/>
<path d="M45.7148 12.073H43.9258V15.477H45.7148V12.073Z" fill="#E6E7E8"/>
<path d="M52.5588 20.186H48.5488V20.745H52.5588V20.186Z" fill="#703E16"/>
<path d="M51.2638 21.249H48.5488V21.806H51.2638V21.249Z" fill="#703E16"/>
<path d="M49.6426 22.141H48.6836V23.006H49.6426V22.141Z" stroke="#703E16" stroke-width="0.2619" stroke-miterlimit="10" stroke-linecap="round" stroke-linejoin="round"/>
<path d="M51.1201 22.141H50.1602V23.006H51.1201V22.141Z" stroke="#703E16" stroke-width="0.2619" stroke-miterlimit="10" stroke-linecap="round" stroke-linejoin="round"/>
<path d="M64.5258 35.641H58.6348V47.426H64.5258V35.641Z" fill="#CA713A"/>
<path d="M62.6929 35.641H60.8389V39.177H62.6929V35.641Z" fill="#E6D5C6"/>
<path d="M75.3944 35.641H64.5254V47.426H75.3944V35.641Z" fill="#E7934D"/>
<path opacity="0.5" d="M74.9691 46.964V36.104H64.9531L74.9691 46.964Z" fill="#FCD5BF"/>
<path d="M62.4745 35.641H60.6855V39.046H62.4745V35.641Z" fill="#E6E7E8"/>
<path d="M69.3196 43.754H65.3096V44.313H69.3196V43.754Z" fill="#703E16"/>
<path d="M68.0246 44.817H65.3096V45.375H68.0246V44.817Z" fill="#703E16"/>
<path d="M66.4024 45.711H65.4434V46.574H66.4024V45.711Z" stroke="#703E16" stroke-width="0.2619" stroke-miterlimit="10" stroke-linecap="round" stroke-linejoin="round"/>
<path d="M67.879 45.711H66.918V46.574H67.879V45.711Z" stroke="#703E16" stroke-width="0.2619" stroke-miterlimit="10" stroke-linecap="round" stroke-linejoin="round"/>
<path d="M47.766 35.641H41.875V47.426H47.766V35.641Z" fill="#CA713A"/>
<path d="M45.9341 35.641H44.0801V39.177H45.9341V35.641Z" fill="#E6D5C6"/>
<path d="M58.6346 35.641H47.7656V47.426H58.6346V35.641Z" fill="#E7934D"/>
<path opacity="0.5" d="M58.2094 46.964V36.104H48.1943L58.2094 46.964Z" fill="#FCD5BF"/>
<path d="M45.7148 35.641H43.9258V39.046H45.7148V35.641Z" fill="#E6E7E8"/>
<path d="M52.5588 43.754H48.5488V44.313H52.5588V43.754Z" fill="#703E16"/>
<path d="M51.2638 44.817H48.5488V45.375H51.2638V44.817Z" fill="#703E16"/>
<path d="M49.6426 45.711H48.6836V46.574H49.6426V45.711Z" stroke="#703E16" stroke-width="0.2619" stroke-miterlimit="10" stroke-linecap="round" stroke-linejoin="round"/>
<path d="M51.1201 45.711H50.1602V46.574H51.1201V45.711Z" stroke="#703E16" stroke-width="0.2619" stroke-miterlimit="10" stroke-linecap="round" stroke-linejoin="round"/>
<path d="M82.1577 23.858H76.2646V35.641H82.1577V23.858Z" fill="#D57D42"/>
<path d="M80.3238 23.858H78.4688V27.393H80.3238V23.858Z" fill="#E6D5C6"/>
<path d="M93.0252 23.858H82.1572V35.641H93.0252V23.858Z" fill="#F8A35A"/>
<path opacity="0.5" d="M92.599 35.18V24.32H82.584L92.599 35.18Z" fill="#FCD5BF"/>
<path d="M80.1064 23.858H78.3154V27.262H80.1064V23.858Z" fill="#E6E7E8"/>
<path d="M86.9504 31.97H82.9404V32.529H86.9504V31.97Z" fill="#703E16"/>
<path d="M85.6554 33.033H82.9404V33.591H85.6554V33.033Z" fill="#703E16"/>
<path d="M84.0342 33.926H83.0732V34.791H84.0342V33.926Z" stroke="#703E16" stroke-width="0.2619" stroke-miterlimit="10" stroke-linecap="round" stroke-linejoin="round"/>
<path d="M85.5098 33.926H84.5498V34.791H85.5098V33.926Z" stroke="#703E16" stroke-width="0.2619" stroke-miterlimit="10" stroke-linecap="round" stroke-linejoin="round"/>
<path d="M82.1577 35.641H76.2646V47.426H82.1577V35.641Z" fill="#CA713A"/>
<path d="M80.3238 35.641H78.4688V39.177H80.3238V35.641Z" fill="#E6D5C6"/>
<path d="M93.0252 35.641H82.1572V47.426H93.0252V35.641Z" fill="#E7934D"/>
<path opacity="0.5" d="M92.599 46.964V36.104H82.584L92.599 46.964Z" fill="#FCD5BF"/>
<path d="M80.1064 35.641H78.3154V39.046H80.1064V35.641Z" fill="#E6E7E8"/>
<path d="M86.9504 43.754H82.9404V44.313H86.9504V43.754Z" fill="#703E16"/>
<path d="M85.6554 44.817H82.9404V45.375H85.6554V44.817Z" fill="#703E16"/>
<path d="M84.0342 45.711H83.0732V46.574H84.0342V45.711Z" stroke="#703E16" stroke-width="0.2619" stroke-miterlimit="10" stroke-linecap="round" stroke-linejoin="round"/>
<path d="M85.5098 45.711H84.5498V46.574H85.5098V45.711Z" stroke="#703E16" stroke-width="0.2619" stroke-miterlimit="10" stroke-linecap="round" stroke-linejoin="round"/>
<path d="M97.4277 47.426H41.0527V52.406H97.4277V47.426Z" fill="#A6A8AB"/>
<path d="M97.4277 39.561H41.0527V44.541H97.4277V39.561Z" fill="#DF8645"/>
<path d="M97.4277 31.972H41.0527V36.953H97.4277V31.972Z" fill="#DF8645"/>
<path d="M97.4277 24.384H41.0527V29.364H97.4277V24.384Z" fill="#DF8645"/>
<path d="M97.4277 16.795H41.0527V21.775H97.4277V16.795Z" fill="#DF8645"/>
<path d="M41.0535 14.51H38.9395V52.406H41.0535V14.51Z" fill="#A6A8AB"/>
<path d="M93.0251 14.51H90.9121V52.406H93.0251V14.51Z" fill="#A6A8AB"/>
<path d="M98.3408 52.467H87.7168V54.981H98.3408V52.467Z" fill="#3A3640"/>
<path d="M38.9392 26.836H36.3662V52.879H38.9392V26.836Z" fill="#040008"/>
<path d="M95.3145 52.467H34.3936V56.657H95.3145V52.467Z" fill="#3A3640"/>
<path d="M38.072 18.578V25.054C38.072 25.417 37.075 25.79 37.075 26.174V53.73C37.075 55.281 36.448 55.854 35.119 55.854C33.794 55.854 1.41504 56.062 1.41504 56.062C1.41504 56.062 1.41504 38.511 1.41504 38.171C1.41504 37.831 1.48803 36.71 2.48303 36.593C3.47703 36.475 8.16003 35.724 8.16003 35.724C8.16003 35.724 9.43502 23.435 9.71002 20.197C9.71002 20.168 9.71402 20.137 9.71402 20.113C9.93502 17.508 10.796 17.334 13.784 17.334H35.955C37.254 17.333 38.072 17.083 38.072 18.578Z" fill="#E2E3E4"/>
<path d="M17.5205 52.409V56.684H35.1205C36.4485 56.684 38.9395 55.276 38.9395 53.727V52.409H17.5205Z" fill="#2D2932"/>
<path d="M25.9692 55.881C25.9692 56.324 25.4762 56.684 24.8662 56.684H1.64423C1.03823 56.684 0.908203 56.325 0.908203 55.881V53.223C0.908203 52.78 1.03823 52.42 1.64423 52.42H24.8662C25.4752 52.42 25.9692 52.779 25.9692 53.223V55.881Z" fill="#2D2932"/>
<path d="M18.4893 56.638C18.4893 52.485 21.8552 49.118 26.0082 49.118C30.1612 49.118 33.5292 52.484 33.5292 56.638H18.4893Z" fill="#231F29"/>
<path d="M26.1038 62.982C29.6075 62.982 32.4478 60.1417 32.4478 56.638C32.4478 53.1343 29.6075 50.294 26.1038 50.294C22.6001 50.294 19.7598 53.1343 19.7598 56.638C19.7598 60.1417 22.6001 62.982 26.1038 62.982Z" fill="#0B0310"/>
<path d="M26.1038 60.565C28.2726 60.565 30.0308 58.8068 30.0308 56.638C30.0308 54.4692 28.2726 52.711 26.1038 52.711C23.9349 52.711 22.1768 54.4692 22.1768 56.638C22.1768 58.8068 23.9349 60.565 26.1038 60.565Z" fill="#D0D2D3"/>
<path d="M26.1034 57.423C26.5369 57.423 26.8884 57.0715 26.8884 56.638C26.8884 56.2045 26.5369 55.853 26.1034 55.853C25.6698 55.853 25.3184 56.2045 25.3184 56.638C25.3184 57.0715 25.6698 57.423 26.1034 57.423Z" fill="#A0A2A4"/>
<path d="M28.7347 53.727C29.2067 54.376 29.4877 55.171 29.4877 56.034C29.4877 58.204 27.7287 59.962 25.5607 59.962C24.5467 59.962 23.6267 59.574 22.9297 58.944C23.6437 59.926 24.7977 60.565 26.1037 60.565C28.2727 60.565 30.0317 58.807 30.0317 56.638C30.0317 55.483 29.5287 54.447 28.7347 53.727Z" fill="#D0D2D3"/>
<path d="M71.7061 56.638C71.7061 52.485 75.0731 49.118 79.2271 49.118C83.3791 49.118 86.7471 52.484 86.7471 56.638H71.7061Z" fill="#231F29"/>
<path d="M79.226 47.764C74.268 47.764 70.251 51.783 70.251 56.739H71.799C71.799 52.637 75.124 49.313 79.226 49.313C83.327 49.313 86.651 52.637 86.651 56.739H88.2C88.2 51.783 84.181 47.764 79.226 47.764Z" fill="#7D7E80"/>
<path d="M79.3225 62.982C82.8262 62.982 85.6665 60.1417 85.6665 56.638C85.6665 53.1343 82.8262 50.294 79.3225 50.294C75.8188 50.294 72.9785 53.1343 72.9785 56.638C72.9785 60.1417 75.8188 62.982 79.3225 62.982Z" fill="#0B0310"/>
<path d="M79.3215 60.565C81.4904 60.565 83.2485 58.8068 83.2485 56.638C83.2485 54.4692 81.4904 52.711 79.3215 52.711C77.1527 52.711 75.3945 54.4692 75.3945 56.638C75.3945 58.8068 77.1527 60.565 79.3215 60.565Z" fill="#D0D2D3"/>
<path d="M79.3212 57.424C79.7553 57.424 80.1071 57.0721 80.1071 56.638C80.1071 56.2039 79.7553 55.852 79.3212 55.852C78.8871 55.852 78.5352 56.2039 78.5352 56.638C78.5352 57.0721 78.8871 57.424 79.3212 57.424Z" fill="#A0A2A4"/>
<path d="M81.9524 53.727C82.4254 54.376 82.7064 55.171 82.7064 56.034C82.7064 58.204 80.9484 59.962 78.7784 59.962C77.7654 59.962 76.8444 59.574 76.1484 58.944C76.8624 59.926 78.0164 60.565 79.3224 60.565C81.4914 60.565 83.2494 58.807 83.2494 56.638C83.2494 55.483 82.7474 54.447 81.9524 53.727Z" fill="#D0D2D3"/>
<path d="M9.59018 21.524C9.22418 25.465 8.15918 35.723 8.15918 35.723H10.0482L11.1872 21.524H9.59018Z" fill="#323A4D"/>
<path d="M24.9091 21.524H12.8701V35.723H24.9091V21.524Z" fill="#323A4D"/>
<path d="M11.9375 20.714V51.328C11.9375 51.328 17.7685 51.328 18.4545 51.328C20.0735 46.846 25.3645 45.702 25.3645 45.702V20.714H11.9375Z" stroke="#BBBDBF" stroke-width="0.4981" stroke-miterlimit="10"/>
<path d="M3.57404 39.857H1.41504V47.426H3.57404V39.857Z" fill="#BBBDBF"/>
<path d="M3.03204 40.93H1.41504V46.354H3.03204V40.93Z" fill="#BBBDBF"/>
<path d="M3.03204 42.051H1.41504V45.233H3.03204V42.051Z" fill="#BBBDBF"/>
<path d="M3.03204 43.172H1.41504V44.111H3.03204V43.172Z" fill="#BBBDBF"/>
<path d="M3.03204 51.329H1.41504V48.174H2.49503L3.03204 51.329Z" fill="#F89C2B"/>
<path d="M2.22321 50.982C2.48941 50.982 2.7052 50.7662 2.7052 50.5C2.7052 50.2338 2.48941 50.018 2.22321 50.018C1.957 50.018 1.74121 50.2338 1.74121 50.5C1.74121 50.7662 1.957 50.982 2.22321 50.982Z" fill="#FDBD27"/>
<path d="M36.0118 43.643C36.0118 43.901 35.8018 44.112 35.5408 44.112H31.6878C31.4268 44.112 31.2158 43.901 31.2158 43.643C31.2158 43.382 31.4268 43.172 31.6878 43.172H35.5408C35.8018 43.172 36.0118 43.382 36.0118 43.643Z" fill="#A6A8AB"/>
<path d="M35.3897 45.233C35.3897 45.493 35.1787 45.703 34.9197 45.703H31.0657C30.8067 45.703 30.5957 45.493 30.5957 45.233C30.5957 44.973 30.8067 44.763 31.0657 44.763H34.9197C35.1787 44.763 35.3897 44.973 35.3897 45.233Z" fill="#A6A8AB"/>
<path d="M34.3936 46.824C34.3936 47.083 34.1836 47.295 33.9226 47.295H30.0696C29.8086 47.295 29.5986 47.083 29.5986 46.824C29.5986 46.564 29.8086 46.354 30.0696 46.354H33.9226C34.1836 46.354 34.3936 46.564 34.3936 46.824Z" fill="#A6A8AB"/>
<path d="M33.9584 22.604H27.3994V37.381H33.9584V22.604Z" stroke="#BBBDBF" stroke-width="0.4981" stroke-miterlimit="10"/>
<path d="M92.0668 42.671C92.3529 42.671 92.5848 42.4391 92.5848 42.153C92.5848 41.8669 92.3529 41.635 92.0668 41.635C91.7807 41.635 91.5488 41.8669 91.5488 42.153C91.5488 42.4391 91.7807 42.671 92.0668 42.671Z" fill="#67686B"/>
<path d="M92.0668 27.392C92.3529 27.392 92.5848 27.1601 92.5848 26.874C92.5848 26.5879 92.3529 26.356 92.0668 26.356C91.7807 26.356 91.5488 26.5879 91.5488 26.874C91.5488 27.1601 91.7807 27.392 92.0668 27.392Z" fill="#67686B"/>
<path d="M92.0668 19.804C92.3529 19.804 92.5848 19.5721 92.5848 19.286C92.5848 18.9999 92.3529 18.768 92.0668 18.768C91.7807 18.768 91.5488 18.9999 91.5488 19.286C91.5488 19.5721 91.7807 19.804 92.0668 19.804Z" fill="#67686B"/>
<path d="M92.0668 34.981C92.3529 34.981 92.5848 34.7491 92.5848 34.463C92.5848 34.1769 92.3529 33.945 92.0668 33.945C91.7807 33.945 91.5488 34.1769 91.5488 34.463C91.5488 34.7491 91.7807 34.981 92.0668 34.981Z" fill="#67686B"/>
<path d="M39.9966 42.672C40.2832 42.672 40.5156 42.4396 40.5156 42.153C40.5156 41.8664 40.2832 41.634 39.9966 41.634C39.7099 41.634 39.4775 41.8664 39.4775 42.153C39.4775 42.4396 39.7099 42.672 39.9966 42.672Z" fill="#67686B"/>
<path d="M39.9966 27.393C40.2832 27.393 40.5156 27.1606 40.5156 26.874C40.5156 26.5874 40.2832 26.355 39.9966 26.355C39.7099 26.355 39.4775 26.5874 39.4775 26.874C39.4775 27.1606 39.7099 27.393 39.9966 27.393Z" fill="#67686B"/>
<path d="M39.9966 19.805C40.2832 19.805 40.5156 19.5726 40.5156 19.286C40.5156 18.9994 40.2832 18.767 39.9966 18.767C39.7099 18.767 39.4775 18.9994 39.4775 19.286C39.4775 19.5726 39.7099 19.805 39.9966 19.805Z" fill="#67686B"/>
<path d="M39.9966 34.982C40.2832 34.982 40.5156 34.7496 40.5156 34.463C40.5156 34.1764 40.2832 33.944 39.9966 33.944C39.7099 33.944 39.4775 34.1764 39.4775 34.463C39.4775 34.7496 39.7099 34.982 39.9966 34.982Z" fill="#67686B"/>
</svg>
