<svg id="Capa_1" enable-background="new 0 0 512 512" height="512" viewBox="0 0 512 512" width="512" xmlns="http://www.w3.org/2000/svg"><g><path d="m406 30.999h-361c-24.901 0-45 20.099-45 45v240c0 24.899 20.099 45 45 45h15v75c0 6 3.6 11.4 9.3 13.799 5.4 2.401 12.001 1.201 16.199-3.3l86.801-85.499h233.7c24.901 0 45-20.101 45-45v-240c0-24.901-20.099-45-45-45z" fill="#ff6673"/><path d="m451 75.999v240c0 24.899-20.099 45-45 45h-180v-330h180c24.901 0 45 20.099 45 45z" fill="#e62e2e"/><path d="m466 210.999h-90-90c-24.814 0-45 20.186-45 45v120c0 24.814 20.186 45 45 45h83.789l6.211 6.211 49.395 49.395c4.33 4.33 10.82 5.559 16.348 3.252 5.61-2.314 9.258-7.793 9.258-13.857v-45h15c24.814 0 46-20.186 46-45v-120c-.001-24.815-21.187-45.001-46.001-45.001z" fill="#7ed96c"/><path d="m441.742 479.856c5.61-2.314 9.258-7.793 9.258-13.857v-45h15c24.814 0 46-20.186 46-45v-120c0-24.814-21.186-45-46-45h-90v216.211l49.395 49.395c4.33 4.33 10.819 5.559 16.347 3.251z" fill="#48b348"/><g fill="#f9f4f3"><path d="m196 270.999h-90c-8.291 0-15-6.709-15-15s6.709-15 15-15h90c8.291 0 15 6.709 15 15s-6.709 15-15 15z"/><path d="m241 195.999c0 8.399-6.599 15-15 15h-120c-8.401 0-15-6.601-15-15 0-8.401 6.599-15 15-15h120c8.401 0 15 6.599 15 15z"/><path d="m361 135.999c0 8.399-6.599 15-15 15h-240c-8.401 0-15-6.601-15-15 0-8.401 6.599-15 15-15h240c8.401 0 15 6.599 15 15z"/><path d="m416.605 290.394c-5.859-5.859-15.352-5.859-21.211 0l-19.394 19.394-15 15-11.895-11.895c-5.859-5.859-15.352-5.859-21.211 0s-5.859 15.352 0 21.211l22.5 22.5c2.93 2.93 6.768 4.395 10.605 4.395s7.676-1.465 10.605-4.395l4.396-4.394 40.605-40.605c5.86-5.86 5.86-15.352 0-21.211z"/></g><path d="m416.605 290.394c-5.859-5.859-15.352-5.859-21.211 0l-19.394 19.394v42.422l40.605-40.605c5.86-5.86 5.86-15.352 0-21.211z" fill="#f0e6e1"/><path d="m241 195.999c0 8.399-6.599 15-15 15v-30c8.401 0 15 6.599 15 15z" fill="#f0e6e1"/><path d="m361 135.999c0 8.399-6.599 15-15 15h-120v-30h120c8.401 0 15 6.599 15 15z" fill="#f0e6e1"/></g></svg>