<svg width="78" height="26" viewBox="0 0 78 26" fill="none" xmlns="http://www.w3.org/2000/svg">
<path d="M62.7483 17.1741C62.2009 17.4438 61.6569 17.6669 61.1627 17.8185C61.6352 17.577 62.1776 17.3672 62.7483 17.1741C65.4937 15.8238 68.2905 13.2114 65.0877 11.3416C62.9946 10.1195 59.9614 10.6856 57.2893 12.6137C56.8234 13.0716 56.3376 13.4928 55.8434 13.8075C56.306 13.3579 56.7935 12.97 57.2893 12.6137C58.4057 11.5131 59.3891 10.1794 59.9681 9.45184C61.7583 7.20742 62.1144 2.9034 57.8217 1.09521C54.2096 -0.424938 48.7206 0.798839 46.0185 4.49014C43.4346 8.02327 43.4612 12.95 43.4612 12.95C43.4612 10.927 43.3814 7.0659 38.5562 7.37559C33.6047 7.6936 34.6978 12.6903 34.6762 15.3559C34.6762 15.4442 34.6762 15.5074 34.6762 15.5074C34.6779 15.4592 34.6762 15.4042 34.6762 15.3559C34.6695 14.3236 34.4233 7.76186 29.3586 5.19444C26.412 3.7026 23.5668 3.64432 21.0228 4.51678C17.4872 5.7289 16.3408 8.43952 17.1344 10.962C18.0895 13.994 21.9912 16.633 21.9912 16.633C21.9912 16.633 17.6752 14.7465 15.4407 14.3619C10.9949 13.596 3.79883 13.3679 0.943702 16.6646C-1.79663 19.8281 2.21154 24.6366 10.4658 24.8398C15.8999 24.9746 62.0628 25.1311 67.5102 25.1311C71.8495 25.1311 78.3268 23.243 77.2353 19.2071C76.2969 15.7355 67.8713 15.4458 62.7483 17.1741Z" fill="white"/>
</svg>
