<svg width="1920" height="1000" viewBox="0 0 1920 1000" fill="none" xmlns="http://www.w3.org/2000/svg">
<g filter="url(#filter0_f)">
<path d="M1920 0H0V991H1920V0Z" fill="#E8FFF9"/>
</g>
<path d="M1921 0H0V1000H1921V0Z" fill="#EBFBFF"/>
<path d="M1442 539H479V991H1442V539Z" fill="#EBFBFF"/>
<path d="M428.066 749.816H161.273C151.895 749.816 144.266 742.19 144.266 732.817V578.827C144.266 569.454 151.895 561.828 161.273 561.828H428.066C437.444 561.828 445.073 569.454 445.073 578.827V732.817C445.073 742.19 437.444 749.816 428.066 749.816ZM161.273 568.35C155.493 568.35 150.791 573.05 150.791 578.827V732.817C150.791 738.593 155.493 743.293 161.273 743.293H428.066C433.845 743.293 438.547 738.593 438.547 732.817V578.827C438.547 573.051 433.845 568.351 428.066 568.351H161.273V568.35Z" fill="#C5DDF9"/>
<path opacity="0.3" d="M161.273 743.294H428.066C433.845 743.294 438.547 738.594 438.547 732.817V578.827C438.547 573.05 433.845 568.351 428.066 568.351H161.273C155.493 568.351 150.791 573.05 150.791 578.827V732.817C150.791 738.593 155.493 743.294 161.273 743.294Z" fill="#C5DDF9"/>
<path d="M431.229 617.995C430.439 618.902 429.82 619.863 428.955 620.481C428.633 620.711 427.622 620.29 427.125 619.907C425.511 618.661 425.126 618.643 423.43 619.68C422.5 620.249 422.253 620.908 422.636 621.86C423.048 622.881 422.651 623.001 421.653 623.211C420.272 623.5 418.953 624.202 417.684 624.871C416.675 625.404 415.933 626.056 414.516 625.86C412.741 625.616 411.061 626.582 409.8 627.991C409.695 628.109 409.559 628.286 409.578 628.416C409.695 629.226 409.852 630.031 409.99 630.806C408.957 631.721 408.749 633.142 407.574 634.014C406.527 634.791 405.898 636.129 404.939 637.159C404.423 634.436 403.678 631.757 405.405 629.226C405.495 629.094 405.591 628.96 405.711 628.858C406.68 628.04 407.684 627.261 408.62 626.407C409.346 625.744 409.991 624.992 410.524 624.046C409.834 624.351 409.145 624.656 408.379 624.995C408.229 624.786 408.068 624.563 407.911 624.337C407.329 623.501 406.465 623.426 405.913 624.103C405.236 624.935 403.728 625.222 404.003 626.739C403.156 626.833 402.171 627.236 401.5 626.937C400.747 626.601 400.241 626.295 399.354 626.578C398.61 626.816 397.71 626.516 396.894 626.596C396.062 626.678 394.979 626.662 394.476 627.161C392.885 628.742 391.514 630.543 390.058 632.259C389.907 632.117 389.756 631.974 389.604 631.832C389.792 632.229 389.98 632.625 390.07 632.813C391.004 632.969 392.126 632.827 392.548 633.303C393.187 634.025 393.895 635.075 393.109 636.251C392.909 636.552 392.8 636.945 392.751 637.31C392.309 640.566 390.128 642.81 388.121 645.123C387.731 645.572 386.803 645.515 386.188 645.821C385.496 646.166 384.825 646.598 384.244 647.105C383.89 647.414 383.823 648.101 383.45 648.33C382.257 649.062 382.513 649.771 383.119 650.774C383.5 651.403 383.785 652.414 383.535 653.012C383.263 653.661 382.321 654.029 381.671 654.52C381.551 654.444 381.431 654.368 381.31 654.292C381.31 653.738 381.314 653.184 381.31 652.63C381.305 651.964 381.604 651.181 380.548 650.942C380.405 650.91 380.261 650.349 380.317 650.073C380.55 648.902 379.92 648.978 379.182 649.256C378.729 649.426 378.314 649.694 377.761 649.982C377.761 649.356 377.761 648.888 377.761 648.193C376.849 648.833 376.089 649.367 375.282 649.934C375.59 650.447 375.883 650.935 376.066 651.239C376.911 651.239 377.647 651.239 378.383 651.239C378.401 651.371 378.419 651.503 378.436 651.635C377.849 652.074 377.19 652.448 376.704 652.98C376.457 653.251 376.38 653.839 376.47 654.227C376.803 655.67 377.245 657.088 377.622 658.521C377.668 658.696 377.609 658.931 377.526 659.103C376.49 661.248 375.426 663.383 373.526 664.925C373.192 665.197 372.688 665.256 372.268 665.427C371.043 665.925 369.82 666.43 368.469 666.983C368.041 666.289 367.381 666.123 366.52 666.851C365.528 667.691 365.215 668.522 365.763 669.559C366.049 670.098 366.43 670.605 366.847 671.052C368.22 672.52 367.828 675.177 366.1 676.194C365.516 676.538 365.019 677.028 364.585 677.37C363.949 676.474 363.4 675.651 362.79 674.876C362.643 674.689 362.219 674.513 362.055 674.595C361.806 674.72 361.5 675.087 361.517 675.331C361.599 676.509 361.66 677.711 361.957 678.845C362.373 680.435 362.992 681.972 363.567 683.66C362.027 683.291 361.2 682.155 360.833 680.436C360.656 679.607 360.244 678.829 359.959 678.02C359.827 677.646 359.699 677.26 359.649 676.869C359.469 675.455 359.373 674.029 359.144 672.624C359.013 671.818 358.825 670.936 357.657 670.952C357.518 670.954 357.218 670.571 357.254 670.437C357.829 668.334 356.029 667.106 355.541 665.47C353.441 665.303 352.411 666.788 351.209 667.984C350.324 668.865 349.37 669.692 348.595 670.662C348.118 671.259 347.718 672.058 347.638 672.804C347.428 674.761 346.902 676.163 345.402 677.696C345.166 677.291 344.862 676.952 344.759 676.561C343.97 673.59 343.201 670.614 342.472 667.628C342.31 666.963 342.143 666.475 341.345 666.377C341.025 666.338 340.66 666.041 340.46 665.759C339.757 664.772 339.117 663.741 338.454 662.727C337.835 661.78 336.878 662.28 336.068 662.189C334.795 662.046 333.391 662.263 332.271 661.788C331.099 661.292 329.874 660.902 328.746 660.343C327.956 659.952 327.346 659.128 326.765 658.409C326.388 657.943 326.116 657.263 325.453 657.725C325.163 657.928 325.018 658.684 325.15 659.074C325.458 659.986 325.973 660.828 326.444 661.778C326.592 661.66 326.816 661.481 327.068 661.279C327.149 661.434 327.23 661.535 327.257 661.648C327.373 662.148 327.473 662.653 327.579 663.156C328.286 662.863 329.031 662.635 329.682 662.25C329.988 662.069 330.113 661.584 330.207 661.427C330.93 662.244 331.643 663.046 332.351 663.852C332.861 664.433 333.167 665.078 332.488 665.702C331.471 666.638 331.428 668.232 329.971 668.933C327.621 670.066 325.391 671.448 323.104 672.712C322.853 672.85 322.543 672.879 322.288 673.011C321.383 673.477 320.82 673.256 320.755 672.211C320.612 669.908 319.794 667.912 318.509 665.979C317.618 664.637 317.248 662.957 316.572 661.461C316.217 660.674 315.707 659.957 315.273 659.22C314.361 659.357 314.248 659.85 314.498 660.49C315.065 661.939 315.659 663.376 316.242 664.818C316.304 664.972 316.426 665.136 316.408 665.282C316.188 667.052 317.385 668.386 317.852 669.943C317.998 670.431 318.337 670.925 318.722 671.265C319.691 672.124 320.615 672.945 320.772 674.369C320.806 674.682 321.468 675.212 321.758 675.163C323.175 674.921 324.564 674.516 326.228 674.103C326.034 675.016 326.013 675.902 325.659 676.626C324.514 678.969 323.376 681.277 321.249 683.035C319.748 684.275 318.537 685.946 317.461 687.596C316.473 689.111 317.095 690.843 317.377 692.511C317.629 694.002 317.783 695.543 317.684 697.042C317.645 697.628 316.831 698.193 316.31 698.705C315.992 699.018 315.531 699.181 315.181 699.468C314.046 700.4 313.235 701.372 313.775 703.078C314.089 704.07 313.904 705.194 312.653 705.825C312.264 706.021 312.159 706.791 311.936 707.304C310.818 709.879 309.575 712.402 306.779 713.524C305.651 713.977 304.365 714.105 303.136 714.213C302.101 714.303 301.924 713.364 301.732 712.607C301.421 711.389 301.188 710.152 300.885 708.932C300.509 707.417 300.088 705.913 299.701 704.401C299.363 703.083 299.272 701.644 298.67 700.464C297.685 698.534 298.064 696.683 298.952 695.088C299.896 693.393 299.361 691.844 299.091 690.302C298.864 689.005 298.273 687.643 297.463 686.606C296.375 685.213 296.645 683.864 296.962 682.427C297.393 680.471 297.051 680.018 295.089 679.938C294.779 679.925 294.37 679.74 294.195 679.498C293.293 678.249 292.358 677.917 291.029 678.597C289.841 679.206 288.709 679.917 287.291 679.349C287.156 679.295 286.959 679.362 286.802 679.409C285.493 679.803 284.212 680.12 283.152 678.841C282.345 677.868 281.467 676.953 280.68 675.965C280.139 675.287 279.748 674.488 279.202 673.814C278.069 672.416 277.952 670.832 278.525 669.266C278.978 668.027 278.689 666.924 278.467 665.753C278.379 665.286 278.292 664.708 278.483 664.317C279.285 662.678 280.177 661.081 281.078 659.493C281.226 659.23 281.585 659.088 281.846 658.888C282.814 658.146 283.614 657.419 283.667 655.972C283.695 655.191 284.586 654.455 285.043 653.673C285.483 652.917 286.03 652.159 286.185 651.336C286.242 651.037 285.305 650.55 284.822 650.148C284.65 650.223 284.479 650.297 284.308 650.372C284.34 649.191 284.379 648.01 284.401 646.828C284.415 646.083 284.473 645.329 284.383 644.595C284.271 643.678 284.754 643.517 285.472 643.559C286.343 643.61 287.212 643.706 288.084 643.737C289.761 643.796 290.715 642.373 289.937 640.845C289.617 640.218 288.951 639.772 288.461 639.227C288.163 638.895 287.9 638.532 287.621 638.183C288.05 638.077 288.474 637.952 288.907 637.873C289.142 637.83 289.39 637.865 289.693 637.865C289.693 637.448 289.693 637.095 289.693 637.115C290.446 636.856 291.129 636.808 291.524 636.446C292.513 635.542 293.289 634.397 294.307 633.532C295.226 632.751 296.352 632.213 297.595 631.438C297.694 630.19 295.674 628.126 298.638 627.033C298.706 627.762 298.773 628.494 298.838 629.198C299.055 629.071 299.323 628.915 299.591 628.76C299.686 628.808 299.781 628.857 299.877 628.905C299.648 629.717 299.42 630.528 299.138 631.526C299.757 631.252 300.196 631.057 300.735 630.818C301.097 631.753 301.72 631.675 302.478 631.233C303.115 630.861 303.695 630.26 304.611 630.918C304.81 631.061 306.091 630.863 306.133 629.71C306.169 628.741 305.88 627.576 307.044 626.92C307.375 627.169 307.69 627.407 308.303 627.869C308.303 627.148 308.409 626.675 308.284 626.273C307.891 625.005 307.858 625.016 308.879 624.201C308.518 624.087 308.204 624.023 307.921 623.89C307.079 623.494 306.195 623.107 306.613 621.881C306.639 621.807 306.636 621.707 306.609 621.634C305.998 620.013 307.039 619.111 308.091 618.21C308.278 618.05 308.59 617.887 308.607 617.704C308.653 617.185 308.777 616.386 308.506 616.184C307.88 615.716 307.06 616.061 306.938 616.789C306.732 618.022 305.77 618.533 305.068 619.327C304.483 619.988 304.008 620.788 303.664 621.602C303.517 621.951 303.67 622.71 303.951 622.907C305.047 623.679 304.46 624.37 304.037 625.145C303.677 625.807 303.136 626.51 303.134 627.196C303.132 628.191 302.773 628.672 301.938 629.043C301.551 629.215 301.259 629.6 300.77 630.02C300.609 629.566 300.476 629.247 300.383 628.917C300.19 628.238 300.084 627.527 299.825 626.874C299.126 625.112 299.021 625.096 297.466 626.119C296.634 626.666 295.619 626.307 295.482 625.35C295.32 624.219 295.177 623.068 295.217 621.933C295.235 621.436 295.639 620.866 296.023 620.487C297.168 619.357 298.53 618.421 299.544 617.191C300.546 615.975 301.296 614.528 302.015 613.11C302.298 612.553 302.001 611.679 302.323 611.174C302.64 610.675 303.47 610.535 303.96 610.107C305.18 609.042 306.587 608.881 307.915 608.944C308.642 608.438 309.428 607.495 309.912 607.63C311.178 607.984 312.792 606.862 313.734 608.564C313.612 608.712 313.439 608.922 313.182 609.233C313.41 609.313 313.583 609.36 313.745 609.431C315.844 610.362 317.978 611.224 320.012 612.28C320.528 612.547 321.142 613.78 320.984 613.972C320.482 614.583 319.656 614.948 318.913 615.326C318.701 615.434 318.347 615.23 318.058 615.231C317.475 615.232 316.656 614.447 316.457 615.769C316.204 617.451 316.31 617.721 317.671 618.022C318.069 617.637 316.978 616.477 318.322 616.646C318.888 616.717 319.406 617.158 319.998 617.457C320.146 615.453 321.461 614.506 323.23 615.13C323.23 613.953 323.23 612.825 323.23 611.644C323.492 611.644 323.866 611.568 324.192 611.66C324.835 611.842 325.309 612.097 324.628 612.875C324.425 613.107 324.633 613.699 324.653 614.126C325.084 614.034 325.577 614.045 325.932 613.828C326.883 613.25 327.738 612.512 328.702 611.961C329.238 611.655 329.916 611.598 330.614 611.405C330.571 611.632 330.519 611.906 330.449 612.274C332.192 611.894 333.903 611.521 335.82 611.103C335.396 610.493 334.919 609.809 334.442 609.124C334.497 609.057 334.551 608.99 334.606 608.923C334.926 609.126 335.223 609.416 335.572 609.511C336.075 609.648 336.617 609.629 337.139 609.7C337.606 609.764 338.12 609.758 338.522 609.963C339.543 610.482 340.513 611.102 341.576 611.724C341.643 611.513 341.772 611.299 341.72 611.237C340.982 610.361 340.617 609.471 340.791 608.226C340.871 607.65 340.914 607.346 341.338 606.94C341.795 606.503 342.063 605.86 342.377 605.286C342.746 604.613 343.983 604.228 344.701 604.781C344.983 604.997 344.869 605.75 344.901 606.261C344.929 606.707 344.905 607.156 344.914 607.603C344.921 607.969 344.934 608.335 344.959 608.7C345.024 609.668 345.145 610.635 345.146 611.602C345.147 612.07 345.018 612.587 344.789 612.994C344.411 613.667 343.905 614.269 343.445 614.912C344.466 615.27 346.25 613.806 346.235 612.638C346.229 612.152 346.058 611.67 345.976 611.183C345.884 610.633 345.787 610.083 345.738 609.528C345.721 609.335 345.896 609.127 345.889 608.93C345.864 608.196 345.596 607.396 345.809 606.749C346.011 606.134 346.699 605.678 347.168 605.157C347.736 605.743 346.334 606.989 347.564 607.561C347.96 606.774 348.298 606.1 348.724 605.252C349.804 605.657 350.862 606.054 351.946 606.461C351.631 605.885 351.252 605.367 351.056 604.787C350.806 604.046 351.15 603.589 351.965 603.544C352.714 603.503 353.466 603.483 354.211 603.403C354.917 603.327 355.319 603.093 355.159 602.178C355.092 601.795 355.648 601.051 356.082 600.877C357.864 600.166 359.707 599.605 361.534 599.01C361.709 598.953 361.945 599 362.128 599.068C362.895 599.35 364.91 598.506 365.242 597.745C365.763 596.552 366.959 595.939 368.073 596.372C368.332 596.473 368.474 596.867 368.674 597.124C368.782 597.263 368.884 597.412 369.013 597.53C369.314 597.807 369.629 598.067 370.05 598.43C371.358 598.149 372.9 597.71 374.122 599.19C374.893 600.124 374.817 600.758 373.841 601.446C372.795 602.184 371.744 602.915 370.59 603.724C370.833 603.834 370.978 603.937 371.011 603.909C371.778 603.246 372.412 603.072 373.46 603.679C374.31 604.17 375.563 603.918 376.604 604.144C377.513 604.341 378.362 604.808 379.267 605.04C380.007 605.229 380.792 605.246 381.499 605.332C381.786 604.695 381.996 604.229 382.132 603.928C383.031 604.138 383.764 604.361 384.515 604.474C385.467 604.616 386.268 605.689 385.926 606.84C385.53 608.171 386.342 608.619 387.275 609.275C387.666 608.735 388.021 608.245 388.229 607.959C390.136 607.959 391.916 607.959 393.702 607.959C393.386 606.269 393.916 605.754 395.651 606.115C397.283 606.455 398.916 606.801 400.533 607.207C400.763 607.265 400.905 607.677 401.085 607.927C401.151 608.02 401.185 608.177 401.268 608.208C402.529 608.661 403.47 610.041 405.085 609.494C405.468 609.364 405.909 609.387 406.325 609.377C408.018 609.339 408.656 609.866 408.915 611.428C410.346 611.706 411.742 612.045 413.158 612.216C413.63 612.273 414.149 611.883 414.655 611.73C415.03 611.617 415.42 611.558 415.804 611.474C415.838 611.589 415.872 611.704 415.905 611.819C415.669 611.936 415.432 612.053 415.039 612.247C415.408 612.574 415.674 612.891 416.011 613.08C416.224 613.199 416.58 613.21 416.801 613.111C416.933 613.052 417.034 612.65 416.968 612.468C416.513 611.209 417.134 611.408 418.064 611.423C421.406 611.478 423.951 613.263 426.548 615.009C428.067 616.033 429.637 616.983 431.229 617.995ZM287.628 651.53C288.585 651.96 289.21 652.331 290.011 651.673C290.536 651.242 291.224 650.86 291.883 650.768C293.834 650.495 295.805 650.351 297.773 650.23C298.035 650.214 298.545 650.61 298.558 650.837C298.604 651.644 298.485 652.462 298.429 653.276C298.312 653.367 298.195 653.459 298.079 653.551C298.861 653.895 299.656 654.213 300.421 654.592C300.845 654.802 301.205 655.134 301.617 655.373C302.451 655.857 303.287 656.343 304.163 656.739C304.255 656.781 304.773 656.256 304.826 655.948C305.054 654.609 305.707 654.39 306.971 654.906C308.661 655.595 310.274 656.875 312.332 656.02C312.65 655.888 313.129 656.202 313.533 656.2C313.997 656.199 314.797 656.197 314.871 655.989C315.378 654.566 315.822 653.105 316.095 651.621C316.216 650.967 315.774 650.598 314.948 650.943C314.489 651.134 313.878 650.976 313.337 650.945C313.099 650.931 312.85 650.758 312.632 650.798C311.018 651.094 309.976 650.364 309.678 648.73C309.591 648.253 309.485 647.743 309.235 647.345C309.053 647.056 308.391 646.703 308.334 646.761C307.946 647.157 307.3 647.95 307.401 648.074C308.386 649.281 307.33 649.878 306.741 650.757C306.478 650.46 306.181 650.258 306.078 649.984C305.53 648.53 305.034 647.057 304.51 645.594C304.456 645.443 304.36 645.292 304.244 645.182C303.233 644.214 302.228 643.24 301.183 642.311C301.004 642.152 300.638 642.15 300.368 642.176C300.28 642.184 300.108 642.581 300.169 642.681C300.716 643.579 301.231 644.513 301.907 645.308C302.465 645.965 303.228 646.448 303.738 646.873C302.835 648.233 302.069 649.387 301.256 650.612C300.814 650.267 300.371 649.92 300.063 649.68C300.827 649.211 301.468 648.818 302.11 648.425C301.693 647.756 301.345 647.031 300.844 646.432C300 645.423 299.089 644.463 298.137 643.555C297.886 643.318 297.284 643.159 297.004 643.295C296.086 643.74 295.281 644.423 294.132 644.03C293.948 643.966 293.445 644.229 293.423 644.387C293.272 645.494 292.373 645.876 291.654 646.492C291.201 646.88 290.937 647.576 290.762 648.184C290.427 649.347 289.856 650.259 288.733 650.793C288.398 650.951 288.109 651.204 287.628 651.53ZM318.143 646.381C318.789 646.282 319.219 646.277 319.603 646.144C320.49 645.837 320.704 645.026 320.019 644.39C319.296 643.719 318.507 643.099 317.673 642.573C317.298 642.336 316.65 642.178 316.286 642.341C315.041 642.901 314.575 642.148 314.102 641.27C313.554 640.252 313.055 640.185 312.383 641.151C311.83 641.946 311.498 642.898 310.93 643.68C310.397 644.412 310.33 645.079 310.944 645.677C311.638 646.352 312.504 646.475 313.33 645.872C314.373 645.11 315.4 645.193 316.495 645.742C317.075 646.032 317.708 646.216 318.143 646.381ZM326.855 642.821C327.528 642.445 328.093 642.183 328.591 641.828C328.81 641.672 329.053 641.291 329.003 641.078C328.932 640.776 328.653 640.391 328.373 640.29C326.88 639.749 324.389 641.915 324.754 643.462C324.967 644.362 325.464 645.193 325.715 646.089C325.892 646.72 326.069 647.465 325.897 648.057C325.498 649.427 326.543 651.076 327.99 651.106C329.321 651.133 329.798 650.108 329.12 648.462C328.759 647.587 328.309 646.803 329.565 646.524C328.691 645.33 327.85 644.18 326.855 642.821ZM311.66 685.564C312.885 686.218 313.211 685.751 313.298 685.044C313.329 684.793 313.1 684.511 312.99 684.243C312.583 684.648 312.176 685.052 311.66 685.564ZM368.31 633.997C370.163 633.179 370.484 632.718 370.316 631.313C369.685 632.157 369.054 633.002 368.31 633.997Z" fill="#C5DDF9"/>
<path d="M162.774 624.286C163.881 623.135 165.028 622.15 167.024 623.204C166.832 622.609 166.829 622.252 166.66 622.132C165.684 621.446 164.662 620.826 163.673 620.157C163.497 620.037 163.295 619.78 163.311 619.606C163.326 619.456 163.619 619.248 163.815 619.213C164.736 619.05 165.007 618.417 165.485 617.674C166.087 616.74 167.385 616.25 168.392 615.582C168.729 615.359 169.093 615.178 169.444 614.975C169.652 614.855 169.889 614.593 170.059 614.631C171.093 614.864 172.113 615.159 173.132 615.45C173.32 615.504 173.484 615.721 173.662 615.724C175.749 615.767 177.843 615.692 179.922 615.838C181.181 615.927 182.444 616.26 183.654 616.643C184.474 616.902 185.025 617.014 185.929 616.552C187.312 615.844 188.981 615.717 190.492 615.23C190.993 615.068 191.38 614.555 191.936 614.108C191.971 614.148 192.195 614.362 192.362 614.613C193.244 615.938 193.301 615.942 194.189 614.601C194.568 615.189 194.933 615.595 195.66 614.941C195.909 614.717 196.521 614.814 196.947 614.883C198.363 615.111 199.775 615.369 201.176 615.67C201.554 615.751 201.922 615.983 202.239 616.221C202.729 616.588 203.223 617.403 203.62 617.347C204.592 617.21 205.528 616.725 206.441 616.299C206.951 616.061 207.351 615.573 207.867 615.367C208.139 615.26 208.651 615.413 208.893 615.628C210.159 616.756 212.239 617.058 213.906 616.282C213.925 616.204 213.987 616.091 213.956 616.051C213.183 615.059 213.578 614.047 214.237 613.349C215.675 611.826 215.273 609.98 215.335 608.247C215.426 605.677 215.366 605.646 217.912 605.715C218.239 605.724 218.567 605.716 219.298 605.716C218.718 606.659 218.406 607.555 217.781 608.074C217.156 608.593 217.029 609.039 217.322 609.658C217.858 610.792 218.427 611.913 219.057 612.997C219.176 613.201 219.635 613.239 219.948 613.295C221.29 613.532 221.693 614.034 221.83 615.41C221.874 615.849 222.213 616.258 222.578 616.665C223.075 615.481 224.283 614.595 223.667 613.099C223.61 612.961 224.078 612.394 224.214 612.424C224.874 612.569 225.575 612.744 226.124 613.113C226.695 613.497 227.245 614.081 226.553 614.87C226.509 614.921 226.5 615.045 226.529 615.11C227.389 616.993 225.95 617.482 224.725 618.115C224.407 618.28 224.122 618.507 223.85 618.688C224.235 619.894 225.21 620.026 226.101 620.372C226.962 620.706 227.737 621.258 228.551 621.714C228.555 621.834 228.559 621.954 228.563 622.074C228.147 622.164 227.735 622.269 227.316 622.338C226.961 622.396 226.395 622.28 226.275 622.467C225.526 623.639 224.579 623.675 223.504 623.102C223.424 622.335 223.341 621.536 223.244 620.592C220.891 622.087 219.075 623.871 218.336 626.481C218.053 627.48 217.616 628.793 219.374 629.099C219.412 629.106 219.463 629.129 219.479 629.16C220.781 631.589 223.717 631.272 225.6 632.765C226.145 633.197 227.103 633.107 228.009 633.283C227.984 635.123 228.714 636.658 230.361 637.73C231.861 636.298 230.562 634.908 230.286 633.428C230.491 633.287 230.719 633.129 230.946 632.972C232.43 631.942 232.521 630.369 231.239 629.049C230.939 628.739 230.576 628.112 230.699 627.834C231.282 626.524 230.566 625.358 230.415 624.15C230.304 623.258 230.523 622.997 231.371 623.108C231.774 623.161 232.203 623.065 232.594 623.152C233.238 623.297 233.901 623.458 234.482 623.755C235.191 624.117 235.824 624.628 236.657 625.187C236.73 625.487 236.733 626.177 237.055 626.652C237.469 627.261 238.154 628.119 238.694 628.1C239.362 628.076 240.103 627.357 240.141 626.379C240.153 626.062 240.312 625.751 240.499 625.111C241.531 626.853 242.466 628.338 243.301 629.877C243.797 630.79 244.107 631.69 245.387 631.909C246.969 632.179 247.887 633.996 247.861 635.641C247.845 636.638 248.101 638.25 248.7 638.508C249.698 638.937 249.732 639.773 250.237 640.368C250.396 640.556 250.295 640.963 250.312 641.27C250.046 641.284 249.767 641.355 249.517 641.298C248.928 641.165 248.363 640.892 247.771 640.821C247.173 640.75 246.554 640.854 245.658 640.894C246.15 639.394 246.574 638.106 247.017 636.756C246.82 636.726 246.655 636.653 246.606 636.7C245.338 637.922 243.707 637.957 242.104 638.181C241.484 638.268 240.92 638.748 240.385 639.154C242.149 638.97 242.477 639.212 242.032 640.755C241.721 641.831 242.252 642.345 242.973 642.796C243.795 643.311 244.265 642.734 244.687 642.109C244.773 641.981 244.946 641.911 245.162 641.755C245.415 641.987 245.666 642.217 246.102 642.616C244.708 643.586 243.459 644.523 242.122 645.312C241.923 645.429 241.311 644.846 240.627 644.426C240.136 644.731 239.352 645.161 238.641 645.689C238.378 645.884 238.091 646.36 238.154 646.627C238.428 647.78 237.676 648.341 236.947 648.88C235.263 650.126 234.842 651.84 234.956 653.8C234.974 654.109 234.92 654.467 234.77 654.729C234.571 655.08 234.262 655.376 233.972 655.667C231.036 658.616 231.051 658.609 232.411 662.52C232.629 663.146 232.629 663.848 232.56 664.582C231.283 664.221 231.127 663.091 230.651 662.191C230.344 661.611 229.865 660.583 229.579 660.622C228.365 660.784 226.842 659.234 225.879 661.196C225.767 661.424 224.914 661.508 224.536 661.349C222.85 660.635 221.756 661.548 220.727 662.623C220.461 662.901 220.235 663.376 220.259 663.744C220.41 666.141 219.955 668.681 221.92 670.675C222.501 671.264 222.936 671.595 223.839 671.321C225.005 670.968 225.862 670.697 226.021 669.162C226.133 668.069 227.379 668.281 228.304 668.357C228.108 669.98 227.922 671.524 227.711 673.265C228.432 673.197 229.03 673.148 229.626 673.082C230.923 672.937 231.471 673.396 231.544 674.7C231.619 676.039 231.244 677.517 232.544 678.502C232.882 678.758 233.627 679.016 233.805 678.855C234.977 677.79 235.751 678.539 236.718 679.569C237.363 677.661 238.651 676.533 240.442 675.848C240.495 676.083 240.561 676.378 240.627 676.673C240.724 676.735 240.82 676.796 240.916 676.857C241.081 676.531 241.246 676.206 241.352 675.997C242.476 676.463 243.424 676.918 244.415 677.238C244.828 677.371 245.399 677.351 245.785 677.166C246.78 676.686 247.336 677.188 247.918 677.865C248.204 678.197 248.649 678.393 248.93 678.728C250.274 680.332 252.173 680.661 254.049 681.206C255.567 681.649 255.928 683.315 256.374 684.628C256.647 685.433 256.993 685.74 257.731 685.995C258.752 686.347 259.685 686.953 260.704 687.318C261.428 687.577 262.246 687.565 262.995 687.773C263.677 687.963 264.336 688.256 264.975 688.563C265.304 688.722 265.537 689.096 265.87 689.225C266.585 689.502 267.519 689.556 267.416 690.627C267.311 691.712 267.402 693.048 266.808 693.807C265.423 695.575 264.776 697.345 264.835 699.629C264.875 701.132 264.178 702.693 263.616 704.154C263.429 704.639 262.683 705.076 262.113 705.219C259.928 705.769 258.756 707.185 258.551 709.332C258.465 710.226 257.941 711.106 257.504 711.933C256.953 712.978 256.25 713.943 255.682 714.98C255.107 716.03 254.306 716.612 253.065 716.454C253.099 717.155 253.265 717.797 253.131 718.369C252.847 719.574 251.996 720.212 250.758 720.457C250.329 720.542 249.728 720.967 249.642 721.338C249.434 722.237 249.029 722.758 248.077 722.796C248.019 724.466 247.757 725.993 246.547 727.226C246.378 727.398 246.517 728.233 246.749 728.373C247.747 728.979 247.345 729.564 246.88 730.212C246.639 730.547 246.4 730.884 246.183 731.235C245.559 732.247 245.29 733.143 245.937 734.413C246.471 735.459 246.778 736.517 248.3 736.997C247.292 737.453 246.478 738.168 245.88 738.018C244.685 737.718 243.537 737.043 242.52 736.313C242.154 736.051 242.241 735.181 242.082 734.6C241.988 734.257 241.835 733.926 241.676 733.605C241.451 733.149 240.968 732.689 241.002 732.263C241.073 731.369 241.039 730.437 241.116 729.56C241.231 728.24 240.783 726.914 241.95 725.84C241.98 725.813 241.946 725.649 241.895 725.61C240.606 724.637 241.574 723.423 241.497 722.312C241.343 720.076 241.871 717.97 242.434 715.854C242.455 715.774 242.459 715.689 242.464 715.606C242.673 711.925 242.915 708.247 243.075 704.564C243.146 702.951 242.693 701.486 241.082 700.738C239.142 699.836 238.205 698.139 237.271 696.36C236.47 694.832 235.471 693.407 234.571 691.93C234.469 691.762 234.383 691.545 234.39 691.354C234.483 688.935 234.262 686.45 235.989 684.391C236.72 683.518 236.744 681.561 236.086 680.601C235.771 680.141 235.376 679.735 234.933 679.203C234.615 679.681 234.375 680.041 234.049 680.531C232.797 679.837 231.472 679.261 230.346 678.418C229.675 677.917 229.348 676.973 228.8 676.279C228.596 676.019 228.218 675.881 227.898 675.731C226.74 675.185 225.586 674.627 224.404 674.139C223.888 673.926 223.312 673.838 222.755 673.753C221.929 673.626 221.037 673.709 220.278 673.424C218.767 672.858 217.309 672.138 215.87 671.401C215.518 671.222 215.076 670.712 215.103 670.39C215.224 668.938 214.316 668.081 213.466 667.167C212.546 666.177 211.632 665.18 210.685 664.216C210.344 663.869 209.916 663.608 209.303 663.47C210.153 664.96 211.002 666.45 211.852 667.94C211.703 668.035 211.555 668.129 211.407 668.224C210.801 667.447 210.203 666.663 209.583 665.897C209.353 665.614 209.086 665.354 208.805 665.121C208.301 664.703 207.266 664.603 207.912 663.532C207.945 663.477 207.818 663.312 207.749 663.211C206.819 661.856 205.911 660.486 204.938 659.163C204.687 658.821 204.265 658.52 203.86 658.389C202.602 657.981 201.933 657.048 201.371 655.944C200.721 654.668 199.756 653.495 199.382 652.151C198.923 650.501 198.871 648.724 198.76 646.994C198.642 645.124 197.974 643.625 196.358 642.593C195.769 642.217 195.179 641.784 195.871 641.143C195.181 640.334 194.523 639.582 193.888 638.811C193.446 638.274 193.085 637.661 192.591 637.182C192.329 636.927 191.864 636.791 191.483 636.774C191.109 636.757 190.725 636.96 190.148 637.121C190.258 636.465 190.331 636.035 190.414 635.539C189.26 634.767 188.024 634.166 187.111 632.896C186.025 631.385 184.033 631.073 182.225 630.745C181.135 630.548 180.035 630.401 178.836 630.216C178.623 631.125 177.942 631.25 176.938 631.063C175.5 630.796 175.269 631.193 174.795 632.695C174.537 633.51 173.802 634.194 173.22 634.885C171.961 636.379 170.65 637.822 168.182 638.286C168.771 637.588 169.117 637.076 169.565 636.678C169.963 636.324 170.529 636.157 170.923 635.801C171.492 635.287 172.004 634.624 171.398 633.86C170.862 633.185 170.161 632.696 169.235 633.294C169.032 633.424 168.822 633.541 168.512 633.725C168.158 632.855 167.819 632.273 166.681 632.121C165.95 632.024 165.176 630.739 164.832 629.83C164.638 629.32 165.245 628.477 165.568 627.821C165.651 627.652 166.064 627.676 166.258 627.525C166.757 627.14 167.219 626.706 167.696 626.292C167.347 626.094 166.964 625.685 166.655 625.734C164.703 626.047 163.991 625.825 162.774 624.286ZM227.22 642.959C226.466 640.919 225.096 640.581 223.643 642.09C223.327 642.418 223.169 642.899 222.938 643.309C223.394 643.135 223.848 642.96 224.305 642.79C224.375 642.764 224.456 642.768 224.642 642.743C225.335 644.229 226.299 643.168 227.22 642.959ZM228.451 645.893C228.904 646.25 229.239 646.515 229.552 646.761C229.829 645.972 230.095 645.212 230.464 644.163C229.905 644.078 229.182 643.967 228.451 643.854C228.451 644.754 228.451 645.367 228.451 645.893ZM225.919 648.363C226.047 648.368 226.174 648.373 226.301 648.378C226.301 647.17 226.301 645.963 226.301 644.722C225.402 645.524 225.235 647.197 225.919 648.363ZM196.7 622.029C197.413 621.905 197.6 620.291 198.354 621.622C198.667 621.148 198.922 620.762 199.148 620.419C198.821 620.207 198.48 619.926 198.091 619.757C197.889 619.669 197.42 619.708 197.38 619.81C197.125 620.463 196.957 621.149 196.7 622.029ZM205.044 626.162C204.35 625.93 203.846 625.761 203.293 625.575C202.98 626.142 202.686 626.674 202.392 627.207C203.803 627.935 204.056 626.533 205.044 626.162ZM216.805 636.036C216.676 636.114 216.548 636.192 216.419 636.269C216.277 637.163 216.864 637.601 217.802 637.823C217.47 637.227 217.137 636.632 216.805 636.036Z" fill="#C5DDF9"/>
<path d="M247.205 612.903C247.494 611.256 246.125 610.973 245.112 610.244C245.514 610.007 245.799 609.838 246.367 609.504C245.646 609.152 245.08 608.876 244.32 608.505C244.287 608.312 244.122 607.863 244.152 607.428C244.306 605.202 242.936 603.795 241.486 602.463C240.268 601.344 238.71 601.287 237.229 601.627C235.901 601.932 234.792 602.077 233.976 600.723C233.852 600.516 233.485 600.454 233.152 600.285C233.419 600.042 233.645 599.837 234.019 599.496C233.452 599.186 232.993 598.946 232.546 598.688C232.021 598.385 231.871 597.977 232.492 597.682C233.421 597.242 234.377 596.824 235.364 596.553C236.031 596.37 236.833 596.351 236.767 595.498C236.738 595.111 236.08 594.772 235.653 594.358C236.012 593.426 237.572 592.366 238.76 592.496C239.447 592.571 239.671 592.409 239.646 591.723C239.636 591.464 239.838 591.009 240.024 590.962C241.547 590.576 243.076 590.152 244.63 589.985C245.335 589.909 246.1 590.389 247.019 590.672C246.868 590.194 246.769 589.877 246.568 589.236C247.583 589.681 248.379 590.03 249.173 590.378C249.217 590.303 249.304 590.222 249.289 590.169C248.772 588.335 248.774 588.356 250.654 588.109C253.454 587.742 256.241 587.222 259.052 586.995C260.878 586.848 262.763 586.89 264.395 588.099C264.813 588.408 265.503 588.349 265.714 588.391C265.893 589.428 266.035 590.253 266.178 591.08C267.017 591.044 267.786 591.017 268.553 590.971C268.749 590.959 268.977 590.934 269.128 590.827C270.573 589.801 270.89 589.772 272.546 590.58C272.545 590.661 272.58 590.778 272.54 590.816C271.211 592.073 269.859 593.305 268.549 594.581C268.108 595.009 267.588 595.496 267.446 596.045C267.337 596.467 267.778 597.023 267.946 597.529C268.066 597.891 268.063 598.316 268.257 598.624C268.406 598.861 268.777 598.959 269.219 599.217C268.4 599.528 267.851 599.737 267.245 599.967C267.703 600.505 268.243 600.877 268.357 601.351C268.457 601.768 268.079 602.298 267.872 602.898C268.014 603.035 268.275 603.283 268.426 603.428C268.029 604.139 267.677 604.77 267.324 605.4C266.947 606.073 266.568 606.745 266.188 607.42C267.362 609.47 266.641 611.192 264.088 612.39C263.751 612.548 263.395 612.703 263.031 612.766C261.236 613.079 259.745 613.728 258.818 615.496C258.517 616.069 257.565 616.446 256.84 616.618C255.639 616.904 254.979 617.529 254.683 618.711C254.305 620.219 253.8 621.695 253.395 623.197C253.162 624.063 252.844 624.271 251.893 623.943C249.49 623.115 248.184 621.437 247.491 619.091C247.286 618.398 246.891 617.716 246.434 617.149C245.196 615.612 245.491 613.816 247.205 612.903Z" fill="#C5DDF9"/>
<path d="M369.265 715.895C370.74 714.667 370.201 712.974 370.071 711.481C369.94 709.972 369.738 708.552 370.175 707.029C370.675 705.284 371.578 704.505 373.408 704.316C374.636 704.189 375.837 703.7 377.019 703.286C377.305 703.186 377.519 702.763 377.676 702.444C377.859 702.074 377.874 701.537 378.488 702.031C378.532 702.067 378.752 701.933 378.856 701.839C379.67 701.107 380.475 700.365 381.331 699.583C381.708 699.981 381.874 700.105 381.971 700.269C382.489 701.15 382.901 701.226 383.627 700.356C384.246 699.613 385.168 699.122 385.85 698.602C386.899 699.068 387.841 699.487 388.733 699.883C388.46 700.672 387.74 701.669 387.979 702.308C388.37 703.355 389.385 704.169 390.154 705.103C392.178 703.636 391.691 701.157 393.135 699.485C393.227 699.832 393.338 700.048 393.332 700.26C393.276 702.459 394.781 704.426 394.284 706.689C394.267 706.765 394.269 706.9 394.313 706.929C395.688 707.812 395.545 709.495 396.291 710.723C396.932 711.78 397.552 713.049 397.576 714.237C397.619 716.309 397.052 718.319 395.699 720.045C394.76 721.245 394.004 722.586 393.125 723.836C392.915 724.135 392.575 724.382 392.242 724.547C391.878 724.727 391.401 724.7 391.068 724.911C390.513 725.262 390.169 725.271 389.557 724.866C388.778 724.351 387.725 724.264 386.892 723.807C386.461 723.572 385.972 722.927 385.987 722.484C386.042 720.923 384.65 720.56 383.909 719.669C383.698 719.415 383.367 719.185 383.302 718.897C382.855 716.926 381.404 715.801 379.4 716.099C378.031 716.302 376.694 716.709 375.338 717.005C375.06 717.066 374.746 717.109 374.479 717.041C373.479 716.784 372.567 716.843 371.578 717.258C370.408 717.748 369.741 716.949 369.265 715.895Z" fill="#C5DDF9"/>
<path d="M219.063 600.642C219.467 600.374 219.87 600.106 220.348 599.789C220.098 599.199 219.57 598.464 221.019 598.26C220.811 598.171 220.603 598.082 220.395 597.993C220.591 597.539 220.666 596.94 221.004 596.658C222.175 595.681 222.148 595.705 221.004 594.775C220.594 594.442 220.559 593.647 220.353 593.063C220.454 592.997 220.554 592.93 220.654 592.863C219.505 592.443 218.338 592.064 217.218 591.577C216.885 591.432 216.684 590.985 216.422 590.676C216.8 590.508 217.191 590.362 217.554 590.165C218.519 589.645 219.872 590.119 220.599 588.947C220.718 588.754 221.206 588.571 221.37 588.661C222.542 589.307 223.262 588.367 224.118 587.943C226.361 586.832 228.791 586.613 231.223 586.522C232.889 586.46 234.572 586.537 236.23 586.717C237.162 586.817 238.057 587.253 239.186 587.605C237.934 588.685 236.757 589.72 235.557 590.729C234.892 591.288 234.212 591.836 233.497 592.329C232.627 592.927 231.692 593.431 230.827 594.035C230.294 594.408 229.693 594.655 229.733 595.621C229.759 596.271 229.174 597.042 228.678 597.593C228.112 598.222 227.341 598.667 226.656 599.193C227.102 599.676 227.38 599.978 227.658 600.279C226.946 600.615 226.263 601.102 225.514 601.247C224.587 601.427 223.604 601.356 222.648 601.332C221.457 601.301 220.269 601.208 219.08 601.142C219.074 600.975 219.068 600.809 219.063 600.642Z" fill="#C5DDF9"/>
<path d="M242.258 614.561C242.101 614.947 241.904 615.534 241.629 616.083C241.239 616.865 240.779 617.432 239.792 616.706C239.545 616.524 239.007 616.737 238.603 616.768C238.835 617.051 239.009 617.45 239.308 617.599C240.92 618.408 241.128 619.795 239.7 620.853C239.8 621.178 239.905 621.522 240.035 621.948C239.8 622.006 239.57 622.145 239.442 622.081C237.999 621.356 236.226 621.454 234.998 620.092C234.608 619.658 233.586 619.67 232.86 619.695C232.118 619.721 231.062 620.4 230.785 619.46C230.476 618.413 231.534 618.214 232.431 618.179C232.746 618.168 233.056 618.009 233.017 618.02C233.366 617.171 233.568 616.588 233.839 616.039C234.261 615.189 234.033 614.448 233.368 613.923C231.891 612.758 230.347 611.793 228.338 611.649C226.353 611.507 224.429 611.079 222.411 611.685C221.057 612.092 220.225 611.264 219.764 609.545C219.378 608.103 220.083 606.549 221.472 606.076C222.528 605.717 223.655 605.333 224.733 605.376C225.253 605.397 225.782 606.343 226.21 606.94C226.399 607.204 226.349 607.641 226.44 608.2C227.027 607.918 227.531 607.748 227.954 607.459C229.061 606.7 230.573 606.793 231.422 607.894C231.859 608.46 232.187 608.544 232.756 608.247C232.929 608.156 233.254 608.06 233.337 608.141C234.763 609.543 237.542 609.344 237.893 612.052C237.978 612.704 238.484 613.232 239.368 613.026C239.634 612.965 239.996 613.138 240.263 613.292C240.908 613.665 241.523 614.089 242.258 614.561Z" fill="#C5DDF9"/>
<path d="M199.613 613.674C199.993 612.997 200.17 612.682 200.211 612.608C199.493 611.996 198.741 611.564 198.308 610.917C197.985 610.434 197.881 609.624 198.029 609.051C198.249 608.202 200.188 607.415 201.132 607.549C201.487 607.6 201.88 607.409 202.227 607.474C202.569 607.538 202.875 607.789 203.28 608.002C203.376 607.744 203.478 607.469 203.67 606.951C204.413 607.451 205.1 607.913 205.796 608.382C205.702 608.164 205.596 607.908 205.481 607.657C205.04 606.705 205.431 605.549 206.38 605.139C206.617 605.036 206.997 605.004 207.186 605.129C207.357 605.243 207.437 605.621 207.419 605.872C207.265 607.901 208.278 609.269 210.231 609.791C210.971 609.99 212.19 609.8 211.29 611.459C210.487 612.938 210.61 613.298 208.93 612.898C207.695 612.604 206.991 613.437 206.131 613.889C204.921 614.525 203.82 615.296 202.519 614.104C202.388 613.984 202.039 614.133 201.801 614.095C201.145 613.987 200.494 613.846 199.613 613.674Z" fill="#C5DDF9"/>
<path d="M388.755 696.689C389.08 696.457 389.375 696.248 389.636 696.063C389.673 694.34 388.433 693.628 387.217 693.172C386.096 692.753 385.689 692.067 385.532 691.024C385.49 690.751 385.33 690.496 385.214 690.205C385.836 689.531 386.592 689.385 387.08 690.166C387.42 690.708 387.342 691.51 387.466 692.293C387.705 692.235 387.943 692.249 388.066 692.137C389.258 691.049 390.325 691.353 391.443 692.306C392.388 693.11 393.515 693.712 394.406 694.566C395.237 695.363 396.138 696.109 395.939 697.64C395.831 698.475 396.69 699.435 397.15 700.418C396.235 700.232 395.481 699.966 394.988 699.042C394.113 697.406 394.031 697.435 392.365 698.24C392.101 698.368 391.674 698.419 391.435 698.293C390.551 697.828 389.713 697.273 388.755 696.689Z" fill="#C5DDF9"/>
<path d="M369.757 687.032C370.184 687.032 370.548 687.032 370.771 687.032C372.133 685.432 373.423 683.916 374.759 682.346C375.209 682.575 375.801 682.877 376.419 683.193C376.128 683.837 375.597 684.49 375.612 685.131C375.626 685.748 376.203 686.353 376.388 686.696C375.991 687.986 375.605 689.09 375.319 690.22C375.089 691.129 374.881 691.838 373.667 691.353C373.202 691.167 372.589 691.381 372.086 691.25C370.828 690.924 369.579 688.671 369.757 687.032Z" fill="#C5DDF9"/>
<path d="M334.155 607.859C332.752 608 331.741 608.168 330.968 607.039C330.676 606.613 330.035 606.427 329.681 606.209C330.249 605.089 330.651 603.945 331.339 603.011C332.844 600.969 334.035 598.532 336.863 597.902C337.102 597.849 337.354 597.849 337.587 597.783C338.493 597.524 339.394 597.251 340.295 596.978C340.947 596.78 341.597 596.572 342.248 596.369C342.344 596.569 342.44 596.769 342.536 596.968C341.933 597.382 341.358 597.846 340.722 598.198C339.128 599.079 337.314 599.681 335.95 600.825C334.628 601.934 333.673 603.527 332.746 605.025C332.519 605.391 332.981 606.236 333.225 606.82C333.355 607.133 333.694 607.359 334.155 607.859Z" fill="#C5DDF9"/>
<path d="M213.501 590.413C214.995 591.333 216.407 592.203 218.115 593.255C218.264 593.771 218.21 594.956 219.675 594.971C218.715 595.803 217.922 596.639 216.988 597.262C215.916 597.976 214.289 597.243 213.096 595.697C212.83 595.351 212.519 595.033 212.192 594.743C211.209 593.874 211.315 592.595 212.374 591.77C212.812 591.43 213.104 590.904 213.501 590.413Z" fill="#C5DDF9"/>
<path d="M287.053 636.095C287.21 634.881 287.33 633.81 287.499 632.747C287.536 632.51 287.691 632.22 287.883 632.093C288.725 631.532 288.734 631.049 287.882 630.532C287.613 630.369 287.386 630.139 287.118 629.974C285.945 629.255 286.762 627.945 286.147 627.029C286.938 626.377 287.674 625.769 288.41 625.162C288.485 626.505 290.47 627.389 289.02 628.412C289.968 630.055 290.836 631.559 291.933 633.459C291.706 635.111 291.528 635.291 289.403 635.641C288.612 635.772 287.828 635.944 287.053 636.095Z" fill="#C5DDF9"/>
<path d="M324.662 694.991C324.903 696.052 325.241 697.058 324.633 698.367C323.697 700.384 323.158 702.588 322.477 704.722C322.235 705.482 321.875 706.303 321.016 706.061C320.535 705.925 320.006 705.089 319.947 704.521C319.853 703.633 320.15 702.706 320.261 701.794C320.334 701.196 320.41 700.594 320.415 699.994C320.424 698.858 320.426 697.95 321.882 697.427C322.944 697.045 323.716 695.859 324.662 694.991Z" fill="#C5DDF9"/>
<path d="M213.632 600.49C214.121 600.49 214.621 600.423 215.097 600.504C216.059 600.667 217.028 600.845 217.952 601.147C218.414 601.297 218.868 601.668 219.172 602.058C219.646 602.667 221.071 602.874 222.198 602.6C223.263 602.341 224.387 602.249 225.485 602.241C225.833 602.239 226.521 602.858 226.475 602.993C226.305 603.484 225.951 604.193 225.556 604.273C224.185 604.55 222.769 604.612 221.367 604.728C220.642 604.787 219.907 604.744 219.184 604.825C218.333 604.92 217.26 604.285 217.152 603.416C217.025 602.385 216.479 602.042 215.51 601.913C214.827 601.821 214.185 601.427 213.524 601.168C213.56 600.942 213.597 600.716 213.632 600.49Z" fill="#C5DDF9"/>
<path d="M193.877 612.26C192.89 611.625 192.169 611.161 191.546 610.76C191.723 609.458 191.898 608.174 192.107 606.637C193.739 605.771 197.069 605.905 198.548 607.135C196.956 608.882 195.373 610.619 193.877 612.26Z" fill="#C5DDF9"/>
<path d="M384.868 656.576C384.704 656.905 384.407 657.498 384.11 658.091C384.002 658.074 383.895 658.057 383.788 658.041C383.527 657.316 383.267 656.592 382.959 655.735C384.574 655.093 385.757 653.569 387.767 653.569C388.252 653.569 388.737 652.764 389.378 652.188C390.31 652.205 391.247 651.196 391.495 649.596C391.546 649.271 391.524 648.903 391.678 648.637C391.8 648.429 392.154 648.226 392.381 648.25C392.58 648.271 392.882 648.6 392.899 648.812C392.946 649.383 392.959 649.989 392.812 650.534C392.569 651.435 392.137 652.285 391.884 653.184C391.646 654.026 391.219 654.495 390.335 654.749C389.034 655.122 387.798 655.714 386.522 656.178C386.059 656.346 385.559 656.414 384.868 656.576Z" fill="#C5DDF9"/>
<path d="M364.704 593.742C366.263 592.313 366.302 592.319 368.573 594.132C367.389 595.505 365.817 595.395 364.141 595.49C364.574 594.103 363.697 593.922 362.755 593.573C361.456 593.092 360.249 592.363 358.905 591.691C359.793 590.376 359.942 588.712 362.066 588.687C362.273 589.297 362.481 590.059 362.8 590.772C362.913 591.025 363.279 591.283 363.559 591.32C364.331 591.424 364.553 591.697 364.307 592.486C364.21 592.799 364.533 593.242 364.704 593.742Z" fill="#C5DDF9"/>
<path d="M267.088 620.007C266.837 619.57 266.565 618.784 266.037 618.25C265.286 617.489 265.992 617.092 266.248 616.559C266.685 616.834 267.125 617.105 267.557 617.388C267.65 617.449 267.716 617.551 267.648 617.479C268.872 616.921 269.956 616.208 271.133 615.985C271.697 615.878 272.572 616.587 273.036 617.149C273.234 617.39 272.768 618.211 272.546 618.744C272.48 618.903 272.186 618.952 272.045 619.099C270.692 620.513 269.088 620.827 267.088 620.007Z" fill="#C5DDF9"/>
<path d="M359.671 683.061C360.357 683.588 361.067 684.088 361.723 684.651C362.375 685.211 363.007 685.803 363.582 686.44C364.04 686.947 364.368 687.57 364.811 688.093C365.249 688.61 365.753 689.072 366.239 689.548C366.458 689.763 366.924 689.986 366.899 690.146C366.755 691.059 366.513 691.959 366.237 692.842C366.221 692.893 365.449 692.88 365.3 692.687C364.398 691.524 363.537 690.325 362.737 689.089C361.819 687.67 360.979 686.201 360.105 684.753C359.839 684.313 359.573 683.874 359.308 683.435C359.429 683.31 359.549 683.186 359.671 683.061Z" fill="#C5DDF9"/>
<path d="M203.643 603.715C203.841 602.818 202.545 601.9 203.922 601.235C204.683 601.746 204.963 603.482 206.38 602.204C207.241 603.171 207.127 603.852 206.11 604.354C205.006 604.901 203.918 605.485 202.848 606.096C201.754 606.72 201.378 606.639 200.798 605.497C200.458 605.572 200.105 605.692 199.746 605.714C199.421 605.735 199.09 605.648 198.506 605.579C198.797 604.574 199.066 603.648 199.363 602.626C200.958 603.032 202.303 603.374 203.643 603.715Z" fill="#C5DDF9"/>
<path d="M209.015 602.329C209.015 601.998 209.015 601.696 209.015 601.275C209.453 601.392 209.783 601.48 210.192 601.589C210.109 601.187 210.042 600.856 209.984 600.571C210.808 600.673 211.587 600.657 212.276 600.898C212.665 601.035 213.144 601.582 213.163 601.966C213.206 602.823 213.139 603.761 212.798 604.524C212.661 604.83 211.685 604.764 211.089 604.854C211.025 604.863 210.892 604.787 210.884 604.736C210.672 603.368 209.538 603.602 208.62 603.318C207.529 602.979 206.67 602.244 206.624 600.868C208.025 600.428 208.067 602.024 209.015 602.329Z" fill="#C5DDF9"/>
<path d="M213.575 607.479C213.534 607.479 213.847 607.479 214.339 607.479C214.267 608.183 214.326 608.868 214.108 609.448C213.692 610.548 212.616 610.754 211.664 610.045C211.268 609.75 210.798 609.544 210.434 609.218C210.156 608.97 209.993 608.596 209.778 608.279C210.099 608.231 210.42 608.186 210.74 608.133C210.887 608.109 211.031 608.07 211.319 608.005C211.001 607.606 210.765 607.308 210.317 606.745C211.253 606.392 212.07 606.041 212.923 605.839C212.997 605.822 213.304 606.788 213.575 607.479Z" fill="#C5DDF9"/>
<path d="M379.547 689.092C379.444 689.388 379.408 689.957 379.191 690.037C378.389 690.333 378.313 690.984 378.291 691.619C378.255 692.687 377.945 693.079 377.009 692.283C376.731 692.644 376.503 692.942 376.223 693.306C375.227 691.145 376.169 689.554 377.42 688.096C377.659 687.818 378.29 687.769 378.73 687.794C379.433 687.834 380.127 688.025 381.043 688.192C380.515 688.51 380.03 688.801 379.547 689.092Z" fill="#C5DDF9"/>
<path d="M411.474 728.684C411.474 728.684 411.818 728.786 412.519 728.993C411.911 729.936 411.416 730.833 410.793 731.631C410.3 732.262 409.598 732.728 409.086 733.347C408.559 733.984 407.988 734.204 407.231 733.89C406.291 733.501 406.145 732.761 406.884 732.057C407.182 731.773 407.536 731.545 407.871 731.301C408.978 730.494 410.087 729.691 411.474 728.684Z" fill="#C5DDF9"/>
<path d="M339.93 589.657C337.934 590.405 336.407 592.033 334.187 591.444C333.693 591.313 333.314 590.749 332.883 590.385C333.322 590.079 333.735 589.724 334.207 589.482C334.823 589.166 335.5 588.968 336.124 588.665C336.817 588.328 338.969 588.768 339.93 589.657Z" fill="#C5DDF9"/>
<path d="M394.699 600.657C395.747 599.86 396.678 600.486 397.599 600.822C397.758 600.88 397.903 601.37 397.827 601.577C397.732 601.837 397.423 602.162 397.169 602.197C396.04 602.356 394.895 602.514 393.761 602.48C393.244 602.464 392.333 602.023 392.318 601.737C392.289 601.185 392.675 600.518 393.087 600.087C393.233 599.934 393.956 600.327 394.413 600.478C394.489 600.503 394.553 600.564 394.699 600.657Z" fill="#C5DDF9"/>
<path d="M394.916 633.588C394.916 634.878 394.905 636.168 394.919 637.458C394.93 638.336 395.124 639.141 394.413 639.994C393.97 640.526 394.153 641.58 394.047 642.471C393.681 642.471 393.334 642.471 393.005 642.471C392.945 642.359 392.865 642.283 392.874 642.217C393.167 639.874 393.438 637.527 393.793 635.193C393.88 634.617 394.248 634.084 394.487 633.532C394.63 633.551 394.773 633.569 394.916 633.588Z" fill="#C5DDF9"/>
<path d="M283.634 631.316C284.109 630.935 284.695 630.321 285.405 629.934C286.283 629.454 286.502 630.003 286.408 630.81C286.357 631.251 286.308 631.702 286.34 632.142C286.41 633.103 285.425 634.448 284.463 634.493C284.197 634.505 283.707 634.11 283.672 633.854C283.567 633.077 283.634 632.277 283.634 631.316Z" fill="#C5DDF9"/>
<path d="M413.105 722.041C413.44 722.614 413.705 722.992 413.893 723.405C414.218 724.115 414.412 724.9 414.828 725.545C415.008 725.823 415.605 725.832 416.262 726.043C415.274 727.176 414.34 728.247 413.381 729.347C413.097 728.302 412.895 727.565 412.699 726.828C412.678 726.751 412.651 726.628 412.689 726.59C413.974 725.332 413.205 723.971 412.905 722.631C412.884 722.537 412.973 722.419 413.105 722.041Z" fill="#C5DDF9"/>
<path d="M194.801 605.062C194.512 604.893 194.202 604.712 193.893 604.531C194.119 604.235 194.327 603.922 194.577 603.646C194.763 603.44 195.107 603.325 195.202 603.095C195.734 601.806 196.994 601.546 198.059 601.021C198.181 600.961 198.49 601.088 198.592 601.22C198.947 601.682 198.362 603.36 197.808 603.656C197.24 603.96 196.714 604.344 196.14 604.633C195.775 604.816 195.355 604.89 194.801 605.062Z" fill="#C5DDF9"/>
<path d="M378.699 675.599C377.935 674.382 377.672 672.964 376.016 672.606C375.231 672.436 375.268 669.067 376.03 668.604C376.231 668.482 376.729 668.647 376.959 668.838C377.133 668.982 377.148 669.378 377.15 669.662C377.165 671.263 377.474 672.072 378.644 673.439C379.379 674.298 379.394 674.522 378.699 675.599Z" fill="#C5DDF9"/>
<path d="M395.882 645.949C395.148 646.385 394.456 646.936 393.668 647.224C392.904 647.504 392.041 647.514 390.947 647.686C391.166 647.134 391.265 646.638 391.533 646.262C392.072 645.505 392.703 644.813 393.356 644.021C393.837 644.624 394.224 645.961 395.817 645.446C395.838 645.614 395.86 645.782 395.882 645.949Z" fill="#C5DDF9"/>
<path d="M206.728 598.166C206.53 597.707 206.277 597.117 206.01 596.494C207.274 595.667 208.203 596.613 209.14 597.052C209.746 597.335 210.202 597.964 210.671 598.487C210.775 598.604 210.729 598.998 210.607 599.132C210.486 599.264 210.155 599.314 209.961 599.253C208.888 598.92 207.829 598.542 206.728 598.166Z" fill="#C5DDF9"/>
<path d="M367.334 693.159C367.829 693.189 368.354 693.122 368.812 693.268C369.996 693.645 371.199 694.022 372.297 694.589C372.861 694.881 373.215 695.578 373.824 696.277C371.191 696.081 369.253 694.786 367.189 693.8C367.238 693.586 367.286 693.373 367.334 693.159Z" fill="#C5DDF9"/>
<path d="M230.203 667.885C231.24 666.475 232.005 666.215 233.273 666.72C234.738 667.304 236.183 667.937 237.899 668.659C236.758 669.238 236.082 669.365 235.156 668.721C234.173 668.037 232.953 667.653 231.788 667.295C231.437 667.187 230.925 667.599 230.203 667.885Z" fill="#C5DDF9"/>
<path d="M211.875 597.423C212.699 597.423 213.533 597.347 214.34 597.464C214.632 597.506 215.028 597.987 215.067 598.306C215.112 598.672 214.92 599.268 214.639 599.426C214.201 599.673 213.401 599.894 213.113 599.669C212.463 599.16 212.033 598.371 211.513 597.696C211.634 597.605 211.755 597.514 211.875 597.423Z" fill="#C5DDF9"/>
<path d="M204.662 598.538C204.377 599.347 204.265 599.785 204.074 600.185C203.574 601.24 202.367 601.585 201.475 600.957C200.767 600.458 200.771 599.607 201.571 599.309C202.475 598.973 203.451 598.83 204.662 598.538Z" fill="#C5DDF9"/>
<path d="M239.06 668.547C240.13 668.822 241.557 668.115 242.642 669.174C242.655 669.326 242.667 669.478 242.679 669.63C241.209 669.951 239.739 670.271 238.104 670.627C238.513 669.737 238.76 669.199 239.06 668.547Z" fill="#C5DDF9"/>
<path d="M379.022 680.144C378.373 679.609 377.719 679.068 376.869 678.367C377.715 677.951 378.743 677.446 379.795 676.928C380.533 678.13 379.92 679.151 379.022 680.144Z" fill="#C5DDF9"/>
<path d="M327.646 590.349C328.583 589.789 329.496 589.133 330.503 588.692C330.934 588.504 331.56 588.762 332.39 588.847C330.245 590.775 328.506 591.226 327.646 590.349Z" fill="#C5DDF9"/>
<path d="M392.616 729.886C392.405 728.831 392.23 727.957 392.05 727.059C392.866 727.059 393.496 727.059 394.121 727.059C394.63 728.276 394.395 728.814 392.616 729.886Z" fill="#C5DDF9"/>
<path d="M381.918 695.372C380.888 696.312 379.949 697.208 378.955 698.038C378.797 698.17 378.322 698.099 378.124 697.949C377.978 697.838 377.951 697.248 378.029 697.212C379.302 696.618 380.189 695.175 381.918 695.372Z" fill="#C5DDF9"/>
<path d="M347.567 676.422C348.769 678.01 348.737 678.774 347.517 679.55C346.737 678.664 346.741 677.745 347.567 676.422Z" fill="#C5DDF9"/>
<path d="M382.37 689.856C382.481 688.961 382.591 688.067 382.742 686.847C384.161 688.65 384.161 688.65 382.789 689.939C382.649 689.912 382.51 689.884 382.37 689.856Z" fill="#C5DDF9"/>
<path d="M375.464 667.612C374.728 666.214 375.005 665.377 376.392 664.869C376.067 665.832 375.795 666.635 375.464 667.612Z" fill="#C5DDF9"/>
<path d="M297.362 648.4C296.618 646.628 296.79 644.648 297.896 643.632C297.5 645.302 298.317 646.797 297.362 648.4Z" fill="#C5DDF9"/>
<path d="M1921 882H0V1000H1921V882Z" fill="#C5DDF9"/>
<path d="M1420.84 851.312C1420.6 849.251 1420.33 847.143 1419.37 845.304C1418.21 843.067 1416.16 841.454 1414.38 839.677C1411.04 836.356 1408.47 832.264 1406.93 827.812C1405.74 824.369 1405.14 820.702 1403.5 817.451C1402.5 815.466 1401.13 813.691 1399.99 811.781C1397.3 807.267 1395.83 801.932 1392.18 798.154C1391.48 802.735 1392.87 807.596 1395.88 811.111C1396.78 812.16 1397.82 813.105 1398.51 814.305C1399.75 816.483 1399.64 819.14 1399.78 821.645C1400.06 826.352 1401.39 830.996 1403.64 835.135C1406.04 839.532 1409.49 843.447 1410.78 848.29C1411.73 851.918 1411.45 855.988 1413.5 859.133C1413.72 859.474 1413.97 859.816 1414.03 860.219C1414.06 860.446 1414.02 860.676 1413.99 860.901C1413.94 861.193 1413.89 861.486 1413.85 861.778C1413.38 864.748 1412.9 868.526 1415.46 870.749C1417.22 872.29 1419.5 872.324 1420.77 870.278C1422.05 868.218 1421.94 865.202 1421.84 862.884C1421.69 859.022 1421.27 855.15 1420.84 851.312Z" fill="#8FBDE2"/>
<path d="M1425.44 848.923C1424.44 845.485 1422.9 842.211 1422.13 838.717C1421.38 835.328 1421.37 831.823 1421.37 828.352C1421.37 824.548 1421.37 820.744 1421.36 816.941C1421.36 814.572 1421.36 812.191 1420.97 809.856C1420.12 804.831 1417.51 800.184 1417.07 795.108C1416.88 792.913 1417.1 790.695 1416.86 788.504C1416.72 787.253 1416.4 785.976 1415.82 784.866C1415.2 783.672 1413.47 783.725 1412.91 784.948C1411.64 787.696 1410.84 790.667 1411.35 793.612C1411.66 795.378 1412.42 797.026 1412.99 798.725C1415.54 806.292 1414.19 814.669 1416.16 822.407C1416.75 824.742 1417.65 827.033 1417.75 829.441C1418 835.204 1413.7 840.469 1414.09 846.224C1414.42 850.942 1417.81 854.847 1419.24 859.357C1420.03 861.881 1420.2 864.576 1421.06 867.081C1421.72 869.028 1423.27 871.392 1425.66 870.801C1427.94 870.24 1427.25 868.383 1427.15 866.609C1426.81 860.608 1427.13 854.786 1425.44 848.923Z" fill="#6EA7CE"/>
<path d="M1430.65 852.074C1430.55 850.287 1431.76 849.387 1432.01 847.616C1432.22 846.12 1432.46 843.753 1432.88 842.303C1433.68 839.587 1432.72 836.796 1432.92 833.971C1433.27 828.836 1433.62 823.701 1433.97 818.566C1434.51 810.584 1435.06 802.58 1436.56 794.72C1436.97 792.538 1437.44 790.173 1436.46 788.181C1436.25 787.761 1435.84 787.316 1435.39 787.455C1435.08 787.555 1434.92 787.905 1434.81 788.218C1431.54 797.084 1430.31 806.629 1426.67 815.345C1425.79 817.433 1424.78 819.487 1424.33 821.705C1423.78 824.369 1424.08 827.12 1424.15 829.837C1424.25 833.734 1423.87 837.66 1422.8 841.406C1422.23 843.366 1421.48 845.282 1421.17 847.298C1420.78 849.812 1421.11 852.373 1421.35 854.904C1421.81 859.771 1421.97 864.668 1421.82 869.555C1421.73 872.428 1424.16 872.352 1425.76 870.587C1426.89 869.353 1426.88 867.998 1427.26 866.461C1428.53 861.417 1430.95 857.543 1430.65 852.074Z" fill="#8FBDE2"/>
<path d="M1415.49 859.864C1413.34 856.418 1409.07 854.459 1407.7 850.638C1407.35 849.665 1407.21 848.619 1406.78 847.678C1405.84 845.588 1403.68 844.407 1401.57 843.445C1401.27 843.312 1400.94 843.525 1400.94 843.848C1400.93 844.361 1401.17 844.852 1401.6 845.138C1403.23 846.235 1404.47 847.912 1405.02 849.802C1405.67 852.042 1405.39 854.497 1406.2 856.684C1406.88 858.52 1408.29 860.021 1408.95 861.865C1409.55 863.551 1409.49 865.393 1409.77 867.161C1410.05 868.929 1410.84 870.805 1412.47 871.554C1418.34 874.26 1416.87 862.09 1415.49 859.864Z" fill="#6EA7CE"/>
<path d="M1439.93 858.727C1439.84 860.393 1440.1 862.14 1439.44 863.675C1439.03 864.657 1438.28 865.451 1437.66 866.322C1435.5 869.381 1434.71 873.715 1431.39 875.437C1431.17 875.55 1430.92 875.652 1430.68 875.607C1430.34 875.543 1430.12 875.215 1429.98 874.896C1429.16 872.998 1430.08 870.86 1430.62 868.866C1430.71 868.518 1430.79 868.129 1430.63 867.808C1430.44 867.455 1430.03 867.302 1429.74 867.025C1429.17 866.473 1429.23 865.56 1429.34 864.775C1429.62 862.814 1430.02 860.87 1430.53 858.956C1430.81 857.87 1431.15 856.775 1431.77 855.843C1432.46 854.817 1433.46 854.051 1434.4 853.246C1438.54 849.687 1441.71 845.008 1443.48 839.841C1443.87 838.723 1444.21 837.542 1445 836.666C1445.8 835.79 1447.21 835.339 1448.18 836.019C1448.87 836.503 1446.05 841.031 1445.72 841.574C1444.78 843.126 1444.77 844.477 1444.24 846.2C1442.94 850.423 1440.18 854.203 1439.93 858.727Z" fill="#8FBDE2"/>
<path d="M1436.66 860.654C1437.27 859.064 1437.89 857.454 1438.09 855.762C1438.32 853.881 1438.02 851.957 1438.34 850.09C1438.75 847.689 1440.16 845.578 1440.85 843.243C1441.35 841.557 1441.47 839.785 1441.77 838.052C1442.63 833.097 1444.96 828.254 1444.29 823.269C1444.15 822.184 1443.66 820.92 1442.58 820.735C1441.61 820.568 1440.72 821.459 1440.47 822.416C1440.21 823.374 1440.4 824.384 1440.47 825.371C1440.67 828.127 1439.88 830.941 1438.29 833.195C1436.75 835.361 1434.53 836.992 1433.15 839.258C1431.46 842.039 1431.23 845.433 1430.37 848.571C1428.66 854.813 1424.35 860.257 1423.57 866.683C1423.26 869.24 1423.86 872.348 1426.22 873.37C1433.05 876.324 1435.11 864.652 1436.66 860.654Z" fill="#6EA7CE"/>
<path d="M1424.72 868.574H1423.63H1409.05C1407.98 868.574 1407.19 869.576 1407.43 870.621L1413.15 894.697C1413.32 895.446 1413.99 895.974 1414.76 895.974H1423.63H1424.72H1433.58C1434.35 895.974 1435.02 895.446 1435.2 894.697L1440.91 870.621C1441.16 869.576 1440.37 868.574 1439.3 868.574H1424.72Z" fill="#AACEF2"/>
<path d="M1922.4 616.07H1813.63V748.372H1922.4V616.07Z" fill="#EBFBFF"/>
<path opacity="0.5" d="M1919.22 678.409V650.142H1917.47V644.177H1902.1V650.142H1900.35V688.235H1897.11V676.357H1894.42V670.549H1890.51V653.595H1884.85V670.549H1880.94V676.357H1878.24V696.452H1876.35L1874.87 696.432V673.15L1834.97 673.531V725.958H1831.6V719.087H1819.47V732.29H1815.96V727.44H1808.28V735.793V737.275H1804.29V748.372H1922.36V678.326L1919.22 678.409Z" fill="#C5DDF9"/>
<path d="M1813.63 532H1810.04V745.716H1813.63V532Z" fill="#AACEF2"/>
<path d="M1810.04 740.775V532H1802.87V740.775H1797V750.705H1922.4V740.775H1810.04Z" fill="#C5DDF9"/>
<path d="M1919.36 544.93V753.705H1926.54V544.93H1932.4V535H1807V544.93H1919.36Z" fill="#C5DDF9"/>
<path d="M1922.4 750.705H1797L1801.76 753.096H1922.4V750.705Z" fill="#AACEF2"/>
<path d="M1913.5 602.214C1913.03 600.191 1911.22 598.682 1909.05 598.682C1908.66 598.682 1908.27 598.733 1907.9 598.829C1906.84 596.545 1904.52 594.963 1901.83 594.963C1901.13 594.963 1900.46 595.068 1899.83 595.265C1898.38 592.869 1895.75 591.267 1892.75 591.267C1889.17 591.267 1886.13 593.535 1884.98 596.709C1884.16 596.254 1883.22 595.994 1882.22 595.994C1879.09 595.994 1876.54 598.533 1876.54 601.664C1876.54 601.85 1876.55 602.033 1876.57 602.215H1913.5V602.214Z" fill="white"/>
<path d="M1884.31 565.325C1883.64 562.42 1881.04 560.253 1877.93 560.253C1877.36 560.253 1876.81 560.327 1876.28 560.464C1874.75 557.184 1871.42 554.912 1867.56 554.912C1866.56 554.912 1865.6 555.064 1864.69 555.346C1862.61 551.905 1858.83 549.605 1854.52 549.605C1849.39 549.605 1845.01 552.861 1843.36 557.42C1842.19 556.766 1840.84 556.393 1839.4 556.393C1834.9 556.393 1831.25 560.038 1831.25 564.535C1831.25 564.802 1831.26 565.065 1831.29 565.325H1884.31V565.325Z" fill="white"/>
<path d="M1843.8 628.045C1843.48 626.671 1842.25 625.646 1840.78 625.646C1840.51 625.646 1840.25 625.681 1840 625.746C1839.28 624.194 1837.7 623.119 1835.87 623.119C1835.4 623.119 1834.95 623.191 1834.52 623.325C1833.54 621.697 1831.75 620.609 1829.71 620.609C1827.28 620.609 1825.21 622.149 1824.43 624.305C1823.87 623.996 1823.24 623.82 1822.56 623.82C1820.43 623.82 1818.7 625.544 1818.7 627.671C1818.7 627.797 1818.71 627.922 1818.72 628.045H1843.8Z" fill="white"/>
<path d="M504.054 870.889H503.186C502.901 867.971 502.339 864.747 501.339 861.374C497.558 848.618 499.212 846.968 492.831 838.994C486.451 831.021 485.978 814.486 485.978 814.486C485.978 814.486 482.905 795.707 485.978 787.439C489.05 779.172 489.286 770.905 496.731 762.165C496.731 762.165 498.149 773.857 499.921 779.172C501.694 784.487 503.377 789.565 502.063 802.321C500.748 815.076 499.932 816.139 499.631 819.446C499.33 822.753 499.803 836.693 499.094 838.994C498.385 841.296 503.23 857.24 503.584 864.09C503.691 866.148 503.882 868.495 504.054 870.889Z" fill="#6EA7CE"/>
<path d="M499.681 865.589C498.656 863.794 497.011 862.08 494.368 861.234C487.455 859.019 483.017 859.574 479.18 852.854C475.343 846.135 474.279 836.491 473 834.608C473 834.608 475.772 833.827 479.154 838.573C482.535 843.319 484.865 846.871 486.82 849.632C488.775 852.393 491.038 851.311 493.285 853.325C495.168 855.013 497.196 859.199 498.028 861.345C498.298 862.042 498.652 862.703 499.09 863.309C499.488 863.861 499.959 864.533 500.25 865.017C500.315 865.125 500.386 865.292 500.461 865.503L499.681 865.589Z" fill="#8FBDE2"/>
<path d="M529.344 820.509C530.053 829.603 524.263 828.895 524.026 834.682C523.79 840.469 516.228 850.272 512.724 857.24C510.902 860.864 510.229 866.405 510.003 870.889H507.188C508.276 859.541 512.883 851.642 515.637 845.311C519.182 837.162 519.713 833.441 516.7 827.064C513.687 820.686 518.118 804.211 513.828 796.865C509.539 789.52 511.737 777.991 512.724 773.562C513.71 769.133 512.624 766.121 511.737 761.452C510.851 756.783 512.724 750 512.724 750C512.883 755.787 517.291 763.7 520.481 768.779C523.671 773.857 529.698 787.676 528.989 793.936C528.28 800.195 528.635 800.668 528.635 800.668C530.88 809.053 528.635 811.415 529.344 820.509Z" fill="#6EA7CE"/>
<path d="M512.454 863.499C512.092 864.585 510.931 867.357 509.869 870.889H508.143C508.928 866.392 510.284 861.175 512.572 858.184C517.18 852.161 526.397 849.563 527.46 845.193C528.524 840.823 527.342 827.713 534.077 820.39C534.077 820.39 533.132 828.543 534.077 830.726C535.023 832.91 543.058 843.067 538.331 851.57C533.605 860.074 522.97 859.011 519.661 860.901C516.353 862.79 513.045 861.728 512.454 863.499Z" fill="#8FBDE2"/>
<path d="M516.708 824.281C516.826 833.021 509.973 836.328 510.091 841.17C510.209 846.012 508.673 851.209 507.373 855.106C506.551 857.574 507.006 864.442 507.152 870.889H505.25C504.771 866.151 504.246 859.317 504.419 856.287C504.655 852.154 502.765 848.847 502.529 841.642C502.292 834.438 500.756 827.942 503.946 818.848C507.137 809.754 506.546 798.888 519.899 788.849C519.899 788.849 522.262 799.478 520.489 805.266C518.717 811.053 516.59 815.541 516.708 824.281Z" fill="#8FBDE2"/>
<path d="M506.326 862.413H507.602H524.629C525.88 862.413 526.803 863.584 526.514 864.803L519.842 892.923C519.635 893.797 518.854 894.415 517.957 894.415H507.602H506.326H495.972C495.074 894.415 494.294 893.797 494.086 892.923L487.415 864.803C487.125 863.583 488.049 862.413 489.3 862.413H506.326Z" fill="#AACEF2"/>
<defs>
<filter id="filter0_f" x="-1424" y="-1424" width="4768" height="3839" filterUnits="userSpaceOnUse" color-interpolation-filters="sRGB">
<feFlood flood-opacity="0" result="BackgroundImageFix"/>
<feBlend mode="normal" in="SourceGraphic" in2="BackgroundImageFix" result="shape"/>
<feGaussianBlur stdDeviation="712" result="effect1_foregroundBlur"/>
</filter>
</defs>
</svg>
