<svg width="753" height="394" viewBox="0 0 753 394" fill="none" xmlns="http://www.w3.org/2000/svg">
<path d="M395.753 45.7559H354.988V101.183H395.753V45.7559Z" fill="#6EA7CE"/>
<path d="M389.722 52.728H361.02V94.2119H389.722V52.728Z" fill="#DDF0FC"/>
<path d="M543.08 45.7559H502.315V101.183H543.08V45.7559Z" fill="#8FBDE2"/>
<path d="M537.049 52.728H508.347V94.2119H537.049V52.728Z" fill="#DDF0FC"/>
<path d="M480.455 55.8859H415.883V111.314H480.455V55.8859Z" fill="#C5DDF9"/>
<path d="M474.128 62.858H422.211V104.342H474.128V62.858Z" fill="#DDF0FC"/>
<path d="M331.332 307.673C331.332 307.652 331.328 299.855 331.301 291.507C326.394 292.13 323.232 291.986 321.432 291.752C323.186 300.603 324.829 308.043 324.832 308.057C324.838 308.424 324.824 308.734 324.783 308.947C324.529 310.244 322.377 311.81 321.938 313.154C321.498 314.498 321.351 315.343 325.012 316.116C328.673 316.888 331.069 316.472 331.175 316.02C331.282 315.568 332.819 312.351 331.886 310.27C331.631 309.701 331.455 308.752 331.332 307.673Z" fill="#F4F4F4"/>
<path d="M324.495 316.618C320.725 315.823 321.388 314.006 321.84 312.622C322.124 311.755 323.324 310.822 324.078 309.901C324.391 310.206 324.896 310.74 326.501 311.397C328.168 312.079 330.627 311.319 332.192 310.846C332.524 312.885 332.289 315.417 332.199 315.796C332.089 316.262 328.265 317.414 324.495 316.618Z" fill="#001333"/>
<path d="M335.104 307.673C335.104 307.652 335.108 299.855 335.135 291.507C340.042 292.13 343.204 291.986 345.004 291.752C343.25 300.603 341.607 308.043 341.604 308.057C341.598 308.424 341.612 308.734 341.654 308.947C341.907 310.244 344.059 311.81 344.498 313.154C344.938 314.498 345.085 315.343 341.424 316.116C337.763 316.888 335.367 316.472 335.261 316.02C335.154 315.568 333.617 312.351 334.55 310.27C334.805 309.701 334.982 308.752 335.104 307.673Z" fill="#F4F4F4"/>
<path d="M341.941 316.618C345.711 315.823 345.049 314.006 344.596 312.622C344.312 311.755 343.112 310.822 342.359 309.901C342.046 310.206 341.54 310.74 339.935 311.397C338.268 312.079 335.81 311.319 334.244 310.846C333.912 312.885 334.147 315.417 334.237 315.796C334.347 316.262 338.172 317.414 341.941 316.618Z" fill="#001333"/>
<path d="M331.301 291.507C331.276 283.682 331.229 275.373 331.145 272.532C330.685 256.977 322.632 257.584 322.632 257.584C322.632 257.584 318.516 257.652 317.367 263.356C316.72 266.568 319.169 280.335 321.432 291.752C323.232 291.986 326.395 292.13 331.301 291.507Z" fill="#F7A491"/>
<path d="M335.136 291.507C335.161 283.682 335.208 275.373 335.292 272.532C335.753 256.977 343.805 257.584 343.805 257.584C343.805 257.584 347.922 257.652 349.07 263.356C349.717 266.568 347.268 280.335 345.005 291.752C343.205 291.986 340.043 292.13 335.136 291.507Z" fill="#F7A491"/>
<path d="M351.132 316.891H352.524L350.309 244.034H348.917L351.132 316.891Z" fill="#6EA7CE"/>
<path d="M313.184 316.891H311.792L314.007 244.034H315.399L313.184 316.891Z" fill="#6EA7CE"/>
<path d="M354.393 208.744H353.284C353.284 208.744 351.62 209.299 349.876 209.577C348.133 209.854 343.298 210.779 338.068 210.965C336.287 211.028 334.454 211.047 332.807 211.046C332.807 211.045 332.806 211.043 332.806 211.042C332.598 211.043 332.383 211.044 332.165 211.045C331.948 211.044 331.733 211.043 331.525 211.042C331.524 211.043 331.524 211.045 331.524 211.046C329.877 211.047 328.044 211.028 326.263 210.965C321.033 210.78 316.198 209.854 314.455 209.577C312.711 209.299 311.047 208.744 311.047 208.744H309.938C308.521 208.744 307.425 210.194 307.601 211.835L312.734 259.73C312.874 261.038 313.79 262.046 314.917 262.133L330.331 263.316C331.047 263.371 331.703 263.045 332.166 262.495C332.628 263.045 333.285 263.371 334.001 263.316L349.414 262.133C350.541 262.046 351.457 261.038 351.597 259.73L356.73 211.835C356.906 210.194 355.81 208.744 354.393 208.744Z" fill="#6EA7CE"/>
<path d="M345.719 193.283C344.55 185.182 337.279 179.299 329.586 183.156C327.855 184.024 325.508 185.794 324.304 187.31C320.995 191.477 320.156 196.671 316.652 200.676C313.631 204.129 305.656 203.401 301.905 206.044C298.154 208.687 295.498 213.462 295.447 219.201C295.389 225.62 296.779 232.447 301.718 236.55C306.658 240.652 313.721 241.727 319.923 240.062C326.126 238.398 331.472 234.232 335.34 229.107C339.207 223.981 341.959 218.35 343.918 212.236C346.104 205.413 346.475 198.519 345.719 193.283Z" fill="#184655"/>
<path d="M325.737 211.023C325.737 211.023 322.491 210.562 317.44 215.427C312.389 220.292 305.577 226.231 308.524 230.972L320.93 230.675C320.93 230.675 328.43 221.852 328.537 221.393C328.644 220.934 325.737 211.023 325.737 211.023Z" fill="#D3D9F4"/>
<path d="M340.218 211.023C340.218 211.023 343.464 210.562 348.515 215.427C353.566 220.292 360.378 226.231 357.431 230.972L345.025 230.675C345.025 230.675 337.525 221.852 337.418 221.393C337.311 220.934 340.218 211.023 340.218 211.023Z" fill="#D3D9F4"/>
<path d="M333.609 253.433C342.855 252.964 350.36 250.802 350.36 250.802L347.11 223.753C345.735 212.307 342.058 211.127 341.039 211.023C340.95 211.021 340.864 211.019 340.773 211.017C340.773 211.017 340.771 211.017 340.771 211.017L340.771 211.017C338.77 210.963 336.154 210.819 333.609 210.656V210.628C333.536 210.632 333.461 210.637 333.388 210.642C333.314 210.637 333.24 210.632 333.167 210.628V210.656C330.622 210.819 328.006 210.963 326.004 211.017L326.004 211.017C326.004 211.017 326.003 211.017 326.003 211.017C325.912 211.019 325.825 211.021 325.737 211.023C324.717 211.127 321.04 212.307 319.665 223.753L316.416 250.802C316.416 250.802 323.921 252.964 333.167 253.433V253.455C333.241 253.452 333.314 253.447 333.388 253.444C333.462 253.447 333.535 253.452 333.609 253.455V253.433H333.609Z" fill="#355389"/>
<path d="M308.205 230.972C308.205 230.972 306.745 229.838 307.81 226.97C308.875 224.102 316.506 222.177 318.175 226.146L308.205 230.972Z" fill="#F4F4F4"/>
<path d="M357.749 230.972C357.749 230.972 359.209 229.838 358.144 226.97C357.079 224.102 349.448 222.177 347.779 226.146L357.749 230.972Z" fill="#F4F4F4"/>
<path d="M336.977 206.31C336.967 206.406 337.406 209.934 337.64 211.798C337.728 212.494 337.311 213.152 336.646 213.375C334.868 213.972 331.419 214.702 329.333 212.372C329.143 212.16 329.059 211.872 329.098 211.59L330.244 203.402L336.977 206.31Z" fill="#F7A491"/>
<path d="M336.646 208.09C336.836 208.026 337.002 207.924 337.145 207.799C337.044 206.964 336.973 206.349 336.977 206.31L330.244 203.403L329.681 207.43C331.785 209.335 334.963 208.654 336.646 208.09Z" fill="#F47458"/>
<path d="M324.741 199.415C325.706 199.275 326.32 198.004 326.112 196.577C325.905 195.15 324.955 194.107 323.99 194.247C323.025 194.388 322.41 195.658 322.618 197.085C322.825 198.512 323.775 199.555 324.741 199.415Z" fill="#F7A491"/>
<path d="M343.679 196.137C342.758 195.817 341.628 196.661 341.154 198.023C340.68 199.385 341.043 200.749 341.964 201.069C342.885 201.39 344.016 200.545 344.489 199.183C344.963 197.821 344.6 196.457 343.679 196.137Z" fill="#F7A491"/>
<path d="M342.569 197.616C341.983 203.748 337.601 208.346 332.781 207.886C327.961 207.426 324.528 202.082 325.114 195.951C325.699 189.819 330.082 185.221 334.902 185.681C339.722 186.141 343.155 191.485 342.569 197.616Z" fill="#F7A491"/>
<path d="M329.231 210.628C329.231 210.628 330.639 213.209 333.568 213.974C333.568 213.974 331.339 214.807 330.066 214.256C328.792 213.706 327.823 212.644 329.231 210.628Z" fill="#F4F4F4"/>
<path d="M337.496 210.628C337.496 210.628 336.103 213.209 333.207 213.974C333.207 213.974 335.411 214.807 336.67 214.256C337.929 213.706 338.887 212.644 337.496 210.628Z" fill="#F4F4F4"/>
<path d="M339.537 231.25C339.696 231.004 339.297 230.588 338.997 230.276C338.665 229.93 336.655 229.062 336.313 228.957C335.971 228.853 333.042 229.265 331.92 229.633C330.799 230 330.06 229.849 330.06 229.849C329.766 229.789 329.324 229.709 328.98 229.638L328.277 232.252C330.91 232.219 333.663 232.415 333.912 232.408C334.703 232.388 336.152 231.561 336.489 231.439C336.825 231.318 337.506 231.414 337.963 231.628C338.421 231.843 339.754 232.352 339.977 232.234C340.2 232.115 339.537 231.25 339.537 231.25Z" fill="#ED9485"/>
<path d="M330.215 229.869C330.215 229.869 315.418 224.475 312.092 225.472C308.765 226.47 307.436 229.601 308.434 231.596C309.432 233.591 329.05 232.249 329.05 232.249L330.215 229.869Z" fill="#ED9485"/>
<path d="M326.417 231.25C326.257 231.004 326.657 230.588 326.956 230.276C327.288 229.93 329.299 229.062 329.64 228.957C329.982 228.853 332.912 229.265 334.033 229.633C335.155 230 335.894 229.849 335.894 229.849C336.188 229.789 336.63 229.709 336.973 229.638L337.676 232.252C335.043 232.219 332.291 232.415 332.041 232.408C331.25 232.388 329.801 231.561 329.465 231.439C329.129 231.318 328.448 231.414 327.99 231.628C327.532 231.843 326.2 232.352 325.976 232.234C325.754 232.115 326.417 231.25 326.417 231.25Z" fill="#F7A491"/>
<path d="M335.74 229.869C335.74 229.869 350.537 224.475 353.864 225.472C357.19 226.47 358.442 229.74 357.444 231.735C356.446 233.73 336.905 232.248 336.905 232.248L335.74 229.869Z" fill="#F7A491"/>
<path d="M274.792 236.033H272.042V316.891H274.792V236.033Z" fill="#001333"/>
<path d="M396.104 236.033H393.354V316.891H396.104V236.033Z" fill="#001333"/>
<path d="M401.288 232.041H266.859V236.033H401.288V232.041Z" fill="#F8C48B"/>
<path d="M396.104 242.136H272.042V280.503H396.104V242.136Z" fill="#F8C48B"/>
<path d="M396.104 286.054H272.042V288.829H396.104V286.054Z" fill="#001333"/>
<path d="M325.277 194.773C325.277 194.773 335.368 188.985 335.571 185.163C335.773 181.341 328.856 185.885 328.856 185.885L324.955 190.655L325.277 194.773Z" fill="#184655"/>
<path d="M334.574 185.658C334.574 185.658 340.884 195.926 342.633 196.208C342.633 196.208 343.667 191.31 343.524 191.111C343.381 190.911 341.039 187.203 340.914 187.051C340.789 186.9 336.311 184.614 336.311 184.614L332.093 184.49L334.574 185.658Z" fill="#184655"/>
<path d="M331.308 293.654C331.306 292.945 331.304 292.228 331.301 291.507C326.394 292.13 323.232 291.986 321.432 291.752C321.564 292.418 321.695 293.076 321.825 293.723C323.076 294.034 326.191 294.525 331.308 293.654Z" fill="#6EA7CE"/>
<path d="M335.128 293.654C335.13 292.945 335.132 292.228 335.134 291.507C340.041 292.13 343.204 291.986 345.004 291.752C344.872 292.418 344.74 293.076 344.61 293.723C343.36 294.034 340.245 294.525 335.128 293.654Z" fill="#6EA7CE"/>
<path d="M331.162 201.704L335.996 201.938C335.996 201.938 335.79 203.841 333.661 203.802C331.064 203.754 331.162 201.704 331.162 201.704Z" fill="white"/>
<path d="M278.543 226.612H277.627C277.777 226.498 277.964 226.431 278.168 226.431H301.105C302.305 226.431 303.278 227.384 303.278 228.56V229.912C303.278 231.088 302.305 232.041 301.105 232.041L278.425 232.034L278.543 226.612Z" fill="#50BFA5"/>
<path d="M291.564 226.436C292.712 226.436 293.642 227.347 293.642 228.472V230C293.642 231.125 292.712 232.036 291.564 232.036H277.285V231.694H277.344L280.974 231.358L281.708 228.537C281.708 228.537 280.292 226.979 280.2 226.938C280.107 226.898 277.344 226.776 277.344 226.776L277.285 226.775V226.436H291.564V226.436Z" fill="#3C8F7C"/>
<path d="M278.211 229.226C278.211 227.577 277.342 226.778 277.342 226.778H291.272C292.326 226.778 293.181 227.615 293.181 228.648V229.824C293.181 230.857 292.326 231.694 291.272 231.694H277.342C277.342 231.694 278.211 231.302 278.211 229.226Z" fill="#F4F4F4"/>
<path d="M293.18 228.648V229.824C293.18 229.979 293.161 230.129 293.125 230.273C292.655 229.146 291.755 228.061 290.04 227.713C286.039 226.898 277.342 226.778 277.342 226.778H291.272C292.326 226.778 293.18 227.615 293.18 228.648Z" fill="#DAEEF7"/>
<path d="M279.087 222.127H278.171C278.321 222.038 278.508 221.984 278.712 221.984H301.658C302.859 221.984 303.832 222.74 303.832 223.673V224.746C303.832 225.679 302.859 226.436 301.658 226.436L278.969 226.43L279.087 222.127Z" fill="#F7CC7F"/>
<path d="M292.115 221.988C293.263 221.988 294.193 222.711 294.193 223.603V224.816C294.193 225.708 293.263 226.432 292.115 226.432H277.83V226.161H277.889L281.521 225.893L282.255 223.655C282.255 223.655 280.838 222.419 280.745 222.387C280.653 222.355 277.889 222.258 277.889 222.258L277.83 222.258V221.988H292.115V221.988Z" fill="#EAB054"/>
<path d="M278.757 224.202C278.757 222.893 277.887 222.259 277.887 222.259H291.822C292.877 222.259 293.732 222.923 293.732 223.743V224.676C293.732 225.496 292.877 226.16 291.822 226.16H277.887C277.887 226.16 278.757 225.849 278.757 224.202Z" fill="#F4F4F4"/>
<path d="M293.731 223.743V224.676C293.731 224.799 293.712 224.918 293.676 225.032C293.206 224.139 292.305 223.278 290.59 223.001C286.587 222.355 277.887 222.259 277.887 222.259H291.822C292.877 222.259 293.731 222.923 293.731 223.743Z" fill="#DAEEF7"/>
<path d="M281.783 228.812L280.892 230.222L279.896 228.812H281.783Z" fill="#466EB6"/>
<path d="M288.814 223.952L287.932 225.349L286.944 223.952H288.814Z" fill="#F47458"/>
<path d="M278.746 223.952H293.732C293.732 223.952 293.732 223.856 293.732 223.84C293.732 223.825 278.733 223.84 278.733 223.84L278.746 223.952Z" fill="#DAEEF7"/>
<path d="M278.185 228.812L293.178 228.804C293.178 228.804 293.178 228.708 293.178 228.692C293.178 228.677 278.172 228.7 278.172 228.7L278.185 228.812Z" fill="#DAEEF7"/>
<path d="M528.919 316.891H530.312L528.097 244.034H526.704L528.919 316.891Z" fill="#6EA7CE"/>
<path d="M490.973 316.891H489.58L491.795 244.034H493.187L490.973 316.891Z" fill="#6EA7CE"/>
<path d="M532.181 208.744H531.072C531.072 208.744 529.408 209.299 527.664 209.577C525.921 209.854 521.086 210.779 515.856 210.965C514.075 211.028 512.242 211.047 510.595 211.046C510.595 211.045 510.594 211.043 510.594 211.042C510.386 211.043 510.171 211.044 509.954 211.045C509.736 211.044 509.521 211.043 509.313 211.042C509.312 211.043 509.312 211.045 509.312 211.046C507.665 211.047 505.832 211.028 504.051 210.965C498.821 210.78 493.986 209.854 492.243 209.577C490.499 209.299 488.835 208.744 488.835 208.744H487.726C486.309 208.744 485.213 210.194 485.389 211.835L490.522 259.73C490.662 261.038 491.578 262.046 492.705 262.133L508.119 263.316C508.835 263.371 509.491 263.045 509.954 262.495C510.416 263.045 511.072 263.371 511.788 263.316L527.202 262.133C528.329 262.046 529.245 261.038 529.385 259.73L534.518 211.835C534.694 210.194 533.598 208.744 532.181 208.744Z" fill="#6EA7CE"/>
<path d="M474.902 187.546C475.458 187.058 477.252 189.993 477.974 189.897C478.697 189.8 477.075 185.64 477.59 185.26C478.539 184.559 479.647 189.706 480.104 189.412C480.561 189.117 479.681 183.752 480.746 183.941C481.811 184.129 481.078 189.599 481.709 189.5C482.34 189.402 481.933 184.353 483.23 183.922C483.923 183.692 482.832 192.641 483.542 193.341C484.252 194.041 486.718 190.997 487.462 191.482C488.207 191.967 482.061 196.703 482.018 197.262C481.975 197.82 480.326 209.981 480.849 213.859C482.2 213.81 489.687 214.357 490.953 214.283C490.346 216.823 490.964 219.235 490.506 221.788C486.211 221.806 475.058 220.414 474.178 219.574C471.499 217.016 476.651 200.86 477.394 197.75C478.137 194.638 477.02 193.48 476.903 191.625C476.786 189.771 474.346 188.033 474.902 187.546Z" fill="#F7A491"/>
<path d="M483.427 223.065C483.427 223.065 499.045 225.264 503.781 223.912C508.517 222.56 512.189 216.17 509.943 212.435C507.697 208.7 482.46 213.455 482.46 213.455L483.427 223.065Z" fill="#B75742"/>
<path d="M518.005 211.023C518.005 211.023 521.251 210.562 526.302 215.427C531.353 220.292 538.165 226.231 535.218 230.972L522.813 230.675C522.813 230.675 515.312 221.852 515.205 221.393C515.098 220.934 518.005 211.023 518.005 211.023Z" fill="#B75742"/>
<path d="M511.396 253.433C520.642 252.964 528.147 250.802 528.147 250.802L524.898 223.753C523.523 212.307 519.846 211.127 518.826 211.023C518.738 211.021 518.651 211.019 518.56 211.017H518.558L518.559 211.017C516.557 210.963 513.941 210.819 511.396 210.656V210.628C511.323 210.632 511.249 210.637 511.175 210.642C511.101 210.637 511.027 210.632 510.954 210.628V210.656C508.409 210.819 505.793 210.963 503.791 211.017L503.792 211.017H503.79C503.699 211.019 503.612 211.021 503.524 211.023C502.504 211.127 498.827 212.307 497.452 223.753L494.203 250.802C494.203 250.802 501.708 252.964 510.954 253.433V253.455C511.028 253.452 511.101 253.447 511.175 253.444C511.249 253.447 511.322 253.452 511.396 253.455V253.433H511.396Z" fill="#F47458"/>
<path d="M512.538 178.664C512.538 178.664 505.713 175.611 503.984 181.242C503.984 181.242 498.371 180.544 499.75 186.581C499.75 186.581 494.349 189.41 498.423 197.055C498.423 197.055 497.712 203.976 505.737 204.584C505.737 204.584 506.753 207.305 510.36 206.789C513.968 206.274 514.932 204.653 514.932 204.653C514.932 204.653 521.432 207.388 522.966 201.339C522.966 201.339 527.609 199.683 524.211 193.674C524.211 193.674 527.554 186.145 521.217 183.116C521.217 183.116 519.33 175.828 512.538 178.664Z" fill="#13375B"/>
<path d="M514.765 206.31C514.755 206.406 515.194 209.934 515.428 211.798C515.515 212.494 515.099 213.152 514.434 213.375C512.656 213.972 509.207 214.702 507.121 212.372C506.931 212.16 506.847 211.872 506.887 211.59L508.032 203.402L514.765 206.31Z" fill="#F7A491"/>
<path d="M514.433 208.09C514.623 208.026 514.789 207.924 514.933 207.799C514.831 206.964 514.76 206.349 514.764 206.31L508.031 203.403L507.468 207.43C509.572 209.335 512.751 208.654 514.433 208.09Z" fill="#F47458"/>
<path d="M502.532 200.071C503.479 199.84 503.97 198.517 503.628 197.116C503.286 195.715 502.241 194.767 501.293 194.998C500.346 195.23 499.855 196.553 500.197 197.954C500.54 199.355 501.585 200.303 502.532 200.071Z" fill="#F7A491"/>
<path d="M521.029 194.984C520.082 194.752 519.037 195.701 518.695 197.102C518.353 198.503 518.843 199.826 519.791 200.057C520.738 200.288 521.783 199.34 522.125 197.939C522.467 196.538 521.977 195.215 521.029 194.984Z" fill="#F7A491"/>
<path d="M511.324 207.732C516.166 207.732 520.091 202.738 520.091 196.579C520.091 190.419 516.166 185.426 511.324 185.426C506.482 185.426 502.557 190.419 502.557 196.579C502.557 202.738 506.482 207.732 511.324 207.732Z" fill="#F7A491"/>
<path d="M507.018 210.628C507.018 210.628 508.426 213.209 511.355 213.974C511.355 213.974 509.126 214.807 507.853 214.256C506.579 213.706 505.61 212.644 507.018 210.628Z" fill="#F4F4F4"/>
<path d="M515.284 210.628C515.284 210.628 513.892 213.209 510.995 213.974C510.995 213.974 513.199 214.807 514.458 214.256C515.718 213.706 516.676 212.644 515.284 210.628Z" fill="#F4F4F4"/>
<path d="M504.204 231.25C504.044 231.004 504.444 230.588 504.744 230.276C505.075 229.93 507.086 229.062 507.427 228.957C507.769 228.853 510.699 229.265 511.82 229.633C512.942 230 513.681 229.849 513.681 229.849C513.975 229.789 514.417 229.709 514.76 229.638L515.463 232.252C512.83 232.219 510.078 232.415 509.828 232.408C509.037 232.388 507.588 231.561 507.252 231.439C506.916 231.318 506.235 231.414 505.777 231.628C505.319 231.843 503.987 232.352 503.764 232.234C503.541 232.115 504.204 231.25 504.204 231.25Z" fill="#F7A491"/>
<path d="M513.527 229.869C513.527 229.869 528.324 224.475 531.651 225.472C534.977 226.47 536.229 229.74 535.231 231.735C534.233 233.73 514.692 232.248 514.692 232.248L513.527 229.869Z" fill="#F7A491"/>
<path d="M452.58 236.033H449.83V316.891H452.58V236.033Z" fill="#001333"/>
<path d="M573.892 236.033H571.142V316.891H573.892V236.033Z" fill="#001333"/>
<path d="M508.853 301.034C508.853 301.034 508.742 308.19 509.675 310.27C510.607 312.351 509.071 315.567 508.964 316.019C508.857 316.472 506.462 316.888 502.801 316.115C499.14 315.343 499.287 314.498 499.726 313.154C500.166 311.809 502.317 310.244 502.571 308.946C502.825 307.649 502.055 302.807 502.055 302.807L508.853 301.034Z" fill="#F7A491"/>
<path d="M502.283 316.618C498.513 315.823 499.176 314.006 499.628 312.622C499.912 311.755 501.113 310.822 501.866 309.901C502.179 310.206 502.684 310.74 504.289 311.397C505.956 312.079 508.415 311.319 509.98 310.846C510.312 312.885 510.077 315.417 509.987 315.796C509.877 316.262 506.053 317.414 502.283 316.618Z" fill="#001333"/>
<path d="M508.933 272.532C509.107 278.408 509.953 307.657 509.953 307.657L501.005 307.842C501.005 307.842 494.006 269.06 495.155 263.356C496.303 257.652 500.42 257.584 500.42 257.584C500.42 257.584 508.472 256.977 508.933 272.532Z" fill="#355389"/>
<path d="M512.034 301.034C512.034 301.034 512.145 308.19 511.212 310.27C510.28 312.351 511.816 315.567 511.923 316.019C512.03 316.472 514.425 316.888 518.086 316.115C521.747 315.343 521.6 314.498 521.16 313.154C520.72 311.809 518.569 310.244 518.315 308.946C518.062 307.649 518.831 302.807 518.831 302.807L512.034 301.034Z" fill="#F7A491"/>
<path d="M518.604 316.618C522.374 315.823 521.711 314.006 521.259 312.622C520.975 311.755 519.775 310.822 519.021 309.901C518.708 310.206 518.203 310.74 516.598 311.397C514.931 312.079 512.473 311.319 510.907 310.846C510.575 312.885 510.811 315.417 510.9 315.796C511.01 316.262 514.835 317.414 518.604 316.618Z" fill="#001333"/>
<path d="M511.954 272.532C511.78 278.408 510.934 307.657 510.934 307.657L519.881 307.842C519.881 307.842 526.88 269.06 525.732 263.356C524.583 257.652 520.466 257.584 520.466 257.584C520.466 257.584 512.414 256.977 511.954 272.532Z" fill="#355389"/>
<path d="M579.075 232.041H444.646V236.033H579.075V232.041Z" fill="#F8C48B"/>
<path d="M573.892 242.136H449.83V280.503H573.892V242.136Z" fill="#F8C48B"/>
<path d="M573.892 286.054H449.83V288.829H573.892V286.054Z" fill="#001333"/>
<path d="M508.84 201.857L513.673 202.123C513.673 202.123 513.454 204.025 511.324 203.972C508.729 203.907 508.84 201.857 508.84 201.857Z" fill="white"/>
<path d="M390.915 222.782H364.341V232.085H390.915V222.782Z" fill="#F4F4F4"/>
<path d="M390.915 224.485H364.341V224.642H390.915V224.485Z" fill="#D3E5F4"/>
<path d="M390.915 226.02H364.341V226.177H390.915V226.02Z" fill="#D3E5F4"/>
<path d="M390.915 227.555H364.341V227.712H390.915V227.555Z" fill="#D3E5F4"/>
<path d="M390.915 229.09H364.341V229.246H390.915V229.09Z" fill="#D3E5F4"/>
<path d="M377.816 226.177C377.816 226.177 365.312 227.25 363.745 228.596C363.745 228.596 363.823 226.999 364.341 226.02L368.258 226.169L377.816 226.177Z" fill="#D3E5F4"/>
<path d="M384.505 226.175L383.141 228.335L381.614 226.175H384.505Z" fill="#F47458"/>
<path d="M378.142 227.712L376.778 229.872L375.251 227.712H378.142Z" fill="#466EB6"/>
<path d="M390.915 230.617H364.341V230.773H390.915V230.617Z" fill="#D3E5F4"/>
<path d="M371.079 229.251L369.715 231.411L368.188 229.251H371.079Z" fill="#50BFA5"/>
<path d="M384.59 222.782V227.397V227.47V232.085H390.915V227.47V227.397V222.782H384.59Z" fill="#D3E5F4"/>
<path d="M566.938 226.612H567.853C567.703 226.498 567.516 226.431 567.312 226.431H544.375C543.175 226.431 542.202 227.384 542.202 228.56V229.912C542.202 231.088 543.175 232.041 544.375 232.041L567.055 232.034L566.938 226.612Z" fill="#50BFA5"/>
<path d="M553.915 226.436C552.767 226.436 551.837 227.347 551.837 228.472V230C551.837 231.125 552.767 232.036 553.915 232.036H568.194V231.694H568.135L564.505 231.358L563.771 228.537C563.771 228.537 565.187 226.979 565.28 226.938C565.372 226.898 568.135 226.776 568.135 226.776L568.194 226.775V226.436H553.915V226.436Z" fill="#3C8F7C"/>
<path d="M567.268 229.226C567.268 227.577 568.138 226.778 568.138 226.778H554.207C553.153 226.778 552.299 227.615 552.299 228.648V229.824C552.299 230.857 553.153 231.694 554.207 231.694H568.138C568.138 231.694 567.268 231.302 567.268 229.226Z" fill="#F4F4F4"/>
<path d="M552.299 228.648V229.824C552.299 229.979 552.318 230.129 552.355 230.273C552.824 229.146 553.725 228.061 555.439 227.713C559.441 226.898 568.138 226.778 568.138 226.778H554.207C553.153 226.778 552.299 227.615 552.299 228.648Z" fill="#DAEEF7"/>
<path d="M566.392 222.127H567.308C567.158 222.038 566.97 221.984 566.767 221.984H543.82C542.62 221.984 541.646 222.74 541.646 223.673V224.746C541.646 225.679 542.62 226.436 543.82 226.436L566.51 226.43L566.392 222.127Z" fill="#F47458"/>
<path d="M553.365 221.988C552.217 221.988 551.286 222.711 551.286 223.603V224.816C551.286 225.708 552.217 226.432 553.365 226.432H567.65V226.161H567.591L563.959 225.893L563.225 223.655C563.225 223.655 564.642 222.419 564.734 222.387C564.827 222.355 567.591 222.258 567.591 222.258L567.65 222.258V221.988H553.365V221.988Z" fill="#B75742"/>
<path d="M566.723 224.202C566.723 222.893 567.593 222.259 567.593 222.259H553.657C552.603 222.259 551.748 222.923 551.748 223.743V224.676C551.748 225.496 552.603 226.16 553.657 226.16H567.593C567.593 226.16 566.723 225.849 566.723 224.202Z" fill="#F4F4F4"/>
<path d="M551.748 223.743V224.676C551.748 224.799 551.768 224.918 551.804 225.032C552.274 224.139 553.174 223.278 554.889 223.001C558.893 222.355 567.593 222.259 567.593 222.259H553.657C552.603 222.259 551.748 222.923 551.748 223.743Z" fill="#DAEEF7"/>
<path d="M563.697 228.812L564.588 230.222L565.585 228.812H563.697Z" fill="#466EB6"/>
<path d="M556.667 223.952L557.549 225.349L558.537 223.952H556.667Z" fill="#F47458"/>
<path d="M566.735 223.952H551.749C551.749 223.952 551.749 223.856 551.749 223.84C551.749 223.825 566.747 223.84 566.747 223.84L566.735 223.952Z" fill="#DAEEF7"/>
<path d="M567.297 228.812L552.303 228.804C552.303 228.804 552.303 228.708 552.303 228.692C552.303 228.677 567.309 228.7 567.309 228.7L567.297 228.812Z" fill="#DAEEF7"/>
<path d="M173.68 316.891H175.072L172.857 244.034H171.465L173.68 316.891Z" fill="#6EA7CE"/>
<path d="M135.733 316.891H134.341L136.556 244.034H137.948L135.733 316.891Z" fill="#6EA7CE"/>
<path d="M176.942 208.744H175.833C175.833 208.744 174.169 209.299 172.425 209.577C170.682 209.854 165.847 210.779 160.617 210.964C158.835 211.027 157.003 211.047 155.356 211.046C155.355 211.045 155.355 211.043 155.355 211.042C155.147 211.043 154.932 211.044 154.714 211.045C154.497 211.044 154.282 211.043 154.073 211.042C154.073 211.043 154.073 211.045 154.073 211.046C152.426 211.047 150.593 211.027 148.812 210.964C143.581 210.779 138.747 209.854 137.003 209.577C135.26 209.299 133.596 208.744 133.596 208.744H132.487C131.07 208.744 129.973 210.194 130.149 211.835L135.283 259.73C135.423 261.038 136.339 262.046 137.465 262.133L152.879 263.316C153.595 263.371 154.251 263.045 154.714 262.495C155.177 263.045 155.833 263.371 156.549 263.316L171.963 262.133C173.09 262.046 174.006 261.038 174.146 259.73L179.279 211.835C179.455 210.194 178.359 208.744 176.942 208.744Z" fill="#6EA7CE"/>
<path d="M167.73 212.606C167.73 212.606 175.426 198.877 177.299 195.959C179.171 193.041 184.048 181.444 184.223 180.987C184.397 180.53 180.864 175.041 181.653 174.854C182.442 174.666 183.314 177.747 184.156 177.379C184.997 177.011 187.455 169.593 187.934 169.961C188.832 170.65 186.61 174.563 187.088 174.809C187.566 175.056 189.015 170.504 189.954 170.638C190.893 170.772 188.168 174.81 188.43 175.166C188.693 175.523 191.523 171.718 192.035 172.53C192.313 172.97 189.433 175.851 189.986 176.121C190.539 176.39 193.101 174.531 193.372 175.067C193.643 175.603 191.003 176.338 190.214 177.783C189.424 179.229 188.08 179.854 187.521 182.531C186.963 185.208 183.268 199.728 180.408 204.561C177.548 209.394 174.118 215.258 174.118 215.258L167.73 212.606Z" fill="#F79C8D"/>
<path d="M160.937 184.128C153.99 180.463 146.023 185.29 144.511 187.248C142.999 189.205 143.742 196.684 145.119 199.455C146.495 202.227 147.994 208.057 151.119 206.98C151.694 206.781 156.043 205.137 156.175 203.839C156.775 204.998 161.331 204.951 161.939 204.925C165.241 204.781 164.769 198.756 165.032 195.673C165.296 192.59 163.126 185.282 160.937 184.128Z" fill="#184655"/>
<path d="M148.285 211.023C148.285 211.023 145.039 210.562 139.988 215.427C134.937 220.292 128.125 226.231 131.072 230.972L143.478 230.675C143.478 230.675 150.978 221.852 151.085 221.393C151.192 220.934 148.285 211.023 148.285 211.023Z" fill="#F47458"/>
<path d="M182.93 200.882L175.938 196.579C175.938 196.579 166.158 211.011 163.587 211.023C163.498 211.02 163.412 211.019 163.321 211.016C163.321 211.016 163.319 211.016 163.319 211.016L163.319 211.016C161.318 210.963 158.702 210.819 156.157 210.656V210.627C156.083 210.632 156.009 210.637 155.936 210.641C155.862 210.637 155.788 210.632 155.714 210.627V210.656C153.169 210.819 150.553 210.963 148.552 211.016L148.552 211.016H148.551C148.459 211.019 148.373 211.02 148.285 211.023C147.265 211.127 143.588 212.307 142.213 223.753L138.964 250.802C138.964 250.802 146.468 252.963 155.714 253.432V253.455C155.789 253.451 155.862 253.447 155.936 253.443C156.01 253.447 156.083 253.451 156.157 253.455V253.432C165.403 252.963 172.907 250.802 172.907 250.802L170.278 228.909C169.923 225.955 170.629 222.968 172.291 220.499C177.054 213.424 182.93 200.882 182.93 200.882Z" fill="#F47458"/>
<path d="M159.525 206.31C159.514 206.406 159.954 209.934 160.188 211.798C160.275 212.494 159.859 213.152 159.194 213.375C157.416 213.972 153.967 214.702 151.881 212.372C151.691 212.16 151.607 211.872 151.646 211.59L152.792 203.402L159.525 206.31Z" fill="#F7A491"/>
<path d="M159.194 208.09C159.384 208.026 159.55 207.924 159.693 207.799C159.592 206.964 159.521 206.349 159.525 206.31L152.792 203.403L152.229 207.43C154.333 209.335 157.511 208.654 159.194 208.09Z" fill="#F47458"/>
<path d="M147.388 198.598C147.985 199.911 147.751 201.302 146.863 201.706C145.976 202.11 144.772 201.373 144.174 200.061C143.576 198.749 143.81 197.357 144.698 196.953C145.586 196.549 146.79 197.286 147.388 198.598Z" fill="#F7A491"/>
<path d="M164.113 193.258C163.139 193.208 162.289 194.334 162.214 195.775C162.14 197.215 162.869 198.423 163.843 198.473C164.817 198.524 165.667 197.397 165.741 195.957C165.816 194.517 165.087 193.309 164.113 193.258Z" fill="#F7A491"/>
<path d="M163.479 194.997C164.63 201.049 161.706 206.686 156.949 207.59C152.192 208.493 147.404 204.32 146.253 198.269C145.103 192.218 148.026 186.58 152.783 185.677C157.54 184.773 162.329 188.946 163.479 194.997Z" fill="#F7A491"/>
<path d="M151.779 210.628C151.779 210.628 153.186 213.209 156.116 213.974C156.116 213.974 153.887 214.807 152.613 214.256C151.34 213.706 150.371 212.644 151.779 210.628Z" fill="#F4F4F4"/>
<path d="M160.044 210.628C160.044 210.628 158.652 213.209 155.756 213.974C155.756 213.974 157.96 214.807 159.219 214.256C160.478 213.706 161.436 212.644 160.044 210.628Z" fill="#F4F4F4"/>
<path d="M162.088 231.25C162.247 231.004 161.848 230.588 161.548 230.276C161.216 229.93 159.206 229.062 158.864 228.957C158.522 228.853 155.593 229.265 154.471 229.633C153.35 230 152.611 229.849 152.611 229.849C152.316 229.789 151.874 229.709 151.531 229.638L150.828 232.252C153.461 232.219 156.214 232.415 156.463 232.408C157.254 232.388 158.703 231.561 159.039 231.439C159.376 231.318 160.057 231.414 160.514 231.628C160.972 231.843 162.305 232.352 162.528 232.234C162.751 232.115 162.088 231.25 162.088 231.25Z" fill="#F7A491"/>
<path d="M152.764 229.869C152.764 229.869 137.967 224.475 134.64 225.472C131.314 226.47 129.985 229.601 130.982 231.596C131.98 233.591 151.598 232.249 151.598 232.249L152.764 229.869Z" fill="#F7A491"/>
<path d="M97.3405 236.033H94.5908V316.891H97.3405V236.033Z" fill="#001333"/>
<path d="M218.652 236.033H215.902V316.891H218.652V236.033Z" fill="#001333"/>
<path d="M153.614 301.034C153.614 301.034 153.503 308.19 154.435 310.27C155.368 312.351 153.831 315.567 153.725 316.019C153.618 316.472 151.222 316.888 147.561 316.115C143.9 315.343 144.047 314.498 144.487 313.154C144.927 311.809 147.078 310.244 147.332 308.946C147.586 307.649 146.816 302.807 146.816 302.807L153.614 301.034Z" fill="#F7A491"/>
<path d="M147.043 316.618C143.273 315.823 143.935 314.006 144.388 312.622C144.672 311.755 145.872 310.822 146.625 309.901C146.938 310.206 147.444 310.74 149.049 311.397C150.716 312.079 153.175 311.319 154.74 310.846C155.072 312.885 154.836 315.417 154.747 315.796C154.637 316.262 150.812 317.414 147.043 316.618Z" fill="#001333"/>
<path d="M153.694 272.532C153.868 278.408 154.715 307.657 154.715 307.657L145.767 307.842C145.767 307.842 138.768 269.06 139.916 263.356C141.065 257.652 145.182 257.584 145.182 257.584C145.182 257.584 153.234 256.977 153.694 272.532Z" fill="#355389"/>
<path d="M156.794 301.034C156.794 301.034 156.905 308.19 155.972 310.27C155.039 312.351 156.576 315.567 156.683 316.019C156.789 316.472 159.185 316.888 162.846 316.115C166.507 315.343 166.36 314.498 165.92 313.154C165.481 311.809 163.329 310.244 163.075 308.946C162.821 307.649 163.591 302.807 163.591 302.807L156.794 301.034Z" fill="#F7A491"/>
<path d="M163.365 316.618C167.135 315.823 166.472 314.006 166.02 312.622C165.736 311.755 164.536 310.822 163.783 309.901C163.47 310.206 162.964 310.74 161.359 311.397C159.692 312.079 157.233 311.319 155.668 310.846C155.336 312.885 155.571 315.417 155.661 315.796C155.771 316.262 159.595 317.414 163.365 316.618Z" fill="#001333"/>
<path d="M156.714 272.532C156.54 278.408 155.694 307.657 155.694 307.657L164.642 307.842C164.642 307.842 171.641 269.06 170.492 263.356C169.344 257.652 165.227 257.584 165.227 257.584C165.227 257.584 157.175 256.977 156.714 272.532Z" fill="#355389"/>
<path d="M223.835 232.041H89.4072V236.033H223.835V232.041Z" fill="#F8C48B"/>
<path d="M218.652 242.136H94.5908V280.503H218.652V242.136Z" fill="#F8C48B"/>
<path d="M218.652 286.054H94.5908V288.829H218.652V286.054Z" fill="#001333"/>
<path d="M186.761 226.612H185.846C185.995 226.498 186.183 226.431 186.387 226.431H209.324C210.524 226.431 211.497 227.384 211.497 228.56V229.912C211.497 231.088 210.524 232.041 209.324 232.041L186.643 232.034L186.761 226.612Z" fill="#13375B"/>
<path d="M199.783 226.436C200.93 226.436 201.861 227.348 201.861 228.472V230.001C201.861 231.125 200.93 232.037 199.783 232.037H185.504V231.695H185.563L189.193 231.358L189.927 228.538C189.927 228.538 188.51 226.979 188.418 226.939C188.326 226.899 185.563 226.777 185.563 226.777L185.504 226.776V226.436H199.783V226.436Z" fill="#0E293F"/>
<path d="M186.43 229.226C186.43 227.577 185.561 226.777 185.561 226.777H199.491C200.545 226.777 201.399 227.615 201.399 228.648V229.824C201.399 230.857 200.545 231.694 199.491 231.694H185.561C185.561 231.694 186.43 231.302 186.43 229.226Z" fill="#F4F4F4"/>
<path d="M201.399 228.648V229.824C201.399 229.979 201.38 230.129 201.344 230.273C200.874 229.146 199.973 228.061 198.259 227.713C194.257 226.898 185.561 226.777 185.561 226.777H199.491C200.545 226.777 201.399 227.615 201.399 228.648Z" fill="#DAEEF7"/>
<path d="M212.46 222.127H213.376C213.226 222.037 213.039 221.984 212.835 221.984H189.889C188.688 221.984 187.715 222.74 187.715 223.673V224.746C187.715 225.679 188.688 226.436 189.889 226.436L212.578 226.43L212.46 222.127Z" fill="#50BFA5"/>
<path d="M199.432 221.988C198.284 221.988 197.354 222.711 197.354 223.603V224.816C197.354 225.708 198.284 226.432 199.432 226.432H213.717V226.16H213.658L210.027 225.893L209.293 223.655C209.293 223.655 210.709 222.419 210.802 222.387C210.894 222.355 213.658 222.258 213.658 222.258L213.717 222.258V221.988H199.432V221.988Z" fill="#3C8F7C"/>
<path d="M212.792 224.202C212.792 222.893 213.662 222.259 213.662 222.259H199.727C198.672 222.259 197.817 222.923 197.817 223.743V224.676C197.817 225.496 198.672 226.16 199.727 226.16H213.662C213.662 226.16 212.792 225.849 212.792 224.202Z" fill="#F4F4F4"/>
<path d="M197.817 223.743V224.676C197.817 224.799 197.837 224.918 197.873 225.032C198.343 224.139 199.244 223.278 200.959 223.001C204.962 222.355 213.662 222.259 213.662 222.259H199.727C198.672 222.259 197.817 222.923 197.817 223.743Z" fill="#DAEEF7"/>
<path d="M146.023 197.061C146.023 197.061 150.052 196.089 151.733 193.447C153.414 190.806 157.015 186.292 158.577 186.247C160.138 186.201 156.915 184.114 155.824 184.321C154.733 184.528 147.177 186.742 147.177 186.742L145.895 190.162L144.828 194.32L146.023 197.061Z" fill="#184655"/>
<path d="M175.929 196.594L182.9 200.948L183.688 199.159L177.07 195.252L175.929 196.594Z" fill="#F4F4F4"/>
<path d="M153.54 202.484L158.766 201.235C158.766 201.235 159.136 203.328 156.854 203.946C154.072 204.7 153.54 202.484 153.54 202.484Z" fill="white"/>
<path d="M210.752 224.18L209.869 225.577L208.882 224.18H210.752Z" fill="#F47458"/>
<path d="M197.829 224.18H212.793C212.793 224.18 212.793 224.083 212.793 224.068C212.793 224.052 197.816 224.068 197.816 224.068L197.829 224.18Z" fill="#DAEEF7"/>
<path d="M188.479 229.355L189.361 230.752L190.348 229.355H188.479Z" fill="#50BFA5"/>
<path d="M201.401 229.355H186.438C186.438 229.355 186.438 229.258 186.438 229.243C186.438 229.227 201.414 229.243 201.414 229.243L201.401 229.355Z" fill="#DAEEF7"/>
<path d="M189.178 217.698H188.455C188.573 217.609 188.722 217.555 188.882 217.555H207.003C207.952 217.555 208.72 218.308 208.72 219.237V220.306C208.72 221.235 207.952 221.988 207.003 221.988L189.085 221.982L189.178 217.698Z" fill="#F47458"/>
<path d="M199.466 217.561C200.373 217.561 201.108 218.281 201.108 219.169V220.377C201.108 221.265 200.373 221.986 199.466 221.986H188.186V221.716H188.232L191.1 221.449L191.68 219.221C191.68 219.221 190.561 217.99 190.488 217.958C190.415 217.926 188.232 217.83 188.232 217.83L188.186 217.83V217.561H199.466V217.561Z" fill="#B75742"/>
<path d="M188.918 219.763C188.918 218.461 188.23 217.829 188.23 217.829H199.236C200.068 217.829 200.744 218.491 200.744 219.307V220.236C200.744 221.052 200.068 221.714 199.236 221.714H188.23C188.23 221.714 188.918 221.404 188.918 219.763Z" fill="#F4F4F4"/>
<path d="M200.744 219.307V220.236C200.744 220.358 200.728 220.477 200.7 220.59C200.328 219.7 199.617 218.843 198.263 218.568C195.101 217.925 188.23 217.829 188.23 217.829H199.236C200.068 217.829 200.744 218.49 200.744 219.307Z" fill="#DAEEF7"/>
<path d="M196.69 219.672L197.469 221.053L198.167 219.672H196.69Z" fill="#13375B"/>
<path d="M200.743 219.672H188.912C188.912 219.672 188.912 219.575 188.912 219.56C188.912 219.544 200.743 219.56 200.743 219.56V219.672Z" fill="#DAEEF7"/>
<path d="M702.845 316.776H704.237L702.022 243.919H700.63L702.845 316.776Z" fill="#6EA7CE"/>
<path d="M664.897 316.776H663.505L665.72 243.919H667.112L664.897 316.776Z" fill="#6EA7CE"/>
<path d="M706.106 208.629H704.997C704.997 208.629 703.332 209.184 701.589 209.462C699.845 209.739 695.011 210.664 689.781 210.85C687.999 210.913 686.167 210.932 684.52 210.931C684.519 210.93 684.519 210.928 684.519 210.927C684.311 210.928 684.095 210.929 683.878 210.93C683.661 210.929 683.446 210.928 683.238 210.927C683.237 210.928 683.237 210.93 683.237 210.931C681.59 210.932 679.757 210.913 677.976 210.85C672.746 210.665 667.911 209.739 666.168 209.462C664.424 209.184 662.76 208.629 662.76 208.629H661.651C660.234 208.629 659.138 210.079 659.313 211.72L664.447 259.615C664.587 260.923 665.503 261.932 666.63 262.018L682.044 263.201C682.759 263.256 683.416 262.93 683.878 262.38C684.341 262.931 684.997 263.256 685.713 263.201L701.127 262.018C702.254 261.931 703.17 260.923 703.31 259.615L708.443 211.72C708.619 210.079 707.523 208.629 706.106 208.629Z" fill="#6EA7CE"/>
<path d="M679.915 183.901C679.915 183.901 675.201 183.032 673.082 188.015C670.962 192.998 672.443 192.312 671.422 194.797C670.401 197.282 666.675 197.425 667.259 200.92C667.843 204.414 669.564 204.685 669.564 204.685C669.564 204.685 668.543 207.649 670.641 210.172C672.739 212.695 677.206 214.423 680.543 213.467C680.543 213.467 686.121 215.415 691.023 213.236C695.926 211.057 694.14 211.355 696.236 211.005C698.332 210.655 703.519 206.836 701.887 202.799C701.887 202.799 704.654 198.119 700.743 195.328C696.832 192.536 695.63 189.238 692.936 185.059C690.242 180.879 682.062 182.425 679.915 183.901Z" fill="#0E2E35"/>
<path d="M678.009 210.908C678.009 210.908 674.763 210.447 669.712 215.312C664.66 220.177 657.849 226.116 660.795 230.857L673.201 230.56C673.201 230.56 680.702 221.737 680.809 221.278C680.916 220.82 678.009 210.908 678.009 210.908Z" fill="#D3D9F4"/>
<path d="M683.045 307.558C683.045 307.537 683.041 299.74 683.014 291.392C678.107 292.015 674.945 291.871 673.145 291.637C674.899 300.488 676.542 307.928 676.545 307.942C676.551 308.309 676.537 308.619 676.496 308.832C676.242 310.129 674.09 311.695 673.651 313.039C673.211 314.383 673.064 315.228 676.725 316C680.386 316.773 682.782 316.357 682.888 315.905C682.995 315.452 684.532 312.236 683.599 310.155C683.344 309.586 683.167 308.636 683.045 307.558Z" fill="#F4F4F4"/>
<path d="M676.207 316.504C672.437 315.708 673.1 313.892 673.552 312.507C673.836 311.641 675.036 310.708 675.789 309.786C676.102 310.091 676.608 310.625 678.213 311.282C679.88 311.964 682.338 311.205 683.904 310.732C684.236 312.77 684 315.303 683.911 315.681C683.801 316.147 679.976 317.299 676.207 316.504Z" fill="#001333"/>
<path d="M686.816 307.558C686.816 307.537 686.82 299.74 686.847 291.392C691.754 292.015 694.916 291.871 696.716 291.637C694.962 300.488 693.319 307.928 693.316 307.942C693.31 308.309 693.324 308.619 693.365 308.832C693.619 310.129 695.771 311.695 696.21 313.039C696.65 314.383 696.797 315.228 693.136 316C689.475 316.773 687.079 316.357 686.973 315.905C686.866 315.452 685.329 312.236 686.262 310.155C686.517 309.586 686.694 308.636 686.816 307.558Z" fill="#F4F4F4"/>
<path d="M693.654 316.504C697.424 315.708 696.761 313.892 696.309 312.507C696.025 311.641 694.825 310.708 694.072 309.786C693.758 310.091 693.253 310.625 691.648 311.282C689.981 311.964 687.522 311.205 685.957 310.732C685.625 312.77 685.86 315.303 685.95 315.681C686.059 316.147 689.884 317.299 693.654 316.504Z" fill="#001333"/>
<path d="M683.013 291.392C682.988 283.567 682.941 275.258 682.857 272.417C682.397 256.863 674.344 257.469 674.344 257.469C674.344 257.469 670.228 257.537 669.079 263.241C668.432 266.453 670.881 280.22 673.144 291.637C674.944 291.871 678.106 292.015 683.013 291.392Z" fill="#F7A491"/>
<path d="M686.848 291.392C686.873 283.567 686.92 275.258 687.004 272.417C687.464 256.863 695.517 257.469 695.517 257.469C695.517 257.469 699.633 257.537 700.782 263.241C701.429 266.453 698.98 280.22 696.717 291.637C694.917 291.871 691.755 292.015 686.848 291.392Z" fill="#F7A491"/>
<path d="M692.485 210.902C692.485 210.902 696.851 210.447 701.902 215.312C706.953 220.177 713.764 226.116 710.818 230.857L698.412 230.56C698.412 230.56 690.912 221.737 690.804 221.278C690.698 220.819 692.485 210.902 692.485 210.902Z" fill="#D3D9F4"/>
<path d="M685.321 253.318C694.567 252.849 702.072 250.687 702.072 250.687L698.823 223.639C697.448 212.192 693.77 211.012 692.751 210.908C692.663 210.906 692.576 210.904 692.485 210.902C692.485 210.902 692.483 210.902 692.483 210.902L692.484 210.902C690.482 210.849 687.866 210.704 685.321 210.541V210.513C685.248 210.518 685.173 210.522 685.1 210.527C685.026 210.522 684.952 210.518 684.879 210.513V210.541C682.334 210.704 679.717 210.849 677.716 210.902L677.716 210.902L677.715 210.902C677.624 210.904 677.537 210.906 677.449 210.908C676.429 211.012 672.752 212.192 671.377 223.639L668.128 250.687C668.128 250.687 675.633 252.849 684.878 253.318V253.34C684.953 253.337 685.026 253.333 685.1 253.329C685.174 253.333 685.247 253.337 685.321 253.34V253.318H685.321Z" fill="#355389"/>
<path d="M711.136 230.857C711.136 230.857 712.597 229.723 711.532 226.856C710.466 223.988 702.836 222.062 701.167 226.032L711.136 230.857Z" fill="#F4F4F4"/>
<path d="M660.477 230.857C660.477 230.857 659.016 229.723 660.081 226.856C661.147 223.988 668.777 222.062 670.446 226.032L660.477 230.857Z" fill="#F4F4F4"/>
<path d="M691.81 231.135C691.969 230.889 691.57 230.473 691.27 230.161C690.938 229.815 688.928 228.947 688.586 228.843C688.244 228.738 685.315 229.151 684.193 229.518C683.072 229.885 682.333 229.734 682.333 229.734C682.039 229.674 681.597 229.594 681.254 229.523L680.551 232.137C683.183 232.104 685.936 232.3 686.186 232.294C686.977 232.274 688.426 231.446 688.762 231.325C689.098 231.203 689.779 231.299 690.237 231.513C690.694 231.728 692.027 232.238 692.25 232.119C692.473 232 691.81 231.135 691.81 231.135Z" fill="#ED9485"/>
<path d="M682.486 229.754C682.486 229.754 667.689 224.36 664.363 225.358C661.037 226.355 659.707 229.486 660.705 231.481C661.703 233.476 681.321 232.134 681.321 232.134L682.486 229.754Z" fill="#ED9485"/>
<path d="M688.689 206.195C688.678 206.292 689.118 209.819 689.352 211.684C689.439 212.38 689.023 213.038 688.358 213.261C686.58 213.857 683.13 214.587 681.045 212.257C680.855 212.045 680.771 211.758 680.81 211.476L681.956 203.288L688.689 206.195Z" fill="#F7A491"/>
<path d="M688.358 207.975C688.548 207.912 688.714 207.81 688.857 207.684C688.756 206.849 688.685 206.234 688.689 206.195L681.956 203.288L681.393 207.315C683.497 209.22 686.675 208.539 688.358 207.975Z" fill="#F47458"/>
<path d="M677.451 197.541C677.895 198.913 677.502 200.268 676.574 200.568C675.646 200.868 674.534 199.998 674.091 198.626C673.647 197.254 674.04 195.898 674.968 195.599C675.896 195.299 677.008 196.169 677.451 197.541Z" fill="#F7A491"/>
<path d="M694.671 194.124C693.71 193.963 692.736 194.985 692.497 196.407C692.258 197.829 692.844 199.113 693.806 199.275C694.767 199.436 695.741 198.414 695.98 196.992C696.219 195.57 695.633 194.286 694.671 194.124Z" fill="#F7A491"/>
<path d="M693.849 195.807C694.298 201.95 690.748 207.216 685.918 207.568C681.089 207.921 676.811 203.227 676.362 197.084C675.912 190.941 679.463 185.675 684.292 185.322C689.121 184.97 693.4 189.664 693.849 195.807Z" fill="#F7A491"/>
<path d="M680.944 210.513C680.944 210.513 682.352 213.094 685.281 213.859C685.281 213.859 683.052 214.692 681.778 214.142C680.505 213.591 679.536 212.529 680.944 210.513Z" fill="#F4F4F4"/>
<path d="M689.209 210.513C689.209 210.513 687.817 213.094 684.92 213.859C684.92 213.859 687.124 214.692 688.383 214.142C689.642 213.591 690.601 212.529 689.209 210.513Z" fill="#F4F4F4"/>
<path d="M689.127 229.754C689.127 229.754 703.924 224.36 707.25 225.358C710.577 226.355 711.828 229.625 710.831 231.62C709.833 233.615 689.329 232.497 689.329 232.497L689.127 229.754Z" fill="#F7A491"/>
<path d="M626.504 235.918H623.754V316.776H626.504V235.918Z" fill="#001333"/>
<path d="M747.816 235.918H745.066V316.776H747.816V235.918Z" fill="#001333"/>
<path d="M747.815 242.022H623.754V280.388H747.815V242.022Z" fill="#F8C48B"/>
<path d="M747.815 285.939H623.754V288.714H747.815V285.939Z" fill="#001333"/>
<path d="M683.02 293.539C683.018 292.83 683.016 292.113 683.014 291.392C678.107 292.015 674.945 291.871 673.145 291.637C673.277 292.303 673.408 292.961 673.538 293.608C674.789 293.919 677.903 294.41 683.02 293.539Z" fill="#6EA7CE"/>
<path d="M686.841 293.539C686.843 292.83 686.845 292.113 686.847 291.392C691.755 292.015 694.917 291.871 696.717 291.637C696.585 292.303 696.453 292.961 696.323 293.608C695.073 293.919 691.958 294.41 686.841 293.539Z" fill="#6EA7CE"/>
<path d="M683.288 201.744L688.094 201.166C688.094 201.166 688.209 203.077 686.103 203.395C683.536 203.782 683.288 201.744 683.288 201.744Z" fill="white"/>
<path d="M715.406 226.497H714.49C714.64 226.383 714.828 226.316 715.031 226.316H737.969C739.169 226.316 740.141 227.269 740.141 228.445V229.797C740.141 230.973 739.168 231.927 737.969 231.927L715.288 231.919L715.406 226.497Z" fill="#50BFA5"/>
<path d="M728.428 226.321C729.576 226.321 730.506 227.232 730.506 228.357V229.885C730.506 231.01 729.576 231.921 728.428 231.921H714.149V231.58H714.208L717.838 231.243L718.572 228.422C718.572 228.422 717.156 226.864 717.064 226.824C716.971 226.783 714.208 226.661 714.208 226.661L714.149 226.661V226.321H728.428V226.321Z" fill="#3C8F7C"/>
<path d="M715.076 229.111C715.076 227.462 714.206 226.663 714.206 226.663H728.136C729.19 226.663 730.045 227.5 730.045 228.533V229.709C730.045 230.742 729.19 231.58 728.136 231.58H714.206C714.206 231.58 715.076 231.187 715.076 229.111Z" fill="#F4F4F4"/>
<path d="M730.044 228.533V229.709C730.044 229.864 730.024 230.014 729.988 230.158C729.519 229.031 728.618 227.946 726.904 227.598C722.902 226.783 714.205 226.663 714.205 226.663H728.135C729.19 226.663 730.044 227.5 730.044 228.533Z" fill="#DAEEF7"/>
<path d="M715.951 222.013H715.035C715.185 221.923 715.372 221.869 715.576 221.869H738.523C739.724 221.869 740.697 222.625 740.697 223.558V224.631C740.697 225.564 739.724 226.321 738.523 226.321L715.833 226.315L715.951 222.013Z" fill="#F7CC7F"/>
<path d="M728.978 221.873C730.126 221.873 731.057 222.596 731.057 223.488V224.701C731.057 225.593 730.126 226.317 728.978 226.317H714.693V226.046H714.752L718.384 225.778L719.118 223.54C719.118 223.54 717.701 222.304 717.609 222.272C717.516 222.24 714.752 222.143 714.752 222.143L714.693 222.143V221.873H728.978V221.873Z" fill="#EAB054"/>
<path d="M715.621 224.087C715.621 222.778 714.751 222.144 714.751 222.144H728.687C729.741 222.144 730.596 222.808 730.596 223.628V224.562C730.596 225.381 729.741 226.046 728.687 226.046H714.751C714.751 226.046 715.621 225.735 715.621 224.087Z" fill="#F4F4F4"/>
<path d="M730.596 223.628V224.562C730.596 224.684 730.577 224.804 730.54 224.918C730.07 224.024 729.169 223.163 727.455 222.886C723.451 222.24 714.751 222.144 714.751 222.144H728.687C729.741 222.144 730.596 222.809 730.596 223.628Z" fill="#DAEEF7"/>
<path d="M718.648 228.697L717.758 230.107L716.761 228.697H718.648Z" fill="#466EB6"/>
<path d="M725.678 223.837L724.796 225.234L723.809 223.837H725.678Z" fill="#F47458"/>
<path d="M715.61 223.837H730.596C730.596 223.837 730.596 223.741 730.596 223.725C730.596 223.71 715.598 223.725 715.598 223.725L715.61 223.837Z" fill="#DAEEF7"/>
<path d="M715.05 228.697L730.044 228.689C730.044 228.689 730.044 228.593 730.044 228.577C730.044 228.562 715.037 228.585 715.037 228.585L715.05 228.697Z" fill="#DAEEF7"/>
<path d="M686.978 230.236L685.383 232.071L685.537 229.645L686.306 229.111L686.978 230.236Z" fill="#F2E9DA"/>
<path d="M686.306 229.111L686.479 229.4L685.383 232.071L685.537 229.645L686.306 229.111Z" fill="#E0D5C3"/>
<path d="M685.537 229.645L685.497 230.273L685.943 229.811L689.456 221.254L688.943 221.346L685.537 229.645Z" fill="#E8BA70"/>
<path d="M685.943 229.811L686.031 230.492L686.572 230.069L690.085 221.512L689.456 221.254L685.943 229.811Z" fill="#F7CC7F"/>
<path d="M686.572 230.069L686.565 230.711L686.979 230.236L690.385 221.937L690.084 221.512L686.572 230.069Z" fill="#FAE0B2"/>
<path d="M689.788 222.15L690.047 221.519L689.418 221.261L689.16 221.892L689.788 222.15Z" fill="#466EB6"/>
<path d="M689.825 222.142L690.084 221.512L690.384 221.937L690.232 222.309L689.825 222.142Z" fill="#88B5E2"/>
<path d="M688.79 221.718L688.942 221.346L689.455 221.254L689.197 221.884L688.79 221.718Z" fill="#2C4B70"/>
<path d="M689.531 222.865L689.938 223.032L690.242 222.289L689.836 222.123L689.531 222.865Z" fill="#FEF8F8"/>
<path d="M688.452 222.474L688.858 222.641L689.163 221.898L688.756 221.731L688.452 222.474Z" fill="#EDDFCA"/>
<path d="M688.928 222.617L689.557 222.875L689.861 222.132L689.233 221.874L688.928 222.617Z" fill="#F2E9DA"/>
<path d="M685.924 231.448C685.919 231.454 685.383 232.071 685.383 232.071L685.435 231.248L685.625 231.482L685.924 231.448Z" fill="#DB3F2A"/>
<path d="M691.733 228.933C691.146 229.01 690.709 229.055 690.649 229.026C690.407 228.911 689.563 228.429 689.03 228.366C688.497 228.302 687.598 227.956 687.338 228.003C687.077 228.049 685.79 228.719 685.606 228.752C685.422 228.785 685.232 228.961 685.12 229.044C685.009 229.127 683.734 229.337 683.498 229.521C683.262 229.705 683.286 230.459 683.462 230.649C683.462 230.649 683.481 230.717 683.369 230.819C683.257 230.922 683.142 231.274 683.188 231.468C683.234 231.661 683.452 231.954 683.719 231.918C683.719 231.918 683.851 231.93 683.871 231.974C683.89 232.018 683.834 232.301 683.923 232.534C684.012 232.767 684.238 232.904 684.657 232.865C684.657 232.865 684.459 233.798 685.349 233.71L686.56 233.59C686.56 233.59 687.226 233.693 687.518 233.641C687.808 233.59 689.612 233.333 689.739 233.247C689.866 233.161 690.16 232.951 690.237 232.937C690.314 232.924 691.199 232.656 691.326 232.57C691.362 232.546 691.523 232.495 691.732 232.436V228.933H691.733Z" fill="#F7A491"/>
<path d="M752.999 231.927H618.571V235.918H752.999V231.927Z" fill="#F8C48B"/>
<path d="M650.109 227.176H650.885C650.758 227.08 650.599 227.022 650.426 227.022H630.966C629.947 227.022 629.122 227.831 629.122 228.828V229.976C629.122 230.973 629.947 231.782 630.966 231.782L650.209 231.776L650.109 227.176Z" fill="#F47458"/>
<path d="M639.061 227.026C638.087 227.026 637.298 227.8 637.298 228.754V230.051C637.298 231.005 638.087 231.779 639.061 231.779H651.176V231.488H651.126L648.046 231.203L647.423 228.81C647.423 228.81 648.625 227.487 648.703 227.453C648.781 227.419 651.126 227.316 651.126 227.316L651.176 227.315V227.027H639.061V227.026Z" fill="#B75742"/>
<path d="M650.389 229.394C650.389 227.995 651.127 227.317 651.127 227.317H639.308C638.414 227.317 637.688 228.027 637.688 228.903V229.901C637.688 230.778 638.414 231.488 639.308 231.488H651.127C651.127 231.488 650.389 231.156 650.389 229.394Z" fill="#F4F4F4"/>
<path d="M637.688 228.903V229.901C637.688 230.033 637.705 230.16 637.736 230.282C638.134 229.326 638.898 228.406 640.353 228.11C643.748 227.419 651.127 227.317 651.127 227.317H639.308C638.414 227.316 637.688 228.027 637.688 228.903Z" fill="#DAEEF7"/>
<path d="M642.04 229.295L641.205 230.779L640.454 229.295H642.04Z" fill="#13375B"/>
<path d="M637.688 229.295H650.395C650.395 229.295 650.395 229.192 650.395 229.175C650.395 229.159 637.688 229.175 637.688 229.175V229.295Z" fill="#DAEEF7"/>
<path d="M408.538 128.233H404.369V124.315H408.538V128.233Z" fill="white"/>
<path d="M415.085 128.233H410.917V124.315H415.085V128.233Z" fill="white"/>
<path d="M421.634 128.233H417.466V124.315H421.634V128.233Z" fill="white"/>
<path d="M398.581 234.963C398.581 234.963 396.419 231.788 389.859 232.87C383.301 233.953 379.479 245.009 379.479 245.009H398.075C398.076 245.009 399.735 236.478 398.581 234.963Z" fill="#932646"/>
<path d="M450.429 234.963C450.429 234.963 452.593 231.788 459.151 232.87C465.711 233.953 469.531 245.009 469.531 245.009H450.934C450.934 245.009 449.276 236.478 450.429 234.963Z" fill="#932646"/>
<path d="M398.891 203.214C398.891 203.214 392.404 203.359 387.646 206.966C382.889 210.574 364.292 240.215 363.427 242.612C362.563 245.009 367.309 247.002 373.441 247.002C379.574 247.002 382.455 247.552 384.762 245.009C387.069 242.467 400.733 231.022 404.337 222.796C407.943 214.571 402.265 202.784 398.891 203.214Z" fill="#FD425F"/>
<path d="M451.264 203.214C451.264 203.214 457.751 203.359 462.508 206.966C467.266 210.574 485.863 240.215 486.728 242.612C487.593 245.009 482.846 247.002 476.715 247.002C470.582 247.002 467.699 247.552 465.392 245.009C463.085 242.467 449.422 231.022 445.817 222.796C442.213 214.571 447.89 202.784 451.264 203.214Z" fill="#FD425F"/>
<path d="M430.534 185.698H419.623L417.7 195.788H432.457L430.534 185.698Z" fill="#EF8B67"/>
<path d="M425.188 155.673C425.148 155.673 425.117 155.682 425.078 155.682C425.039 155.682 425.007 155.673 424.968 155.673C419.038 155.673 410.804 159.058 410.804 168.793C410.804 178.528 413.22 191.236 425.006 191.236C425.032 191.236 425.053 191.231 425.08 191.231C425.106 191.231 425.127 191.236 425.153 191.236C436.94 191.236 439.356 178.529 439.356 168.793C439.353 159.057 431.117 155.673 425.188 155.673Z" fill="#111B34"/>
<path d="M408.603 353.687L399.665 359.172C399.665 359.172 402.836 364.655 401.587 366.291C400.338 367.925 393.323 375.912 393.033 379.856C392.746 383.801 394.957 386.206 396.109 385.821C397.262 385.437 418.311 370.428 417.828 367.829C417.349 365.232 408.603 353.687 408.603 353.687Z" fill="black"/>
<path d="M440.589 353.687L449.528 359.172C449.528 359.172 446.356 364.655 447.606 366.291C448.855 367.925 455.87 375.912 456.158 379.856C456.448 383.801 454.236 386.206 453.084 385.821C451.931 385.437 430.882 370.428 431.365 367.829C431.844 365.232 440.589 353.687 440.589 353.687Z" fill="black"/>
<path d="M315.359 245.011H307.444V395.26H315.359V245.011Z" fill="#FD425F"/>
<path d="M541.158 245.011H533.243V395.26H541.158V245.011Z" fill="#FD425F"/>
<path d="M556 245.01H292.977V248.993H556V245.01Z" fill="#B3B2DA"/>
<path d="M445.026 268.829C439.344 265.558 409.85 265.558 404.168 268.829C398.487 272.099 369.27 293.554 369.27 298.75C369.27 303.944 400.986 363.498 400.986 363.498L412.614 357.558C412.614 357.558 393.254 307.696 395.607 305.532C397.958 303.366 424.598 301.73 424.598 301.73C424.598 301.73 451.238 303.366 453.589 305.532C455.942 307.697 436.581 357.558 436.581 357.558L448.21 363.498C448.21 363.498 479.924 303.944 479.924 298.75C479.923 293.554 450.707 272.1 445.026 268.829Z" fill="#0400A3"/>
<path d="M431.864 191.839C431.369 191.344 427.168 191.665 425.078 191.665C422.987 191.665 418.785 191.344 418.291 191.839C417.797 192.334 414.447 199.808 414.447 199.808L425.078 202.061L435.708 199.808C435.708 199.808 432.358 192.334 431.864 191.839Z" fill="#3C4DB5"/>
<path d="M456.941 385.861C454.155 381.86 432.915 366.386 432.915 366.386H424.596H416.277C416.277 366.386 395.038 381.86 392.251 385.861C389.464 389.861 390.045 394 393.311 394H403.728C404.348 394 404.89 393.58 405.017 392.972C405.157 392.289 405.301 391.3 405.289 390.109C405.283 389.455 404.814 388.881 404.166 388.79C403.511 388.698 402.787 388.543 402.741 388.298C402.639 387.737 402.996 386.718 405.128 384.955C408.972 381.781 418.138 374.757 418.138 374.757L424.594 374.949L431.051 374.757C431.051 374.757 440.219 381.781 444.061 384.955C446.194 386.718 446.552 387.737 446.447 388.298C446.403 388.543 445.678 388.698 445.024 388.79C444.377 388.881 443.906 389.455 443.901 390.109C443.889 391.298 444.032 392.289 444.174 392.972C444.301 393.58 444.844 394 445.463 394H455.879C459.147 394 459.728 389.861 456.941 385.861Z" fill="#111B34"/>
<path d="M424.596 301.732H416.95L420.773 370.812H424.596H428.418L432.242 301.732H424.596Z" fill="#111B34"/>
<path d="M424.596 298.751H404.168C404.168 298.751 406.246 322.274 424.596 322.274C442.947 322.274 445.025 298.751 445.025 298.751H424.596Z" fill="#111B34"/>
<path d="M460.306 204.56C455.118 197.633 424.596 196.287 424.596 196.287C424.596 196.287 394.076 197.633 388.886 204.56C383.698 211.488 397.921 268.828 402.726 278.065C407.531 287.302 424.596 287.109 424.596 287.109C424.596 287.109 441.66 287.301 446.468 278.065C451.272 268.828 465.496 211.488 460.306 204.56Z" fill="#B3B2DA"/>
<path d="M435.003 265.653C433.257 264.488 415.935 264.488 414.19 265.653C412.172 266.999 417.072 299.617 417.84 302.887C418.61 306.157 430.581 306.157 431.35 302.887C432.119 299.617 437.021 267.001 435.003 265.653Z" fill="#111B34"/>
<path d="M464.57 294.854H384.623V305.534H464.57V294.854Z" fill="#111B34"/>
<path d="M357.568 237.099H308.192V245.009H357.568V237.099Z" fill="#0400A3"/>
<path d="M352.163 229.19H302.787V237.099H352.163V229.19Z" fill="#FD425F"/>
<path d="M526.077 226.277H523.261V227.829H525.323C527.651 227.829 529.538 229.719 529.538 232.048V232.134C529.538 234.465 527.65 236.353 525.323 236.353H523.261V237.906H526.077C529.252 237.906 531.828 235.329 531.828 232.15V232.033C531.828 228.853 529.252 226.277 526.077 226.277Z" fill="#8494AB"/>
<path d="M522.401 245.011H509.649C507.782 245.011 506.268 243.496 506.268 241.626V222.809H525.785V241.626C525.783 243.495 524.269 245.011 522.401 245.011Z" fill="#8494AB"/>
<path d="M515.368 242.462V224.389H507.992V240.527C507.992 242.131 509.291 243.43 510.893 243.43H515.542C515.454 243.12 515.368 242.805 515.368 242.462Z" fill="#4D6486"/>
<path d="M519.801 224.389V241.405C519.801 242.187 519.515 242.889 519.061 243.43H521.231C522.833 243.43 524.131 242.131 524.131 240.527V224.389H519.801Z" fill="#C8CED9"/>
<path d="M41.2572 94.2699H1.96394C0.879439 94.2699 0 93.3895 0 92.3038V66.9674C0 65.8804 0.879439 65 1.96394 65H41.2572C42.3417 65 43.2211 65.8804 43.2211 66.9674V92.3038C43.2211 93.3895 42.3417 94.2699 41.2572 94.2699Z" fill="#0400A3"/>
<path d="M41.2571 67.3319H1.96387V91.938H41.2571V67.3319Z" fill="white"/>
<path d="M208.961 44.7432H101V50.8059H208.961V44.7432Z" fill="#FD425F"/>
<path d="M166.564 0H159.005V44.7431H166.564V0Z" fill="#0400A3"/>
<path d="M155.061 5.26392H147.502V44.7431H155.061V5.26392Z" fill="#CECDE9"/>
<path d="M175.138 4.49995L168.119 7.30725L182.75 43.9677L189.769 41.1604L175.138 4.49995Z" fill="#FD425F"/>
<path d="M185.326 4.49983L178.307 7.30713L192.938 43.9675L199.957 41.1602L185.326 4.49983Z" fill="#CECDE9"/>
<path d="M143.943 37.1763H105.93V43.9706H143.943V37.1763Z" fill="#8494AB"/>
<path d="M256.353 353.282C251.997 351.437 248.848 349.901 249.589 342.945C249.941 339.636 251.112 337.347 253.478 335.354C255.399 333.737 256.37 333.135 256.964 330.452C257.865 326.381 256.727 323.043 258.677 319.323C260.761 315.349 265.251 315.748 267.335 312.042C269.137 308.833 269.969 305.283 274.048 304.033C277.661 302.925 279.856 306.022 278.628 309.177C277.916 311.011 276.39 312.591 275.936 314.539C275.492 316.454 276.42 317.768 277.333 319.339C279.501 323.071 280.617 327.564 276.408 331.364C273.895 333.633 271.973 335.592 273.237 339.323C274.681 343.582 275.422 346.191 271.576 349.934C268.692 352.741 266.014 352.518 262.783 352.733C259.872 352.925 256.092 354.161 253.719 352.225L256.353 353.282Z" fill="#8494AB"/>
<path d="M247.067 353.197C243.953 356.536 241.289 359.153 236.69 355.182C234.353 353.163 233.334 350.729 233.393 347.253C233.44 344.517 233.631 343.282 231.932 341.187C229.265 337.897 225.448 336.715 223.72 332.47C221.862 327.9 226.018 324.97 224.512 320.857C223.205 317.29 220.747 313.941 223.088 310.856C224.994 308.344 228.942 309.848 230.434 312.734C231.291 314.391 231.45 316.251 232.546 317.842C233.607 319.381 235.04 319.774 236.573 320.327C239.968 321.55 243.021 323.614 243.301 327.975C243.473 330.668 243.736 332.892 246.299 334.037C249.008 335.248 250.516 336.028 251.02 340.117C251.409 343.271 250.389 345.07 249.329 347.591C248.312 350.013 247.46 353.805 245.269 355.19L247.067 353.197Z" fill="#0400A3"/>
<path d="M259.544 348.793C259.408 348.793 259.27 348.786 259.133 348.772C258.953 348.752 258.821 348.591 258.838 348.411C258.858 348.231 258.996 348.089 259.199 348.116C261.357 348.345 263.585 346.375 264.821 344.626C265.808 343.229 265.721 341.969 265.61 340.377L265.527 339.062C265.317 335.624 265.135 332.655 267.801 329.96C270.752 326.974 271.476 325.129 271.325 320.981C271.313 320.643 271.294 320.287 271.273 319.922C271.199 318.578 271.115 317.057 271.369 315.8C271.512 315.089 271.841 314.41 272.16 313.754C272.57 312.906 272.957 312.106 272.969 311.264C272.971 311.082 273.117 310.939 273.297 310.939C273.298 310.939 273.3 310.939 273.301 310.939C273.484 310.941 273.628 311.09 273.626 311.272C273.613 312.261 273.174 313.165 272.75 314.04C272.437 314.689 272.14 315.301 272.013 315.932C271.775 317.105 271.856 318.582 271.93 319.885C271.951 320.255 271.969 320.616 271.983 320.957C272.14 325.279 271.342 327.313 268.269 330.422C265.809 332.908 265.974 335.605 266.183 339.022L266.266 340.33C266.383 341.987 266.483 343.417 265.36 345.007C264.035 346.878 261.846 348.793 259.544 348.793Z" fill="white"/>
<path d="M267.024 339.665C266.618 339.665 266.129 339.507 265.658 338.955C265.541 338.818 265.557 338.609 265.695 338.49C265.832 338.373 266.041 338.387 266.159 338.527C266.502 338.93 266.865 339.077 267.265 338.976C268.64 338.631 270.146 335.673 270.389 334.566C271.106 331.3 271.964 329.632 275.157 328.398C275.324 328.331 275.516 328.416 275.582 328.587C275.648 328.757 275.562 328.947 275.393 329.012C272.326 330.197 271.683 331.729 271.031 334.707C270.815 335.692 269.268 339.151 267.425 339.614C267.304 339.644 267.169 339.665 267.024 339.665Z" fill="white"/>
<path d="M247.254 351.475C246.633 351.475 246.054 351.334 245.521 351.052C243.234 349.842 242.174 346.29 241.24 343.155C240.778 341.605 240.342 340.143 239.819 339.192C238.413 336.635 236.869 334.934 234.124 332.917C230.913 330.56 230.134 328.776 229.556 324.929C229.081 321.784 228.444 318.614 227.026 316.731C226.916 316.586 226.944 316.379 227.09 316.27C227.233 316.161 227.441 316.188 227.55 316.334C229.058 318.335 229.718 321.601 230.207 324.832C230.764 328.537 231.465 330.15 234.512 332.388C236.843 334.1 238.734 335.858 240.393 338.874C240.952 339.888 241.397 341.383 241.869 342.966C242.767 345.977 243.783 349.389 245.828 350.47C246.619 350.888 247.51 350.931 248.55 350.598C248.722 350.548 248.908 350.638 248.963 350.812C249.018 350.985 248.923 351.17 248.75 351.225C248.229 351.392 247.73 351.475 247.254 351.475Z" fill="white"/>
<path d="M237.149 335.286C237.078 335.286 237.007 335.263 236.946 335.217C236.804 335.105 236.777 334.899 236.887 334.754C237.851 333.506 237.263 331.523 236.639 329.423C236.096 327.594 235.535 325.704 236.013 324.166C236.067 323.992 236.254 323.895 236.425 323.95C236.597 324.004 236.694 324.188 236.64 324.362C236.222 325.708 236.754 327.503 237.27 329.236C237.913 331.402 238.579 333.642 237.409 335.158C237.343 335.241 237.246 335.286 237.149 335.286Z" fill="white"/>
<path d="M240.435 339.727C240.396 339.727 240.354 339.719 240.314 339.703C239.85 339.52 239.49 339.302 239.139 339.09C238.575 338.748 238.087 338.454 237.291 338.401C236.869 338.373 236.469 338.403 236.083 338.432C235.265 338.489 234.426 338.556 233.427 338.054C232.003 337.34 230.501 336.021 228.962 334.135C228.749 333.875 228.48 333.463 228.195 333.027C227.785 332.402 227.025 331.24 226.74 331.167C226.568 331.123 226.45 330.951 226.488 330.777C226.523 330.605 226.681 330.486 226.852 330.519C227.364 330.605 227.91 331.389 228.746 332.668C229.021 333.088 229.281 333.485 229.47 333.72C230.488 334.966 232.052 336.628 233.723 337.466C234.559 337.887 235.241 337.836 236.035 337.775C236.443 337.745 236.865 337.715 237.335 337.745C238.294 337.808 238.897 338.174 239.481 338.528C239.807 338.726 240.144 338.931 240.556 339.093C240.724 339.159 240.807 339.349 240.741 339.519C240.69 339.647 240.565 339.727 240.435 339.727Z" fill="white"/>
<path d="M245.742 353.901C241.079 349.965 235.535 347.316 236.791 339.815C237.831 333.604 244.986 332.009 242.742 325.324C241.309 321.053 237.606 316.126 238.866 311.36C240.214 306.268 246.851 308.306 248.279 303.555C249.484 299.543 245.256 294.898 249.017 291.615C252.331 288.721 258.205 291.468 259.986 294.792C262.262 299.037 258.501 302.192 259.121 306.332C259.523 309.01 262.085 309.399 263.965 310.944C265.782 312.438 267.734 314.768 268.521 317.005C270.943 323.884 264.032 326.38 261.935 331.681C259.958 336.679 266.698 338.228 267.207 343.266C267.768 348.828 261.822 353.218 257.04 354.126C253.734 354.753 248.689 356.39 245.742 353.901Z" fill="#B3B2DA"/>
<path d="M251.105 355.521C251.075 355.521 251.044 355.517 251.012 355.507C250.837 355.456 250.739 355.271 250.793 355.098C250.829 354.97 254.548 342.205 251.388 328.626C249.385 320.028 251.196 314.013 252.653 309.181C253.519 306.304 254.266 303.822 253.858 301.624C253.826 301.445 253.942 301.273 254.121 301.24C254.306 301.205 254.472 301.326 254.505 301.503C254.94 303.859 254.171 306.412 253.28 309.371C251.848 314.129 250.063 320.051 252.026 328.478C255.229 342.233 251.459 355.158 251.421 355.287C251.377 355.428 251.247 355.521 251.105 355.521Z" fill="white"/>
<path d="M251.937 328.541C251.777 328.541 251.636 328.424 251.612 328.261C251.585 328.082 251.708 327.914 251.887 327.887C254.612 327.473 257.726 324.979 258.017 321.931C258.051 321.568 258.076 321.168 258.101 320.75C258.222 318.749 258.373 316.263 259.827 315.059C260.537 314.472 261.495 314.255 262.657 314.399C262.839 314.422 262.965 314.587 262.942 314.766C262.92 314.945 262.762 315.063 262.576 315.051C261.575 314.926 260.818 315.092 260.246 315.566C259.013 316.588 258.873 318.918 258.758 320.79C258.732 321.217 258.707 321.625 258.673 321.994C258.343 325.459 254.945 328.09 251.987 328.54C251.968 328.54 251.951 328.541 251.937 328.541Z" fill="white"/>
<path d="M249.952 328.63C248.635 328.597 247.544 328.21 246.702 327.47C245.373 326.307 244.705 324.278 244.772 321.601C244.779 321.338 244.795 321.03 244.812 320.696C244.907 318.799 245.051 315.93 243.869 314.639C243.48 314.213 242.976 313.995 242.329 313.971C242.149 313.963 242.005 313.81 242.012 313.629C242.02 313.45 242.17 313.308 242.348 313.313C242.35 313.313 242.351 313.313 242.352 313.313C243.173 313.343 243.846 313.639 244.354 314.195C245.722 315.688 245.569 318.72 245.468 320.728C245.452 321.057 245.438 321.357 245.431 321.617C245.369 324.093 245.96 325.946 247.136 326.977C248.147 327.86 249.605 328.156 251.461 327.861C251.649 327.829 251.809 327.954 251.838 328.133C251.866 328.312 251.745 328.482 251.565 328.511C250.993 328.603 250.457 328.641 249.952 328.63Z" fill="white"/>
<path d="M253.828 350.127C253.417 350.127 253.016 350.058 252.634 349.901C252.467 349.831 252.386 349.64 252.456 349.472C252.524 349.304 252.711 349.222 252.884 349.292C254.86 350.102 257.889 347.873 259.031 346.398C259.506 345.783 259.822 344.828 260.154 343.815C260.748 342.013 261.362 340.15 263.03 339.736C263.211 339.682 263.386 339.8 263.428 339.976C263.472 340.154 263.365 340.333 263.189 340.375C261.872 340.701 261.316 342.389 260.778 344.021C260.426 345.09 260.093 346.098 259.548 346.802C258.525 348.126 256.035 350.127 253.828 350.127Z" fill="white"/>
<path d="M250.903 349.998C250.488 349.998 250.063 349.922 249.63 349.772C247.22 348.93 245.206 345.937 244.439 344.132C244.033 343.168 243.983 341.799 243.931 340.348C243.848 338.051 243.765 335.675 242.258 334.921C242.097 334.84 242.032 334.642 242.113 334.479C242.194 334.317 242.393 334.254 242.554 334.333C244.408 335.262 244.504 337.952 244.588 340.326C244.636 341.714 244.685 343.025 245.045 343.875C245.737 345.508 247.652 348.385 249.846 349.151C250.702 349.45 251.519 349.392 252.271 348.978C252.43 348.894 252.63 348.951 252.718 349.11C252.804 349.271 252.746 349.469 252.587 349.557C252.047 349.851 251.483 349.998 250.903 349.998Z" fill="white"/>
<path d="M230.057 351.963C227.701 358.257 226.342 365.657 226.342 373.577C226.342 396.48 237.698 415.047 251.707 415.047C265.715 415.047 277.073 396.481 277.073 373.577C277.073 365.657 275.714 358.257 273.358 351.963H230.057Z" fill="#FD425F"/>
<path d="M276.025 361.796C275.392 358.306 274.493 355.004 273.356 351.963H230.056C228.919 355.004 228.02 358.305 227.388 361.796H276.025Z" fill="#0400A3"/>
</svg>
