<svg width="17" height="19" viewBox="0 0 17 19" fill="none" xmlns="http://www.w3.org/2000/svg">
<path d="M16.8116 17.9453L14.0912 15.2249C15.5136 13.3731 15.3776 10.7012 13.6829 9.0065C13.1896 8.51315 12.6063 8.14262 11.9702 7.90953V3.63817C11.9702 3.47428 11.9051 3.31715 11.7892 3.20133L8.76887 0.180982C8.65305 0.0650777 8.49587 0 8.33203 0H0.625638C0.284434 0 0.0078125 0.276621 0.0078125 0.617826V13.7651C0.0078125 14.1063 0.284434 14.3829 0.625638 14.3829H6.07527C6.30037 14.856 6.60809 15.2992 6.99917 15.6903C7.8918 16.5829 9.07861 17.0745 10.3411 17.0745C11.3951 17.0745 12.3963 16.7315 13.2178 16.0988L15.938 18.819C16.0586 18.9397 16.2167 19 16.3748 19C16.5329 19 16.691 18.9397 16.8116 18.819C17.0529 18.5778 17.0529 18.1866 16.8116 17.9453ZM8.94977 2.1093L9.8609 3.02043H8.94977V2.1093V2.1093ZM1.24346 13.1473V1.23565H7.71412V3.63825C7.71412 3.97946 7.99074 4.25608 8.33194 4.25608H10.7345V7.63859C10.6043 7.62793 10.4732 7.62224 10.341 7.62224C10.007 7.62224 9.67843 7.657 9.3591 7.72414H2.31313C2.08568 7.72414 1.90124 7.90858 1.90124 8.13603C1.90124 8.36347 2.08568 8.54791 2.31313 8.54791H7.53005C7.34371 8.68634 7.16627 8.8394 6.99917 9.00654C6.78244 9.22328 6.59153 9.45615 6.42579 9.7011H2.31313C2.08568 9.7011 1.90124 9.88554 1.90124 10.113C1.90124 10.3404 2.08568 10.5249 2.31313 10.5249H5.98116C5.63427 11.3573 5.53525 12.2694 5.6846 13.1473H1.24346V13.1473ZM6.96947 11.4515H9.61175C9.83919 11.4515 10.0236 11.2671 10.0236 11.0396C10.0236 10.8122 9.83919 10.6278 9.61175 10.6278H7.30479C7.45632 10.3601 7.64509 10.108 7.8729 9.88023C8.53216 9.22097 9.40869 8.85789 10.3411 8.85789C10.8321 8.85789 11.3072 8.95955 11.7437 9.1512V14.2108H7.38964C6.86543 13.3802 6.72535 12.3755 6.96947 11.4515ZM8.11237 15.0346H12.1555C12.383 15.0346 12.5674 14.8501 12.5674 14.6227V9.66024C12.6508 9.72952 12.7316 9.80263 12.8092 9.88023C14.1702 11.2412 14.1702 13.4556 12.8092 14.8166C12.1499 15.4758 11.2734 15.8389 10.341 15.8389C9.51739 15.8389 8.73757 15.5551 8.11237 15.0346Z" fill="white"/>
<path d="M2.31276 6.57096H9.66453C9.89197 6.57096 10.0764 6.38652 10.0764 6.15908C10.0764 5.93163 9.89197 5.74719 9.66453 5.74719H2.31276C2.08532 5.74719 1.90088 5.93163 1.90088 6.15908C1.90088 6.38652 2.08532 6.57096 2.31276 6.57096Z" fill="white"/>
</svg>
