<svg width="20" height="22" viewBox="0 0 20 22" fill="none" xmlns="http://www.w3.org/2000/svg">
<path d="M6.79944 15.3734L4.57031 17.7242L7.80958 22L7.42052 16.8301C7.1026 16.4119 6.88362 15.9147 6.79944 15.3734Z" fill="white"/>
<path d="M5.44181 14.9219C2.53554 15.2949 0.282227 17.7846 0.282227 20.7907V22H6.18399L2.87368 17.6303L5.44181 14.9219Z" fill="white"/>
<path d="M13.2006 15.3733C13.1164 15.9146 12.8974 16.4118 12.5795 16.83L12.1904 22L15.4297 17.7242L13.2006 15.3733Z" fill="white"/>
<path d="M14.5581 14.9219L17.1263 17.6303L13.8159 22H19.7177V20.7907C19.7177 17.7846 17.4644 15.295 14.5581 14.9219Z" fill="white"/>
<path d="M8.79883 17.8811L9.1088 22H10.8911L11.2011 17.881C10.4512 18.1816 9.59132 18.1987 8.79883 17.8811Z" fill="white"/>
<path d="M8.05664 14.4951V14.8736C8.05664 15.947 8.92679 16.8172 10.0002 16.8172C11.0736 16.8172 11.9438 15.947 11.9438 14.8736V14.4951C10.73 14.9879 9.32937 15.0119 8.05664 14.4951Z" fill="white"/>
<path d="M6.16693 10.3387H4.81719V9.69083C4.34534 9.69083 3.90298 9.56346 3.52148 9.34219V11.6344H6.63304C6.40538 11.2409 6.24497 10.8038 6.16693 10.3387Z" fill="white"/>
<path d="M9.35223 11.6344H6.6331C7.30523 12.7962 8.56133 13.5779 10.0001 13.5779C12.1468 13.5779 13.8872 11.8376 13.8872 9.69081V7.0994C13.8872 4.95259 12.1468 3.21228 10.0001 3.21228C7.85327 3.21228 6.11297 4.95259 6.11297 7.0994C6.1283 9.58495 6.07526 9.79196 6.167 10.3387H9.35223V11.6344Z" fill="white"/>
<path d="M15.0186 5.80371C15.2639 6.75329 15.1557 7.36871 15.1825 8.39512C15.8981 8.39512 16.4783 7.81499 16.4783 7.09942C16.4783 6.38384 15.8981 5.80371 15.1825 5.80371H15.0186Z" fill="white"/>
<path d="M5.35235 4.50799C7.24227 0.196267 12.7552 0.190739 14.6475 4.50799C15.014 4.52647 15.4751 4.44121 16.0917 4.67293C14.0208 -1.5617 5.97412 -1.55358 3.9082 4.67293C4.52625 4.44065 4.97686 4.52695 5.35235 4.50799Z" fill="white"/>
<path d="M4.81719 8.39512C4.84397 7.37203 4.73578 6.75359 4.98114 5.80371H4.81719C4.10157 5.80371 3.52148 6.38384 3.52148 7.09942C3.52148 7.81503 4.10157 8.39512 4.81719 8.39512Z" fill="white"/>
</svg>
