<svg width="56" height="56" viewBox="0 0 56 56" fill="none" xmlns="http://www.w3.org/2000/svg">
<g clip-path="url(#clip0)">
<path d="M54.4225 35.2768V5.98846C54.4225 5.13435 53.7301 4.442 52.876 4.44189H54.4536C54.4534 4.44189 54.4534 4.44189 54.4534 4.44189H9.506C8.6519 4.44189 7.95944 5.13435 7.95944 5.98846V35.2768C7.95944 36.1309 8.6519 36.8233 9.506 36.8233H52.876C53.7301 36.8235 54.4225 36.131 54.4225 35.2768Z" fill="#E19974"/>
<path d="M54.4534 4.44189H52.6507C53.5048 4.442 54.1972 5.13435 54.1972 5.98846V35.2768C54.1972 36.1309 53.5047 36.8233 52.6506 36.8233H54.4534C55.3076 36.8233 56 36.1309 56 35.2768V5.98846C56 5.13435 55.3076 4.44189 54.4534 4.44189Z" fill="#DC8758"/>
<path d="M50.846 33.7302C51.113 33.7302 51.3293 33.5139 51.3293 33.2469V8.01836C51.3293 7.75149 51.113 7.53503 50.8461 7.53503H11.5359C11.269 7.53503 11.0526 7.75138 11.0526 8.01836V33.2469C11.0526 33.5138 11.2689 33.7302 11.5359 33.7302H52.4235H52.4236H50.846Z" fill="#728192"/>
<path d="M18.4588 33.8204V33.3069C16.6344 33.3069 5.41242 33.3069 3.75758 33.3069C1.6823 33.3069 0 34.9892 0 37.0645V51.5581H20.3175C20.3175 49.1716 20.3175 38.3312 20.3175 37.0591C20.3175 35.6776 19.5705 34.4715 18.4588 33.8204Z" fill="#EAF6FF"/>
<path d="M18.4588 33.3069C17.0123 33.3069 17.1905 33.3069 16.4162 33.3069L17.0586 33.4332C18.6622 33.8597 19.8441 35.321 19.8441 37.059V51.558H22.2109V37.0591C22.2109 34.9868 20.531 33.3069 18.4588 33.3069Z" fill="#D8ECFE"/>
<path d="M9.52461 20.0934H12.6408C16.5186 20.0934 19.6621 23.2369 19.6621 27.1147C19.6621 30.9925 16.5186 34.136 12.6408 34.136H9.52461C5.64683 34.136 2.50328 30.9925 2.50328 27.1147C2.50328 23.2369 5.64683 20.0934 9.52461 20.0934Z" fill="#3D5168"/>
<path d="M15.2949 18.7484H19.2689C20.7968 18.7484 22.0353 19.987 22.0353 21.5148V21.5318C22.0353 23.0596 20.7968 24.2982 19.2689 24.2982H15.2949V18.7484Z" fill="#F89580"/>
<path d="M6.8705 24.2982H2.89658C1.36872 24.2982 0.130157 23.0596 0.130157 21.5318V21.5148C0.130157 19.987 1.36872 18.7484 2.89658 18.7484H6.87061V24.2982H6.8705Z" fill="#FFB09E"/>
<path d="M11.0702 23.3877V23.3855H7.65975V31.3733L11.0702 36.3552V36.3574L14.4806 31.3755V23.3877H11.0702Z" fill="#FFA78F"/>
<path d="M14.0009 51.558V36.8546L16.9317 33.2542L14.4806 31.3755L11.3632 35.9295C11.2926 36.0326 11.1815 36.084 11.0703 36.084V51.5579C12.3836 51.558 13.6914 51.558 14.0009 51.558Z" fill="#C4E2FF"/>
<path d="M11.0702 36.084C10.9589 36.084 10.8477 36.0325 10.7773 35.9295L7.65986 31.3755L5.20876 33.2542L8.13947 36.8546C8.08576 44.2876 8.09583 41.0984 8.09583 51.558H11.0702V36.084Z" fill="#D8ECFE"/>
<path d="M26.472 50.9663V41.5387C26.472 41.212 26.2072 40.9471 25.8805 40.947H21.5224C21.1956 40.947 20.9307 41.2119 20.9307 41.5387V51.5579H25.8803C26.2071 51.558 26.472 51.2931 26.472 50.9663Z" fill="#EAF6FF"/>
<path d="M25.7963 40.947L31.0371 38.0842C31.1896 38.0009 31.2844 37.8411 31.2844 37.6673C31.2844 37.2013 30.9066 36.8234 30.4405 36.8234H25.3289C24.2417 36.8234 23.286 37.5443 22.9875 38.5898L22.3142 40.947H27.6898H25.7963Z" fill="#FFCEBF"/>
<path d="M32.3339 36.8235H30.2038C30.6698 36.8235 31.0477 37.2013 31.0477 37.6674C31.0477 37.8412 30.9529 38.001 30.8004 38.0844L25.5596 40.9471H27.6897L32.9305 38.0844C33.083 38.001 33.1778 37.8412 33.1778 37.6674C33.1778 37.2013 32.8 36.8235 32.3339 36.8235Z" fill="#FFB09E"/>
<path d="M27.7737 40.947H25.6436C25.9704 40.947 26.2354 41.2119 26.2354 41.5387V50.9663C26.2354 51.2931 25.9704 51.558 25.6436 51.558H27.7737C28.1005 51.558 28.3654 51.2931 28.3654 50.9663V41.5387C28.3654 41.212 28.1005 40.947 27.7737 40.947Z" fill="#D8ECFE"/>
<path d="M17.8263 22.9658V20.0778C17.8263 15.396 13.9099 11.9835 10.1245 11.9835C6.05773 12.4403 2.89614 15.8891 2.89614 20.0778V22.9658C2.89614 27.1545 6.05773 30.6033 10.1245 31.06C13.8974 31.0602 17.8263 27.6618 17.8263 22.9658Z" fill="#FFCEBF"/>
<path d="M10.1246 11.9835C14.1914 12.4403 17.353 15.8891 17.353 20.0778V22.9657C17.353 27.1545 14.1914 30.6033 10.1246 31.06C15.1202 31.6212 19.2464 27.739 19.2464 22.9657V20.0778C19.2464 15.2963 15.1118 11.423 10.1246 11.9835Z" fill="#FFB09E"/>
<path d="M11.0702 28.0479C9.62336 28.0479 8.44616 26.8708 8.44616 25.424C8.44616 24.9337 8.84352 24.5364 9.33374 24.5364C9.82396 24.5364 10.2213 24.9337 10.2213 25.424C10.2213 25.8921 10.602 26.2728 11.0703 26.2728C11.5385 26.2728 11.9193 25.8921 11.9193 25.424C11.9193 24.9337 12.3166 24.5364 12.8068 24.5364C13.2971 24.5364 13.6944 24.9337 13.6944 25.424C13.6942 26.8709 12.517 28.0479 11.0702 28.0479Z" fill="#FFA799"/>
<path d="M16.283 24.5365C16.1744 24.5365 15.3928 24.5365 15.2771 24.5365C14.885 24.5365 14.567 24.8545 14.567 25.2466C14.567 25.6387 14.885 25.9566 15.2771 25.9566H16.283C16.6751 25.9566 16.9931 25.6387 16.9931 25.2466C16.9931 24.8545 16.6751 24.5365 16.283 24.5365Z" fill="#FE8F83"/>
<path d="M5.85725 24.5365H6.86317C7.25528 24.5365 7.57323 24.8545 7.57323 25.2466C7.57323 25.6387 7.25528 25.9566 6.86317 25.9566C6.74712 25.9566 5.96575 25.9566 5.85725 25.9566C5.46514 25.9566 5.14719 25.6387 5.14719 25.2466C5.14719 24.8545 5.46514 24.5365 5.85725 24.5365Z" fill="#FE8F83"/>
<path d="M11.1055 7.58765H11.06C10.6669 7.58765 10.2801 7.61379 9.89941 7.65907C14.7128 8.23307 18.4458 12.3265 18.4458 17.2946V19.2187H20.8125V17.2946C20.8124 11.9337 16.4664 7.58765 11.1055 7.58765Z" fill="#3D5168"/>
<path d="M9.89932 7.65918C5.08594 8.23307 1.35297 12.3266 1.35297 17.2946V19.2187H6.14218C8.88333 19.2187 11.1054 16.9966 11.1054 14.2555C11.1054 16.9966 13.3276 19.2187 16.0686 19.2187H18.4457V17.2946C18.4457 12.3266 14.7128 8.23307 9.89932 7.65918Z" fill="#57697D"/>
<path d="M15.0656 23.7133C14.5988 23.7133 14.2206 23.335 14.2206 22.8683V21.7585C14.2206 21.2918 14.5989 20.9135 15.0656 20.9135H15.6824C16.1492 20.9135 16.5274 21.2918 16.5274 21.7585C16.5274 22.1461 16.2666 22.4727 15.9107 22.5723V22.8683C15.9108 23.335 15.5325 23.7133 15.0656 23.7133Z" fill="#3D5168"/>
<path d="M7.08411 23.7133C6.6173 23.7133 6.23908 23.335 6.23908 22.8683V22.5723C5.88328 22.4727 5.62242 22.1461 5.62242 21.7585C5.62242 21.2918 6.00075 20.9135 6.46745 20.9135H7.08411C7.55092 20.9135 7.92914 21.2918 7.92914 21.7585V22.8683C7.92914 23.335 7.55081 23.7133 7.08411 23.7133Z" fill="#3D5168"/>
<path d="M42.605 18.1949H38.6961C38.2293 18.1949 37.8511 18.5733 37.8511 19.04C37.8511 19.5067 38.2294 19.885 38.6961 19.885H42.605C43.0718 19.885 43.45 19.5067 43.45 19.04C43.45 18.5733 43.0718 18.1949 42.605 18.1949Z" fill="#EAF6FF"/>
<path d="M42.605 20.938H38.6961C38.2293 20.938 37.8511 21.3163 37.8511 21.783C37.8511 22.2497 38.2294 22.6281 38.6961 22.6281H42.605C43.0718 22.6281 43.45 22.2497 43.45 21.783C43.45 21.3163 43.0718 20.938 42.605 20.938Z" fill="#EAF6FF"/>
<path d="M32.9376 19.5664H31.4732V18.102C31.4732 17.6353 31.0949 17.257 30.6282 17.257C30.1615 17.257 29.7831 17.6353 29.7831 18.102V19.5664H28.263C27.7962 19.5664 27.418 19.9447 27.418 20.4114C27.418 20.8781 27.7963 21.2565 28.263 21.2565H29.7831V22.7766C29.7831 23.2433 30.1615 23.6216 30.6282 23.6216C31.0949 23.6216 31.4732 23.2433 31.4732 22.7766V21.2565H32.9376C33.4044 21.2565 33.7827 20.8781 33.7827 20.4114C33.7827 19.9448 33.4043 19.5664 32.9376 19.5664Z" fill="#EAF6FF"/>
<path d="M25.5752 16.0593H24.0636C23.5968 16.0593 23.2186 16.4377 23.2186 16.9044C23.2186 17.3711 23.5969 17.7494 24.0636 17.7494H24.7301V23.976C24.7301 24.4427 25.1084 24.821 25.5752 24.821C26.042 24.821 26.4202 24.4427 26.4202 23.976V16.9044C26.4202 16.4377 26.042 16.0593 25.5752 16.0593Z" fill="#EAF6FF"/>
<path d="M49.0423 23.1301H47.0962C47.4759 22.6203 47.9885 21.9169 48.665 20.9504C49.1141 20.3088 49.4071 19.7015 49.536 19.1454C49.5425 19.1176 49.5476 19.0895 49.5511 19.0612L49.5855 18.7918C49.59 18.7564 49.5923 18.7208 49.5923 18.685C49.5923 17.2368 48.414 16.0583 46.9657 16.0583C45.7133 16.0583 44.6295 16.9493 44.3884 18.1768C44.2985 18.6348 44.5968 19.079 45.0548 19.1689C45.5136 19.259 45.9571 18.9604 46.0469 18.5024C46.1327 18.0656 46.5192 17.7484 46.9657 17.7484C47.467 17.7484 47.8774 18.1442 47.901 18.6397L47.8805 18.8008C47.7947 19.1375 47.593 19.5343 47.2803 19.9812C46.1782 21.5558 45.5206 22.4169 45.1673 22.8795C44.7325 23.4486 44.5144 23.7343 44.6575 24.1994C44.742 24.4739 44.9496 24.6843 45.2273 24.7769C45.3135 24.8055 45.4036 24.8202 45.4944 24.8202H49.0423C49.5091 24.8202 49.8874 24.4418 49.8874 23.9751C49.8874 23.5084 49.5091 23.1301 49.0423 23.1301Z" fill="#EAF6FF"/>
<path d="M35.6254 16.0585H34.1138C33.647 16.0585 33.2688 16.4368 33.2688 16.9035C33.2688 17.3702 33.6471 17.7485 34.1138 17.7485H34.7804V23.9751C34.7804 24.4418 35.1587 24.8202 35.6254 24.8202C36.0922 24.8202 36.4704 24.4418 36.4704 23.9751V16.9035C36.4705 16.4368 36.0922 16.0585 35.6254 16.0585Z" fill="#EAF6FF"/>
<path d="M52.4235 7.53503H50.6207C50.8877 7.53503 51.104 7.75138 51.104 8.01836V33.2469C51.104 33.5138 50.8877 33.7302 50.6207 33.7302H52.4235C52.6905 33.7302 52.9069 33.5139 52.9069 33.2469V8.01836C52.9069 7.75149 52.6904 7.53503 52.4235 7.53503Z" fill="#57697D"/>
<path d="M46.495 33.7302C46.9755 33.7302 47.365 33.3408 47.365 32.8603V29.8783C47.365 29.3979 46.9755 29.0084 46.4951 29.0083H39.3442C38.8637 29.0083 38.4742 29.3978 38.4742 29.8783V32.8603C38.4742 33.3408 38.8637 33.7302 39.3442 33.7302H48.0724H48.0725H46.495Z" fill="#5DE1C4"/>
<path d="M48.0725 29.0084H46.2697C46.7502 29.0084 47.1396 29.3979 47.1396 29.8784V32.8604C47.1396 33.3409 46.7502 33.7304 46.2697 33.7304H48.0725C48.553 33.7304 48.9425 33.3409 48.9425 32.8604V29.8784C48.9425 29.3979 48.5529 29.0084 48.0725 29.0084Z" fill="#0ED2B3"/>
</g>
<defs>
<clipPath id="clip0">
<rect width="56" height="56" fill="white"/>
</clipPath>
</defs>
</svg>
