<svg width="58" height="58" viewBox="0 0 58 58" fill="none" xmlns="http://www.w3.org/2000/svg">
<path d="M14.44 25.409L20.4269 41.4066L14.44 58H0V25.409H14.44Z" fill="#47568C"/>
<path d="M5.41498 40.0053H9.02491V43.4037H5.41498V40.0053Z" fill="#D5E8FE"/>
<path d="M5.41498 32.7854H9.02491V36.1838H5.41498V32.7854Z" fill="#D5E8FE"/>
<path d="M5.41498 47.2251H9.02491V50.6236H5.41498V47.2251Z" fill="#D5E8FE"/>
<path d="M58 25.409V58H43.5601L38.0249 43.2417L43.5601 25.409H58Z" fill="#29376D"/>
<path d="M48.975 40.0053H52.5849V43.4037H48.975V40.0053Z" fill="#B5DBFF"/>
<path d="M48.975 32.7854H52.5849V36.1838H48.975V32.7854Z" fill="#B5DBFF"/>
<path d="M48.975 47.2251H52.5849V50.6236H48.975V47.2251Z" fill="#B5DBFF"/>
<path d="M27.3008 7.21987V15.5648H29L30.2552 11.4323L29 6.27238L27.3008 7.21987Z" fill="#EDF5FF"/>
<path d="M30.6992 7.21987L29.0589 6.23953L29 6.27238V15.5648H30.6992V7.21987Z" fill="#D5E8FE"/>
<path d="M14.4399 20.9332V58H29L38.5337 36.4461L29 13.7138L14.4399 20.9332Z" fill="#61729B"/>
<path d="M43.56 20.9332L29 13.7138V58H43.56V20.9332Z" fill="#47568C"/>
<path d="M19.9751 27.527H23.585V30.9254H19.9751V27.527Z" fill="#EDF5FF"/>
<path d="M34.415 27.527H38.0249V30.9254H34.415V27.527Z" fill="#D5E8FE"/>
<path d="M19.9751 34.7469H23.585V38.1453H19.9751V34.7469Z" fill="#EDF5FF"/>
<path d="M34.415 34.7469H38.0249V38.1453H34.415V34.7469Z" fill="#D5E8FE"/>
<path d="M38.1307 0H27.3008V3.60993L32.7157 6.23953L38.1307 3.60993V0Z" fill="#FEE378"/>
<path d="M27.3008 3.60994H38.1307V7.21987H27.3008V3.60994Z" fill="#FABE2C"/>
<path d="M27.1949 20.3071V23.7056H29L30.2551 22.0064L29 20.3071H27.1949Z" fill="#EDF5FF"/>
<path d="M29 20.3071H30.805V23.7056H29V20.3071Z" fill="#D5E8FE"/>
<path d="M27.1949 30.9254H29L30.2551 29.2262L29 27.527H27.1949V30.9254Z" fill="#EDF5FF"/>
<path d="M29 27.527H30.805V30.9254H29V27.527Z" fill="#D5E8FE"/>
<path d="M27.1949 38.1453H29L30.1736 36.4461L29 34.7469H27.1949V38.1453Z" fill="#EDF5FF"/>
<path d="M29 34.7469H30.805V38.1453H29V34.7469Z" fill="#D5E8FE"/>
<path d="M23.585 43.6516V58H29L32.3984 50.9494L29 43.6516H23.585Z" fill="#FF6C6C"/>
<path d="M29 43.6516H34.415V58H29V43.6516Z" fill="#FF415B"/>
</svg>
