<svg width="58" height="58" viewBox="0 0 58 58" fill="none" xmlns="http://www.w3.org/2000/svg">
<path d="M14.2372 27.4322L10.1319 15.6056C9.95823 14.913 9.52934 14.3115 8.93109 13.9216C8.33284 13.5318 7.6094 13.3823 6.90562 13.5031C6.54473 13.5801 6.20321 13.7295 5.90179 13.9424C5.60037 14.1552 5.34533 14.4271 5.15212 14.7415C4.95891 15.0559 4.83157 15.4062 4.77781 15.7713C4.72405 16.1364 4.74499 16.5086 4.83937 16.8653L9.0625 29.9062L14.2372 27.4322Z" fill="#FFAC96"/>
<path d="M43.7628 27.4322L47.8681 15.6056C48.0418 14.913 48.4707 14.3115 49.0689 13.9216C49.6672 13.5318 50.3906 13.3823 51.0944 13.5031C51.4553 13.5801 51.7968 13.7295 52.0982 13.9424C52.3996 14.1552 52.6547 14.4271 52.8479 14.7415C53.0411 15.0559 53.1684 15.4062 53.2222 15.7713C53.276 16.1364 53.255 16.5086 53.1606 16.8653L48.9375 29.9062L43.7628 27.4322Z" fill="#FFAC96"/>
<path d="M22.6979 32.3368L14.6867 27.6406C14.1323 27.3204 13.4826 27.2066 12.8524 27.3192C12.2222 27.4318 11.6521 27.7636 11.2429 28.256L8.31938 19.2306C8.14573 18.538 7.71684 17.9365 7.11859 17.5466C6.52034 17.1568 5.7969 17.0073 5.09312 17.1281C4.73223 17.2051 4.39071 17.3545 4.08929 17.5674C3.78787 17.7802 3.53283 18.0521 3.33962 18.3665C3.14641 18.6809 3.01907 19.0312 2.96531 19.3963C2.91155 19.7614 2.93249 20.1336 3.02687 20.4903L6.96906 35.1987C7.1499 35.8867 7.53167 36.5051 8.06562 36.975L14.1919 42.4216C14.5741 42.7619 14.8799 43.1793 15.0892 43.6464C15.2985 44.1134 15.4066 44.6195 15.4063 45.1313V48.0312H26.2813V38.5917C26.2813 37.3272 25.9507 36.0846 25.3221 34.9874C24.6935 33.8901 23.7888 32.9764 22.6979 32.3368Z" fill="#FFBCAB"/>
<path d="M52.9069 17.1281C52.2031 17.0073 51.4797 17.1568 50.8814 17.5466C50.2832 17.9365 49.8543 18.538 49.6806 19.2306L46.7534 28.256C46.3443 27.7636 45.7742 27.4318 45.144 27.3192C44.5138 27.2066 43.8641 27.3204 43.3097 27.6406L35.2984 32.3368C34.2082 32.9768 33.3043 33.8908 32.6763 34.988C32.0484 36.0852 31.7183 37.3276 31.7188 38.5917V48.0312H42.5938V45.1313C42.5934 44.6195 42.7015 44.1134 42.9108 43.6464C43.1201 43.1793 43.4259 42.7619 43.8081 42.4216L49.9344 36.975C50.4683 36.5051 50.8501 35.8867 51.0309 35.1987L54.9731 20.4903C55.0675 20.1336 55.0885 19.7614 55.0347 19.3963C54.9809 19.0312 54.8536 18.6809 54.6604 18.3665C54.4672 18.0521 54.2121 17.7802 53.9107 17.5674C53.6093 17.3545 53.2678 17.2051 52.9069 17.1281Z" fill="#FFBCAB"/>
<path d="M30.8125 48.0312V55.2812H43.5V48.0312H42.5938H31.7188H30.8125Z" fill="#006DF0"/>
<path d="M27.1875 48.0312H26.2813H15.4063H14.5V55.2812H27.1875V48.0312Z" fill="#006DF0"/>
<path d="M41.18 16.82L40.5366 17.4634L29 29L17.4634 17.4634L16.82 16.82C16.0362 16.0685 15.4104 15.1682 14.9792 14.1716C14.548 13.1751 14.3202 12.1026 14.309 11.0168C14.2978 9.93107 14.5035 8.85402 14.914 7.84882C15.3245 6.84363 15.9316 5.93052 16.6997 5.16304C17.4678 4.39557 18.3814 3.78918 19.3869 3.37944C20.3924 2.96969 21.4696 2.76484 22.5554 2.7769C23.6411 2.78896 24.7135 3.01768 25.7097 3.44965C26.7058 3.88163 27.6057 4.50816 28.3566 5.2925L29 5.93594L29.6434 5.2925C30.3943 4.50816 31.2942 3.88163 32.2904 3.44965C33.2865 3.01768 34.3589 2.78896 35.4447 2.7769C36.5304 2.76484 37.6076 2.96969 38.6131 3.37944C39.6186 3.78918 40.5322 4.39557 41.3003 5.16304C42.0684 5.93052 42.6755 6.84363 43.086 7.84882C43.4966 8.85402 43.7022 9.93107 43.691 11.0168C43.6798 12.1026 43.452 13.1751 43.0208 14.1716C42.5896 15.1682 41.9638 16.0685 41.18 16.82Z" fill="#D80027"/>
<path d="M41.18 5.29251C40.3178 4.42113 39.2683 3.75774 38.1113 3.35275C36.9543 2.94777 35.7202 2.81184 34.5027 2.95529C36.029 3.12445 37.4765 3.72134 38.6784 4.6772C39.8803 5.63306 40.7877 6.90901 41.2961 8.35806C41.8045 9.80711 41.8932 11.3703 41.552 12.8676C41.2108 14.3648 40.4535 15.7352 39.3675 16.8209L38.7241 17.4644L28.0938 28.0938L29 29L40.5366 17.4634L41.18 16.82C42.7074 15.2907 43.5653 13.2177 43.5653 11.0563C43.5653 8.89485 42.7074 6.82181 41.18 5.29251Z" fill="#BD0022"/>
<path d="M30.8125 19.9375V16.3125H34.4375V12.6875H30.8125V9.0625H27.1875V12.6875H23.5625V16.3125H27.1875V19.9375H30.8125Z" fill="#F1F2F2"/>
<path d="M46.0321 30.5406L39.9747 33.8937C39.8016 33.994 39.6732 34.1565 39.6158 34.3482C39.5583 34.5398 39.5762 34.7461 39.6657 34.9251C39.7135 35.0208 39.7804 35.1056 39.8622 35.1745C39.9441 35.2434 40.0392 35.2948 40.1417 35.3255C40.2441 35.3562 40.3518 35.3657 40.4581 35.3532C40.5643 35.3408 40.6669 35.3067 40.7595 35.2531L46.0321 32.3531C46.5825 32.034 47.0037 31.5319 47.2221 30.9343C47.4405 30.3367 47.4424 29.6813 47.2274 29.0825C47.0177 29.6967 46.5932 30.2145 46.0321 30.5406Z" fill="#FFAC96"/>
<path d="M11.9679 30.5406L18.0253 33.8937C18.1984 33.994 18.3268 34.1565 18.3842 34.3482C18.4416 34.5398 18.4238 34.7461 18.3343 34.9251C18.2865 35.0208 18.2196 35.1056 18.1377 35.1745C18.0559 35.2434 17.9608 35.2948 17.8583 35.3255C17.7559 35.3562 17.6482 35.3657 17.5419 35.3532C17.4357 35.3408 17.3331 35.3067 17.2405 35.2531L11.9679 32.3531C11.4175 32.034 10.9963 31.5319 10.7779 30.9343C10.5595 30.3367 10.5576 29.6813 10.7726 29.0825C10.9823 29.6967 11.4068 30.2145 11.9679 30.5406Z" fill="#FFAC96"/>
</svg>
