<svg id="Capa_1" enable-background="new 0 0 497 497" height="512" viewBox="0 0 497 497" width="512" xmlns="http://www.w3.org/2000/svg"><g><path d="m41.176 198.027h414.648v255.222h-414.648z" fill="#ffdf8e"/><path d="m425.824 198.027h30v255.222h-30z" fill="#ffcd75"/><path d="m41.176 389.051h414.648v64.197h-414.648z" fill="#f7b565"/><path d="m425.824 389.051h30v64.197h-30z" fill="#e6a85e"/><path d="m426.419 27.424h-355.838c-1.857 0-3.47 1.278-3.894 3.086l-40.533 172.602c-.59 2.51 1.315 4.914 3.894 4.914h436.904c2.579 0 4.484-2.404 3.894-4.914l-40.533-172.603c-.424-1.807-2.037-3.085-3.894-3.085z" fill="#d88a55"/><path d="m470.846 203.112-40.533-172.603c-.425-1.808-2.037-3.086-3.894-3.086h-19.786l34.212 145.688c.59 2.51-1.315 4.914-3.894 4.914h-404.906l-5.891 25.086c-.589 2.51 1.315 4.914 3.894 4.914h436.904c2.578.002 4.483-2.403 3.894-4.913z" fill="#b5703e"/><path d="m296.599 461.636v-129.631c0-26.565-21.535-48.099-48.099-48.099-26.564 0-48.099 21.535-48.099 48.099v129.631z" fill="#d88a55"/><path d="m266.599 332.005v129.631h30v-129.631c0-26.565-21.535-48.099-48.099-48.099-5.24 0-10.278.849-15 2.398 19.217 6.304 33.099 24.377 33.099 45.701z" fill="#c27842"/><path d="m137.36 353.644h-43.076c-3.08 0-5.576-2.496-5.576-5.576v-38.108l3-7.5-3-7.5v-22.065c0-14.975 12.14-27.115 27.115-27.115 14.975 0 27.115 12.14 27.115 27.115v22.065l-2 7.5 2 7.5v38.107c-.001 3.08-2.498 5.577-5.578 5.577z" fill="#fdfdfd"/><path d="m292.41 138.429h-87.821c-7.28 0-13.182-5.902-13.182-13.183v-64.207l57.092-26.701 57.093 26.701v64.207c0 7.281-5.902 13.183-13.182 13.183z" fill="#ffdf8e"/><path d="m275.513 47.646.08 77.6c0 7.281-5.902 13.182-13.183 13.182h30c7.281 0 13.183-5.902 13.183-13.182v-64.207l-5.375-2.514z" fill="#ffcd75"/><path d="m300.336 76.275-51.837-35.096-51.836 35.096c-2.252 1.525-5.314.935-6.839-1.317l-15.239-22.508c-1.525-2.252-.935-5.314 1.317-6.839l62.216-42.124c6.27-4.245 14.491-4.245 20.762 0l62.218 42.124c2.252 1.525 2.842 4.587 1.317 6.839l-15.24 22.508c-1.525 2.252-4.586 2.841-6.839 1.317z" fill="#ae6834"/><path d="m491.342 496.697h-485.684c-3.125 0-5.658-2.533-5.658-5.658v-26.323c0-7.681 6.227-13.907 13.907-13.907h469.186c7.681 0 13.907 6.227 13.907 13.907v26.323c0 3.124-2.533 5.658-5.658 5.658z" fill="#e1e7ea"/><path d="m483.093 450.808h-30c7.681 0 13.907 6.227 13.907 13.907v31.981h24.342c3.125 0 5.658-2.533 5.658-5.658v-26.323c0-7.68-6.227-13.907-13.907-13.907z" fill="#d8d8d8"/><g fill="#b5703e"><path d="m132.281 72.583h-31.713c-4.143 0-7.5-3.358-7.5-7.5s3.357-7.5 7.5-7.5h31.713c4.142 0 7.5 3.358 7.5 7.5s-3.358 7.5-7.5 7.5z"/><path d="m142.587 109.617h-48.717c-4.143 0-7.5-3.358-7.5-7.5s3.357-7.5 7.5-7.5h48.717c4.143 0 7.5 3.358 7.5 7.5s-3.358 7.5-7.5 7.5z"/><path d="m170.763 145.575h-86.195c-4.143 0-7.5-3.358-7.5-7.5s3.357-7.5 7.5-7.5h86.195c4.143 0 7.5 3.358 7.5 7.5s-3.357 7.5-7.5 7.5z"/></g><g fill="#b5703e"><path d="m364.719 72.583h31.713c4.143 0 7.5-3.358 7.5-7.5s-3.357-7.5-7.5-7.5h-31.713c-4.143 0-7.5 3.358-7.5 7.5s3.357 7.5 7.5 7.5z"/><path d="m354.413 109.617h48.717c4.143 0 7.5-3.358 7.5-7.5s-3.357-7.5-7.5-7.5h-48.717c-4.143 0-7.5 3.358-7.5 7.5s3.357 7.5 7.5 7.5z"/><path d="m326.236 145.575h86.195c4.143 0 7.5-3.358 7.5-7.5s-3.357-7.5-7.5-7.5h-86.195c-4.142 0-7.5 3.358-7.5 7.5s3.358 7.5 7.5 7.5z"/></g><path d="m288.873 255.697h-80.745c-4.142 0-7.5-3.358-7.5-7.5s3.358-7.5 7.5-7.5h80.745c4.142 0 7.5 3.358 7.5 7.5s-3.358 7.5-7.5 7.5z" fill="#ffcd75"/><circle cx="248.5" cy="88.789" fill="#f7b565" r="18.941"/><path d="m88.707 294.96h54.229v15h-54.229z" fill="#d8d8d8"/><path d="m395.566 353.644h-43.077c-3.08 0-5.576-2.496-5.576-5.576v-38.108l3-7.5-3-7.5v-22.065c0-14.975 12.14-27.115 27.115-27.115 14.975 0 27.115 12.14 27.115 27.115v22.065l-2 7.5 2 7.5v38.107c-.001 3.08-2.498 5.577-5.577 5.577z" fill="#fdfdfd"/><path d="m346.913 294.96h54.229v15h-54.229z" fill="#d8d8d8"/><ellipse cx="248.5" cy="375.151" fill="#b5703e" rx="9.34" ry="9.34" transform="matrix(.924 -.383 .383 .924 -124.648 123.654)"/></g></svg>