<svg width="52" height="52" viewBox="0 0 52 52" fill="none" xmlns="http://www.w3.org/2000/svg">
<path d="M51.1034 26V49.3103H34.9655V24.2069L51.1034 26Z" fill="#86B4CC"/>
<path d="M17.0345 24.2069V49.3103H0.896545V26L17.0345 24.2069Z" fill="#86B4CC"/>
<path d="M15.2414 24.2069H36.7586V49.3103H15.2414V24.2069Z" fill="#A1C8D3"/>
<path d="M23.3103 35.8621H28.6896C29.1848 35.8621 29.5862 36.2635 29.5862 36.7586V47.5172H22.4138V36.7586C22.4138 36.2635 22.8152 35.8621 23.3103 35.8621Z" fill="#567580"/>
<path d="M23.3103 32.2759C22.8152 32.2759 22.4138 31.8745 22.4138 31.3793V29.5862C22.4138 29.0911 22.8152 28.6897 23.3103 28.6897C23.8055 28.6897 24.2069 29.0911 24.2069 29.5862V31.3793C24.2069 31.8745 23.8055 32.2759 23.3103 32.2759Z" fill="#464F5E"/>
<path d="M10.7586 33.1724C10.2635 33.1724 9.86208 32.771 9.86208 32.2759V30.4828C9.86208 29.9876 10.2635 29.5862 10.7586 29.5862C11.2538 29.5862 11.6552 29.9876 11.6552 30.4828V32.2759C11.6552 32.771 11.2538 33.1724 10.7586 33.1724Z" fill="#464F5E"/>
<path d="M5.37931 33.1724C4.88416 33.1724 4.48276 32.771 4.48276 32.2759V30.4828C4.48276 29.9876 4.88416 29.5862 5.37931 29.5862C5.87446 29.5862 6.27586 29.9876 6.27586 30.4828V32.2759C6.27586 32.771 5.87446 33.1724 5.37931 33.1724Z" fill="#464F5E"/>
<path d="M10.7586 38.5517C10.2635 38.5517 9.86208 38.1503 9.86208 37.6552V35.8621C9.86208 35.3669 10.2635 34.9655 10.7586 34.9655C11.2538 34.9655 11.6552 35.3669 11.6552 35.8621V37.6552C11.6552 38.1503 11.2538 38.5517 10.7586 38.5517Z" fill="#464F5E"/>
<path d="M5.37931 38.5517C4.88416 38.5517 4.48276 38.1503 4.48276 37.6552V35.8621C4.48276 35.3669 4.88416 34.9655 5.37931 34.9655C5.87446 34.9655 6.27586 35.3669 6.27586 35.8621V37.6552C6.27586 38.1503 5.87446 38.5517 5.37931 38.5517Z" fill="#464F5E"/>
<path d="M10.7586 43.931C10.2635 43.931 9.86208 43.5296 9.86208 43.0345V41.2414C9.86208 40.7462 10.2635 40.3448 10.7586 40.3448C11.2538 40.3448 11.6552 40.7462 11.6552 41.2414V43.0345C11.6552 43.5296 11.2538 43.931 10.7586 43.931Z" fill="#464F5E"/>
<path d="M5.37931 43.931C4.88416 43.931 4.48276 43.5296 4.48276 43.0345V41.2414C4.48276 40.7462 4.88416 40.3448 5.37931 40.3448C5.87446 40.3448 6.27586 40.7462 6.27586 41.2414V43.0345C6.27586 43.5296 5.87446 43.931 5.37931 43.931Z" fill="#464F5E"/>
<path d="M46.6207 33.1724C46.1255 33.1724 45.7241 32.771 45.7241 32.2759V30.4828C45.7241 29.9876 46.1255 29.5862 46.6207 29.5862C47.1158 29.5862 47.5172 29.9876 47.5172 30.4828V32.2759C47.5172 32.771 47.1158 33.1724 46.6207 33.1724Z" fill="#464F5E"/>
<path d="M41.2414 33.1724C40.7462 33.1724 40.3448 32.771 40.3448 32.2759V30.4828C40.3448 29.9876 40.7462 29.5862 41.2414 29.5862C41.7365 29.5862 42.1379 29.9876 42.1379 30.4828V32.2759C42.1379 32.771 41.7365 33.1724 41.2414 33.1724Z" fill="#464F5E"/>
<path d="M46.6207 38.5517C46.1255 38.5517 45.7241 38.1503 45.7241 37.6552V35.8621C45.7241 35.3669 46.1255 34.9655 46.6207 34.9655C47.1158 34.9655 47.5172 35.3669 47.5172 35.8621V37.6552C47.5172 38.1503 47.1158 38.5517 46.6207 38.5517Z" fill="#464F5E"/>
<path d="M41.2414 38.5517C40.7462 38.5517 40.3448 38.1503 40.3448 37.6552V35.8621C40.3448 35.3669 40.7462 34.9655 41.2414 34.9655C41.7365 34.9655 42.1379 35.3669 42.1379 35.8621V37.6552C42.1379 38.1503 41.7365 38.5517 41.2414 38.5517Z" fill="#464F5E"/>
<path d="M46.6207 43.931C46.1255 43.931 45.7241 43.5296 45.7241 43.0345V41.2414C45.7241 40.7462 46.1255 40.3448 46.6207 40.3448C47.1158 40.3448 47.5172 40.7462 47.5172 41.2414V43.0345C47.5172 43.5296 47.1158 43.931 46.6207 43.931Z" fill="#464F5E"/>
<path d="M41.2414 43.931C40.7462 43.931 40.3448 43.5296 40.3448 43.0345V41.2414C40.3448 40.7462 40.7462 40.3448 41.2414 40.3448C41.7365 40.3448 42.1379 40.7462 42.1379 41.2414V43.0345C42.1379 43.5296 41.7365 43.931 41.2414 43.931Z" fill="#464F5E"/>
<path d="M28.6896 32.2759C28.1945 32.2759 27.7931 31.8745 27.7931 31.3793V29.5862C27.7931 29.0911 28.1945 28.6897 28.6896 28.6897C29.1848 28.6897 29.5862 29.0911 29.5862 29.5862V31.3793C29.5862 31.8745 29.1848 32.2759 28.6896 32.2759Z" fill="#464F5E"/>
<path d="M51.1034 47.5172H0.896552C0.4014 47.5172 0 47.9186 0 48.4138V50.2069C0 50.7021 0.4014 51.1035 0.896552 51.1035H13.4483C13.4483 51.5986 13.8497 52 14.3448 52H37.6552C38.1503 52 38.5517 51.5986 38.5517 51.1035H51.1034C51.5986 51.1035 52 50.7021 52 50.2069V48.4138C52 47.9186 51.5986 47.5172 51.1034 47.5172Z" fill="#EDC100"/>
<path d="M38.5517 47.5172V51.1035C38.5517 51.5986 38.1503 52 37.6552 52H14.3448C13.8497 52 13.4483 51.5986 13.4483 51.1035V47.5172H38.5517Z" fill="#F8E8AB"/>
<path d="M34.069 4.14207V15.2414H17.931V4.14207L25.7759 7.2549C25.9206 7.30782 26.0794 7.30782 26.2241 7.2549L34.069 4.14207Z" fill="#393F4B"/>
<path d="M48.9069 21.6159C48.6041 21.0065 47.9825 20.621 47.3021 20.6207H40.3448V18.8276L35.4945 13.9772C35.1572 13.6388 34.6992 13.4485 34.2214 13.4483H16.9807C16.4469 13.4455 15.9401 13.6825 15.6 14.0938L11.6552 18.8276V20.6207H4.69792C4.01749 20.621 3.39589 21.0065 3.0931 21.6159L0.896545 26H51.1034L48.9069 21.6159Z" fill="#4397D5"/>
<path d="M40.3448 18.8276V21.5172C40.3448 22.0124 39.9434 22.4138 39.4483 22.4138H12.5517C12.0566 22.4138 11.6552 22.0124 11.6552 21.5172V18.8276H40.3448Z" fill="#2B5781"/>
<path d="M13.4483 22.4138H38.5517V26H13.4483V22.4138Z" fill="#3180BC"/>
<path d="M38.5517 4.03449C38.563 4.44446 38.2867 4.80673 37.8883 4.90415L36.7586 5.20897L34.069 5.93518L26.2241 8.04208C26.0769 8.07793 25.9231 8.07793 25.7759 8.04208L17.931 5.93518L14.1117 4.90415C13.7129 4.80418 13.4331 4.44569 13.4331 4.03449C13.4331 3.62329 13.7129 3.2648 14.1117 3.16483L25.7759 0.0269031C25.9231 -0.00894735 26.0769 -0.00894735 26.2241 0.0269031L36.7586 2.86001L37.8883 3.16483C38.2867 3.26225 38.563 3.62452 38.5517 4.03449Z" fill="#464F5E"/>
<path d="M39.2241 10.3552C39.0592 10.6057 38.7799 10.7571 38.48 10.7586C38.3037 10.7607 38.1312 10.7074 37.9869 10.6062C37.2185 10.0997 36.7568 9.24032 36.7586 8.32V5.20897L37.8883 4.90414C38.2867 4.80673 38.563 4.44446 38.5517 4.03448V8.32C38.5519 8.64142 38.7136 8.94124 38.9821 9.11793C39.1797 9.24874 39.3165 9.45333 39.362 9.68589C39.4075 9.91845 39.3579 10.1595 39.2241 10.3552Z" fill="#EDC100"/>
</svg>
