<svg width="58" height="58" viewBox="0 0 58 58" fill="none" xmlns="http://www.w3.org/2000/svg">
<path d="M19.9375 6.34375H52.5625V55.2812H19.9375V6.34375Z" fill="#CDEEF6"/>
<path d="M5.4375 38.9688H41.6875V55.2812H5.4375V38.9688Z" fill="#92CDDE"/>
<path d="M23.5625 46.2188H38.0625V55.2812H23.5625V46.2188Z" fill="#FFF69A"/>
<path d="M41.6875 2.71875H50.75V6.34375H41.6875V2.71875Z" fill="#7D8D9C"/>
<path d="M30.8125 2.71875H38.0625V6.34375H30.8125V2.71875Z" fill="#7D8D9C"/>
<path d="M23.5625 9.96875H27.1875V13.5938H23.5625V9.96875Z" fill="#50B4F8"/>
<path d="M30.8125 9.96875H34.4375V13.5938H30.8125V9.96875Z" fill="#50B4F8"/>
<path d="M38.0625 9.96875H41.6875V13.5938H38.0625V9.96875Z" fill="#50B4F8"/>
<path d="M45.3125 9.96875H48.9375V13.5938H45.3125V9.96875Z" fill="#50B4F8"/>
<path d="M19.9375 13.5938H14.5L19.0312 9.96875H19.9375V13.5938Z" fill="#50B4F8"/>
<path d="M23.5625 17.2188H27.1875V20.8438H23.5625V17.2188Z" fill="#50B4F8"/>
<path d="M30.8125 17.2188H34.4375V20.8438H30.8125V17.2188Z" fill="#50B4F8"/>
<path d="M38.0625 17.2188H41.6875V20.8438H38.0625V17.2188Z" fill="#50B4F8"/>
<path d="M45.3125 17.2188H48.9375V20.8438H45.3125V17.2188Z" fill="#50B4F8"/>
<path d="M19.9375 20.8438H14.5L19.0312 17.2188H19.9375V20.8438Z" fill="#50B4F8"/>
<path d="M23.5625 24.4688H27.1875V28.0938H23.5625V24.4688Z" fill="#50B4F8"/>
<path d="M30.8125 24.4688H34.4375V28.0938H30.8125V24.4688Z" fill="#50B4F8"/>
<path d="M38.0625 24.4688H41.6875V28.0938H38.0625V24.4688Z" fill="#50B4F8"/>
<path d="M45.3125 24.4688H48.9375V28.0938H45.3125V24.4688Z" fill="#50B4F8"/>
<path d="M19.9375 28.0938H14.5L19.0312 24.4688H19.9375V28.0938Z" fill="#50B4F8"/>
<path d="M23.5625 31.7188H27.1875V35.3438H23.5625V31.7188Z" fill="#50B4F8"/>
<path d="M30.8125 31.7188H34.4375V35.3438H30.8125V31.7188Z" fill="#50B4F8"/>
<path d="M38.0625 31.7188H41.6875V35.3438H38.0625V31.7188Z" fill="#50B4F8"/>
<path d="M45.3125 31.7188H48.9375V35.3438H45.3125V31.7188Z" fill="#50B4F8"/>
<path d="M45.3125 38.9688H48.9375V42.5938H45.3125V38.9688Z" fill="#50B4F8"/>
<path d="M9.96875 50.75H11.7812V55.2812H9.96875V50.75Z" fill="#D3843D"/>
<path d="M46.2188 50.75H48.0312V55.2812H46.2188V50.75Z" fill="#D3843D"/>
<path d="M8.15625 41.6875H9.96875V43.5H8.15625V41.6875Z" fill="#FFF69A"/>
<path d="M11.7812 41.6875H13.5938V43.5H11.7812V41.6875Z" fill="#FFF69A"/>
<path d="M15.4062 41.6875H17.2188V43.5H15.4062V41.6875Z" fill="#FFF69A"/>
<path d="M19.0312 41.6875H20.8438V43.5H19.0312V41.6875Z" fill="#FFF69A"/>
<path d="M22.6562 41.6875H24.4688V43.5H22.6562V41.6875Z" fill="#FFF69A"/>
<path d="M26.2812 41.6875H28.0938V43.5H26.2812V41.6875Z" fill="#FFF69A"/>
<path d="M29.9062 41.6875H31.7188V43.5H29.9062V41.6875Z" fill="#FFF69A"/>
<path d="M33.5312 41.6875H35.3438V43.5H33.5312V41.6875Z" fill="#FFF69A"/>
<path d="M37.1562 41.6875H38.9688V43.5H37.1562V41.6875Z" fill="#FFF69A"/>
<path d="M29.9062 46.2188H31.7188V55.2812H29.9062V46.2188Z" fill="#F9BB4B"/>
<path d="M5.4375 31.7188H16.3125V35.3438H5.4375V31.7188Z" fill="#8EC13F"/>
<path d="M6.34375 35.3438H8.15625V38.9688H6.34375V35.3438Z" fill="#32B1CC"/>
<path d="M13.5938 35.3438H15.4062V38.9688H13.5938V35.3438Z" fill="#32B1CC"/>
<path d="M10.875 51.6562C11.876 51.6562 12.6875 50.8448 12.6875 49.8438C12.6875 48.8427 11.876 48.0312 10.875 48.0312C9.87398 48.0312 9.0625 48.8427 9.0625 49.8438C9.0625 50.8448 9.87398 51.6562 10.875 51.6562Z" fill="#55B56A"/>
<path d="M47.125 51.6562C48.126 51.6562 48.9375 50.8448 48.9375 49.8438C48.9375 48.8427 48.126 48.0312 47.125 48.0312C46.124 48.0312 45.3125 48.8427 45.3125 49.8438C45.3125 50.8448 46.124 51.6562 47.125 51.6562Z" fill="#55B56A"/>
</svg>
