<svg width="804" height="572" viewBox="0 0 804 572" fill="none" xmlns="http://www.w3.org/2000/svg">
<ellipse cx="402" cy="550" rx="402" ry="10" fill="#F5F5F5"/>
<path d="M637.295 101.284H630.585V128.517H637.295V101.284Z" fill="white"/>
<path d="M696.207 122.846H669.059V128.197H696.207V122.846Z" fill="#AFDBFE"/>
<path d="M699.817 117.479H672.67V122.828H699.817V117.479Z" fill="white"/>
<path d="M694.198 112.245H667.051V117.595H694.198V112.245Z" fill="#142666"/>
<path d="M645.055 90.3132H638.192V128.114H645.055V90.3132Z" fill="#AFDBFE"/>
<path d="M629.788 94.4799H623.468V128.114H629.788V94.4799Z" fill="#142666"/>
<path d="M650.752 94.7999L645.072 97.5805L659.778 127.809L665.457 125.028L650.752 94.7999Z" fill="#142666"/>
<path d="M718.067 91.4674C716.403 91.4674 715.053 92.8204 715.053 94.4916V97.8583C715.053 98.4763 714.553 98.9784 713.936 98.9784H712.559V92.8428C712.559 90.6047 710.75 88.7889 708.518 88.7889C706.286 88.7889 704.476 90.6036 704.476 92.8428V105.757H703.701C702.718 105.757 701.921 104.957 701.921 103.972V101.27C701.921 99.5996 700.572 98.2455 698.907 98.2455C697.243 98.2455 695.894 99.5986 695.894 101.27V105.757C695.894 109.097 698.592 111.803 701.921 111.803H704.476V119.515H712.558V105.024H715.052C718.38 105.024 721.079 102.316 721.079 98.9773V94.4916C721.08 92.8204 719.731 91.4674 718.067 91.4674Z" fill="#AFDBFE"/>
<path opacity="0.5" d="M708.458 119.514V88.7921C706.254 88.825 704.478 90.6249 704.478 92.8428V105.757H703.703C702.72 105.757 701.923 104.957 701.923 103.972V101.27C701.923 99.5996 700.574 98.2455 698.909 98.2455C697.245 98.2455 695.896 99.5986 695.896 101.27V105.757C695.896 109.097 698.594 111.803 701.923 111.803H704.478V119.515H708.458V119.514Z" fill="#70C0FD"/>
<path d="M710.992 127.924H705.924C703.568 127.924 701.658 126.008 701.658 123.645V114.28H715.258V123.645C715.257 126.008 713.347 127.924 710.992 127.924Z" fill="#07085B"/>
<path d="M727 127.924H618.452V131H727V127.924Z" fill="#07085B"/>
<path d="M445.607 70.5371C462.511 70.5371 476.214 56.7615 476.214 39.7685C476.214 22.7755 462.511 9 445.607 9C428.703 9 415 22.7755 415 39.7685C415 56.7615 428.703 70.5371 445.607 70.5371Z" fill="#142666"/>
<path d="M471.762 38.1187C472.669 52.6397 461.693 65.1514 447.248 66.063C432.803 66.9736 420.357 55.9405 419.451 41.4195C418.544 26.8984 429.52 14.3868 443.965 13.4751C458.41 12.5635 470.855 23.5966 471.762 38.1187Z" fill="white"/>
<path d="M427.084 39.2505H417.422V39.9972H427.084V39.2505Z" fill="#142666"/>
<path d="M473.85 39.2505H464.189V39.9972H473.85V39.2505Z" fill="#142666"/>
<path d="M445.938 11.6338H445.195V21.3457H445.938V11.6338Z" fill="#142666"/>
<path d="M445.938 58.4605H445.195V68.1724H445.938V58.4605Z" fill="#142666"/>
<path d="M445.607 40.5706C446.049 40.5706 446.407 40.2115 446.407 39.7685C446.407 39.3256 446.049 38.9665 445.607 38.9665C445.166 38.9665 444.808 39.3256 444.808 39.7685C444.808 40.2115 445.166 40.5706 445.607 40.5706Z" fill="#142666"/>
<path d="M445.607 40.128C445.516 40.128 445.424 40.0929 445.355 40.0227L430.984 25.5761C430.844 25.4357 430.844 25.2081 430.984 25.0677C431.123 24.9273 431.35 24.9273 431.49 25.0677L445.86 39.5143C445.999 39.6547 445.999 39.8823 445.86 40.0227C445.79 40.0929 445.698 40.128 445.607 40.128Z" fill="#142666"/>
<path d="M450.227 54.3683C450.168 54.3385 450.12 54.2853 450.097 54.2172L445.452 40.1132C445.408 39.9759 445.481 39.8281 445.618 39.7823C445.754 39.7377 445.901 39.811 445.947 39.9483L450.592 54.0523C450.637 54.1885 450.563 54.3374 450.427 54.3821C450.358 54.4055 450.287 54.398 450.227 54.3683Z" fill="#142666"/>
<path d="M180.38 98.5593H173.076V128.265H180.38V98.5593Z" fill="#142666"/>
<path d="M244.502 122.08H214.953V127.915H244.502V122.08Z" fill="#70C0FD"/>
<path d="M248.434 116.225H218.884V122.059H248.434V116.225Z" fill="#142666"/>
<path d="M242.318 110.517H212.77V116.351H242.318V110.517Z" fill="white"/>
<path d="M188.827 86.5944H181.357V127.826H188.827V86.5944Z" fill="white"/>
<path d="M172.208 91.1387H165.328V127.825H172.208V91.1387Z" fill="#70C0FD"/>
<path d="M211.024 124.449L204.842 127.483L188.831 94.515L195.014 91.4812L211.024 124.449Z" fill="#70C0FD"/>
<path d="M250.42 127.617H159.87V130.972H250.42V127.617Z" fill="#4188E4"/>
<path d="M172.208 94.0267H165.328V96.4063H172.208V94.0267Z" fill="white"/>
<path d="M178.775 101.073H174.679V112.405H178.775V101.073Z" fill="#97CEF7"/>
<path d="M188.827 91.1387H181.357V92.9289H188.827V91.1387Z" fill="#97CEF7"/>
<path d="M188.827 122.06H181.357V124.407H188.827V122.06Z" fill="#97CEF7"/>
<path d="M291.184 28.907H239.908V80.3471H291.184V28.907Z" fill="white"/>
<path d="M285.929 34.1767H245.161V75.0752H285.929V34.1767Z" fill="#B0D6FF"/>
<path d="M693.113 8.81412H652.434V49.6243H693.113V8.81412Z" fill="white"/>
<path d="M688.945 12.9957H656.602V45.4428H688.945V12.9957Z" fill="#B0D6FF"/>
<path d="M224.011 0H188.859V35.2639H224.011V0Z" fill="white"/>
<path d="M220.41 3.61353H192.461V31.6514H220.41V3.61353Z" fill="#B0D6FF"/>
<path d="M637.757 35.9308H610.315V63.4603H637.757V35.9308Z" fill="white"/>
<path d="M634.947 38.7519H613.128V60.6403H634.947V38.7519Z" fill="#B0D6FF"/>
<path d="M424.556 323.946C424.556 323.946 393.112 200.587 384.115 202.79C377.573 204.392 331.149 203.649 306.297 203.124C298.178 202.953 291.899 210.179 293.214 218.176L311.873 331.628L424.556 323.946Z" fill="#F99746"/>
<path d="M413.888 524.246C413.888 524.246 412.496 540.327 415.902 542L459.494 541.911C459.494 541.911 459.494 536.89 452.493 535.774C445.491 534.659 433.19 530.568 431.109 521.456C429.027 512.345 413.888 524.246 413.888 524.246Z" fill="#233862"/>
<path d="M459.494 425.098C452.421 449.874 446.645 470.38 445.171 476.353C440.715 494.427 431.799 522.976 431.799 522.976C431.799 522.976 423.343 528.472 409.842 522.69C409.842 522.69 405.767 478.523 411.159 433.762C411.25 433.03 411.343 432.292 411.436 431.553C412.044 426.782 412.744 421.46 413.508 415.758L459.494 425.098Z" fill="#2B478B"/>
<path d="M362.759 524.246C362.759 524.246 361.366 540.327 364.772 542L408.365 541.911C408.365 541.911 408.365 536.89 401.363 535.774C394.362 534.659 382.061 530.568 379.979 521.456C377.898 512.345 362.759 524.246 362.759 524.246Z" fill="#233862"/>
<path d="M408.366 425.098C401.293 449.874 395.518 470.38 394.043 476.353C389.587 494.427 380.671 522.976 380.671 522.976C380.671 522.976 372.215 528.472 358.714 522.69C358.714 522.69 354.639 478.523 360.031 433.762C360.122 433.03 360.215 432.292 360.307 431.553C360.916 426.782 361.616 421.46 362.38 415.758L408.366 425.098Z" fill="#2B478B"/>
<path d="M497.573 307.227C497.573 307.227 505.555 303.061 508.003 303.739C510.45 304.417 520.351 308.357 521.594 310.149C523.531 312.945 526.995 317.423 524.759 317.654C522.524 317.886 503.065 317.036 500.85 316.636C498.635 316.235 493.637 313.575 497.573 307.227Z" fill="#FFB27D"/>
<path d="M425.994 236.372L426.084 323.863C426.084 323.863 415.752 332.986 378.259 332.927C377.324 332.931 376.374 332.928 375.402 332.912C353.906 332.628 348.576 304.42 348.224 278.524C347.92 256.44 351.239 236.037 351.239 236.037C403.014 219.788 425.994 236.372 425.994 236.372Z" fill="white"/>
<path d="M500.734 315.705C493.037 318.506 448.88 317.142 444.776 315.477C442.672 314.62 434.36 305.523 426.163 294.53C426.155 294.523 426.155 294.523 426.155 294.523C418.397 284.125 410.72 272.03 408.516 263.652C403.983 246.437 410.488 232.189 410.488 232.189C410.488 232.189 421.691 233.244 426.003 236.532C430.314 239.827 451.973 291.898 455.345 293.548C458.718 295.205 499.85 301.713 504.376 304.493C504.376 304.494 508.423 312.905 500.734 315.705Z" fill="white"/>
<path d="M400.366 231.131L400.1 233.842C400.1 233.842 400.053 242.392 389.473 242.664C378.892 242.94 371.385 237.657 372.276 231.139C373.689 226.158 375.046 222.774 375.505 218.587C375.675 217.031 375.722 215.368 375.604 213.474L395.921 214.943L401.804 216.468L400.366 231.131Z" fill="#FFB27D"/>
<path d="M401.804 216.468L400.366 231.131C398.119 231.932 395.632 232.317 392.907 232.066C383.586 231.205 375.722 215.367 375.604 213.474L401.804 216.468Z" fill="#EF9F6A"/>
<path d="M402.326 223.706C402.326 223.706 375.867 226.543 374.35 210.074C372.833 193.604 368.396 182.877 385.225 180.369C402.055 177.861 405.92 183.844 407.767 189.219C409.613 194.593 409.169 222.544 402.326 223.706Z" fill="#FFB27D"/>
<path d="M378.259 332.927C377.324 332.931 376.374 332.928 375.401 332.912C353.906 332.628 348.576 304.42 348.224 278.524C350.683 280.032 383.981 301.078 378.259 332.927Z" fill="#EBF4FF"/>
<path d="M361.591 307.227C361.591 307.227 369.573 303.061 372.02 303.739C374.468 304.417 384.369 308.357 385.611 310.149C387.549 312.945 391.012 317.423 388.777 317.654C386.541 317.886 367.082 317.036 364.868 316.636C362.653 316.235 357.655 313.575 361.591 307.227Z" fill="#FFB27D"/>
<path d="M360.656 233.891C360.656 233.891 344.626 235.923 335.915 244.194C327.998 251.711 303.534 289.746 296.482 303.591C295.359 305.796 297.443 311.019 299.368 312.576C304.19 316.476 314.547 319.951 341.156 318.098L364.9 316.889C364.9 316.889 367.599 306.55 362.713 303.883L324.835 299.796C324.835 299.796 348.675 279.399 353.48 273.343C358.285 267.287 360.656 233.891 360.656 233.891Z" fill="white"/>
<path d="M377.425 173.045C377.386 173.008 377.353 172.967 377.332 172.921C377.139 172.482 376.48 172.515 376.48 172.515C377.447 172.184 378.868 172.581 378.868 172.581C378.836 172.556 378.901 172.494 379.041 172.41C379.346 171.166 380.705 170.382 380.705 170.382C380.213 170.966 379.973 171.573 379.854 172.023C382.832 170.792 391.887 168.286 398.542 171.935C406.741 176.431 413.933 177.656 413.933 177.656C413.881 178.212 414.282 189.213 408.659 190.688C408.62 193.175 394.14 189.922 389.842 192.782C385.546 195.642 388.86 201.313 384.115 202.79C384.107 202.792 384.099 202.795 384.092 202.798C382.937 203.155 381.678 202.715 380.962 201.743C379.99 200.427 378.75 199.286 377.508 199.628C374.843 200.362 373.825 203.718 375.119 204.993C376.654 206.507 375.66 214.78 375.66 214.78C375.66 214.78 370.407 203.631 366.66 198.496C363.545 194.227 366.125 177.261 377.425 173.045Z" fill="#233862"/>
<path d="M411.435 340.434C411.129 343.839 409.564 347.011 407.043 349.329L403.08 352.973C402.086 353.888 400.521 353.761 399.684 352.701L394.775 346.48C393.459 344.812 392.84 342.7 393.042 340.587C393.501 335.879 394.356 326.809 395.041 318.056C395.598 310.963 396.045 304.072 396.079 299.88C396.186 286.496 393.526 243.816 393.526 243.816L396.741 243.984C396.741 243.984 404.727 260.551 408.908 283.093C409.94 288.642 410.735 294.549 411.13 300.665C411.131 300.665 412.807 325.042 411.435 340.434Z" fill="#C65447"/>
<path d="M389.465 241.021L398.412 238.881C398.412 238.881 399.58 238.982 399.548 240.437C399.516 241.891 397.029 246.14 395.927 246.48C394.825 246.82 387.349 243.963 389.465 241.021Z" fill="#BA4C43"/>
<path d="M368.036 232.142C367.967 230.751 373.262 227.827 373.262 227.827C373.262 227.827 381.491 239.682 393.944 239.863C393.944 239.863 390.396 246.756 386.213 248.541C386.213 248.54 368.448 240.405 368.036 232.142Z" fill="#E9F3FE"/>
<path d="M393.944 239.862C393.944 239.862 400.548 233.258 400.572 229.027C400.572 229.027 404.194 228.074 406.91 229.926C406.91 229.926 408.25 240.509 406.176 244.721C406.176 244.721 396.675 243.277 393.944 239.862Z" fill="#E9F3FE"/>
<path d="M138.502 331.24H560.768V506.774H138.502V331.24Z" fill="#ABC8F7"/>
<path d="M560.768 331.24H578.003V542.269H560.768V331.24Z" fill="#88B0EA"/>
<path d="M138.502 316.652H155.737V542.269H138.502V316.652Z" fill="#88B0EA"/>
<path d="M141.677 316.652H578.003V331.24H141.677V316.652Z" fill="#88B0EA"/>
<path d="M279.567 291.078H171.884L162.626 220.133H270.309L279.567 291.078Z" fill="#233862"/>
<path d="M276.807 291.078H169.124L159.866 220.133H267.549L276.807 291.078Z" fill="#2B478B"/>
<path d="M218.823 316.652H193.73L204.936 243.473H230.03L218.823 316.652Z" fill="#233862"/>
<path d="M197.14 310.332H230.03V316.652H197.14V310.332Z" fill="#233862"/>
<path d="M664.122 383.623C665.053 360.782 667.059 340.913 669.461 327.056C673.289 304.967 676.735 292.26 676.775 292.125C677.279 290.182 684.563 282.322 700.759 282.565C716.954 282.807 715.418 293.115 715.418 293.115C715.419 293.463 715.373 293.788 715.302 294.031C715.146 294.562 700.279 348.355 700.923 417.808C700.932 418.784 701.042 420.469 700.973 421.591C700.972 421.597 663.442 422.558 663.433 421.591C662.124 415.521 662.762 398.702 664.122 383.623Z" fill="#7CA8F4"/>
<path d="M659.404 417.465C659.415 418.433 659.927 419.208 660.551 419.208H660.566C661.19 419.193 661.687 418.418 661.695 417.465H693.859C693.87 418.433 694.382 419.208 695.006 419.208H695.021C695.657 419.193 696.161 418.393 696.154 417.414C695.967 397.532 697.103 378.967 698.822 362.582C703.098 321.72 711.003 294.409 711.115 294.031C711.186 293.787 711.23 293.464 711.23 293.114C711.23 293.114 712.766 282.808 696.573 282.564C680.375 282.32 673.091 290.182 672.586 292.125C672.556 292.227 670.605 299.422 668.011 312.359C667.152 316.645 666.225 321.56 665.272 327.053C662.872 340.91 660.866 360.781 659.935 383.62C658.574 398.7 658.096 411.397 659.404 417.465Z" fill="#7CA8F4"/>
<path d="M698.53 419.209H572.431C572.431 419.209 575.368 407.35 648.396 409.116C700.077 410.366 698.53 419.209 698.53 419.209Z" fill="#7CA8F4"/>
<path d="M708.794 543.075C694.173 469.212 697.933 423.888 697.951 423.317C697.988 422.18 695.888 421.147 694.758 421.111C693.614 421.09 688.568 420.775 687.984 421.748C687.219 423.023 684.275 478.867 706.065 543.075H708.794Z" fill="#7CA8F4"/>
<path d="M591.056 543.075C605.677 469.212 601.917 423.888 601.899 423.317C601.862 422.18 603.962 421.147 605.092 421.111C606.236 421.09 611.282 420.775 611.866 421.748C612.631 423.023 615.575 478.867 593.785 543.075H591.056Z" fill="#7CA8F4"/>
<path d="M567.723 543.075C582.344 469.212 578.584 423.888 578.566 423.317C578.529 422.18 580.629 421.147 581.759 421.111C582.903 421.09 587.949 420.775 588.533 421.748C589.298 423.023 592.242 478.867 570.452 543.075H567.723Z" fill="#7CA8F4"/>
<path d="M685.304 543.075C670.683 469.212 674.443 423.888 674.461 423.317C674.498 422.18 672.398 421.147 671.268 421.111C670.124 421.09 665.078 420.775 664.494 421.748C663.729 423.023 660.785 478.867 682.575 543.075H685.304Z" fill="#7CA8F4"/>
<path d="M572.355 422.993H698.455C699.876 422.993 701.038 421.834 701.038 420.416V418.722C701.038 417.304 699.876 416.144 698.455 416.144H572.355C570.935 416.144 569.772 417.304 569.772 418.722V420.416C569.772 421.834 570.935 422.993 572.355 422.993Z" fill="#7CA8F4"/>
<path d="M617.285 270.501C617.285 270.501 622.293 274.751 623.381 285.776C624.207 294.148 618.387 359.137 614.009 364.301C601.689 378.834 586.247 372.694 580.198 374.899L574.493 369.783C574.493 369.783 594.555 355.007 596.081 350.186C601.958 331.628 598.315 277.51 617.285 270.501Z" fill="#F99746"/>
<path d="M616.871 214.614C616.871 214.614 616.533 202.695 632.285 200.356C648.036 198.018 652.389 201.692 655.067 205.701C657.745 209.71 662.767 226.081 662.265 232.595C661.763 239.11 643.796 247.166 644.089 250.967C644.381 254.768 616.871 214.614 616.871 214.614Z" fill="#163560"/>
<path d="M547.824 531.986C548.335 536.013 542.831 537.199 536.427 537.759C530.024 538.319 532.01 539.582 523.276 541.522C514.542 543.462 510.932 541.148 510.253 539.964C509.647 538.915 513.676 537.091 517.964 535.039C518.504 534.783 519.044 534.519 519.585 534.255C524.409 531.886 527.001 527.319 530.676 523.039C534.157 518.985 537.148 506.302 537.148 506.302L549.003 503.273C549.003 503.273 546.05 514.696 545.057 519.564C544.473 522.427 545.597 525.562 546.58 527.944C547.11 529.24 547.646 530.566 547.824 531.986Z" fill="#FFB27D"/>
<path d="M536.427 537.759C530.023 538.319 532.009 539.582 523.276 541.522C514.541 543.462 510.931 541.148 510.252 539.964C509.647 538.915 513.675 537.091 517.964 535.039L518.034 535.112C518.034 535.112 524.292 537.017 531.357 534.785C537.115 532.968 542.613 529.231 546.579 527.944C547.11 529.239 547.645 530.566 547.823 531.986C548.335 536.013 542.831 537.199 536.427 537.759Z" fill="#B24940"/>
<path d="M636.582 367.772C636.582 367.772 557.329 375.977 544.265 388.084C531.202 400.192 533.528 512.985 533.528 512.985C535.562 515.091 537.063 515.042 540.276 514.79C543.359 514.548 549.647 511.902 549.647 511.902C549.647 511.902 566.62 456.517 566.832 443.693C567.043 430.869 569.728 409.108 575.119 407.825C580.51 406.542 644.671 413.721 651.705 393.497C658.74 373.272 647.06 356.633 647.06 356.633L636.582 367.772Z" fill="#163560"/>
<path d="M673.602 388.117C670.182 390.402 664.068 393.924 653.808 394.289C635.449 394.956 612.54 392.771 608.031 388.522C606.861 387.424 606.288 385.605 606.127 383.3C605.63 376.269 608.995 364.703 611.255 355.132C612.721 348.912 613.72 343.541 612.902 340.794C610.411 332.436 602.673 315.402 602.005 309.805C601.337 304.207 608.031 274.215 617.286 270.501C626.546 266.783 662.265 270.501 662.265 270.501C676.22 273.328 676.808 303.019 672.173 328.291C672.053 328.943 671.932 329.59 671.807 330.231C666.785 355.893 683.143 381.737 673.602 388.117Z" fill="#F99746"/>
<path d="M623.441 273.083C623.692 274.712 628.159 277.353 637.707 274.842C646.856 272.435 647.955 269.461 647.953 267.498C647.951 265.174 643.976 262.042 644.028 247.742L642.931 247.957L624.484 251.602C624.484 251.602 624.904 257.396 624.917 262.853C624.929 267.435 623.023 270.372 623.441 273.083Z" fill="#FFB27D"/>
<path d="M624.484 251.602C624.484 251.602 624.903 257.395 624.916 262.853C635.238 262.562 640.694 253.165 642.93 247.957L624.484 251.602Z" fill="#ED975D"/>
<path d="M621.037 256.77C621.037 256.77 645.459 257.172 645.476 241.99C645.492 226.809 648.656 216.637 633.064 215.738C617.471 214.84 614.435 220.629 613.195 225.695C611.954 230.761 614.684 256.274 621.037 256.77Z" fill="#FFB27D"/>
<path d="M621.941 215.366C621.941 215.366 628.627 233.177 638.889 235.81C649.151 238.444 653.603 235.7 653.603 235.7C653.603 235.7 645.731 229.46 644.098 218.567C644.098 218.567 626.985 206.889 621.941 215.366Z" fill="#163560"/>
<path d="M623.598 216.812C623.598 216.812 618.604 220.789 617.386 224.655C616.169 228.52 615.621 236.479 613.297 236.208C613.297 236.208 608.259 224.102 613.921 217.254C619.924 209.993 623.598 216.812 623.598 216.812Z" fill="#163560"/>
<path d="M607.347 533.436C607.406 537.496 601.805 538.042 595.38 537.861C588.955 537.681 590.788 539.165 581.894 540.088C573 541.011 569.671 538.297 569.128 537.043C568.644 535.931 572.849 534.581 577.339 533.036C577.904 532.843 578.47 532.643 579.036 532.443C584.094 530.644 587.179 526.405 591.307 522.574C595.217 518.946 586.586 501.394 586.586 501.394L597.901 495.806C597.901 495.806 600.047 508.337 602.81 519.299C603.523 522.131 605.85 526.797 606.562 529.276C606.944 530.625 607.328 532.006 607.347 533.436Z" fill="#FFB27D"/>
<path d="M673.115 385.1C669.695 387.385 664.068 393.924 653.808 394.289C636.875 390.446 617.597 385.97 606.127 383.299C605.63 376.269 608.995 364.703 611.255 355.131C624.627 359.205 644.528 345.324 651.217 339.837C658.248 334.074 658.027 314.871 658.027 314.871L672.173 328.291C672.052 328.942 671.932 329.589 671.807 330.23C666.784 355.893 682.656 378.721 673.115 385.1Z" fill="#ED7D2B"/>
<path d="M595.379 537.861C588.954 537.681 590.787 539.165 581.893 540.088C572.999 541.011 569.67 538.297 569.127 537.043C568.643 535.931 572.848 534.581 577.338 533.036L577.4 533.116C577.4 533.116 583.405 535.729 590.673 534.323C596.598 533.18 602.477 530.1 606.561 529.276C606.943 530.625 607.328 532.005 607.346 533.436C607.405 537.496 601.804 538.042 595.379 537.861Z" fill="#C65447"/>
<path d="M653.683 372.596C633.562 372.025 573.463 376.811 561.917 385.498C547.706 396.19 588.304 511.819 588.304 511.819C588.304 511.819 593.018 512.274 594.511 512.106C600.958 511.378 603.584 509.417 603.584 509.417C603.584 509.417 603.427 441.36 598.684 428.343C594.301 416.314 591.615 412.059 597.106 411.34C602.598 410.622 671.132 419.347 676.852 398.7C681.321 382.571 674.719 367.645 674.719 367.645C674.719 367.645 672.247 373.123 653.683 372.596Z" fill="#1C468A"/>
<path d="M662.265 270.499C662.265 270.499 676.242 271.683 677.33 282.708C678.156 291.079 684.236 350.458 679.857 355.622C667.537 370.154 626.456 373.235 620.407 375.44L618.743 368.568C618.743 368.568 662.599 346.519 661.93 341.507C661.26 336.496 648.859 268.515 662.265 270.499Z" fill="#F99746"/>
<path d="M647.46 206.349C647.46 206.349 646.457 199.989 655.296 198.348C664.134 196.707 664.299 215.441 665.246 219.958C666.193 224.475 663.833 227.18 660.462 227.455C657.091 227.73 647.46 206.349 647.46 206.349Z" fill="#163560"/>
<path d="M618.267 368.266C618.267 368.266 605.777 364.738 602.802 365.563C599.826 366.388 589.633 373.123 591.066 374.952C592.5 376.782 601.479 373.857 605.611 374.411C609.743 374.965 612.939 376.999 615.914 376.559C618.889 376.119 622 374.952 622 374.952L618.267 368.266Z" fill="#FFB27D"/>
<path d="M618.267 368.266C618.267 368.266 612.156 365.133 610.417 363.349C610.198 363.124 609.827 363.172 609.659 363.437C609.193 364.17 608.757 365.585 610.9 366.993C613.986 369.018 618.267 368.266 618.267 368.266Z" fill="#FFB27D"/>
<path d="M574.493 369.783C574.493 369.783 561.532 370.492 558.986 372.235C556.44 373.979 548.988 383.651 550.939 384.916C552.89 386.182 560.432 380.508 564.521 379.694C568.609 378.88 572.293 379.77 574.964 378.39C577.635 377.01 580.198 374.899 580.198 374.899L574.493 369.783Z" fill="#FFB27D"/>
<path d="M721.399 411.771C722.33 388.929 724.336 369.06 726.737 355.203C730.565 333.115 734.011 320.407 734.051 320.272C734.555 318.329 741.839 310.47 758.035 310.712C774.23 310.955 772.694 321.262 772.694 321.262C772.696 321.611 772.65 321.936 772.578 322.179C772.422 322.71 757.556 376.502 758.2 445.956C758.209 446.931 758.319 448.617 758.249 449.739C758.249 449.744 720.718 450.706 720.709 449.739C719.4 443.669 720.038 426.849 721.399 411.771Z" fill="#7CA8F4"/>
<path d="M716.68 445.613C716.691 446.58 717.203 447.355 717.828 447.355H717.843C718.467 447.34 718.964 446.566 718.971 445.613H751.135C751.146 446.58 751.659 447.355 752.283 447.355H752.298C752.933 447.34 753.438 446.54 753.43 445.561C753.243 425.68 754.379 407.115 756.098 390.729C760.374 349.867 768.279 322.557 768.391 322.178C768.462 321.935 768.507 321.611 768.507 321.262C768.507 321.262 770.043 310.955 753.849 310.711C737.651 310.467 730.367 318.329 729.862 320.272C729.833 320.374 727.882 327.57 725.288 340.507C724.428 344.792 723.501 349.707 722.548 355.201C720.149 369.058 718.142 388.929 717.211 411.768C715.85 426.848 715.372 439.544 716.68 445.613Z" fill="#8CB3EA"/>
<path d="M755.807 447.356H629.707C629.707 447.356 632.644 435.497 705.672 437.263C757.353 438.514 755.807 447.356 755.807 447.356Z" fill="#8CB3EA"/>
<path d="M766.07 571.222C751.449 497.36 755.209 452.035 755.227 451.464C755.264 450.327 753.164 449.294 752.034 449.258C750.891 449.238 745.844 448.922 745.26 449.895C744.495 451.17 741.551 507.014 763.341 571.222H766.07Z" fill="#7CA8F4"/>
<path d="M648.333 571.222C662.954 497.36 659.195 452.035 659.176 451.464C659.139 450.327 661.24 449.294 662.369 449.258C663.513 449.238 668.56 448.922 669.143 449.895C669.908 451.17 672.853 507.014 651.062 571.222H648.333Z" fill="#7CA8F4"/>
<path d="M625 571.222C639.621 497.36 635.862 452.035 635.843 451.464C635.806 450.327 637.907 449.294 639.036 449.258C640.18 449.238 645.226 448.922 645.81 449.895C646.575 451.17 649.52 507.014 627.73 571.222H625Z" fill="#7CA8F4"/>
<path d="M742.581 571.222C727.96 497.36 731.72 452.035 731.738 451.464C731.775 450.327 729.675 449.294 728.545 449.258C727.401 449.238 722.355 448.922 721.771 449.895C721.006 451.17 718.061 507.014 739.852 571.222H742.581Z" fill="#7CA8F4"/>
<path d="M629.632 451.141H755.732C757.153 451.141 758.315 449.981 758.315 448.563V446.869C758.315 445.451 757.153 444.291 755.732 444.291H629.633C628.212 444.291 627.05 445.451 627.05 446.869V448.563C627.05 449.981 628.212 451.141 629.632 451.141Z" fill="#7CA8F4"/>
<path d="M671.074 413.306C671.074 413.306 663.847 414.602 661.817 415.98C659.786 417.358 658.546 421.954 659.427 421.574C660.309 421.194 669.951 417.451 669.951 417.451L671.074 413.306Z" fill="#FFB27D"/>
<path d="M692.323 351.488C692.217 347.621 687.033 346.386 685.204 349.797C684.09 351.875 683.226 354.252 683.012 356.82C682.281 365.573 682.943 394.611 678.836 399.177C674.729 403.743 666.74 414.241 666.74 414.241L668.736 417.789C668.736 417.789 689.619 412.358 691.797 404.768C693.392 399.208 692.77 367.859 692.323 351.488Z" fill="white"/>
<path d="M724.46 408.539C724.46 408.539 726.783 434.586 722.292 438.203C717.802 441.821 660.277 445.888 658.019 447.07C655.761 448.251 668.09 458.441 672.12 497.024C672.12 497.024 660.724 501.697 655.539 499.699C655.539 499.699 631.627 448.366 637.836 434.469C640.701 428.055 678.662 412.513 693.153 410.567C707.644 408.621 724.46 408.539 724.46 408.539Z" fill="#2C3A64"/>
<path d="M675.736 499.881C675.736 499.881 676.417 504.104 673.483 507.42C671.635 509.509 670.591 512.031 670.597 514.491C670.602 516.57 672.96 517.772 674.64 516.543L692.365 503.563C693.875 502.458 694.097 500.296 692.844 498.907C691.748 497.694 690.488 496.269 689.568 495.143C687.558 492.684 683.482 492.505 683.482 492.505L675.736 499.881Z" fill="#2C3A64"/>
<path d="M657.53 499.881C657.53 499.881 658.211 504.104 655.277 507.42C653.429 509.509 652.385 512.031 652.391 514.491C652.396 516.57 654.754 517.772 656.434 516.543L674.159 503.563C675.669 502.458 675.891 500.296 674.638 498.907C673.542 497.694 672.282 496.269 671.362 495.143C669.352 492.684 665.276 492.505 665.276 492.505L657.53 499.881Z" fill="#2C3A64"/>
<path d="M733.579 347.111C738.968 362.59 740.42 391.329 743.664 418.304L693.154 410.567C693.154 410.567 678.836 347.805 692.019 341.53C697.228 339.051 703.653 338.737 708.856 337.785C716.39 336.408 731.065 339.891 733.579 347.111Z" fill="#C65447"/>
<path d="M743.063 408.539C743.063 408.539 745.386 434.586 740.896 438.203C736.405 441.821 681.683 445.372 679.425 446.553C677.167 447.734 686.694 458.441 690.723 497.024C690.723 497.024 679.327 501.697 674.142 499.699C674.142 499.699 645.319 449.469 649.96 438.266C653.773 429.063 697.266 412.513 711.757 410.567C726.248 408.621 743.063 408.539 743.063 408.539Z" fill="#35488B"/>
<path d="M691.797 331.842C691.797 331.842 692.338 332.552 693.04 333.714C693.176 333.938 693.317 334.181 693.464 334.444C694.297 335.927 695.247 337.921 695.783 340.07C695.866 340.405 695.939 340.746 696.002 341.091C696.392 343.26 694.019 344.305 695.437 346.124C698.341 349.858 711.048 343.673 712.145 339.073C712.827 336.214 709.007 334.57 705.733 329.494C705.611 329.299 705.484 329.1 705.362 328.896C703.954 326.562 702.56 323.741 701.449 320.44L691.797 331.842Z" fill="#FFB27D"/>
<path d="M693.039 333.714C693.176 333.938 693.317 334.181 693.463 334.444C694.297 335.927 695.247 337.921 695.783 340.07C700.865 339.024 705.732 329.494 705.732 329.494C705.732 329.494 694.218 331.837 694.034 331.837C693.98 331.837 693.502 332.625 693.039 333.714Z" fill="#ED975D"/>
<path d="M694.665 337.649C694.665 337.649 709.573 333.008 707.602 320.096C705.474 306.162 695.232 301.454 690.55 303.636C681.215 307.987 678.257 314.433 678.926 318.87C679.595 323.307 686.479 340.273 694.665 337.649Z" fill="#FFB27D"/>
<path d="M707.552 325.077C707.552 325.077 706.289 319.745 704.635 317.513C704.635 317.513 705.301 311.176 702.696 311.343C700.09 311.51 700.621 314.679 699.865 314.466C699.109 314.251 693.165 306.342 690.97 308.085C688.774 309.828 681.737 318.002 675.834 317.105C669.93 316.208 671.122 297.51 689.998 292.621C708.874 287.731 716.648 307.218 707.552 325.077Z" fill="#2C3A64"/>
<path d="M702.076 294.607C702.076 294.607 701.455 292.037 699.735 291C699.735 291 701.011 293.112 700.774 294.557C700.536 296.001 702.076 294.607 702.076 294.607Z" fill="#2C3A64"/>
<path d="M700.814 293.327C700.814 293.327 702.624 291.887 704.483 292.806C704.483 292.806 702.529 292.739 701.759 294.59L700.814 293.327Z" fill="#2C3A64"/>
<path d="M698.867 347.271C698.867 347.271 707.605 333.312 708.779 333.358C709.954 333.403 713.083 336.059 713.222 337.529C713.36 339 706.643 348.23 698.867 347.271Z" fill="white"/>
<path d="M695.533 339.172C695.533 339.172 696.784 344.044 698.867 347.27C698.867 347.27 695.112 348.23 693.308 342.801C692.588 340.63 695.533 339.172 695.533 339.172Z" fill="white"/>
<path d="M688.452 405.85C690.157 403.783 696.248 403.544 699.187 403.554C700.166 403.557 700.796 403.588 700.796 403.588V408.539C700.796 408.539 689.264 412.981 688.452 412.171C687.64 411.361 686.179 408.606 688.452 405.85Z" fill="#FFB27D"/>
<path d="M716.465 352.036C715.706 343.938 725.397 339.204 731.334 344.777C732.062 345.461 732.811 346.235 733.579 347.111C744.578 359.649 738.802 399.595 732.955 403.047C727.108 406.498 699.386 409.85 699.386 409.85C699.386 409.85 698.219 404.715 699.386 401.798C699.386 401.798 719.799 389.347 719.799 388.401C719.799 387.731 717.697 365.189 716.465 352.036Z" fill="white"/>
<path d="M303.593 506.773H310.002V542.269H303.593V506.773Z" fill="#C8DBF4"/>
<path d="M273.738 506.773H280.147V542.269H273.738V506.773Z" fill="#C8DBF4"/>
<path d="M172.94 444.779C172.94 444.779 157.331 426.505 172.056 414.965C172.056 414.965 182.806 408.51 191.556 409.06C191.556 409.06 179.099 429.778 183.105 431.853C187.111 433.928 195.318 407.769 195.318 407.769C195.318 407.769 219.749 405.472 227.596 409.263C227.596 409.263 206.67 426.257 211.064 427.284C215.459 428.311 238.057 411.637 238.057 411.637C238.057 411.637 260.779 415.559 259.529 429.394C258.279 443.229 250.435 447.481 246.993 447.104C243.551 446.726 223.434 439 222.988 441.814C222.541 444.627 234.639 453.86 243.126 454.313C243.126 454.313 227.051 471.908 216.414 466.788C205.776 461.669 204.889 453.597 198.257 450.553C191.626 447.509 185.958 447.501 188.691 450.595C191.424 453.689 203.432 456.721 207.211 463.434C210.99 470.147 214.384 474.677 203.369 472.992C192.353 471.308 174.462 463.212 173.701 453.995C172.94 444.779 172.94 444.779 172.94 444.779Z" fill="#82B378"/>
<path d="M248.359 429.736C248.359 429.736 186.624 427.194 172.94 444.779C172.94 444.779 169.9 453.783 160.599 461.964L159.142 465.894C159.142 465.894 169.871 454.666 173.701 453.995C173.702 453.995 167.774 432.149 248.359 429.736Z" fill="#82B378"/>
<path d="M160.598 461.965C160.598 461.965 147.319 471.709 146.351 489.182L148.756 489.404C148.756 489.404 153.038 471.345 160.707 464.3C168.377 457.254 160.598 461.965 160.598 461.965Z" fill="#82B378"/>
<path d="M118.253 421.703C118.253 421.703 143.2 407.849 131.627 388.926C131.627 388.926 122.359 377.3 112.403 374.29C112.403 374.29 117.641 402.477 112.324 403.126C107.009 403.774 108.757 371.297 108.757 371.297C108.757 371.297 82.5532 358.631 72.2545 359.597C72.2545 359.597 88.4543 387.151 83.1418 386.474C77.8293 385.796 59.6383 357.906 59.6383 357.906C59.6383 357.906 32.7489 352.861 28.3879 368.759C24.0272 384.656 30.9803 392.63 34.963 393.635C38.9458 394.64 64.5205 394.378 63.8475 397.691C63.1739 401.003 45.8887 406.26 36.2647 403.25C36.2647 403.25 46.8219 429.463 60.7749 428.175C74.728 426.887 79.0693 418.281 87.7067 417.642C96.3433 417.003 102.648 419.34 98.3238 421.649C93.9997 423.957 79.3902 422.357 72.3995 428.256C65.4084 434.154 59.7524 437.784 72.6984 440.471C85.644 443.158 108.898 441.564 113.575 431.633C118.253 421.703 118.253 421.703 118.253 421.703Z" fill="#A8D29F"/>
<path d="M40.6631 373.764C40.6631 373.764 110.349 396.491 118.252 421.703C118.252 421.703 117.889 432.971 124.829 445.916L124.815 450.888C124.815 450.888 117.554 433.964 113.575 431.633C113.575 431.633 129.245 409.801 40.6631 373.764Z" fill="#82B378"/>
<path d="M124.829 445.916C124.829 445.916 135.54 462.246 129.354 482.07L126.589 481.321C126.589 481.321 129.334 459.474 123.737 448.467C118.14 437.461 124.829 445.916 124.829 445.916Z" fill="#82B378"/>
<path d="M157.934 402.612C157.934 402.612 125.148 384.173 140.539 359.311C140.539 359.311 152.84 344.053 165.985 340.156C165.985 340.156 158.879 377.274 165.881 378.167C172.884 379.06 170.811 336.237 170.811 336.237C170.811 336.237 205.444 319.729 219.012 321.076C219.012 321.076 197.461 357.281 204.468 356.426C211.476 355.571 235.656 318.937 235.656 318.937C235.656 318.937 271.136 312.48 276.77 333.467C282.405 354.453 273.182 364.914 267.925 366.211C262.667 367.507 228.957 366.979 229.821 371.35C230.684 375.721 253.432 382.774 266.139 378.876C266.139 378.876 252.034 413.354 233.651 411.556C215.268 409.758 209.607 398.384 198.227 397.479C186.846 396.574 178.519 399.61 184.202 402.684C189.886 405.757 209.155 403.753 218.328 411.579C227.501 419.404 234.93 424.23 217.846 427.678C200.762 431.128 170.121 428.86 164.027 415.736C157.934 402.612 157.934 402.612 157.934 402.612Z" fill="#B1E2A6"/>
<path d="M260.553 339.976C260.553 339.976 168.532 369.436 157.934 402.612C157.934 402.612 158.331 417.468 149.091 434.482L149.073 441.036C149.073 441.036 158.765 418.78 164.027 415.735C164.028 415.735 143.529 386.844 260.553 339.976Z" fill="#82B378"/>
<path d="M149.091 434.482C149.091 434.482 134.854 455.93 142.866 482.107L146.516 481.14C146.516 481.14 143.054 452.322 150.511 437.853C157.969 423.384 149.091 434.482 149.091 434.482Z" fill="#82B378"/>
<path d="M156.457 538.863C191.98 538.96 220.855 510.3 220.952 474.851L92.3113 474.501C92.2147 509.951 120.934 538.766 156.457 538.863Z" fill="#F99746"/>
<path d="M172.285 538.415C169.668 538.734 167 538.892 164.292 538.884C128.77 538.788 100.054 509.971 100.15 474.522L116.129 474.566C116.04 507.316 140.543 534.402 172.285 538.415Z" fill="#FCC191"/>
<path d="M221.656 542.306L91.2388 541.952C91.2506 537.579 94.8131 534.043 99.1956 534.055L213.742 534.365C218.125 534.377 221.668 537.932 221.656 542.306Z" fill="#F99746"/>
<path d="M222.425 474.837L90.2065 474.481L90.2012 476.45L222.42 476.806L222.425 474.837Z" fill="#F99746"/>
</svg>
