<svg width="38" height="41" viewBox="0 0 38 41" fill="none" xmlns="http://www.w3.org/2000/svg">
<path d="M36.0318 25.5615H19.9614L7.02365 40.2491L13.3887 25.5615H1.71548C0.767688 25.5615 0 24.793 0 23.8441V1.71735C0 0.768529 0.767688 0 1.71548 0H36.0305C36.9783 0 37.746 0.768529 37.746 1.71735V23.8441C37.7473 24.793 36.9796 25.5615 36.0318 25.5615Z" fill="#FFBE18"/>
<path d="M23 9.49698C23 11.8277 20.0903 12.5142 20.0903 13.4229V13.783H17.1806V12.9259C17.1806 11.6744 19.3937 10.9544 19.3937 9.5659C19.3937 8.93198 18.9842 8.36608 18.2705 8.36608C17.3516 8.36608 17.1644 9.08615 17.1644 9.80623C17.1644 9.9604 17.1644 10.1146 17.1815 10.2696H14.0513C14.0333 10.0466 14 9.84069 14 9.6176C14 7.38936 15.9737 6 18.6449 6C21.2459 5.99909 23 7.37122 23 9.49698ZM20.3441 18H16.9754V14.8286H20.3441V18Z" fill="white"/>
</svg>
