<svg width="45" height="43" viewBox="0 0 45 43" fill="none" xmlns="http://www.w3.org/2000/svg">
<path d="M2.35061 30.9995H25.4078L15.8681 42.5327L36.4343 30.9995H42.8992C44.0205 30.9995 44.9276 30.0915 44.9276 28.9703V2.82318C44.9276 1.70197 44.0205 0.793945 42.8992 0.793945H2.35061C1.23062 0.793945 0.322266 1.70197 0.322266 2.82318V28.9703C0.322266 30.0902 1.23062 30.9995 2.35061 30.9995Z" fill="#FD425F"/>
<path d="M29.1992 12.5693C29.1992 15.9513 24.9493 16.9475 24.9493 18.2661V18.7886H20.6993V17.545C20.6993 15.7289 23.9318 14.684 23.9318 12.6693C23.9318 11.7494 23.3337 10.9283 22.2912 10.9283C20.9491 10.9283 20.6757 11.9731 20.6757 13.018C20.6757 13.2417 20.6757 13.4654 20.7006 13.6905H16.1286C16.1023 13.3668 16.0537 13.068 16.0537 12.7443C16.0537 9.51095 18.9365 7.49487 22.8381 7.49487C26.6371 7.49356 29.1992 9.48463 29.1992 12.5693ZM25.32 24.9078H20.3996V20.3059H25.32V24.9078Z" fill="white"/>
</svg>
