<svg id="Capa_1" enable-background="new 0 0 512 512" height="512" viewBox="0 0 512 512" width="512" xmlns="http://www.w3.org/2000/svg"><g><g><g fill="#57697d"><path d="m156.492 259.462c-8.202 4.801-18.383 4.812-26.603 0-1.267.742-2.458 1.596-3.579 2.531-2.565 4.871-5.482 9.526-8.72 13.932-.985 4.005-.774 5.651-.774 17.609 0 14.567 11.809 26.375 26.375 26.375s26.375-11.809 26.375-26.375v-11.3c0-9.714-5.255-18.195-13.074-22.772z"/><path d="m156.492 202.642c-8.202 4.801-18.383 4.812-26.603 0-1.267.742-2.458 1.596-3.579 2.531-2.565 4.871-5.482 9.526-8.72 13.932-.985 4.006-.774 5.651-.774 17.609 0 14.567 11.809 26.375 26.375 26.375s26.375-11.809 26.375-26.375v-11.3c0-9.713-5.255-18.195-13.074-22.772z"/><path d="m169.566 350.38v-11.3c0-9.645-5.194-18.159-13.074-22.772-8.19 4.794-18.412 4.797-26.603 0-7.692 4.503-13.074 12.899-13.074 23.074-.023 1.312-.014 10.895.005 11.178.097 14.483 11.864 26.195 26.371 26.195 14.614 0 26.375-11.872 26.375-26.375z"/><path d="m156.492 259.462c-8.202 4.801-18.383 4.812-26.603 0-1.267.742-2.458 1.596-3.579 2.531-2.565 4.871-5.482 9.526-8.72 13.932-.985 4.005-.774 5.651-.774 17.609 0 14.567 11.809 26.375 26.375 26.375s26.375-11.809 26.375-26.375v-11.3c0-9.714-5.255-18.195-13.074-22.772z"/><path d="m156.492 202.642c-8.202 4.801-18.383 4.812-26.603 0-1.267.742-2.458 1.596-3.579 2.531-2.565 4.871-5.482 9.526-8.72 13.932-.985 4.006-.774 5.651-.774 17.609 0 14.567 11.809 26.375 26.375 26.375s26.375-11.809 26.375-26.375v-11.3c0-9.713-5.255-18.195-13.074-22.772z"/><path d="m169.566 350.38v-11.3c0-9.645-5.194-18.159-13.074-22.772-8.19 4.794-18.412 4.797-26.603 0-7.692 4.503-13.074 12.899-13.074 23.074-.023 1.312-.014 10.895.005 11.178.097 14.483 11.864 26.195 26.371 26.195 14.614 0 26.375-11.872 26.375-26.375z"/><path d="m153.083 293.535v-11.3c0-12.113-7.615-18.189-8.326-19.219-5.111.304-10.293-.876-14.868-3.554-1.267.742-2.458 1.596-3.579 2.531-2.565 4.87-5.482 9.526-8.72 13.932-.985 4.006-.775 5.651-.775 17.609 0 11.56 7.441 21.376 17.791 24.939 7.166-1.273 18.477-10.549 18.477-24.938z"/><path d="m144.782 206.232-.032-.036c-5.108.302-10.288-.877-14.861-3.554-1.267.742-2.458 1.596-3.579 2.531-2.565 4.87-5.482 9.526-8.72 13.932-.985 4.006-.775 5.65-.775 17.609 0 11.664 7.575 21.553 18.072 25.034 10.176-3.156 18.196-13.031 18.196-25.034v-11.3c0-7.566-3.197-14.374-8.301-19.182z"/><path d="m135.981 375.074c10.01-3.763 17.102-13.433 17.102-24.694s1.446-21.311-8.31-30.492l-.032-.035c-5.113.3-10.296-.878-14.852-3.546-7.692 4.503-13.074 12.899-13.074 23.074-.023 1.312-.014 10.895.005 11.178.078 11.658 7.72 21.515 18.262 24.919z"/></g><g><g><path d="m156.492 202.642c-4.243 2.484-9.015 3.674-13.771 3.59 9.745 9.18 8.302 19.265 8.302 30.483 0 11.303-7.112 20.942-17.104 24.695 17.219 6.467 35.647-6.285 35.647-24.695v-11.3c0-9.714-5.255-18.196-13.074-22.773z" fill="#3d5168"/></g></g><g><g><path d="m156.492 259.462c-4.243 2.484-9.015 3.674-13.771 3.59 9.745 9.18 8.302 19.265 8.302 30.483 0 11.303-7.112 20.942-17.104 24.695 17.218 6.468 35.647-6.285 35.647-24.695v-11.3c0-9.715-5.255-18.196-13.074-22.773z" fill="#3d5168"/></g></g><g><g><path d="m156.492 316.307c-4.237 2.48-9.018 3.667-13.78 3.581 9.633 9.065 8.31 18.89 8.31 30.492 0 11.261-7.092 20.931-17.102 24.694 17.247 6.48 35.646-6.327 35.646-24.694v-11.3c0-9.646-5.194-18.16-13.074-22.773z" fill="#3d5168"/></g></g></g><g><g fill="#57697d"><path d="m383.889 259.462c-8.202 4.801-18.383 4.812-26.603 0-1.267.742-2.458 1.596-3.579 2.531-2.565 4.871-5.482 9.526-8.72 13.932-.985 4.005-.775 5.651-.775 17.609 0 14.567 11.809 26.375 26.375 26.375 14.567 0 26.375-11.809 26.375-26.375v-11.3c0-9.714-5.255-18.195-13.073-22.772z"/><path d="m383.889 202.642c-8.202 4.801-18.383 4.812-26.603 0-1.267.742-2.458 1.596-3.579 2.531-2.565 4.871-5.482 9.526-8.72 13.932-.985 4.006-.775 5.651-.775 17.609 0 14.567 11.809 26.375 26.375 26.375 14.567 0 26.375-11.809 26.375-26.375v-11.3c0-9.713-5.255-18.195-13.073-22.772z"/><path d="m396.962 350.38v-11.3c0-9.645-5.194-18.159-13.074-22.772-8.19 4.794-18.412 4.797-26.603 0-7.692 4.503-13.074 12.899-13.074 23.074-.023 1.312-.014 10.895.005 11.178.097 14.483 11.864 26.195 26.371 26.195 14.614 0 26.375-11.872 26.375-26.375z"/><path d="m383.889 259.462c-8.202 4.801-18.383 4.812-26.603 0-1.267.742-2.458 1.596-3.579 2.531-2.565 4.871-5.482 9.526-8.72 13.932-.985 4.005-.775 5.651-.775 17.609 0 14.567 11.809 26.375 26.375 26.375 14.567 0 26.375-11.809 26.375-26.375v-11.3c0-9.714-5.255-18.195-13.073-22.772z"/><path d="m383.889 202.642c-8.202 4.801-18.383 4.812-26.603 0-1.267.742-2.458 1.596-3.579 2.531-2.565 4.871-5.482 9.526-8.72 13.932-.985 4.006-.775 5.651-.775 17.609 0 14.567 11.809 26.375 26.375 26.375 14.567 0 26.375-11.809 26.375-26.375v-11.3c0-9.713-5.255-18.195-13.073-22.772z"/><path d="m396.962 350.38v-11.3c0-9.645-5.194-18.159-13.074-22.772-8.19 4.794-18.412 4.797-26.603 0-7.692 4.503-13.074 12.899-13.074 23.074-.023 1.312-.014 10.895.005 11.178.097 14.483 11.864 26.195 26.371 26.195 14.614 0 26.375-11.872 26.375-26.375z"/><path d="m380.479 293.535v-11.3c0-12.113-7.615-18.189-8.326-19.219-5.111.304-10.293-.876-14.868-3.554-1.267.742-2.458 1.596-3.579 2.531-2.565 4.87-5.482 9.526-8.72 13.932-.985 4.006-.775 5.651-.775 17.609 0 11.56 7.441 21.376 17.792 24.939 7.165-1.273 18.476-10.549 18.476-24.938z"/><path d="m372.178 206.232-.032-.036c-5.108.302-10.288-.877-14.861-3.554-1.267.742-2.458 1.596-3.579 2.531-2.565 4.87-5.482 9.526-8.72 13.932-.985 4.006-.775 5.65-.775 17.609 0 11.664 7.575 21.553 18.072 25.034 10.176-3.156 18.196-13.031 18.196-25.034v-11.3c0-7.566-3.197-14.374-8.301-19.182z"/><path d="m363.377 375.074c10.01-3.763 17.102-13.433 17.102-24.694 0-14.887 1.123-20.085-8.342-30.527-5.113.3-10.296-.878-14.852-3.546-7.692 4.503-13.074 12.899-13.074 23.074-.023 1.312-.014 10.895.005 11.178.078 11.658 7.72 21.515 18.262 24.919z"/></g><g><g><path d="m383.889 202.642c-4.243 2.484-9.015 3.674-13.771 3.59 5.104 4.808 8.302 11.617 8.302 19.183v11.3c0 11.303-7.112 20.942-17.104 24.695 17.219 6.467 35.647-6.285 35.647-24.695v-11.3c-.001-9.714-5.256-18.196-13.074-22.773z" fill="#3d5168"/></g></g><g><g><path d="m383.889 259.462c-4.243 2.484-9.015 3.674-13.771 3.59 9.745 9.18 8.302 19.265 8.302 30.483 0 11.303-7.112 20.942-17.104 24.695 17.218 6.468 35.647-6.285 35.647-24.695v-11.3c-.001-9.715-5.256-18.196-13.074-22.773z" fill="#3d5168"/></g></g><g><g><path d="m383.889 316.307c-4.237 2.48-9.018 3.667-13.78 3.581 9.633 9.065 8.31 18.89 8.31 30.492 0 11.261-7.092 20.931-17.102 24.694 17.247 6.48 35.646-6.327 35.646-24.694v-11.3c-.001-9.646-5.195-18.16-13.074-22.773z" fill="#3d5168"/></g></g></g><path d="m355.624 350.802c-9.414 0-11.429 0-20.153 0l-39.736 48.815v34.164h-79.471v-34.164l-39.736-48.815h-20.153c-27.093 0-50.946 21.496-50.946 51.659v81.057h301.14c0-2.045 0-80.938 0-81.77.001-28.137-22.808-50.946-50.945-50.946z" fill="#eaf6ff"/><path d="m355.624 350.802c-9.414 0-11.429 0-20.153 0l-39.736 48.815v34.164h-79.471v-34.164l-39.736-48.815h-20.153c-27.093 0-50.946 21.496-50.946 51.659v81.057h301.14c0-2.045 0-80.938 0-81.77.001-28.137-22.808-50.946-50.945-50.946z" fill="#eaf6ff"/><g><path d="m355.624 350.802c-9.414 0-11.429 0-20.153 0l-.051.062c26.993 1.284 48.485 23.572 48.485 50.884v81.77h22.664c0-2.045 0-80.938 0-81.77.001-28.137-22.808-50.946-50.945-50.946z" fill="#d8ecfe"/></g><path d="m209.761 288.401v36.929l41.989 61.337c2.046 2.988 6.455 2.988 8.501 0l41.989-61.337v-36.929z" fill="#ffa78f"/><path d="m145.333 159.792h-21.559c-10.001 6.736-16.58 18.164-16.58 31.129v.231c0 19.198 14.76 37.508 38.982 37.508h23.379v-68.867h-24.222z" fill="#ffb09e"/><path d="m387.609 159.792h-21.868-29.699v68.867h28.856c24.305 0 39.291-18.026 39.291-37.508v-.231c0-12.964-6.579-24.391-16.58-31.128z" fill="#f89580"/><path d="m349.893 80.943h-204.56v78.849h-.025c-.792 7.557-.611 8.089-.611 50.803 0 62.989 52.721 109.991 104.923 109.991 56.229-5.145 100.272-52.421 100.272-109.991.001-5.746.001-124.091.001-129.652z" fill="#ffcebf"/><path d="m251.75 386.666-41.989-61.337-33.232 25.473 39.736 48.814v34.164 49.737h39.735 39.736v-83.901l39.736-48.814-33.232-25.473-41.989 61.337c-2.046 2.989-6.456 2.989-8.501 0z" fill="#d8ecfe"/><path d="m263.726 483.517v-101.928l-3.476 5.077c-2.046 2.988-6.455 2.988-8.501 0l-3.476-5.078v101.929h7.727z" fill="#c4e2ff"/><g><path d="m255.521 296.127c-17.241 0-31.269-14.027-31.269-31.269 0-4.267 3.459-7.726 7.726-7.726s7.726 3.459 7.726 7.726c0 8.721 7.095 15.816 15.816 15.816s15.816-7.095 15.816-15.816c0-4.267 3.459-7.726 7.726-7.726s7.726 3.459 7.726 7.726c.003 17.242-14.025 31.269-31.267 31.269z" fill="#ffa799"/></g><g><g><path d="m309.631 247.541c-4.267 0-7.726-3.459-7.726-7.726v-20.414c0-4.267 3.459-7.726 7.726-7.726h8.361c4.267 0 7.726 3.459 7.726 7.726s-3.459 7.726-7.726 7.726h-.634v12.687c-.001 4.268-3.46 7.727-7.727 7.727z" fill="#3d5168"/></g></g><g><g><path d="m201.412 247.541c-4.267 0-7.726-3.459-7.726-7.726v-12.687h-.634c-4.267 0-7.726-3.459-7.726-7.726s3.459-7.726 7.726-7.726h8.361c4.267 0 7.726 3.459 7.726 7.726v20.414c0 4.266-3.46 7.725-7.727 7.725z" fill="#3d5168"/></g></g><path d="m486.401 483.459v-74.163c0-5.589-4.455-10.153-10.042-10.299-41.199-1.072-196.228-1.095-220.359 58.005v26.456h230.401z" fill="#fff3be"/><path d="m485.545 509.915h-229.545v-52.913h229.545c14.611 0 26.455 11.844 26.455 26.455v.002c0 14.612-11.844 26.456-26.455 26.456z" fill="#fd8087"/><path d="m345.773 105.303v105.292c0 57.573-44.048 104.851-100.282 109.992 66.264 5.927 120.885-45.972 120.885-109.992 0-11.536 0-94.739 0-105.292-9.75 0-10.863 0-20.603 0z" fill="#ffb09e"/><path d="m248.269 2.577c-59.404 0-124.494 54.16-124.494 131.127v26.088h64.933c37.165 0 67.293-30.128 67.293-67.293 0 37.165 30.128 67.293 67.293 67.293h45.773v-26.088c-.001-67.654-51.582-125.359-120.798-131.127z" fill="#57697d"/><g><g><path d="m244.148 2.577c69.217 5.768 120.797 63.473 120.797 131.127v26.088h22.664v-26.088c0-76.138-64.802-137.776-143.461-131.127z" fill="#3d5168"/></g></g><g><g><path d="m302.239 325.329-7.8 11.394 18.368 14.079-39.735 48.815v83.9h22.664v-83.9l39.735-48.815z" fill="#c4e2ff"/></g></g><path d="m137.259 356.168c-30.317-113.146-27.753-106.28-30.887-108.858l-8.579 2.299c-4.745 1.271-7.561 6.149-6.289 10.894l26.982 100.696z" fill="#5de1c4"/><path d="m134.108 360.877 17.573-4.708-27.948-104.302c-1.271-4.745-6.149-7.561-10.894-6.289l-9.679 2.594c2.118 2.313-.151-4.441 29.977 107.998z" fill="#0ed2b3"/><path d="m156.256 383.208v-45.942c0-11.379-9.225-20.604-20.604-20.604h-29.459c-11.379 0-20.604 9.225-20.604 20.604v45.942c0 11.379 9.225 20.604 20.604 20.604h29.459c11.379 0 20.604-9.225 20.604-20.604z" fill="#ffcebf"/><path d="m152.135 316.663h-20.604c11.379 0 20.604 9.225 20.604 20.604v45.942c0 11.379-9.225 20.604-20.604 20.604h20.604c11.379 0 20.604-9.225 20.604-20.604v-45.942c0-11.379-9.225-20.604-20.604-20.604z" fill="#ffb09e"/><path d="m455.756 398.997c-9.381-.244-12.506-.222 2.689-.238-56.558-.088-181.031 5.8-202.444 58.243v.547l209.798 25.91v-74.163c-.001-5.589-4.456-10.153-10.043-10.299z" fill="#ffe177"/><path d="m476.359 398.997c-6.453-.168-47.355-.642-22.664 0 5.587.145 10.042 4.71 10.042 10.299v74.163h22.664v-74.163c0-5.589-4.455-10.153-10.042-10.299z" fill="#ffd15b"/><path d="m464.941 509.915c14.605 0 26.455-11.838 26.455-26.457 0-14.611-11.844-26.455-26.455-26.455h-208.941v52.912h229.547z" fill="#fe646f"/><path d="m485.545 457.002h-22.664c14.605 0 26.455 11.838 26.455 26.457 0 14.611-11.844 26.455-26.455 26.455h22.664c14.611 0 26.455-11.844 26.455-26.455v-.003c0-14.609-11.844-26.454-26.455-26.454z" fill="#fd4755"/><path d="m25.599 483.517v-74.163c0-5.589 4.455-10.153 10.042-10.299 41.199-1.072 196.228-1.095 220.359 58.005z" fill="#fff0ad"/><path d="m256 509.915h-229.545c-14.611 0-26.455-11.844-26.455-26.455v-.002c0-14.611 11.844-26.455 26.455-26.455h229.545z" fill="#fd8087"/><g fill="#fe8f83"><path d="m316.513 266.056h9.406c4.358 0 8.159-3.358 8.29-7.715.135-4.508-3.479-8.204-7.956-8.204h-9.74c-4.396 0-7.96 3.564-7.96 7.96 0 4.395 3.564 7.959 7.96 7.959z"/><path d="m194.228 266.056h-9.406c-4.358 0-8.159-3.358-8.29-7.715-.135-4.508 3.479-8.204 7.956-8.204h9.74c4.396 0 7.96 3.564 7.96 7.96 0 4.395-3.564 7.959-7.96 7.959z"/></g></g></svg>