<svg width="543" height="351" viewBox="0 0 543 351" fill="none" xmlns="http://www.w3.org/2000/svg">
<path d="M326.465 173.274H101.122C98.5712 173.274 96.5034 171.203 96.5034 168.648V36.9529C96.5034 34.3977 98.571 32.326 101.122 32.326H326.465C329.015 32.326 331.083 34.3975 331.083 36.9529V168.648C331.083 171.203 329.015 173.274 326.465 173.274Z" fill="#F47458"/>
<path d="M327.135 170.365H100.452V41.4174C100.452 38.8621 102.519 36.7905 105.07 36.7905H322.517C325.067 36.7905 327.135 38.8619 327.135 41.4174V170.365Z" fill="#13375B"/>
<path d="M337.497 168.236H91.5649V173.274H337.497V168.236Z" fill="#B75742"/>
<path d="M54.0445 5.02686H19.9014V51.5613H54.0445V5.02686Z" fill="#6EA7CE"/>
<path d="M48.9925 10.8801H24.9526V45.7079H48.9925V10.8801Z" fill="#DDF0FC"/>
<path d="M63.9062 68.6597H9.82275V115.194H63.9062V68.6597Z" fill="#C5DDF9"/>
<path d="M58.6063 74.5131H15.1226V109.341H58.6063V74.5131Z" fill="#DDF0FC"/>
<path d="M399.017 143.532C400.992 143.532 402.593 141.928 402.593 139.95C402.593 137.971 400.992 136.367 399.017 136.367C397.042 136.367 395.441 137.971 395.441 139.95C395.441 141.928 397.042 143.532 399.017 143.532Z" fill="#F7CC7F"/>
<path d="M389.503 180.419H389.571C389.916 180.419 390.196 180.139 390.196 179.793V176.808C390.196 176.462 389.916 176.182 389.571 176.182H389.503C389.158 176.182 388.878 176.462 388.878 176.808V179.793C388.878 180.139 389.158 180.419 389.503 180.419Z" fill="#B75742"/>
<path d="M382.617 131.614C383.719 130.168 384.954 129.369 386.289 129.24C388.349 129.04 389.99 130.476 390.006 130.491L390.827 129.565C390.744 129.491 388.761 127.756 386.17 128.007C384.479 128.171 382.953 129.132 381.634 130.862L382.617 131.614Z" fill="#50BFA5"/>
<path d="M393.064 129.489L396.52 132.952C397.38 133.814 397.38 135.211 396.52 136.073L396.35 136.243C395.49 137.105 394.094 137.105 393.234 136.243L389.778 132.781C388.918 131.919 388.918 130.521 389.778 129.659L389.948 129.489C390.808 128.627 392.203 128.627 393.064 129.489Z" fill="#B75742"/>
<path d="M404.569 133.469L392.547 145.513C389.228 142.187 389.228 136.795 392.547 133.469C395.867 130.143 401.249 130.143 404.569 133.469Z" fill="#F47458"/>
<path d="M368.27 154.559L380.325 129.956L384.088 131.807L372.032 156.41L368.27 154.559ZM380.914 131.686L369.996 153.969L371.442 154.68L382.361 132.398L380.914 131.686Z" fill="#B75742"/>
<path d="M367.437 156.123L371.403 154.766L380.243 180.704L376.276 182.061L367.437 156.123ZM370.599 156.407L369.074 156.929L377.081 180.419L378.605 179.898L370.599 156.407Z" fill="#B75742"/>
<path d="M392.209 146.722L392.257 146.77C392.497 147.01 392.886 147.01 393.126 146.77L405.824 134.048C406.064 133.807 406.064 133.418 405.824 133.177L405.777 133.13C405.537 132.889 405.147 132.889 404.907 133.13L392.209 145.852C391.969 146.092 391.969 146.482 392.209 146.722Z" fill="#96D9C9"/>
<path d="M369.938 158.981C371.626 158.981 372.994 157.61 372.994 155.919C372.994 154.228 371.626 152.857 369.938 152.857C368.25 152.857 366.882 154.228 366.882 155.919C366.882 157.61 368.25 158.981 369.938 158.981Z" fill="#F47458"/>
<path d="M394.77 178.203H374.287C372.094 178.203 370.316 179.984 370.316 182.181V182.398H398.74V182.181C398.74 179.984 396.963 178.203 394.77 178.203Z" fill="#50BFA5"/>
<path d="M469.785 152.974H468.47C468.47 152.974 466.496 153.634 464.429 153.964C462.361 154.294 456.629 155.393 450.427 155.613C448.315 155.688 446.142 155.712 444.188 155.71C444.188 155.709 444.188 155.707 444.188 155.705C443.941 155.707 443.685 155.708 443.428 155.709C443.17 155.708 442.915 155.707 442.668 155.705C442.668 155.707 442.668 155.709 442.667 155.71C440.714 155.712 438.541 155.688 436.429 155.613C430.227 155.393 424.494 154.294 422.427 153.964C420.359 153.634 418.386 152.974 418.386 152.974H417.071C415.391 152.974 414.091 154.698 414.299 156.648L420.386 213.576C420.553 215.131 421.639 216.329 422.975 216.432L441.252 217.838C442.101 217.903 442.879 217.516 443.428 216.862C443.977 217.516 444.755 217.903 445.604 217.838L463.881 216.432C465.218 216.329 466.303 215.131 466.47 213.576L472.557 156.648C472.765 154.698 471.465 152.974 469.785 152.974Z" fill="#13375B"/>
<path d="M466.166 283.004H468.66L464.692 196.407H462.198L466.166 283.004Z" fill="#13375B"/>
<path d="M420.585 283.004H417.798L422.232 196.407H425.019L420.585 283.004Z" fill="#13375B"/>
<path d="M469.785 154.461H468.47C468.47 154.461 466.496 155.121 464.429 155.451C462.361 155.781 456.629 156.88 450.427 157.1C448.315 157.175 446.142 157.198 444.188 157.197C444.188 157.196 444.188 157.194 444.188 157.192C443.941 157.194 443.685 157.195 443.428 157.196C443.17 157.195 442.915 157.194 442.668 157.192C442.668 157.194 442.668 157.196 442.667 157.197C440.714 157.198 438.541 157.175 436.429 157.1C430.227 156.88 424.494 155.781 422.427 155.451C420.359 155.121 418.386 154.461 418.386 154.461H417.071C415.391 154.461 414.091 156.184 414.299 158.135L420.386 215.063C420.553 216.618 421.639 217.816 422.975 217.919L441.252 219.325C442.101 219.39 442.879 219.003 443.428 218.349C443.977 219.003 444.755 219.39 445.604 219.325L463.881 217.919C465.218 217.816 466.303 216.618 466.47 215.063L472.557 158.135C472.765 156.185 471.465 154.461 469.785 154.461Z" fill="#355389"/>
<path d="M354.522 186.897H351.261V283.004H354.522V186.897Z" fill="#001333"/>
<path d="M537.845 186.897H534.584V283.004H537.845V186.897Z" fill="#001333"/>
<path d="M542.183 182.152H345.115V186.897H542.183V182.152Z" fill="#F8C48B"/>
<path d="M534.585 194.151H354.531V239.754H534.585V194.151Z" fill="#F8C48B"/>
<path d="M535.777 246.351H351.261V249.65H535.777V246.351Z" fill="#001333"/>
<path d="M501.475 175.699H500.39C500.567 175.564 500.789 175.483 501.031 175.483H528.229C529.653 175.483 530.806 176.617 530.806 178.014V179.622C530.806 181.019 529.652 182.152 528.229 182.152L501.335 182.143L501.475 175.699Z" fill="#13375B"/>
<path d="M516.916 175.489C518.277 175.489 519.38 176.573 519.38 177.909V179.726C519.38 181.063 518.277 182.146 516.916 182.146H499.984V181.74H500.054L504.359 181.339L505.229 177.987C505.229 177.987 503.55 176.135 503.44 176.087C503.33 176.039 500.054 175.894 500.054 175.894L499.984 175.894V175.489H516.916Z" fill="#0E293F"/>
<path d="M501.083 178.806C501.083 176.846 500.052 175.896 500.052 175.896H516.57C517.82 175.896 518.833 176.891 518.833 178.119V179.517C518.833 180.745 517.82 181.74 516.57 181.74H500.052C500.052 181.74 501.083 181.274 501.083 178.806Z" fill="#F4F4F4"/>
<path d="M518.833 178.119V179.517C518.833 179.701 518.81 179.879 518.767 180.05C518.21 178.711 517.142 177.422 515.11 177.007C510.364 176.039 500.052 175.896 500.052 175.896H516.57C517.82 175.896 518.833 176.891 518.833 178.119Z" fill="#DAEEF7"/>
<path d="M531.949 170.369H533.035C532.857 170.262 532.635 170.198 532.393 170.198H505.184C503.76 170.198 502.606 171.097 502.606 172.206V173.481C502.606 174.59 503.76 175.489 505.184 175.489L532.089 175.482L531.949 170.369Z" fill="#50BFA5"/>
<path d="M516.501 170.202C515.14 170.202 514.036 171.062 514.036 172.123V173.564C514.036 174.625 515.14 175.485 516.501 175.485H533.44V175.162H533.37L529.063 174.844L528.193 172.184C528.193 172.184 529.873 170.715 529.982 170.676C530.092 170.639 533.37 170.524 533.37 170.524L533.44 170.523V170.202H516.501V170.202Z" fill="#3C8F7C"/>
<path d="M532.341 172.834C532.341 171.279 533.373 170.525 533.373 170.525H516.848C515.598 170.525 514.584 171.315 514.584 172.289V173.398C514.584 174.372 515.598 175.162 516.848 175.162H533.373C533.373 175.162 532.341 174.792 532.341 172.834Z" fill="#F4F4F4"/>
<path d="M514.584 172.289V173.398C514.584 173.544 514.607 173.686 514.65 173.821C515.207 172.759 516.275 171.736 518.309 171.407C523.056 170.639 533.373 170.525 533.373 170.525H516.848C515.598 170.525 514.584 171.315 514.584 172.289Z" fill="#DAEEF7"/>
<path d="M529.921 172.808L528.875 174.468L527.704 172.808H529.921Z" fill="#F47458"/>
<path d="M514.599 172.808H532.342C532.342 172.808 532.342 172.693 532.342 172.675C532.342 172.657 514.584 172.675 514.584 172.675L514.599 172.808Z" fill="#DAEEF7"/>
<path d="M503.512 178.959L504.558 180.619L505.729 178.959H503.512Z" fill="#50BFA5"/>
<path d="M518.834 178.959H501.091C501.091 178.959 501.091 178.844 501.091 178.826C501.091 178.808 518.849 178.826 518.849 178.826L518.834 178.959Z" fill="#DAEEF7"/>
<path d="M504.341 165.104H503.483C503.624 164.998 503.799 164.934 503.99 164.934H525.478C526.602 164.934 527.513 165.829 527.513 166.933V168.203C527.513 169.307 526.602 170.203 525.478 170.203L504.231 170.196L504.341 165.104Z" fill="#F47458"/>
<path d="M516.54 164.94C517.616 164.94 518.487 165.796 518.487 166.852V168.287C518.487 169.343 517.616 170.199 516.54 170.199H503.164V169.878H503.219L506.62 169.561L507.307 166.913C507.307 166.913 505.98 165.45 505.894 165.412C505.808 165.374 503.22 165.26 503.22 165.26L503.164 165.259V164.94H516.54Z" fill="#B75742"/>
<path d="M504.032 167.559C504.032 166.01 503.217 165.26 503.217 165.26H516.266C517.254 165.26 518.054 166.046 518.054 167.016V168.12C518.054 169.09 517.254 169.876 516.266 169.876H503.217C503.217 169.877 504.032 169.509 504.032 167.559Z" fill="#F4F4F4"/>
<path d="M518.054 167.016V168.121C518.054 168.266 518.036 168.407 518.002 168.542C517.562 167.484 516.719 166.466 515.113 166.138C511.364 165.373 503.217 165.26 503.217 165.26H516.266C517.254 165.26 518.054 166.046 518.054 167.016Z" fill="#DAEEF7"/>
<path d="M513.249 167.45L514.172 169.092L515.001 167.45H513.249Z" fill="#13375B"/>
<path d="M518.054 167.45H504.024C504.024 167.45 504.024 167.335 504.024 167.317C504.024 167.298 518.054 167.317 518.054 167.317V167.45Z" fill="#DAEEF7"/>
<path d="M495.89 171.335H464.963V182.188H495.89V171.335Z" fill="#F4F4F4"/>
<path d="M495.89 173.322H464.963V173.505H495.89V173.322Z" fill="#D3E5F4"/>
<path d="M495.89 175.112H464.963V175.295H495.89V175.112Z" fill="#D3E5F4"/>
<path d="M495.89 176.903H464.963V177.086H495.89V176.903Z" fill="#D3E5F4"/>
<path d="M495.89 178.693H464.963V178.876H495.89V178.693Z" fill="#D3E5F4"/>
<path d="M480.646 175.295C480.646 175.295 466.094 176.547 464.271 178.118C464.271 178.118 464.362 176.254 464.964 175.112L469.522 175.286L480.646 175.295Z" fill="#D3E5F4"/>
<path d="M488.43 175.293L486.842 177.813L485.065 175.293H488.43Z" fill="#F47458"/>
<path d="M481.026 177.086L479.438 179.606L477.661 177.086H481.026Z" fill="#466EB6"/>
<path d="M495.89 180.475H464.963V180.658H495.89V180.475Z" fill="#D3E5F4"/>
<path d="M472.806 178.882L471.218 181.402L469.441 178.882H472.806Z" fill="#50BFA5"/>
<path d="M488.529 171.335V176.719V176.804V182.187H495.89V176.804V176.719V171.335H488.529Z" fill="#D3E5F4"/>
<path d="M261.483 104.015C261.483 104.015 257.314 105.837 255.022 120.386C255.022 120.386 258.483 122.708 258.553 121.233C258.623 119.757 261.483 104.015 261.483 104.015Z" fill="#B75742"/>
<path d="M276.761 78.6874C280.247 78.6874 283.073 75.8562 283.073 72.3638C283.073 68.8713 280.247 66.0402 276.761 66.0402C273.275 66.0402 270.449 68.8713 270.449 72.3638C270.449 75.8562 273.275 78.6874 276.761 78.6874Z" fill="#F8C48B"/>
<path opacity="0.3" d="M279.717 77.9487C278.153 78.779 276.252 78.9506 274.473 78.2572C271.224 76.9911 269.615 73.3262 270.878 70.0713C271.002 69.752 271.15 69.449 271.317 69.1624C271.515 69.2181 271.713 69.2776 271.911 69.3442C276.141 70.7631 278.882 74.1476 279.717 77.9487Z" fill="#B75742"/>
<path d="M255.099 82.5789C256.277 88.2563 261.621 92.101 267.174 91.8348C272.727 91.5685 277.505 87.2384 277.891 81.486C278.338 74.8181 272.869 68.8627 265.606 69.2108C258.343 69.5594 253.733 75.9981 255.099 82.5789Z" fill="#F8C48B"/>
<path d="M234.155 126.153C234.155 126.153 248.649 130.706 252.77 131.315C253.125 129.887 256.291 122.027 256.596 120.679C259.068 122.081 262.218 120.394 264.748 121.643C263.475 126.143 260.615 140.965 259.472 141.632C255.992 143.665 233.85 131.447 233.609 131.334C234.529 128.933 234.155 126.153 234.155 126.153Z" fill="#F38B80"/>
<path d="M254.742 125.443C254.742 125.443 252.637 130.271 252.883 130.235C253.13 130.199 255.023 130.236 255.023 130.236V126.222L254.742 125.443Z" fill="#B75742"/>
<path d="M251.059 282.028C252.367 281.062 253.422 280.424 257.6 278.395C257.872 278.262 258.864 277.629 259.222 277.409C260.129 276.853 261.04 275.978 261.824 275.101C262.572 274.264 262.929 271.581 263.098 269.442C262.668 264.666 255.76 188.064 254.303 179.772C252.799 171.212 255.089 158.155 255.089 158.155L260.422 156.14L270.546 191.295L269.748 218.054C269.748 218.054 272.128 225.768 272.429 230.377C272.73 234.986 268.988 272.4 268.988 272.4L268.988 272.4C268.987 273.738 269.04 274.948 269.188 275.704C269.463 277.103 270.993 279.984 270.291 281.301C269.589 282.618 268.787 282.947 268.787 282.947L250.596 283.242C249.605 283.258 250.26 282.617 251.059 282.028Z" fill="#F48C7F"/>
<path d="M278.668 155.409C278.668 155.409 284.985 164.957 286.489 172.858C287.993 180.759 285.385 205.042 288.278 215.396C289.844 221.002 295.78 229.657 296.683 236.901C297.585 244.144 300.725 265.049 300.725 265.049H300.725C301.2 267.244 301.944 269.958 302.91 271.22C303.502 271.993 304.581 272.969 305.29 274.366C306.394 276.538 305.784 279.774 304.97 281.555C304.552 282.47 304.999 282.468 304.048 282.762C301.23 283.635 298.233 282.165 297.033 279.456C296.363 277.942 295.775 275.923 295.657 273.379C295.532 270.682 295.111 268.539 294.662 266.954L274.47 217.33L259.852 174.503L256.108 152.446L278.668 155.409Z" fill="#F79C8D"/>
<path d="M296.487 278.03C300.857 278.83 303.765 276.263 305.278 274.341C306.389 276.518 306.931 279.767 306.114 281.555C305.394 283.13 303.292 283.085 301.636 283.147C299.885 283.212 298.53 282.236 297.662 280.705C297.256 279.99 296.838 279.1 296.487 278.03Z" fill="#13375B"/>
<path d="M259.224 277.408C264.035 278.648 267.591 277.805 269.581 276.999C270.094 278.459 270.774 280.291 270.413 281.347C269.972 282.641 269.343 282.933 268.788 282.947C264.393 283.063 252.691 283.221 249.34 283.265C248.872 283.271 248.614 282.722 248.915 282.361C249.746 281.365 258.866 277.628 259.224 277.408Z" fill="#13375B"/>
<path d="M274.572 217.428C274.194 217.453 273.814 217.478 273.432 217.501C273.412 217.502 273.393 217.504 273.373 217.505C272.998 217.527 272.622 217.548 272.244 217.568C272.221 217.569 272.198 217.57 272.175 217.572C271.797 217.591 271.418 217.609 271.038 217.626C271.018 217.626 270.999 217.627 270.979 217.628C270.593 217.645 270.205 217.659 269.818 217.672C265.506 217.814 260.18 217.759 256.762 217.177C255.02 199.703 254.371 183.756 253.726 180.226C252.162 171.666 255.089 158.155 255.089 158.155L256.487 157.904L255.603 152.901L279.064 155.864C279.064 155.864 285.633 165.412 287.197 173.313C288.761 181.214 286.049 205.497 289.058 215.852C289.058 215.851 282.36 216.896 274.572 217.428Z" fill="#50BFA5"/>
<path d="M273.323 101.349C273.323 101.349 278.947 101.988 282.311 105.654C285.675 109.32 276.874 138.789 276.262 143.454C275.65 148.12 282.111 161.034 282.111 161.034C282.111 161.034 260.15 165.407 254.442 161.63C254.442 161.63 253.94 125.567 254.552 122.234C255.163 118.902 260.26 105.348 261.484 104.015C262.707 102.682 273.323 101.349 273.323 101.349Z" fill="#F47458"/>
<path d="M270.493 89.9886C270.493 89.9886 270.537 90.2389 270.616 90.665C270.995 92.7089 272.455 99.4895 273.441 101.354C274.633 103.606 269.361 110.791 264.286 109.914C262.776 109.653 265.563 103.313 265.429 102.641C265.173 101.356 264.825 99.6016 264.469 97.8032C264.269 96.7886 264.065 95.76 263.874 94.7933C263.332 92.046 262.889 89.7991 262.889 89.7991L270.493 89.9886Z" fill="#F7A491"/>
<path d="M270.616 90.665C270.537 90.2391 270.493 89.9886 270.493 89.9886L262.889 89.7991C262.889 89.7991 263.331 92.046 263.874 94.7933C264.064 95.7547 264.266 96.7772 264.466 97.7863C265.639 97.6135 266.866 97.0429 268.096 95.9664C269.437 94.7927 270.316 93.3825 270.846 91.8768C270.752 91.3963 270.674 90.9819 270.616 90.665Z" fill="#F47458"/>
<path d="M265.919 71.8826C265.919 71.8826 269.02 72.3134 271.266 75.2187C273.513 78.1239 275.934 87.1084 270.353 91.9929C264.773 96.8776 259.259 91.3484 258.441 85.4861C257.623 79.6237 257.789 71.6709 265.919 71.8826Z" fill="#F7A491"/>
<path d="M256.814 84.0388C257.166 85.4521 258.09 86.407 258.878 86.1713C259.666 85.9357 260.02 84.5991 259.668 83.1857C259.316 81.7724 258.392 80.8175 257.603 81.0532C256.816 81.2888 256.462 82.6254 256.814 84.0388Z" fill="#F7A491"/>
<path d="M262.475 71.9084C262.475 71.9084 269.762 80.2905 273.188 80.6852C276.613 81.0801 277.063 85.6197 277.063 85.6197C277.063 85.6197 275.838 75.1588 272.447 73.1416C269.056 71.1243 262.475 71.9084 262.475 71.9084Z" fill="#F8C48B"/>
<path d="M272.068 82.7209C271.789 84.2381 272.349 85.6295 273.319 85.8287C274.289 86.0278 275.301 84.9594 275.579 83.4421C275.858 81.9248 275.297 80.5334 274.328 80.3343C273.358 80.1352 272.346 81.2036 272.068 82.7209Z" fill="#F7A491"/>
<path d="M269.286 126.66L247.147 130.706L252.402 159.568L274.54 155.523L269.286 126.66Z" fill="#BED9EA"/>
<path d="M270.733 127.624L248.466 130.881L252.697 159.913L274.964 156.655L270.733 127.624Z" fill="#D3E5F4"/>
<path d="M272.635 128.712L250.309 131.537L253.979 160.645L276.305 157.82L272.635 128.712Z" fill="#F4F4F4"/>
<path d="M261.876 88.5434L267.166 88.2115C267.166 88.2115 267.17 90.2319 264.848 90.4451C262.017 90.7051 261.876 88.5434 261.876 88.5434Z" fill="white"/>
<path d="M288.117 132.441L278.099 133.413C278.099 133.413 280.299 141.441 280.153 142.275C280.153 142.275 265.562 146.327 259.463 147.427C259.463 147.427 256.687 145.85 255.564 145.349C254.44 144.847 251.421 144.3 250.753 144.213C250.086 144.126 250.313 144.859 250.887 145.115C251.461 145.371 252.944 146.071 253.365 146.928C253.365 146.928 252.16 147.06 251.523 146.776C250.886 146.491 250.008 145.889 249.994 145.577C249.98 145.265 249.835 144.512 249.626 144.552C249.573 144.563 249.502 144.81 249.43 145.069C249.362 145.314 249.29 145.566 249.23 145.814C249.123 146.259 249 146.909 248.952 147.201C248.843 147.867 249.25 149.705 249.307 150.357C249.411 151.549 249.751 152.079 250.379 152.382C251.391 152.736 252.462 152.961 254.046 153.125C256.949 153.426 259.616 152.589 260.78 152.458C261.944 152.327 280.523 150.481 280.523 150.481C280.523 150.481 287.909 149.416 288.399 148.142C288.889 146.869 288.117 132.441 288.117 132.441Z" fill="#F7A491"/>
<path d="M281.28 104.589C281.28 104.589 283.973 105.868 286.34 111.394C288.59 116.645 288.709 142.76 288.709 142.76L279.91 141.291L275.79 129.142C272.558 121.829 273.392 113.314 278.102 106.856C279.358 105.134 280.516 104.093 281.28 104.589Z" fill="#F47458"/>
<path d="M235.477 126.732V131.949C234.388 131.666 228.62 129.565 227.105 129.23L229.187 123.322C229.408 122.95 229.416 122.489 229.209 122.109C229.063 121.841 228.911 121.594 228.824 121.5C228.56 121.216 228.281 120.862 228.017 120.577C227.753 120.293 228.269 119.275 228.639 118.975C229.01 118.675 229.838 120.235 230.226 120.639C231.394 121.856 233.748 125.549 234.155 126.153L235.477 126.732Z" fill="#F48C7F"/>
<path d="M230.034 135.686L231.833 135.406L222.991 81.9945L222.563 82.0611L222.15 82.1257L230.034 135.686Z" fill="#D3E5F4"/>
<path d="M225.5 127.661C225.422 127.312 225.384 126.937 225.377 126.551C225.38 126.135 225.444 125.606 225.558 125.41C225.631 125.286 225.6 124.997 225.591 124.693C225.588 124.595 225.596 124.497 225.617 124.402C225.618 124.4 225.618 124.398 225.619 124.396C225.681 124.119 225.799 123.861 225.947 123.62C226.087 123.39 226.182 123.127 226.27 122.711C226.338 122.388 226.475 122.078 226.691 121.829C226.903 121.583 227.108 121.491 227.275 121.616C228.046 122.192 231.312 123.689 230.913 125.256C230.579 126.567 230.032 128.018 230.028 128.573C230.022 129.334 229.024 129.706 228.344 129.732C227.063 129.781 225.901 129.454 225.5 127.661Z" fill="#F7A491"/>
<path d="M264.286 109.914C262.787 109.655 265.519 103.413 265.43 102.661L273.265 101.258L273.441 101.354C274.633 103.606 269.36 110.791 264.286 109.914Z" fill="#D3E5F4"/>
<path d="M273.441 101.354C273.37 101.082 272.581 98.2886 272.581 98.2886L266.944 101.74L264.739 100.074L265.817 105.294L266.867 103.743L268.25 105.492L273.441 101.354Z" fill="#F4F4F4"/>
<path d="M288.709 143.114L279.618 141.596C279.618 141.596 278.844 139.328 278.97 139.286L288.877 140.209L288.709 143.114Z" fill="#D3E5F4"/>
<path d="M38.7104 255.583H39.6494C39.9589 252.417 40.5669 248.918 41.6496 245.258C45.7431 231.416 43.9521 229.625 50.86 220.973C57.768 212.32 58.2796 194.377 58.2796 194.377C58.2796 194.377 61.6056 173.999 58.2796 165.027C54.9536 156.056 54.6978 147.084 46.6384 137.6C46.6384 137.6 45.1033 150.288 43.1844 156.056C41.2654 161.823 39.4435 167.334 40.8662 181.176C42.2889 195.018 43.1726 196.171 43.4984 199.76C43.8239 203.348 43.3122 218.475 44.0799 220.973C44.8476 223.47 39.6026 240.772 39.2189 248.206C39.1036 250.439 38.8961 252.986 38.7104 255.583Z" fill="#215E4B"/>
<path d="M41.6524 255.584C42.9851 252.503 45.3311 249.442 49.439 247.605C60.1845 242.798 67.4337 242.905 72.4227 231.37C77.4117 219.836 77.4116 204.071 79.1387 200.803C79.1387 200.803 74.5335 200.034 69.9283 208.301C65.323 216.568 62.1991 222.72 59.5396 227.525C56.8802 232.332 53.0425 230.986 49.7804 234.639C47.0465 237.7 44.5221 244.821 43.5631 248.435C43.2517 249.609 42.7987 250.74 42.2009 251.797C41.6573 252.758 41.0175 253.928 40.6338 254.761C40.5483 254.946 40.4637 255.229 40.3804 255.584H41.6524Z" fill="#3C8F7C"/>
<path d="M11.331 200.913C10.5635 210.782 16.8318 210.013 17.0877 216.293C17.3435 222.573 25.5307 233.21 29.3236 240.772C31.2962 244.705 32.0247 250.718 32.2697 255.583H35.3172C34.1385 243.269 29.1513 234.697 26.1702 227.828C22.3325 218.984 21.7569 214.947 25.0188 208.026C28.2809 201.105 23.4838 183.226 28.1276 175.256C32.7715 167.285 30.3917 154.774 29.3236 149.968C28.2554 145.162 29.4323 141.894 30.3917 136.826C31.3511 131.76 29.3236 124.399 29.3236 124.399C29.1509 130.679 24.3792 139.266 20.9253 144.777C17.4713 150.288 10.9473 165.283 11.7148 172.076C12.4825 178.869 12.0985 179.381 12.0985 179.381C9.66802 188.481 12.0985 191.045 11.331 200.913Z" fill="#215E4B"/>
<path d="M29.6159 247.564C30.0079 248.742 31.2642 251.75 32.4141 255.583H34.2829C33.4327 250.704 31.9651 245.042 29.4879 241.797C24.4989 235.261 14.5209 232.441 13.3695 227.699C12.2182 222.957 13.4975 208.73 6.20575 200.784C6.20575 200.784 7.22923 209.631 6.20575 212C5.18228 214.37 -3.51647 225.392 1.60051 234.62C6.71749 243.847 18.2305 242.694 21.8123 244.745C25.3944 246.795 28.9762 245.642 29.6159 247.564Z" fill="#3C8F7C"/>
<path d="M25.0105 205.006C24.8825 214.49 32.3022 218.079 32.1742 223.333C32.0463 228.588 33.7095 234.227 35.1165 238.457C36.0073 241.134 35.5142 248.588 35.3566 255.584H37.4153C37.9337 250.443 38.5019 243.026 38.3143 239.739C38.0585 235.253 40.1053 231.664 40.3613 223.846C40.617 216.028 42.28 208.979 38.826 199.111C35.3721 189.242 36.0118 177.451 21.5563 166.557C21.5563 166.557 18.9978 178.092 20.9168 184.372C22.8358 190.651 25.1385 195.522 25.0105 205.006Z" fill="#3C8F7C"/>
<path d="M25.0108 205.006C24.8828 214.49 32.3025 218.079 32.1745 223.333C32.0465 228.588 33.7097 234.227 35.1168 238.457C36.0076 241.134 35.5144 248.588 35.3569 255.584H36.2112C36.3268 254.122 36.4386 253.205 36.4386 253.205L36.865 235.518C36.865 235.518 36.0121 221.676 34.4771 210.398C32.9418 199.119 21.5568 166.557 21.5568 166.557C21.5568 166.557 18.9983 178.092 20.9173 184.372C22.8361 190.651 25.1388 195.522 25.0108 205.006Z" fill="#327F6B"/>
<path d="M39.655 247.49H38.2743H19.8415C18.4868 247.49 17.4873 248.76 17.8005 250.083L25.0232 280.597C25.2478 281.546 26.0923 282.216 27.0641 282.216H38.2743H39.655H50.865C51.8368 282.216 52.6813 281.546 52.9061 280.597L60.1288 250.083C60.442 248.76 59.4427 247.49 58.0878 247.49H39.655Z" fill="#F7CC7F"/>
<path d="M250.527 166.925H236.73V168.236H250.527V166.925Z" fill="#D3E5F4"/>
<path d="M217.185 166.925H209.853V168.236H217.185V166.925Z" fill="#D3E5F4"/>
<path d="M197.748 164.453H175.441V166.672H197.748V164.453Z" fill="#E5AD76"/>
<path d="M198.478 166.118H174.534V168.236H198.478V166.118Z" fill="#F8C48B"/>
<path d="M198.478 162.889H174.534V165.008H198.478V162.889Z" fill="#F8C48B"/>
<path d="M198.478 161.709H174.535V162.889H198.478V161.709Z" fill="#50BFA5"/>
<path d="M284.927 11.3165H136.28L132.957 1.93274H288.25L284.927 11.3165Z" fill="#BED9EA"/>
<path d="M288.25 0.570801H132.957V6.70041H288.25V0.570801Z" fill="#13375B"/>
<path d="M288.25 3.34351H132.957V6.7003H288.25V3.34351Z" fill="#13375B"/>
<path d="M95.2476 195.794C95.1519 212.161 108.318 225.507 124.654 225.603L125 166.332C108.664 166.237 95.343 179.427 95.2476 195.794ZM121.038 171.639L120.936 189.074C118.87 189.71 117.199 191.255 116.391 193.247L99.324 193.146C100.584 180.987 109.851 171.574 121.038 171.639ZM99.2929 198.49L116.36 198.59C117.144 200.59 118.797 202.155 120.856 202.816L120.754 220.25C109.567 220.184 100.41 210.663 99.2929 198.49Z" fill="#F7CC7F"/>
<path d="M115.392 196.698L99.5358 196.579C99.1589 196.576 98.8557 196.268 98.8584 195.89L98.8643 195.088C98.8672 194.711 99.1749 194.407 99.5518 194.41L115.408 194.528C115.785 194.531 116.088 194.84 116.085 195.217L116.079 196.019C116.077 196.397 115.769 196.7 115.392 196.698Z" fill="#F47458"/>
<path d="M151.615 160.264L132.956 195.916L190.658 226.229L151.615 160.264ZM181.487 217.357L156.954 204.469L164.649 189.767L181.487 217.357ZM138.204 194.619L151.78 168.68L163.325 187.598L155.025 203.456L138.204 194.619Z" fill="#F7CC7F"/>
<path d="M150.377 63.1788C150.563 62.7182 152.079 58.7422 153.25 55.6876L154.633 52.0997C154.766 51.7846 154.553 51.4209 154.101 51.4209C153.888 51.4209 153.675 51.5423 153.595 51.7361C153.516 51.9059 152.93 53.4574 152.212 55.3483C151.521 57.094 150.749 59.1302 150.164 60.6577H143.275L143.594 59.7123C144.206 57.991 144.95 55.8333 145.908 54.209C146.307 53.4576 147.105 52.8273 147.956 52.3907C148.169 52.2937 148.276 52.1241 148.276 51.9301C148.276 51.7361 148.116 51.4209 147.717 51.4209C147.637 51.4209 147.531 51.4453 147.451 51.4938C146.866 51.7846 146.36 52.1241 145.749 52.6574C144.445 52.4392 143.275 52.0997 142.184 51.7846C140.375 51.2754 138.726 50.8149 136.757 50.8149C134.417 50.8149 132.155 52.7544 132.155 55.106C132.155 57.2151 133.752 58.6454 136.332 58.6454C137.289 58.6454 138.327 58.4273 139.258 58.0395C139.471 57.9425 139.577 57.7728 139.577 57.5788C139.577 57.3848 139.417 57.0696 139.045 57.0696C138.939 57.0696 138.859 57.094 138.779 57.1181C137.981 57.4333 137.13 57.6273 136.358 57.6273C134.549 57.6273 133.273 56.8273 133.273 55.0334C133.273 53.4091 135.002 51.8333 136.757 51.8333C138.54 51.8333 140.135 52.2939 141.838 52.7787C142.822 53.0454 143.86 53.3364 145.003 53.5787L144.924 53.7242C143.886 55.4455 143.141 57.6517 142.53 59.3971L142.077 60.6577H140.588C140.269 60.6577 140.029 60.9001 140.029 61.1911C140.029 61.4577 140.269 61.7 140.588 61.7H141.705C141.625 61.894 141.545 62.1365 141.466 62.3547C140.242 65.7973 139.045 69.1186 135.214 69.1186C132.927 69.1186 131.703 67.7124 131.703 65.7973C131.703 63.4457 133.964 61.6759 136.332 61.6759C136.651 61.6759 136.89 61.4336 136.89 61.1426C136.89 60.8759 136.651 60.6334 136.332 60.6334C133.379 60.6819 130.586 62.8395 130.586 65.773C130.586 68.2457 132.209 70.1367 135.188 70.1367C139.87 70.1367 141.2 66.4759 142.556 62.6699C142.663 62.3547 142.769 62.0395 142.902 61.7H149.765L149.313 62.8395C147.664 66.7913 146.706 69.2641 146.706 70.7185C146.706 72.4883 147.557 73.846 149.605 73.8945C149.925 73.8945 150.164 73.652 150.19 73.3853C150.19 73.0945 149.925 72.852 149.632 72.852C148.275 72.852 147.77 71.9307 147.823 70.7185C147.877 69.4579 148.648 67.4699 150.377 63.1788Z" fill="#F4F4F4"/>
<path d="M182.91 62.9848C182.697 62.9848 182.484 63.106 182.404 63.3C181.473 65.3121 180.542 66.2334 179.425 66.2334C178.813 66.2334 178.361 66.0638 178.068 65.7243C179.292 63.8333 180.143 61.4575 180.143 59.9302C180.143 58.4756 179.239 57.3846 177.483 57.3361C176.153 57.3361 174.85 58.1846 173.732 59.8817C173.202 60.6737 172.487 61.8487 172.004 63.2747C172.004 63.2751 172.004 63.2753 172.004 63.2756C170.753 65.7728 169.476 67.7849 167.561 67.7849C167.029 67.7849 166.71 67.4212 166.71 66.7666C166.71 66.3501 166.977 65.3361 167.51 63.8113C167.527 63.7781 167.544 63.7455 167.561 63.712C167.584 63.6505 167.605 63.5888 167.612 63.5272C168.375 61.4903 169.138 59.5705 169.875 57.6511L171.259 53.966C171.365 53.6993 171.206 53.4085 170.913 53.3115C170.62 53.2386 170.301 53.36 170.195 53.6266L168.811 57.3118C168.04 59.3239 167.242 61.3603 166.524 63.2756C166.524 63.2758 166.523 63.2762 166.523 63.2764C165.273 65.7732 163.997 67.7849 162.081 67.7849C161.549 67.7849 161.23 67.4212 161.23 66.7666C161.23 66.3507 161.497 65.3386 162.029 63.817C162.046 63.7819 162.064 63.7477 162.082 63.712C162.108 63.6401 162.134 63.5916 162.135 63.5203C162.897 61.486 163.66 59.5683 164.396 57.6511L165.779 53.966C165.886 53.6993 165.726 53.4085 165.433 53.3115C165.141 53.2386 164.821 53.36 164.715 53.6266L163.332 57.3118C162.56 59.3239 161.762 61.3603 161.044 63.2756C161.034 63.3049 161.025 63.3316 161.015 63.3605C159.532 66.4449 157.838 67.8332 155.671 67.7851C154.075 67.7366 153.224 66.8881 153.277 65.5063C153.304 64.9972 153.383 64.5365 153.57 63.9062C156.522 63.2517 160.486 61.7 160.486 59.1303C160.486 57.9666 159.555 57.3363 158.225 57.3363C155.086 57.3363 152.319 62.3791 152.16 65.4822C152.107 67.4701 153.437 68.8034 155.644 68.8034C157.378 68.8034 158.834 68.1362 160.114 66.7257C160.114 66.7393 160.113 66.7534 160.113 66.767C160.113 67.9306 160.805 68.8034 162.082 68.8034C163.515 68.8034 164.619 68.0961 165.598 66.9024C165.65 67.9974 166.335 68.8034 167.561 68.8034C169.19 68.8034 170.394 67.8901 171.472 66.3866C171.481 67.7765 172.07 68.8034 173.786 68.8034C175.063 68.8034 176.42 67.8094 177.404 66.5973C177.989 67.0336 178.68 67.2518 179.425 67.2518C181.021 67.2518 182.271 66.1364 183.442 63.688C183.601 63.3485 183.308 62.9848 182.91 62.9848ZM158.224 58.3544C158.81 58.3544 159.368 58.4756 159.368 59.1303C159.368 60.9242 156.203 62.1122 153.995 62.7425C154.846 60.8757 156.389 58.3544 158.224 58.3544ZM177.27 62.9848C177.004 62.9848 176.765 63.1303 176.712 63.3727C176.526 63.9786 176.472 65.0455 176.765 65.6758C175.887 66.8153 174.77 67.7851 173.786 67.7851C172.934 67.7851 172.615 67.1789 172.615 66.3061C172.615 63.8092 174.025 61.4575 174.717 60.4151C175.488 59.2029 176.446 58.3542 177.457 58.3542C178.361 58.3542 179.026 58.8876 179.026 59.9057C179.026 61.021 178.52 62.6938 177.696 64.1968C177.722 64.0271 177.722 63.8331 177.802 63.6391C177.909 63.3 177.643 62.9848 177.27 62.9848Z" fill="#F4F4F4"/>
<path d="M222.704 56.8028C222.651 56.0996 222.198 55.5421 221.427 55.5421C220.336 55.5421 219.485 56.6088 219.485 57.8696C219.485 58.4273 219.645 58.9606 219.884 59.4695C219.565 59.7604 219.299 60.0272 218.98 60.3665C218.9 60.4635 218.847 60.5847 218.847 60.6817C218.847 60.8272 218.9 60.9968 219.033 61.0938C219.139 61.1908 219.299 61.2152 219.432 61.2152C219.591 61.2152 219.751 61.1423 219.858 61.0212C220.017 60.8272 220.203 60.6332 220.389 60.4635C221.799 62.7181 222.198 63.4213 222.225 64.4879C222.172 66.5003 220.629 67.7852 218.474 67.7852C216.931 67.7852 215.575 66.7426 215.575 65.264C215.605 64.8375 215.709 64.4426 215.873 64.0944C215.895 64.0501 215.917 64.0057 215.939 63.9621C216.359 63.1782 217.115 62.6698 218.102 62.6698C218.793 62.6698 219.458 63.2758 219.511 64.1001C219.511 64.3909 219.751 64.6093 220.07 64.6093C220.389 64.6093 220.629 64.3911 220.629 64.1001C220.575 62.7666 219.458 61.6515 218.075 61.6515C216.737 61.6515 215.715 62.2178 215.1 63.1802C215.068 63.2163 215.04 63.256 215.016 63.3002L214.989 63.371C214.923 63.4916 214.86 63.6161 214.805 63.7471C213.937 65.509 212.723 67.785 211.185 67.785C210.626 67.785 210.387 67.494 210.387 66.7667C210.387 65.7001 211.265 63.591 212.222 61.1423L213.553 57.8937C213.686 57.6029 213.473 57.2149 213.047 57.2149C212.808 57.2149 212.595 57.3361 212.515 57.5301C212.382 57.8452 212.223 58.2089 212.063 58.6211C211.584 57.7484 210.76 57.3363 209.642 57.3363C207.296 57.3363 205.224 60.4011 204.29 63.2864C203.042 65.7786 201.766 67.7852 199.853 67.7852C199.321 67.7852 199.002 67.4216 199.002 66.7669C199.002 66.3512 199.268 65.3402 199.799 63.8203C199.817 63.7842 199.835 63.7488 199.853 63.7123C199.879 63.6404 199.906 63.5919 199.906 63.5207C200.669 61.4864 201.431 59.5687 202.167 57.6514L203.551 53.9663C203.657 53.6997 203.498 53.4088 203.205 53.3118C202.912 53.239 202.593 53.3603 202.487 53.627L201.103 57.3121C200.332 59.3242 199.534 61.3607 198.816 63.276C198.806 63.3053 198.796 63.3322 198.786 63.3608C197.461 66.1124 195.818 67.7852 193.256 67.7852C191.98 67.7852 191.128 66.8639 191.128 65.5065C191.128 62.5972 193.975 58.3546 196.049 58.3546C196.847 58.3546 197.193 58.7668 197.193 59.6152C197.193 60.5849 196.555 60.9972 196.555 61.3365C196.555 61.6515 196.767 61.8214 197.113 61.8214C197.725 61.8214 198.31 60.7062 198.31 59.6152C198.31 58.2818 197.565 57.3365 196.049 57.3365C193.336 57.3365 190.011 61.7002 190.011 65.4823C190.011 67.4703 191.288 68.8036 193.229 68.8036C195.172 68.8036 196.651 68.0918 197.885 66.7418C197.885 66.75 197.884 66.7589 197.884 66.7671C197.884 67.9307 198.576 68.8036 199.853 68.8036C201.484 68.8036 202.689 67.8873 203.769 66.3797C203.829 67.7418 204.522 68.8036 205.944 68.8036C207.088 68.8036 208.205 68.1247 209.269 66.7671C209.269 67.9551 209.908 68.8036 211.184 68.8036C212.659 68.8036 213.769 67.6727 214.641 66.3284C215.155 67.7674 216.683 68.8036 218.473 68.8036C221.16 68.8036 223.288 67.1308 223.341 64.5125C223.314 62.8638 222.596 62.0154 221.213 59.6881C222.039 58.8392 222.704 57.7724 222.704 56.8028ZM205.919 67.785C205.121 67.785 204.881 67.0819 204.881 66.0152C204.934 63.6151 207.195 58.4029 209.643 58.3544C210.6 58.3544 211.292 59.0089 211.345 60.1242L210.707 61.6757C209.643 64.1484 208.073 67.785 205.919 67.785ZM220.602 57.8452C220.602 57.5057 220.682 57.0694 221.002 56.7784C221.267 56.5361 221.56 56.4634 221.56 56.8028C221.56 57.3361 221.161 58.0876 220.736 58.6209C220.656 58.3544 220.602 58.1119 220.602 57.8452Z" fill="#F4F4F4"/>
<path d="M232.946 56.8028C232.893 56.0996 232.44 55.5421 231.669 55.5421C230.578 55.5421 229.727 56.6088 229.727 57.8696C229.727 58.4273 229.887 58.9606 230.126 59.4695C229.807 59.7604 229.541 60.0272 229.222 60.3665C229.142 60.4635 229.089 60.5847 229.089 60.6817C229.089 60.8272 229.142 60.9968 229.275 61.0938C229.381 61.1909 229.541 61.2152 229.674 61.2152C229.834 61.2152 229.993 61.1424 230.1 61.0212C230.259 60.8272 230.445 60.6332 230.632 60.4635C232.041 62.7182 232.44 63.4213 232.467 64.488C232.414 66.5003 230.871 67.7853 228.716 67.7853C227.174 67.7853 225.817 66.7426 225.817 65.264C225.923 63.7852 226.881 62.67 228.344 62.67C229.036 62.67 229.701 63.276 229.754 64.1003C229.754 64.3912 229.993 64.6095 230.312 64.6095C230.632 64.6095 230.871 64.3914 230.871 64.1003C230.818 62.7669 229.7 61.6517 228.317 61.6517C226.189 61.6517 224.859 63.0822 224.7 65.264C224.7 67.2276 226.509 68.8034 228.716 68.8034C231.403 68.8034 233.531 67.1306 233.584 64.5123C233.558 62.8637 232.839 62.0152 231.456 59.6879C232.281 58.8392 232.946 57.7724 232.946 56.8028ZM230.844 57.8452C230.844 57.5057 230.924 57.0694 231.243 56.7784C231.509 56.5361 231.802 56.4634 231.802 56.8028C231.802 57.3361 231.403 58.0876 230.977 58.6209C230.897 58.3544 230.844 58.1119 230.844 57.8452Z" fill="#F4F4F4"/>
<path d="M244.012 51.033C243.719 50.936 243.4 51.0815 243.32 51.3481L238.159 64.682C238.053 64.9487 238.186 65.2395 238.479 65.3365C238.771 65.4335 239.09 65.288 239.197 65.0213L244.358 51.6876C244.464 51.4208 244.304 51.13 244.012 51.033Z" fill="#F4F4F4"/>
<path d="M237.441 67.3245C236.936 67.3245 236.537 67.7125 236.537 68.1729C236.537 68.6334 236.936 68.9973 237.441 68.9973C237.947 68.9973 238.372 68.6336 238.372 68.1729C238.372 67.7123 237.947 67.3245 237.441 67.3245Z" fill="#F4F4F4"/>
<path d="M451.008 401.248H450.932C448.841 401.248 447.148 399.554 447.148 397.464V305.243H454.793V397.464C454.792 399.553 453.098 401.248 451.008 401.248Z" fill="#A4BDDA"/>
<path opacity="0.61" d="M454.792 305.243H447.147V318.526H454.792V305.243Z" fill="#072847"/>
<path d="M350.147 401.248H350.071C347.981 401.248 346.287 399.554 346.287 397.464V305.243H353.932V397.464C353.932 399.553 352.237 401.248 350.147 401.248Z" fill="#A4BDDA"/>
<path opacity="0.61" d="M353.932 305.243H346.287V318.526H353.932V305.243Z" fill="#072847"/>
<path d="M425.43 314.112H416.169V389.11H437.053V325.735C437.053 319.315 431.85 314.112 425.43 314.112Z" fill="#2A3B5E"/>
<path d="M374.533 314.112H383.794V389.11H362.91V325.735C362.91 319.315 368.114 314.112 374.533 314.112Z" fill="#2A3B5E"/>
<path d="M457.507 306.237H343.66C341.125 306.237 339.07 304.181 339.07 301.646V301.553C339.07 299.018 341.125 296.963 343.66 296.963H457.507C460.042 296.963 462.098 299.018 462.098 301.553V301.646C462.098 304.181 460.042 306.237 457.507 306.237Z" fill="#A4BDDA"/>
<path opacity="0.57" d="M425.546 296.963H374.95V306.236H425.546V296.963Z" fill="#072847"/>
<path d="M365.89 272.705L364.947 290.296C364.753 293.919 367.637 296.964 371.266 296.964H379.234V272.705H365.89Z" fill="#FFA08C"/>
<path d="M434.074 272.705L435.017 290.296C435.211 293.919 432.327 296.964 428.698 296.964H420.73V272.705H434.074Z" fill="#FFA08C"/>
<path d="M415.6 221.867C417.967 221.867 419.885 219.949 419.885 217.582C419.885 215.215 417.967 213.297 415.6 213.297C413.234 213.297 411.315 215.215 411.315 217.582C411.315 219.949 413.234 221.867 415.6 221.867Z" fill="#FFA08C"/>
<path d="M384.722 221.867C387.089 221.867 389.007 219.949 389.007 217.582C389.007 215.215 387.089 213.297 384.722 213.297C382.356 213.297 380.438 215.215 380.438 217.582C380.438 219.949 382.356 221.867 384.722 221.867Z" fill="#FFA08C"/>
<path d="M406.727 232.902H393.235V240.003H406.727V232.902Z" fill="#FFA08C"/>
<path d="M384.715 203.298C384.715 203.298 380.81 222.376 393.236 232.902C405.663 232.902 405.663 232.902 405.663 232.902C405.663 232.902 416.67 230.599 416.67 203.298C416.67 200.009 414.895 197.706 414.895 197.706C414.895 197.706 423.416 195.538 419.866 194.155C416.316 192.772 403.534 188.288 393.947 197.049C391.107 191.128 387.556 188.826 388.622 198.035C384.005 193.102 375.129 198.036 384.715 203.298Z" fill="#7A0000"/>
<path opacity="0.33" d="M419.865 194.156C416.315 192.773 403.533 188.289 393.946 197.05C391.106 191.129 387.555 188.827 388.62 198.036C384.005 193.102 375.129 198.036 384.715 203.299C384.715 203.299 380.81 222.376 393.236 232.903C393.236 232.903 386.526 209.474 389.553 205.518C386.621 202.564 387.411 200.669 391.358 202.36C391.019 198.976 392.259 198.639 394.628 201.459C398.35 198.64 406.919 199.88 411.316 203.3C415.713 206.72 416.67 203.3 416.67 203.3C416.67 200.011 414.895 197.708 414.895 197.708C414.895 197.708 423.416 195.538 419.865 194.156Z" fill="#FEFEFE"/>
<path opacity="0.42" d="M405.662 232.902C405.662 232.902 414.021 231.146 416.169 212.621C413.545 210.642 408.103 207.172 404.952 209.657C401.384 212.472 404.784 227.292 401.188 232.902C405.657 232.902 405.662 232.902 405.662 232.902Z" fill="#2D0101"/>
<path d="M429.308 249.171C427.585 246.202 423.94 243.828 419.786 241.973C407.225 236.363 392.739 236.363 380.179 241.973C376.025 243.828 372.38 246.202 370.657 249.171C365.295 258.405 362.912 275.385 362.912 275.385H379.234V314.112H399.983H420.732V275.385H437.054C437.053 275.385 434.67 258.406 429.308 249.171Z" fill="#F5AD49"/>
<path d="M420.73 242.415V275.386H437.052C437.052 275.386 434.669 258.407 429.307 249.172C427.717 246.431 424.484 244.202 420.73 242.415Z" fill="#E37427"/>
<path d="M379.232 242.415V275.386H362.91C362.91 275.386 365.293 258.407 370.655 249.172C372.246 246.431 375.479 244.202 379.232 242.415Z" fill="#E37427"/>
<path d="M411.46 335.158H388.503C383.384 335.158 379.232 331.008 379.232 325.887V314.112H420.73V325.887C420.73 331.007 416.58 335.158 411.46 335.158Z" fill="#374C7F"/>
<path d="M426.988 341.417H372.976C370.537 341.417 368.559 339.439 368.559 337.001V336.911C368.559 334.473 370.537 332.495 372.976 332.495H426.988C429.427 332.495 431.405 334.473 431.405 336.911V337C431.405 339.439 429.428 341.417 426.988 341.417Z" fill="#7396C0"/>
<path d="M425.585 292.862H374.647C371.697 292.862 369.305 290.47 369.305 287.52V254.265C369.305 251.315 371.697 248.923 374.647 248.923H425.585C428.535 248.923 430.927 251.315 430.927 254.265V287.52C430.927 290.47 428.535 292.862 425.585 292.862Z" fill="#7396C0"/>
<path opacity="0.46" d="M425.585 248.923H374.647C371.98 248.923 369.789 250.883 369.388 253.437C369.659 253.395 369.933 253.354 370.216 253.354H421.154C424.105 253.354 426.497 255.746 426.497 258.696V291.95C426.497 292.234 426.456 292.507 426.413 292.778C428.968 292.378 430.927 290.186 430.927 287.52V254.265C430.927 251.315 428.535 248.923 425.585 248.923Z" fill="#FEFEFE"/>
<path d="M385.069 292.862H379.232V332.495H385.069V292.862Z" fill="#7396C0"/>
<path opacity="0.51" d="M385.069 292.862H379.232V296.964H385.069V292.862Z" fill="#072847"/>
<path d="M420.732 292.862H414.895V332.495H420.732V292.862Z" fill="#7396C0"/>
<path opacity="0.51" d="M420.732 292.862H414.895V296.964H420.732V292.862Z" fill="#072847"/>
<path d="M420.732 341.417H414.895V401.248H420.732V341.417Z" fill="#7396C0"/>
<path opacity="0.51" d="M420.732 341.417H414.895V345.519H420.732V341.417Z" fill="#072847"/>
<path d="M385.069 341.417H379.232V401.248H385.069V341.417Z" fill="#7396C0"/>
<path opacity="0.51" d="M385.069 341.417H379.232V345.519H385.069V341.417Z" fill="#072847"/>
<path d="M211.771 401.248H211.694C209.604 401.248 207.91 399.57 207.91 397.5V306.152H215.555V397.5C215.555 399.569 213.86 401.248 211.771 401.248Z" fill="#A4BDDA"/>
<path opacity="0.61" d="M215.555 306.152H207.91V319.309H215.555V306.152Z" fill="#072847"/>
<path d="M110.911 401.248H110.834C108.744 401.248 107.05 399.57 107.05 397.5V306.152H114.695V397.5C114.695 399.569 113 401.248 110.911 401.248Z" fill="#A4BDDA"/>
<path opacity="0.61" d="M114.695 306.152H107.05V319.309H114.695V306.152Z" fill="#072847"/>
<path d="M180.188 314.937H170.928V389.225H191.812V326.45C191.812 320.091 186.608 314.937 180.188 314.937Z" fill="#2A3B5E"/>
<path d="M141.3 314.937H150.561V389.225H129.676V326.45C129.676 320.091 134.88 314.937 141.3 314.937Z" fill="#2A3B5E"/>
<path d="M218.27 307.136H104.423C101.888 307.136 99.833 305.1 99.833 302.589V302.497C99.833 299.986 101.888 297.95 104.423 297.95H218.27C220.805 297.95 222.86 299.986 222.86 302.497V302.589C222.86 305.1 220.805 307.136 218.27 307.136Z" fill="#A4BDDA"/>
<path opacity="0.57" d="M186.309 297.95H135.713V307.135H186.309V297.95Z" fill="#072847"/>
<path d="M126.651 273.922L125.708 291.347C125.513 294.935 128.399 297.951 132.027 297.951H139.995V273.922H126.651Z" fill="#FFA08C"/>
<path d="M194.837 273.922L195.781 291.347C195.975 294.935 193.09 297.951 189.461 297.951H181.493V273.922H194.837Z" fill="#FFA08C"/>
<path d="M176.363 223.565C178.73 223.565 180.648 221.665 180.648 219.321C180.648 216.977 178.73 215.076 176.363 215.076C173.997 215.076 172.078 216.977 172.078 219.321C172.078 221.665 173.997 223.565 176.363 223.565Z" fill="#FFA08C"/>
<path d="M145.485 223.565C147.852 223.565 149.77 221.665 149.77 219.321C149.77 216.977 147.852 215.076 145.485 215.076C143.119 215.076 141.2 216.977 141.2 219.321C141.2 221.665 143.119 223.565 145.485 223.565Z" fill="#FFA08C"/>
<path d="M167.49 234.496H153.998V241.53H167.49V234.496Z" fill="#FFA08C"/>
<path d="M190.071 250.611C188.347 247.67 184.702 245.318 180.548 243.481C167.987 237.924 153.501 237.924 140.941 243.481C136.787 245.318 133.142 247.67 131.419 250.611C126.057 259.757 126.509 276.577 126.509 276.577H139.997V314.937H160.746H181.495V276.577L195.013 277.125C195.011 277.125 195.433 259.758 190.071 250.611Z" fill="#FF4747"/>
<path d="M181.493 243.919V276.578L195.011 277.126C195.011 277.126 195.433 259.759 190.071 250.612C188.48 247.897 185.247 245.689 181.493 243.919Z" fill="#BC3535"/>
<path d="M139.996 243.919V276.578H126.508C126.508 276.578 126.056 259.759 131.418 250.612C133.009 247.897 136.242 245.689 139.996 243.919Z" fill="#BC3535"/>
<path d="M172.223 335.784H149.266C144.146 335.784 139.995 331.673 139.995 326.601V314.937H181.493V326.601C181.493 331.672 177.342 335.784 172.223 335.784Z" fill="#374C7F"/>
<path d="M187.75 341.984H133.738C131.299 341.984 129.322 340.024 129.322 337.609V337.52C129.322 335.105 131.299 333.146 133.738 333.146H187.75C190.189 333.146 192.167 335.105 192.167 337.52V337.608C192.167 340.024 190.189 341.984 187.75 341.984Z" fill="#7396C0"/>
<path d="M145.832 293.888H139.996V333.146H145.832V293.888Z" fill="#7396C0"/>
<path opacity="0.51" d="M145.832 293.888H139.996V297.951H145.832V293.888Z" fill="#072847"/>
<path d="M181.493 293.888H175.657V333.146H181.493V293.888Z" fill="#7396C0"/>
<path opacity="0.51" d="M181.493 293.888H175.657V297.951H181.493V293.888Z" fill="#072847"/>
<path d="M181.493 341.983H175.657V401.248H181.493V341.983Z" fill="#7396C0"/>
<path opacity="0.51" d="M181.493 341.983H175.657V346.047H181.493V341.983Z" fill="#072847"/>
<path d="M145.832 341.983H139.996V401.248H145.832V341.983Z" fill="#7396C0"/>
<path opacity="0.51" d="M145.832 341.983H139.996V346.047H145.832V341.983Z" fill="#072847"/>
<path d="M178.314 268.873H143.534V209.053C143.534 199.635 151.242 192 160.75 192H161.098C170.606 192 178.314 199.635 178.314 209.053V268.873Z" fill="#F5AD49"/>
<path opacity="0.33" d="M166.926 193.023C165.104 192.372 163.147 192 161.098 192H160.75C151.242 192 143.534 199.635 143.534 209.053V268.873H155.539V209.053C155.539 201.665 160.291 195.392 166.926 193.023Z" fill="#512626"/>
<path opacity="0.33" d="M172.078 268.873H178.314V209.053C178.314 206.181 177.589 203.478 176.323 201.105C174.196 204.688 172.077 210.475 172.077 219.321C172.078 230.273 172.078 253.024 172.078 268.873Z" fill="#FEFEFE"/>
<path d="M186.347 293.888H135.408C132.458 293.888 130.066 291.519 130.066 288.597V255.657C130.066 252.735 132.458 250.365 135.408 250.365H186.346C189.296 250.365 191.688 252.735 191.688 255.657V288.597C191.689 291.519 189.297 293.888 186.347 293.888Z" fill="#7396C0"/>
<path opacity="0.46" d="M186.347 250.365H135.408C132.741 250.365 130.55 252.307 130.149 254.836C130.421 254.795 130.694 254.754 130.978 254.754H181.916C184.866 254.754 187.258 257.124 187.258 260.046V292.985C187.258 293.266 187.217 293.537 187.175 293.805C189.729 293.409 191.689 291.238 191.689 288.597V255.657C191.689 252.735 189.297 250.365 186.347 250.365Z" fill="#FEFEFE"/>
<path d="M319.971 320H319.905C318.103 320 316.644 318.54 316.644 316.739V237.261H323.233V316.739C323.232 318.539 321.772 320 319.971 320Z" fill="#A4BDDA"/>
<path opacity="0.61" d="M323.232 237.261H316.643V248.708H323.232V237.261Z" fill="#072847"/>
<path d="M233.046 320H232.981C231.18 320 229.72 318.54 229.72 316.739V237.261H236.308V316.739C236.308 318.539 234.848 320 233.046 320Z" fill="#A4BDDA"/>
<path opacity="0.61" d="M236.308 237.261H229.72V248.708H236.308V237.261Z" fill="#072847"/>
<path d="M307.944 309.539H289.945V320H307.944V309.539Z" fill="#FF4747"/>
<path d="M297.927 244.904H289.945V309.539H307.944V254.921C307.944 249.388 303.46 244.904 297.927 244.904Z" fill="#2A3B5E"/>
<path d="M262.044 309.539H244.045V320H262.044V309.539Z" fill="#FF4747"/>
<path d="M254.062 244.904H262.044V309.539H244.045V254.921C244.045 249.388 248.53 244.904 254.062 244.904Z" fill="#2A3B5E"/>
<path d="M325.571 238.118H227.456C225.271 238.118 223.5 236.346 223.5 234.161V234.081C223.5 231.896 225.271 230.125 227.456 230.125H325.571C327.756 230.125 329.528 231.896 329.528 234.081V234.161C329.528 236.346 327.756 238.118 325.571 238.118Z" fill="#A4BDDA"/>
<path opacity="0.57" d="M298.026 230.125H254.422V238.117H298.026V230.125Z" fill="#072847"/>
<path d="M246.613 209.219L245.8 224.379C245.633 227.502 248.119 230.126 251.246 230.126H258.113V209.219H246.613Z" fill="#FFA08C"/>
<path d="M305.377 209.219L306.189 224.379C306.356 227.502 303.871 230.126 300.743 230.126H293.876V209.219H305.377Z" fill="#FFA08C"/>
<path d="M289.455 165.406C291.495 165.406 293.148 163.752 293.148 161.713C293.148 159.673 291.495 158.02 289.455 158.02C287.416 158.02 285.762 159.673 285.762 161.713C285.762 163.752 287.416 165.406 289.455 165.406Z" fill="#FFA08C"/>
<path d="M262.844 165.406C264.883 165.406 266.537 163.752 266.537 161.713C266.537 159.673 264.883 158.02 262.844 158.02C260.804 158.02 259.151 159.673 259.151 161.713C259.151 163.752 260.804 165.406 262.844 165.406Z" fill="#FFA08C"/>
<path d="M281.808 174.916H270.181V181.036H281.808V174.916Z" fill="#FFA08C"/>
<path d="M262.837 149.403C262.837 149.403 259.471 165.845 270.18 174.916C280.89 174.916 280.89 174.916 280.89 174.916C280.89 174.916 290.376 172.931 290.376 149.403C290.376 146.568 288.846 144.583 288.846 144.583C288.846 144.583 296.19 142.715 293.131 141.523C290.071 140.331 279.055 136.467 270.793 144.017C268.345 138.914 265.285 136.93 266.204 144.867C262.225 140.616 254.575 144.868 262.837 149.403Z" fill="#7A0000"/>
<path opacity="0.33" d="M293.13 141.524C290.07 140.332 279.054 136.468 270.792 144.018C268.345 138.915 265.284 136.931 266.202 144.868C262.225 140.616 254.575 144.868 262.837 149.404C262.837 149.404 259.471 165.844 270.18 174.917C270.18 174.917 264.397 154.725 267.006 151.316C264.479 148.77 265.16 147.137 268.562 148.594C268.27 145.678 269.338 145.387 271.38 147.818C274.588 145.388 281.973 146.457 285.762 149.404C289.551 152.352 290.376 149.404 290.376 149.404C290.376 146.57 288.846 144.585 288.846 144.585C288.846 144.585 296.19 142.715 293.13 141.524Z" fill="#FEFEFE"/>
<path opacity="0.42" d="M280.89 174.916C280.89 174.916 288.094 173.403 289.945 157.437C287.684 155.732 282.994 152.741 280.278 154.883C277.203 157.309 280.134 170.081 277.034 174.916C280.886 174.916 280.89 174.916 280.89 174.916Z" fill="#2D0101"/>
<path d="M301.269 188.937C299.784 186.378 296.643 184.332 293.063 182.734C282.237 177.899 269.753 177.899 258.928 182.734C255.348 184.332 252.207 186.378 250.722 188.937C246.101 196.895 244.047 211.529 244.047 211.529H258.114V244.904H275.996H293.878V211.529H307.944C307.944 211.529 305.89 196.896 301.269 188.937Z" fill="#F5AD49"/>
<path d="M293.876 183.115V211.53H307.943C307.943 211.53 305.889 196.897 301.268 188.938C299.898 186.576 297.112 184.655 293.876 183.115Z" fill="#E37427"/>
<path d="M258.112 183.115V211.53H244.045C244.045 211.53 246.099 196.897 250.72 188.938C252.091 186.576 254.878 184.655 258.112 183.115Z" fill="#E37427"/>
<path d="M285.887 263.042H266.102C261.691 263.042 258.112 259.466 258.112 255.052V244.904H293.876V255.052C293.876 259.465 290.3 263.042 285.887 263.042Z" fill="#374C7F"/>
<path d="M299.268 268.436H252.72C250.618 268.436 248.913 266.732 248.913 264.631V264.553C248.913 262.452 250.618 260.747 252.72 260.747H299.268C301.37 260.747 303.075 262.452 303.075 264.553V264.63C303.075 266.732 301.371 268.436 299.268 268.436Z" fill="#7396C0"/>
<path d="M298.059 226.591H254.16C251.618 226.591 249.556 224.529 249.556 221.987V193.327C249.556 190.785 251.618 188.723 254.16 188.723H298.059C300.602 188.723 302.663 190.785 302.663 193.327V221.987C302.663 224.529 300.602 226.591 298.059 226.591Z" fill="#7396C0"/>
<path opacity="0.46" d="M298.06 188.723H254.16C251.862 188.723 249.974 190.412 249.628 192.614C249.861 192.577 250.098 192.542 250.342 192.542H294.241C296.784 192.542 298.846 194.603 298.846 197.146V225.805C298.846 226.05 298.81 226.285 298.773 226.518C300.975 226.174 302.663 224.285 302.663 221.987V193.327C302.663 190.785 300.602 188.723 298.06 188.723Z" fill="#FEFEFE"/>
<path d="M263.143 226.591H258.112V260.747H263.143V226.591Z" fill="#7396C0"/>
<path opacity="0.51" d="M263.143 226.591H258.112V230.126H263.143V226.591Z" fill="#072847"/>
<path d="M293.877 226.591H288.847V260.747H293.877V226.591Z" fill="#7396C0"/>
<path opacity="0.51" d="M293.877 226.591H288.847V230.126H293.877V226.591Z" fill="#072847"/>
<path d="M293.877 268.436H288.847V320H293.877V268.436Z" fill="#7396C0"/>
<path opacity="0.51" d="M293.877 268.436H288.847V271.971H293.877V268.436Z" fill="#072847"/>
<path d="M263.143 268.436H258.112V320H263.143V268.436Z" fill="#7396C0"/>
<path opacity="0.51" d="M263.143 268.436H258.112V271.971H263.143V268.436Z" fill="#072847"/>
</svg>
