<svg width="372" height="372" viewBox="0 0 372 372" fill="none" xmlns="http://www.w3.org/2000/svg">
<g clip-path="url(#clip0)">
<path d="M124.002 248C88.5862 265.05 53.1253 282.1 17.7342 300.7C3.85887 308.45 -1.32 325.5 0.00215362 341C0.647946 350.3 -2.80474 362.699 6.83595 368.899C15.9951 373.549 26.7333 370.45 36.6765 372H358.085C370.004 370.45 373.166 358.05 372.004 348.75C372.221 333.25 373.058 317.749 361.805 306.899C352.644 297.599 339.562 292.95 328.371 286.75C301.587 274.35 274.788 260.4 248.004 248H124.004H124.002Z" fill="#0D0628"/>
<path d="M124 248H248L217 372H155L124 248Z" fill="#FCC025"/>
<path d="M155 279V325.5L170.5 341L155 372H217L201.5 341L217 325.5V279H155Z" fill="#0D0628"/>
<path d="M232.5 201.5H139.5V279H232.5V201.5Z" fill="#95A5A6"/>
<path d="M124 248L139.5 232.5L186 279L232.5 232.5L248 248L217 325.5L186 279L155 325.5L124 248Z" fill="#ECF0F1"/>
<path d="M186.006 0C140.085 0 102.027 41.6935 94.4594 96.3914C92.7002 95.9109 90.7379 95.3824 89.1305 95.9062C80.9915 98.5568 78.9858 114.018 84.2868 130.296C87.3976 139.849 92.5731 147.369 97.8493 151.609C109.882 198.385 144.582 232.5 186.006 232.5C227.422 232.5 262.126 198.385 274.17 151.609C279.44 147.368 284.617 139.847 287.717 130.296C293.018 114.018 291.018 98.5568 282.881 95.9062C281.269 95.3824 279.316 95.9109 277.549 96.3914C269.985 41.6919 231.932 0 186.006 0V0Z" fill="#FCC025"/>
<path d="M124 248L93 263.5V310H124L93 325.5L124 372H155L124 248ZM248 248L217 372H248L279 325.5L248 310H279V263.5L248 248Z" fill="#0E1869"/>
<path d="M186.005 0.000510699C154.34 -1.54949 124.955 20.1498 108.813 49.5998C100.595 63.5498 95.1127 80.5998 92.6963 96.0998C97.8795 94.5498 101.999 97.6509 106.693 91.4509C116.442 82.1509 120.773 74.4005 124.313 62.0005C130.36 48.0505 143.583 26.3505 155.315 31.0005C166.056 34.1005 170.815 40.3001 186.315 40.3001C201.815 40.3001 206.573 34.1005 217.315 31.0005C229.048 26.3505 242.27 48.0505 248.315 62.0005C251.849 74.4005 255.569 82.1509 265.318 91.4509C270.015 97.6509 274.122 94.5498 279.315 96.0998C276.897 80.5998 271.41 63.5498 263.195 49.5998C247.059 20.1498 217.671 -1.54949 186.005 0.000510699Z" fill="#0E1869"/>
</g>
<defs>
<clipPath id="clip0">
<rect width="372" height="372" fill="white"/>
</clipPath>
</defs>
</svg>
