<svg width="61" height="60" viewBox="0 0 61 60" fill="none" xmlns="http://www.w3.org/2000/svg">
<path d="M17.906 29.071C17.4718 29.0743 17.0741 28.8279 16.8861 28.435L12.4702 19.2575C12.3488 19.0044 12.2939 18.7263 12.3039 18.4466C12.3438 17.5075 13.3388 15.6111 15.4285 16.6351C15.7796 16.8082 16.2072 17.2511 16.3919 17.5941L19.5149 24.086C19.6896 24.4123 20.0174 24.6321 20.3851 24.6721L30.0503 25.428L30.0004 28.9628L17.906 29.071Z" fill="#F09719"/>
<path d="M30.4535 25.3997C30.3154 25.3997 30.1823 25.4097 30.0509 25.4296L30.001 28.9644C30.1324 28.9877 30.2655 29.001 30.4036 29.0027C31.5949 29.0194 32.5716 28.2268 32.5849 27.2328C32.5983 26.2388 31.6432 25.418 30.4535 25.3997Z" fill="#EEA67B"/>
<path d="M34.789 33.8412H33.8207V30.2897C33.8207 29.5671 33.4597 28.7197 32.6361 28.7197H30.7676V27.6391H32.6361C33.824 27.6391 34.789 28.5232 34.789 29.6121V33.8412Z" fill="#797B7C"/>
<path d="M35.8324 53.1552V30.9025H33.335V53.1552V55.7292H34.8773H58.2275V53.1552H35.8324Z" fill="#444248"/>
<path d="M32.6618 59.2657C34.4371 59.2657 35.8763 57.8256 35.8763 56.049C35.8763 54.2724 34.4371 52.8322 32.6618 52.8322C30.8865 52.8322 29.4473 54.2724 29.4473 56.049C29.4473 57.8256 30.8865 59.2657 32.6618 59.2657Z" fill="#444248"/>
<path d="M32.6619 57.6573C33.5495 57.6573 34.2691 56.9372 34.2691 56.049C34.2691 55.1607 33.5495 54.4406 32.6619 54.4406C31.7743 54.4406 31.0547 55.1607 31.0547 56.049C31.0547 56.9372 31.7743 57.6573 32.6619 57.6573Z" fill="#CED1D7"/>
<path d="M17.1562 54.5921V59.2674H25.5985V59.2457C25.6135 58.1568 24.9446 57.1595 23.9164 56.7999C22.7168 56.3836 21.1461 55.5811 20.0863 54.0709L17.1562 54.5921Z" fill="#444248"/>
<path d="M3.46421 50.4879L0.905273 54.2141L7.66533 59.1792L7.67869 59.1625C8.31925 58.2817 8.34753 57.0812 7.71362 56.1938C6.97655 55.1615 6.15463 53.5981 6.15796 51.7533L3.46421 50.4879Z" fill="#444248"/>
<path opacity="0.55" d="M3.57281 50.5411L2.51464 51.8715L2.39648 52.0446L6.63263 54.2125C6.34978 53.4799 6.15509 52.6507 6.15676 51.7549L3.57281 50.5411Z" fill="#49546D"/>
<path opacity="0.55" d="M20.088 54.0726L17.1562 54.5938L17.1779 56.2238L22.033 55.8991C21.3292 55.4479 20.6387 54.8568 20.088 54.0726Z" fill="#49546D"/>
<path d="M3.48914 50.5528L2.53906 51.9348L3.59729 50.6061L3.48914 50.5528Z" fill="#444248"/>
<path d="M2.4082 52.1012L2.4215 52.1096L2.53955 51.9348L2.4082 52.1012Z" fill="#39455D"/>
<path d="M9.13001 34.2974L8.16167 44.0293L2.4082 51.0956L6.41467 53.4233L12.7522 44.9051L14.5158 36.0423L9.13001 34.2974Z" fill="#FEA420"/>
<path opacity="0.42" d="M13.367 41.8099L14.5134 36.0423L9.12922 34.2957L8.5752 39.8601C10.3904 40.0599 12.0093 40.5994 13.367 41.8099Z" fill="#CAA92C"/>
<path d="M8.99943 30.7393C8.99943 30.7393 5.18595 35.6561 10.2273 37.5308C14.0625 38.9561 17.1705 44.5472 17.0407 45.1233L16.5183 54.6654L21.3434 55.2348L22.5164 44.3773C22.771 43.37 17.8144 34.767 16.9476 31.9748C16.9476 31.9748 9.65664 31.2655 8.99943 30.7393Z" fill="#FEA92C"/>
<path opacity="0.42" d="M8.9469 30.8142C8.77386 31.054 8.20817 31.8765 7.87207 32.8955C10.7056 34.4223 15.7021 34.1959 18.0381 34.1892C17.5522 33.4083 17.1712 32.6674 16.9633 32.0164C15.8635 31.9065 10.0417 31.3021 8.9469 30.8142Z" fill="#CAA92C"/>
<path d="M11.7071 13.082L11.5557 18.5399L14.4042 18.5965L14.6371 13.1269L11.7071 13.082Z" fill="#EEA67B"/>
<path d="M17.2124 19.3707C16.9096 17.8389 15.8648 16.5868 14.5054 16.0024C13.6569 16.3304 12.6718 16.4253 11.8849 15.9175C11.815 15.8725 11.7534 15.8192 11.6919 15.7693C9.93818 16.1939 8.57719 17.6691 8.2594 19.4939C7.25777 25.2398 7.55726 30.9674 7.66374 32.4742H17.7549C18.3239 26.6551 17.7382 22.028 17.2124 19.3707Z" fill="#FEA92C"/>
<g opacity="0.42">
<path opacity="0.42" d="M17.7149 25.686L14.5903 19.1925C14.4072 18.8512 13.978 18.405 13.6285 18.2335C11.5388 17.2095 10.5438 19.1042 10.5039 20.045C10.4905 20.3247 10.5471 20.6028 10.6702 20.8575L14.0761 30.1898C14.2658 30.5811 14.6634 30.8308 15.0977 30.8259L17.9013 30.6527C18.0044 28.9627 18.0044 27.4076 17.9495 25.9757C17.858 25.8908 17.7765 25.7959 17.7149 25.686Z" fill="#CAA92C"/>
</g>
<path d="M16.5766 29.8302C16.1423 29.8352 15.7447 29.5871 15.5566 29.1942L11.1409 20.0167C11.0194 19.7636 10.9645 19.4873 10.9761 19.2042C11.0161 18.2668 12.0094 16.372 14.1008 17.3943C14.4502 17.5658 14.8778 18.0104 15.0625 18.355L18.1855 24.8452C18.3602 25.1732 18.688 25.3913 19.0557 25.4313L28.7225 26.1872L28.6726 29.722L16.5766 29.8302Z" fill="#FEA92C"/>
<path d="M29.1237 26.1605C28.9856 26.1572 28.8525 26.1705 28.7228 26.1888L28.6729 29.7236C28.8026 29.7469 28.9357 29.7603 29.0738 29.7636C30.2651 29.7802 31.2418 28.9861 31.2567 27.9921C31.2684 26.9964 30.315 26.1772 29.1237 26.1605Z" fill="#F7B896"/>
<path d="M9.9201 3.42499V6.23716C9.87185 6.23383 9.82527 6.2222 9.77701 6.2222C8.7521 6.2222 7.92188 7.06633 7.92188 8.10696C7.92188 9.14758 8.7521 9.99174 9.77701 9.99174C9.82527 9.99174 9.87185 9.98175 9.9201 9.97675V10.6261C9.9201 13.062 11.8934 15.035 14.3259 15.035H14.4141C16.8482 15.035 18.8215 13.0603 18.8215 10.6261V3.42499H9.9201Z" fill="#F7B896"/>
<path d="M13.689 8.49487C14.0253 8.49487 14.298 8.22205 14.298 7.8855C14.298 7.54895 14.0253 7.27612 13.689 7.27612C13.3527 7.27612 13.0801 7.54895 13.0801 7.8855C13.0801 8.22205 13.3527 8.49487 13.689 8.49487Z" fill="#444248"/>
<path d="M17.0465 8.49487C17.3828 8.49487 17.6555 8.22205 17.6555 7.8855C17.6555 7.54895 17.3828 7.27612 17.0465 7.27612C16.7101 7.27612 16.4375 7.54895 16.4375 7.8855C16.4375 8.22205 16.7101 8.49487 17.0465 8.49487Z" fill="#444248"/>
<path d="M13.4307 10.9308H16.9396C16.9396 10.9308 16.8265 12.6441 15.2276 12.6441C13.6303 12.6458 13.4307 10.9308 13.4307 10.9308Z" fill="white"/>
<path d="M17.5817 6.62842H16.3571C16.2356 6.62842 16.1357 6.53021 16.1357 6.40867V6.37368C16.1357 6.25214 16.2356 6.15393 16.3571 6.15393H17.5817C17.7015 6.15393 17.8013 6.25214 17.8013 6.37368V6.40867C17.8013 6.53187 17.7032 6.62842 17.5817 6.62842Z" fill="#444248"/>
<path d="M14.3006 6.62842H13.076C12.9546 6.62842 12.8564 6.53021 12.8564 6.40867V6.37368C12.8564 6.25214 12.9546 6.15393 13.076 6.15393H14.3006C14.422 6.15393 14.5202 6.25214 14.5202 6.37368V6.40867C14.5185 6.53187 14.422 6.62842 14.3006 6.62842Z" fill="#444248"/>
<path d="M8.17012 3.42497C8.17012 3.42497 8.64433 -0.534406 13.1067 0.303091C17.5675 1.14059 19.8103 1.25381 20.4209 0.492899C20.4209 0.492899 21.7038 4.68206 16.6873 4.68206C11.6709 4.68206 11.8988 4.07431 11.4429 5.06332C10.987 6.054 11.2532 7.6907 11.2532 7.6907H10.1118C10.1118 7.6907 10.1201 5.92081 8.44132 6.80493C8.43965 6.80326 8.01705 5.63277 8.17012 3.42497Z" fill="#444248"/>
<path d="M54.7404 36.2488H38.5713V52.1995H54.7404V36.2488Z" fill="#E5BE84"/>
<path d="M48.824 36.2488H44.4863V40.353H48.824V36.2488Z" fill="#EAD1B7"/>
<path d="M48.824 48.0952H44.4863V52.1995H48.824V48.0952Z" fill="#EAD1B7"/>
<path d="M43.5392 48.9277H39.3447V51.4636H43.5392V48.9277Z" fill="#F7EEE5"/>
<path d="M39.9841 49.2858H39.5381V51.1106H39.9841V49.2858Z" fill="#444248"/>
<path d="M40.4083 49.2858H40.252V51.1106H40.4083V49.2858Z" fill="#444248"/>
<path d="M41.4149 49.2858H41.0488V51.1106H41.4149V49.2858Z" fill="#444248"/>
<path d="M40.8109 49.2858H40.5879V51.1106H40.8109V49.2858Z" fill="#444248"/>
<path d="M41.8373 49.2858H41.6875V51.1106H41.8373V49.2858Z" fill="#444248"/>
<path d="M42.7013 49.2858H42.3984V51.1106H42.7013V49.2858Z" fill="#444248"/>
<path d="M42.9535 49.2858H42.8037V51.1106H42.9535V49.2858Z" fill="#444248"/>
<path d="M42.2629 49.2858H42.0566V51.1106H42.2629V49.2858Z" fill="#444248"/>
<path d="M43.3381 49.2858H43.1152V51.1106H43.3381V49.2858Z" fill="#444248"/>
<path d="M52.6599 29.4905H40.6504V36.2488H52.6599V29.4905Z" fill="#A9AFBA"/>
<path d="M48.2657 29.4905H45.043V31.014H48.2657V29.4905Z" fill="#EAD1B7"/>
<path d="M51.939 33.8195H48.8242V35.7026H51.939V33.8195Z" fill="#F7EEE5"/>
<path d="M49.2969 34.0826H48.9658V35.4379H49.2969V34.0826Z" fill="#444248"/>
<path d="M49.6125 34.0826H49.4961V35.4379H49.6125V34.0826Z" fill="#444248"/>
<path d="M50.358 34.0826H50.0869V35.4379H50.358V34.0826Z" fill="#444248"/>
<path d="M49.9125 34.0826H49.7461V35.4379H49.9125V34.0826Z" fill="#444248"/>
<path d="M50.674 34.0826H50.5625V35.4379H50.674V34.0826Z" fill="#444248"/>
<path d="M51.3156 34.0826H51.0908V35.4379H51.3156V34.0826Z" fill="#444248"/>
<path d="M51.5034 34.0826H51.3936V35.4379H51.5034V34.0826Z" fill="#444248"/>
<path d="M50.9927 34.0826H50.8379V35.4379H50.9927V34.0826Z" fill="#444248"/>
<path d="M51.7875 34.0826H51.6211V35.4379H51.7875V34.0826Z" fill="#444248"/>
<path d="M60.1158 52.1995H36.7256V56.72H60.1158V52.1995Z" fill="#64739A"/>
</svg>
