<svg width="189" height="89" viewBox="0 0 189 89" fill="none" xmlns="http://www.w3.org/2000/svg">
<path d="M70.7259 53.4707C70.9189 54.3421 71.1879 55.2561 70.2951 55.6084C69.7746 55.8126 66.968 56.3037 65.9663 56.2729C65.2494 56.2505 64.3771 56.2489 64.2987 55.939C64.2187 55.6308 64.4758 54.9719 64.8879 54.9356C65.926 54.8444 66.9521 54.6772 67.8052 53.6083C68.1009 53.2375 70.8309 53.1709 70.7259 53.4707Z" fill="#010000"/>
<path d="M73.7643 32.7053C73.7643 32.7053 80.692 30.1257 81.4577 29.4998C82.3232 28.7917 84.3545 25.9414 84.3545 25.9414L82.9475 25.1069L80.3572 28.3118L73.4697 31.7052L73.7643 32.7053Z" fill="#FAB587"/>
<path d="M81.8164 25.8525C81.8164 25.8525 83.9771 21.1368 84.1281 20.752C84.6962 19.3184 86.6595 21.1346 86.4069 22.0921C86.2758 22.5899 84.0912 27.05 84.0912 27.05L81.8164 25.8525Z" fill="#F05A22"/>
<path d="M72.916 33.7747C73.525 33.613 73.764 32.7053 73.764 32.7053L73.4689 31.7052C73.4689 31.7052 72.2043 31.6554 71.9279 32.076C71.7412 32.3579 72.3053 33.9369 72.916 33.7747Z" fill="#FAB587"/>
<path d="M50.1609 46.2756H46.7969V69.8488H50.1609V46.2756Z" fill="#5A5B5D"/>
<path d="M52.2154 1.61533H48.8525V62.1201H52.2154V1.61533Z" fill="#7A7C7F"/>
<path d="M55.163 2.74237H54.3145V62.1201H55.163V2.74237Z" fill="#7A7C7F"/>
<path d="M52.7625 61.8231H48.3076V73.3004H52.7625V61.8231Z" fill="#949699"/>
<path d="M49.6178 68.9119C52.3932 68.9119 52.9619 73.3004 49.6178 73.3004C46.2737 73.3004 15.5723 73.3004 15.5723 73.3004V68.9119C15.5723 68.9119 47.2414 68.9119 49.6178 68.9119Z" fill="#A0A2A4"/>
<path d="M55.3591 1.61533H48.3076V4.51486H55.3591V1.61533Z" fill="#A0A2A4"/>
<path d="M119.028 61.1603C119.961 61.1603 120.717 59.9785 120.717 58.5208C120.717 57.0631 119.961 55.8814 119.028 55.8814C118.094 55.8814 117.338 57.0631 117.338 58.5208C117.338 59.9785 118.094 61.1603 119.028 61.1603Z" fill="#F6921E"/>
<path d="M119.028 55.1459H115.978V61.8231H119.028V55.1459Z" fill="#231F29"/>
<path d="M63.6346 42.6014C62.6538 38.0916 58.5299 38.8858 58.5299 38.8858L57.624 59.1014L67.8834 61.8231C67.8834 61.8231 64.6221 47.1464 63.6346 42.6014Z" fill="#231F29"/>
<path d="M70.5457 38.831C71.5179 37.172 69.696 33.1684 68.8384 34.1534C67.9831 35.1361 61.5469 42.5287 61.5469 42.5287L62.6536 52.3543C62.6542 52.3543 69.5757 40.491 70.5457 38.831Z" fill="#231F29"/>
<path d="M90.9238 23.8434C91.3455 21.973 95.3917 19.234 95.3906 21.5306C95.3906 22.8271 93.3717 45.5451 93.3717 45.5451L87.2363 43.4616C87.2369 43.4622 90.5021 25.7126 90.9238 23.8434Z" fill="#0B0310"/>
<path d="M80.7046 40.8272C78.7947 41.1818 76.4234 44.3661 78.7533 44.4416C80.0666 44.4835 93.4901 44.2206 93.4901 44.2206L93.3647 39.0044C93.3647 39.0044 82.6156 40.4726 80.7046 40.8272Z" fill="#0B0310"/>
<path d="M80.0032 44.3476C78.0837 44.653 75.4729 47.0698 77.7993 47.2035C78.0809 47.2197 68.4912 62.3891 70.6122 62.4652C78.3936 62.7476 106.106 48.2103 106.106 48.2103L105.999 41.6388C105.999 41.6388 81.921 44.0422 80.0032 44.3476Z" fill="#231F29"/>
<path d="M74.4312 64.745H108.796L105.026 32.2013L94.5191 32.4306C94.5191 32.4306 93.1314 45.1709 92.4538 45.2341C87.7798 45.6609 84.4567 46.0328 83.2972 46.0328C80.3538 46.0328 74.4307 57.7098 74.4307 57.7098V64.745H74.4312Z" fill="#808184"/>
<path d="M91.314 56.3814H56.9512V61.8231H91.314V56.3814Z" fill="#808184"/>
<path d="M111.236 31.8439C110.256 27.333 105.026 28.1927 105.026 28.1927L108.622 51.0656H115.487C115.486 51.0651 112.225 36.3884 111.236 31.8439Z" fill="#291112"/>
<path d="M100.222 9.12255C100.736 11.6792 107.31 52.6871 107.31 52.6871L111.235 51.8705C111.235 51.8705 103.586 7.76395 102.988 5.01488C102.389 2.26525 101.247 1.61588 99.6315 1.61588H74.133C70.3723 1.61588 68.0855 3.54778 67.2257 7.03292C66.3664 10.5158 55.3584 46.8791 55.3584 46.8791V60.248L59.2843 60.4729V48.0441C59.2843 48.0441 68.7445 14.2392 69.484 10.9991C70.2219 7.76116 72.189 5.96405 75.4191 5.96405H97.3374C98.7234 5.96405 99.7053 6.56756 100.222 9.12255Z" fill="#A0A2A4"/>
<path d="M118.43 69.5361H74.1338V73.2998H118.43V69.5361Z" fill="#231F29"/>
<path d="M114.015 48.8099C111.727 48.8099 105.025 48.8099 99.7939 48.8099C94.5626 48.8099 90.1498 54.6123 90.1498 54.6123C90.1498 54.6123 89.66 54.6123 86.3908 54.6123C83.1216 54.6123 78.0549 59.1243 78.0549 59.1243H55.3579C55.3579 59.1243 52.2158 59.9242 52.2158 62.6626C52.2158 65.4011 52.2158 70.2996 52.2158 70.2996C52.2158 70.2996 54.8698 62.6626 63.6835 62.9848C72.4973 63.3081 74.1324 69.5087 74.1324 69.5087H118.428C118.428 69.5087 117.121 56.8641 117.121 53.5882C117.122 50.3128 116.304 48.8099 114.015 48.8099Z" fill="#AB2119"/>
<path d="M63.6846 81.5051C68.2831 81.5051 72.0108 77.8315 72.0108 73.2998C72.0108 68.7682 68.2831 65.0945 63.6846 65.0945C59.0862 65.0945 55.3584 68.7682 55.3584 73.2998C55.3584 77.8315 59.0862 81.5051 63.6846 81.5051Z" fill="#0B0310"/>
<path d="M63.6839 78.3796C66.5308 78.3796 68.8386 76.1053 68.8386 73.2998C68.8386 70.4943 66.5308 68.22 63.6839 68.22C60.8371 68.22 58.5293 70.4943 58.5293 73.2998C58.5293 76.1053 60.8371 78.3796 63.6839 78.3796Z" fill="#D0D2D3"/>
<path d="M63.684 74.3156C64.2533 74.3156 64.7147 73.8608 64.7147 73.2998C64.7147 72.7388 64.2533 72.2841 63.684 72.2841C63.1148 72.2841 62.6533 72.7388 62.6533 73.2998C62.6533 73.8608 63.1148 74.3156 63.684 74.3156Z" fill="#A0A2A4"/>
<path d="M67.1364 69.5361C67.7557 70.3751 68.1251 71.4037 68.1251 72.5196C68.1251 75.3257 65.818 77.5982 62.9705 77.5982C61.6407 77.5982 60.434 77.0982 59.5186 76.2832C60.4556 77.5529 61.9704 78.3801 63.6845 78.3801C66.5314 78.3801 68.8386 76.1054 68.8386 73.2998C68.8386 71.8053 68.1791 70.4663 67.1364 69.5361Z" fill="#D0D2D3"/>
<path d="M63.558 61.8231C57.0526 61.8231 51.7793 67.0208 51.7793 73.4301H53.8118C53.8118 68.1261 58.1747 63.826 63.558 63.826C68.9408 63.826 73.3054 68.1261 73.3054 73.4301H75.3373C75.3373 67.0208 70.0641 61.8231 63.558 61.8231Z" fill="#E42729"/>
<path d="M103.706 61.8231C97.2004 61.8231 91.9277 67.0208 91.9277 73.4301H115.486C115.486 67.0208 110.212 61.8231 103.706 61.8231Z" fill="#E42729"/>
<path d="M103.833 81.5051C108.432 81.5051 112.159 77.8315 112.159 73.2998C112.159 68.7682 108.432 65.0945 103.833 65.0945C99.2346 65.0945 95.5068 68.7682 95.5068 73.2998C95.5068 77.8315 99.2346 81.5051 103.833 81.5051Z" fill="#0B0310"/>
<path d="M103.833 78.3796C106.68 78.3796 108.988 76.1053 108.988 73.2998C108.988 70.4943 106.68 68.22 103.833 68.22C100.987 68.22 98.6787 70.4943 98.6787 73.2998C98.6787 76.1053 100.987 78.3796 103.833 78.3796Z" fill="#D0D2D3"/>
<path d="M103.832 74.3156C104.402 74.3156 104.863 73.8608 104.863 73.2998C104.863 72.7388 104.402 72.2841 103.832 72.2841C103.263 72.2841 102.802 72.7388 102.802 73.2998C102.802 73.8608 103.263 74.3156 103.832 74.3156Z" fill="#A0A2A4"/>
<path d="M107.286 69.5361C107.905 70.3751 108.274 71.4037 108.274 72.5196C108.274 75.3257 105.966 77.5982 103.119 77.5982C101.788 77.5982 100.581 77.0982 99.668 76.2832C100.604 77.5529 102.119 78.3801 103.833 78.3801C106.68 78.3801 108.988 76.1054 108.988 73.2998C108.988 71.8053 108.328 70.4663 107.286 69.5361Z" fill="#D0D2D3"/>
<path d="M50.786 71.1336C50.786 71.7186 50.3047 72.1935 49.7099 72.1935C49.1156 72.1935 48.6338 71.7186 48.6338 71.1336C48.6338 70.5463 49.1162 70.0731 49.7099 70.0731C50.3047 70.0731 50.786 70.5463 50.786 71.1336Z" fill="#7E8081"/>
<path d="M46.2027 31.4641H36.1777V50.1763H46.2027V31.4641Z" fill="#D57D42"/>
<path d="M42.4516 31.4641H39.2959V37.0769H42.4516V31.4641Z" fill="#E6D5C6"/>
<path d="M36.178 31.4641H17.6855V50.1763H36.178V31.4641Z" fill="#F8A35A"/>
<path opacity="0.5" d="M18.4111 49.443V32.1985H35.4518L18.4111 49.443Z" fill="#FCD5BF"/>
<path d="M42.7124 31.4641H39.668V36.8694H42.7124V31.4641Z" fill="#E6E7E8"/>
<path d="M34.8452 44.3476H28.0225V45.2347H34.8452V44.3476Z" fill="#703E16"/>
<path d="M34.845 46.0328H30.2256V46.9193H34.845V46.0328Z" fill="#703E16"/>
<path d="M34.6169 47.4529H32.9834V48.8244H34.6169V47.4529Z" stroke="#703E16" stroke-width="0.764" stroke-miterlimit="10" stroke-linecap="round" stroke-linejoin="round"/>
<path d="M32.1063 47.4529H30.4717V48.8244H32.1063V47.4529Z" stroke="#703E16" stroke-width="0.764" stroke-miterlimit="10" stroke-linecap="round" stroke-linejoin="round"/>
<path d="M46.2027 50.1763H36.1777V68.8896H46.2027V50.1763Z" fill="#CA713A"/>
<path d="M42.4516 50.1763H39.2959V55.7913H42.4516V50.1763Z" fill="#E6D5C6"/>
<path d="M36.178 50.1763H17.6855V68.8896H36.178V50.1763Z" fill="#E7934D"/>
<path opacity="0.5" d="M18.4111 68.1557V50.9107H35.4518L18.4111 68.1557Z" fill="#FCD5BF"/>
<path d="M42.7124 50.1763H39.668V55.5822H42.7124V50.1763Z" fill="#E6E7E8"/>
<path d="M34.8452 63.0597H28.0225V63.9457H34.8452V63.0597Z" fill="#703E16"/>
<path d="M34.845 64.745H30.2256V65.632H34.845V64.745Z" fill="#703E16"/>
<path d="M34.6169 66.1651H32.9834V67.5377H34.6169V66.1651Z" stroke="#703E16" stroke-width="0.764" stroke-miterlimit="10" stroke-linecap="round" stroke-linejoin="round"/>
<path d="M32.1063 66.1651H30.4717V67.5377H32.1063V66.1651Z" stroke="#703E16" stroke-width="0.764" stroke-miterlimit="10" stroke-linecap="round" stroke-linejoin="round"/>
<path d="M82.6721 10.909C82.6721 10.909 81.9065 10.3905 81.5063 10.0667C80.3451 9.32447 78.7383 9.62986 78.7383 9.62986C78.7383 9.62986 78.7133 10.0975 79.9501 10.7071C81.1062 11.2782 82.6721 10.909 82.6721 10.909Z" fill="#90180D"/>
<path d="M83.8443 36.295C83.8443 36.295 89.1624 30.2733 90.2884 34.7647C91.1421 38.1648 86.6861 40.6656 86.6861 40.6656L75.1259 43.1769L70.3061 53.9786L67.374 53.7464C67.374 53.7464 70.7301 41.8899 71.5048 40.8211C72.2795 39.7522 83.8443 36.295 83.8443 36.295Z" fill="#7B1E1E"/>
<path d="M72.3447 54.7655C72.4667 55.6498 72.6625 56.5822 71.7425 56.8624C71.2095 57.0252 68.4699 57.4335 67.4874 57.2456C66.9999 57.1533 65.7932 57.0375 65.7399 56.7237C65.6843 56.4088 65.993 55.7734 66.4073 55.7695C67.4488 55.7589 68.4858 55.6716 69.4228 54.6733C69.7469 54.3265 72.4746 54.4741 72.3447 54.7655Z" fill="#2A0000"/>
<path d="M84.2062 22.2303C85.1609 22.2303 87.7785 19.9897 87.7785 19.9897C87.7785 19.9897 87.2649 18.4163 88.1979 17.0499C88.2922 16.9089 87.6298 16.943 86.8449 17.0761C86.7841 17.089 86.7154 17.0957 86.6558 17.1091C86.6479 17.1091 86.6422 17.1091 86.6422 17.1091C86.3244 17.1695 85.9918 17.2423 85.695 17.3301C85.687 17.3301 85.6813 17.3301 85.6813 17.3301C85.0184 17.5096 84.5104 17.7429 84.612 17.9632C84.6387 18.0303 84.6733 18.0958 84.7 18.1573C84.7063 18.1635 84.7136 18.1769 84.7136 18.1836C85.044 18.8973 85.3414 19.4835 85.065 19.8107C84.9969 19.8845 84.9026 19.9432 84.7727 19.9902C84.4492 20.0495 83.251 22.2303 84.2062 22.2303Z" fill="#FAB587"/>
<path d="M84.6254 17.9627C84.6533 18.0298 84.6799 18.0896 84.7004 18.1567C84.7066 18.1629 84.714 18.1763 84.714 18.183C85.0443 18.8967 85.3417 19.4829 85.0653 19.8101C85.5994 19.5897 86.0671 19.2032 86.4042 18.7435C86.7635 18.2434 86.8242 17.6634 86.8446 17.0767C86.7839 17.0896 86.7152 17.0963 86.6556 17.1097C86.6477 17.1097 86.642 17.1097 86.642 17.1097C86.3174 17.1701 85.9916 17.2495 85.6947 17.3306C85.6868 17.3306 85.6811 17.3306 85.6811 17.3306C85.0244 17.5152 84.5238 17.7423 84.6254 17.9627Z" fill="#DD956F"/>
<path d="M90.6603 34.4755H82.7598C82.7598 34.4755 83.0526 31.1353 82.8472 27.8901C82.8472 20.1904 84.7735 19.9896 84.7735 19.9896C84.7735 19.9896 84.8984 20.5294 85.9126 20.5294C87.2668 20.5294 87.7788 19.9896 87.7788 19.9896C87.7788 19.9896 89.0518 20.4125 89.9718 21.1211C91.4106 22.2303 90.6603 34.4755 90.6603 34.4755Z" fill="#F16522"/>
<path d="M82.8472 27.8901C82.8472 26.8229 82.8852 25.9045 82.9482 25.1063H86.6028L86.6561 32.7456L90.7483 32.7053C90.6989 33.735 90.6603 34.4755 90.6603 34.4755H82.7598C82.7598 34.4755 83.0526 31.1358 82.8472 27.8901Z" fill="#B32627"/>
<path d="M81.8674 14.7191C82.0183 18.2138 83.4219 18.8754 85.0429 18.8754C86.4851 18.8754 88.9137 18.1914 88.9137 14.4266C88.9137 10.5633 89.7162 7.69794 85.9578 7.69794C81.1261 7.69738 81.7011 10.8592 81.8674 14.7191Z" fill="#FAB587"/>
<path d="M83.6094 16.08C83.6094 16.08 83.8523 16.7389 84.6826 16.7965C85.2899 16.8379 85.6447 16.0615 85.6447 16.0615L83.6094 16.08Z" fill="white"/>
<path d="M83.6094 16.08C83.7331 16.3736 83.9488 17.0666 84.7173 17.023C85.3206 16.9889 85.5743 16.3636 85.6447 16.0615C85.6447 16.0615 85.4108 16.7864 84.6259 16.7976C84.0294 16.806 83.6094 16.08 83.6094 16.08Z" fill="#DD956F"/>
<path d="M84.3047 14.8131C84.3047 14.8864 84.4999 15.0117 84.8507 15.0117C85.202 15.0117 85.24 14.4261 85.24 14.4261C85.24 14.4261 85.2026 14.7488 84.8507 14.7488C84.4994 14.7493 84.3047 14.741 84.3047 14.8131Z" fill="#CFBEBC"/>
<path d="M82.7585 13.6408C82.9466 13.6408 83.099 13.4875 83.099 13.2985C83.099 13.1094 82.9466 12.9561 82.7585 12.9561C82.5704 12.9561 82.418 13.1094 82.418 13.2985C82.418 13.4875 82.5704 13.6408 82.7585 13.6408Z" fill="#160516"/>
<path d="M82.6916 13.2957C82.7618 13.2957 82.8187 13.2396 82.8187 13.1704C82.8187 13.1012 82.7618 13.0451 82.6916 13.0451C82.6214 13.0451 82.5645 13.1012 82.5645 13.1704C82.5645 13.2396 82.6214 13.2957 82.6916 13.2957Z" fill="white"/>
<path d="M82.6721 14.5116C83.0551 14.5116 83.3657 14.3882 83.3657 14.2359C83.3657 14.0836 83.0551 13.9601 82.6721 13.9601C82.289 13.9601 81.9785 14.0836 81.9785 14.2359C81.9785 14.3882 82.289 14.5116 82.6721 14.5116Z" fill="#F69F89"/>
<path d="M86.6556 13.6408C86.8439 13.6408 86.9967 13.4875 86.9967 13.2985C86.9967 13.1094 86.8439 12.9561 86.6556 12.9561C86.4672 12.9561 86.3145 13.1094 86.3145 13.2985C86.3145 13.4875 86.4672 13.6408 86.6556 13.6408Z" fill="#160516"/>
<path d="M86.7223 13.2985C86.7922 13.2985 86.8488 13.2411 86.8488 13.1704C86.8488 13.0996 86.7922 13.0423 86.7223 13.0423C86.6524 13.0423 86.5957 13.0996 86.5957 13.1704C86.5957 13.2411 86.6524 13.2985 86.7223 13.2985Z" fill="white"/>
<path d="M87.2617 11.8711C87.1516 11.79 87.0097 11.7514 86.8712 11.6971C86.7265 11.6731 86.5761 11.6177 86.4262 11.6479C86.353 11.6669 86.2798 11.6658 86.2196 11.7016C86.1612 11.7391 86.1067 11.7754 86.055 11.8067C85.9523 11.866 86.1459 12.031 86.1918 12.0249C86.2753 12.0008 86.3655 11.9818 86.4728 11.9773C86.5732 11.9427 86.697 11.9566 86.819 11.9482C86.937 11.9729 87.067 11.9829 87.1732 12.0355C87.2884 12.0735 87.3815 11.932 87.2617 11.8711Z" fill="#160516"/>
<path d="M82.2288 11.8711C82.3384 11.79 82.4803 11.7514 82.6193 11.6971C82.7646 11.6731 82.915 11.6177 83.0649 11.6479C83.1369 11.6669 83.2113 11.6658 83.2714 11.7016C83.3293 11.7391 83.3844 11.7754 83.436 11.8067C83.5376 11.866 83.3435 12.031 83.2993 12.0249C83.2158 12.0008 83.1244 11.9818 83.0172 11.9773C82.9173 11.9427 82.793 11.9566 82.6721 11.9482C82.554 11.9729 82.4235 11.9829 82.3179 12.0355C82.2016 12.0735 82.1091 11.932 82.2288 11.8711Z" fill="#160516"/>
<path d="M87.4373 14.2359C87.4373 14.3875 87.1257 14.5116 86.742 14.5116C86.36 14.5116 86.0479 14.3869 86.0479 14.2359C86.0479 14.0838 86.36 13.9601 86.742 13.9601C87.1257 13.9596 87.4373 14.0832 87.4373 14.2359Z" fill="#F69F89"/>
<path d="M81.7648 12.4947C81.7648 12.4947 81.1615 10.1092 81.7563 8.4838C82.3506 6.85841 83.8728 6.4322 85.2395 6.37907C86.613 6.32593 88.6216 6.3992 88.9866 7.33887C91.0587 6.8942 90.1836 13.766 90.1836 13.766C90.1836 13.766 89.2193 12.9058 88.1477 12.6043C89.1126 10.1209 86.4058 9.89497 83.7769 10.0471C81.867 10.1579 81.7648 12.4947 81.7648 12.4947Z" fill="#160516"/>
<path d="M90.3042 14.237C90.2985 14.8411 89.7673 15.8758 88.8921 15.6319C88.2564 15.4552 87.9238 15.1162 87.9238 14.4535C87.9238 13.7895 88.5782 14.5195 88.8263 13.9053C89.1958 12.9897 90.3121 13.341 90.3042 14.237Z" fill="#FAB587"/>
<path d="M88.9863 13.9596C89.1572 13.596 89.5641 12.955 90.1833 13.766C90.2719 12.9276 89.8065 12.2273 89.7157 11.602C89.3655 9.21035 89.3212 11.4376 88.1475 12.6043C89.1952 13.1804 88.3041 14.3645 88.3041 14.3645L88.6668 14.7186C88.6668 14.7191 88.9438 14.2627 88.9863 13.9596Z" fill="#160516"/>
<path d="M82.8669 10.668C85.468 10.7491 90.5177 10.7054 90.5177 10.5399C90.5177 7.23707 88.8087 6.08823 85.9119 6.08823C83.1972 6.08823 81.5711 6.52785 81.3781 9.83793C81.3651 10.0583 82.007 10.2278 82.8669 10.668Z" fill="#EE4632"/>
<path d="M81.8593 10.4851C82.9701 11.3341 85.2398 11.3526 86.0253 11.2144C87.1286 11.0187 87.3176 10.701 87.3176 10.701C87.3176 10.701 84.238 9.91679 82.2895 9.64217C79.8371 9.29762 78.7383 9.63042 78.7383 9.63042C78.7383 9.63042 80.6487 9.55939 81.8593 10.4851Z" fill="#ED332A"/>
<path d="M85.7277 25.4839C85.6857 25.8178 86.285 26.4012 86.2362 25.7753C87.4775 19.8096 88.9861 20.5093 88.9861 20.5093L88.2068 20.1519C88.2068 20.1524 86.1874 20.9819 85.7277 25.4839Z" fill="#B32627"/>
<path d="M82.9846 25.141C82.942 25.4749 83.5419 26.0594 83.4931 25.433C84.0544 20.6155 84.773 19.9896 84.773 19.9896C84.773 19.9896 83.4437 20.6407 82.9846 25.141Z" fill="#B32627"/>
<path d="M73.0885 32.5962C73.3501 32.4301 73.0919 32.1124 72.8683 32.2248C72.5907 32.3647 72.1231 32.5856 71.7655 32.7976C71.4766 32.9676 71.7791 33.4207 72.0612 33.2534C72.3433 33.0868 72.7797 32.7898 73.0885 32.5962Z" fill="#FAB587"/>
<path d="M73.2472 33.0744C73.4851 32.9229 73.2314 32.6012 73.0276 32.703C72.775 32.8283 72.3494 33.023 72.0253 33.2154C71.7648 33.3692 72.0639 33.8239 72.321 33.6718C72.5758 33.5208 72.9691 33.2489 73.2472 33.0744Z" fill="#FAB587"/>
<path d="M73.383 33.49C73.5935 33.3569 73.3745 33.0817 73.1945 33.1729C72.9703 33.2831 72.5946 33.4576 72.3086 33.6276C72.077 33.7646 72.3352 34.1534 72.5611 34.0197C72.7887 33.8849 73.1378 33.6461 73.383 33.49Z" fill="#FAB587"/>
<path d="M72.7322 32.2276C72.9695 32.0772 72.7163 31.7561 72.5126 31.8568C72.26 31.9827 71.8332 32.1779 71.5103 32.3691C71.2486 32.5235 71.5483 32.9777 71.8054 32.8272C72.0602 32.6745 72.4552 32.4033 72.7322 32.2276Z" fill="#FAB587"/>
<path d="M75.8295 35.9566C75.5508 36.2715 75.0655 36.304 74.7471 36.0288L69.3535 31.3875C69.0351 31.1124 69.0028 30.6347 69.2809 30.3203C69.5601 30.0055 70.0454 29.9741 70.3638 30.2488L75.7568 34.8906C76.0758 35.1646 76.107 35.6429 75.8295 35.9566Z" fill="#231F29"/>
<path d="M73.1177 33.8522L71.7549 32.6802L68.5209 36.332L69.8837 37.504L73.1177 33.8522Z" fill="#231F29"/>
<path d="M73.4609 35.1344C73.2299 35.3408 73.5398 35.6126 73.7402 35.4639C73.9904 35.2804 74.4144 34.9862 74.7311 34.7183C74.9865 34.5024 74.6114 34.1058 74.3616 34.3178C74.1108 34.5287 73.7316 34.8933 73.4609 35.1344Z" fill="#FAB587"/>
<path d="M73.2208 34.6898C73.0119 34.8777 73.3167 35.1529 73.4995 35.0192C73.7282 34.8542 74.1159 34.5913 74.4025 34.3486C74.6323 34.1545 74.2612 33.7563 74.0341 33.9475C73.8082 34.1388 73.466 34.4711 73.2208 34.6898Z" fill="#FAB587"/>
<path d="M73.0176 34.3021C72.8326 34.4683 73.0948 34.7037 73.2571 34.5846C73.458 34.4375 73.8003 34.2043 74.0523 33.99C74.2572 33.8161 73.9382 33.476 73.7373 33.6449C73.5375 33.8144 73.2339 34.1081 73.0176 34.3021Z" fill="#FAB587"/>
<path d="M73.8737 35.4387C73.6637 35.6266 73.969 35.9007 74.1524 35.7687C74.38 35.6031 74.7676 35.3408 75.0542 35.0986C75.2847 34.9034 74.9112 34.5052 74.6853 34.6959C74.4589 34.8878 74.116 35.2194 73.8737 35.4387Z" fill="#FAB587"/>
<path d="M76.0184 34.7502C76.0184 34.7502 82.6209 31.524 83.1896 31.0441C84.6488 29.8119 88.9861 24.5543 88.9861 24.5543L86.7652 24.179L82.1475 29.888L75.4377 33.5991L73.7373 33.6449L74.8957 35.225L76.0184 34.7502Z" fill="#FAB587"/>
<path d="M84.9951 26.0527C84.9951 26.0527 87.6167 21.921 87.833 21.5669C88.6599 20.2212 90.5204 21.3868 90.1543 22.581C90.0033 23.0732 87.3556 27.7704 87.3556 27.7704L84.9951 26.0527Z" fill="#F05A22"/>
<path d="M82.1732 37.5065L82.7601 34.4756C83.0671 32.0442 90.1935 32.3882 90.6606 34.4756C91.1294 36.5635 90.6606 40.0856 88.148 40.8267C85.0332 41.7473 81.3616 42.8089 76.7904 44.243L72.6908 54.6721H69.1855C69.1855 54.6721 72.2969 43.1227 72.9531 41.5851C73.6092 40.0475 82.1732 37.5065 82.1732 37.5065Z" fill="#B32627"/>
<path d="M19.6806 19.2525C19.6806 19.2525 21.977 26.8179 21.5894 27.5735C20.8663 28.9813 18.1232 31.4463 18.1232 31.4463L16.2764 29.9948L19.2073 26.8134L18.6159 19.7195L19.6806 19.2525Z" fill="#FAB587"/>
<path d="M16.7542 28.936C14.8659 30.5681 12.4793 33.061 12.158 33.4134C10.9599 34.7256 13.8596 35.7732 14.7257 35.0237C15.1741 34.6361 16.8053 33.0677 18.8224 31.2589L16.7542 28.936Z" fill="#F05A22"/>
<path d="M19.9742 17.1824C20.1195 17.881 19.6802 19.2525 19.6802 19.2525L18.6155 19.7195C18.6155 19.7195 17.8907 18.626 17.7726 18.0667C17.6937 17.6886 19.8289 16.4827 19.9742 17.1824Z" fill="#FAB587"/>
<path d="M28.4291 17.7617L20.5898 15.5416L15.496 33.0092L23.3352 35.2293L28.4291 17.7617Z" fill="#D57D42"/>
<path d="M25.4992 16.9305L23.0303 16.2313L21.502 21.472L23.9709 22.1712L25.4992 16.9305Z" fill="#E6D5C6"/>
<path d="M20.5896 15.5417L6.13086 11.4469L1.03703 28.9145L15.4958 33.0093L20.5896 15.5417Z" fill="#F8A35A"/>
<path opacity="0.5" d="M1.80371 28.3912L6.49693 12.2917L19.8245 16.0654L1.80371 28.3912Z" fill="#FCD5BF"/>
<path d="M25.7011 16.9874L23.3184 16.3129L21.8474 21.359L24.2301 22.0336L25.7011 16.9874Z" fill="#E6E7E8"/>
<path d="M16.0436 27.2703L10.707 25.7596L10.4655 26.5879L15.8021 28.0987L16.0436 27.2703Z" fill="#703E16"/>
<path d="M15.5839 28.8484L11.9717 27.8246L11.7301 28.6525L15.3423 29.6762L15.5839 28.8484Z" fill="#703E16"/>
<path d="M15.0218 30.1207L13.7432 29.7586L13.3694 31.0402L14.6481 31.4023L15.0218 30.1207Z" stroke="#703E16" stroke-width="0.6791" stroke-miterlimit="10" stroke-linecap="round" stroke-linejoin="round"/>
<path d="M13.0549 29.5646L11.7783 29.2035L11.4052 30.4846L12.6817 30.8457L13.0549 29.5646Z" stroke="#703E16" stroke-width="0.6791" stroke-miterlimit="10" stroke-linecap="round" stroke-linejoin="round"/>
<path d="M15.5293 21.9887C15.5293 21.9887 16.4085 21.3947 16.8682 21.0221C18.1986 20.1714 20.042 20.521 20.042 20.521C20.042 20.521 20.0687 21.0574 18.6515 21.7571C17.3256 22.4126 15.5293 21.9887 15.5293 21.9887Z" fill="#90180D"/>
<path d="M12.0386 80.863C11.954 81.8815 11.7883 82.9627 12.857 83.2289C13.4802 83.3833 16.7471 83.5214 17.8806 83.3369C18.6928 83.2049 19.6849 83.0712 19.7263 82.7082C19.7694 82.3452 19.3778 81.6348 18.9016 81.6555C17.7075 81.707 16.5156 81.669 15.381 80.5816C14.9882 80.2052 11.8729 80.5369 12.0386 80.863Z" fill="#010000"/>
<path d="M15.3602 52.3118C15.3602 52.3118 8.0851 44.2011 6.79162 49.3519C5.81256 53.252 10.9235 56.1208 10.9235 56.1208L12.5695 66.5421L11.2181 80.8831L15.3806 80.5828L16.7524 66.1595L15.3602 52.3118Z" fill="#7B1E1E"/>
<path d="M2.35188 80.4139C2.03291 81.3882 1.45286 82.7529 2.43305 83.2524C3.00288 83.5427 6.01042 84.5473 7.15918 84.531C7.72902 84.5232 9.11559 84.6328 9.24045 84.2894C9.36588 83.9454 9.14907 83.1657 8.68197 83.0779C7.5071 82.8603 6.35494 82.5555 5.50132 81.2417C5.20675 80.7875 2.26505 80.0592 2.35188 80.4139Z" fill="#2A0000"/>
<path d="M12.8307 57.3955C12.8307 57.3955 16 54.4003 15.4739 50.2563C15.1214 47.4681 7.01712 47.7606 6.47963 50.1556C5.94215 52.5501 7.29977 57.4587 7.29977 57.4587L7.33325 68.1831L1.81934 80.4139L6.10504 81.3065L11.7103 68.884L12.8307 57.3955Z" fill="#B32627"/>
<path d="M13.7702 34.9744C12.6748 34.9744 9.67178 32.4049 9.67178 32.4049C9.67178 32.4049 10.2604 30.5989 9.18992 29.0316C9.08208 28.8717 9.84205 28.9092 10.7422 29.0624C10.8126 29.0775 10.8898 29.0853 10.9596 29.1004C10.9675 29.1004 10.9749 29.1004 10.9749 29.1004C11.3404 29.1692 11.7201 29.2531 12.0612 29.3533C12.0692 29.3533 12.0766 29.3533 12.0766 29.3533C12.8371 29.5591 13.4189 29.8276 13.3025 30.0798C13.2724 30.1559 13.2338 30.2331 13.2026 30.3013C13.1941 30.3086 13.1862 30.3237 13.1862 30.3321C12.8065 31.1504 12.4648 31.8232 12.7832 32.1974C12.8604 32.2824 12.9694 32.3512 13.1169 32.4049C13.4909 32.4732 14.8645 34.9744 13.7702 34.9744Z" fill="#FAB587"/>
<path d="M13.2893 30.0798C13.2586 30.1559 13.2268 30.2253 13.2041 30.3013C13.1956 30.3086 13.1877 30.3237 13.1877 30.3321C12.808 31.1504 12.4663 31.8232 12.7847 32.1974C12.1712 31.9457 11.6359 31.5022 11.2477 30.9747C10.8374 30.4003 10.7664 29.7347 10.7432 29.0619C10.8135 29.077 10.8907 29.0848 10.9605 29.0999C10.9685 29.0999 10.9759 29.0999 10.9759 29.0999C11.3482 29.1687 11.7211 29.2604 12.0622 29.3527C12.0701 29.3527 12.0775 29.3527 12.0775 29.3527C12.8307 29.5669 13.4051 29.8276 13.2893 30.0798Z" fill="#DD956F"/>
<path d="M6.47928 50.1556L15.4735 50.2563C15.4735 50.2563 15.0921 45.1883 15.3288 41.466C15.3288 32.6354 13.1175 32.4049 13.1175 32.4049C13.1175 32.4049 12.9768 33.023 11.811 33.023C10.2598 33.023 9.67128 32.4049 9.67128 32.4049C9.67128 32.4049 8.21092 32.8899 7.15582 33.7026C5.50647 34.9756 6.47928 50.1556 6.47928 50.1556Z" fill="#F16522"/>
<path d="M15.3285 41.466C15.3285 40.2427 15.2843 39.189 15.2111 38.2733H11.019V48.2164H6.37402C6.43021 49.3966 6.37402 50.8905 6.37402 50.8905L15.4727 50.6064C15.4733 50.607 15.0919 45.1888 15.3285 41.466Z" fill="#B32627"/>
<path d="M16.4527 26.3592C16.2784 30.3673 14.6688 31.1258 12.8112 31.1258C11.1561 31.1258 8.37052 30.341 8.37052 26.0225C8.37052 21.5915 7.44992 18.305 11.7617 18.305C17.304 18.3055 16.6434 21.9316 16.4527 26.3592Z" fill="#FAB587"/>
<path d="M14.4534 27.9197C14.4534 27.9197 14.1758 28.6754 13.2223 28.7414C12.5259 28.7889 12.1201 27.8973 12.1201 27.8973L14.4534 27.9197Z" fill="white"/>
<path d="M14.4534 27.9197C14.3121 28.2575 14.0646 29.0512 13.1826 29.0009C12.489 28.9623 12.1996 28.2447 12.1201 27.8973C12.1201 27.8973 12.388 28.7296 13.2876 28.743C13.9727 28.7537 14.4534 27.9197 14.4534 27.9197Z" fill="#DD956F"/>
<path d="M13.6578 26.4677C13.6578 26.55 13.4331 26.6948 13.0312 26.6948C12.6288 26.6948 12.584 26.0231 12.584 26.0231C12.584 26.0231 12.6288 26.3933 13.0312 26.3933C13.4325 26.3933 13.6578 26.3838 13.6578 26.4677Z" fill="#CFBEBC"/>
<path d="M15.4301 25.1226C15.6461 25.1226 15.8212 24.9463 15.8212 24.7288C15.8212 24.5113 15.6461 24.335 15.4301 24.335C15.2141 24.335 15.0391 24.5113 15.0391 24.7288C15.0391 24.9463 15.2141 25.1226 15.4301 25.1226Z" fill="#160516"/>
<path d="M15.5062 24.7265C15.5868 24.7265 15.6521 24.6622 15.6521 24.5828C15.6521 24.5034 15.5868 24.4391 15.5062 24.4391C15.4257 24.4391 15.3604 24.5034 15.3604 24.5828C15.3604 24.6622 15.4257 24.7265 15.5062 24.7265Z" fill="white"/>
<path d="M15.5301 26.1204C15.9696 26.1204 16.3258 25.9791 16.3258 25.8049C16.3258 25.6307 15.9696 25.4894 15.5301 25.4894C15.0906 25.4894 14.7344 25.6307 14.7344 25.8049C14.7344 25.9791 15.0906 26.1204 15.5301 26.1204Z" fill="#F69F89"/>
<path d="M10.9598 25.1226C11.1755 25.1226 11.3503 24.9463 11.3503 24.7288C11.3503 24.5113 11.1755 24.335 10.9598 24.335C10.7442 24.335 10.5693 24.5113 10.5693 24.7288C10.5693 24.9463 10.7442 25.1226 10.9598 25.1226Z" fill="#160516"/>
<path d="M10.8832 24.7265C10.9637 24.7265 11.029 24.6622 11.029 24.5828C11.029 24.5034 10.9637 24.4391 10.8832 24.4391C10.8026 24.4391 10.7373 24.5034 10.7373 24.5828C10.7373 24.6622 10.8026 24.7265 10.8832 24.7265Z" fill="white"/>
<path d="M10.2651 23.0933C10.3923 23.0005 10.5551 22.9557 10.7135 22.8942C10.8787 22.8662 11.0518 22.8025 11.2237 22.8377C11.3066 22.8584 11.3917 22.8578 11.4616 22.8976C11.528 22.9412 11.591 22.9809 11.6494 23.0189C11.7663 23.0877 11.5439 23.2768 11.4933 23.269C11.3969 23.2399 11.2936 23.2197 11.1704 23.2153C11.0563 23.1744 10.9139 23.1906 10.7742 23.1806C10.638 23.2097 10.4882 23.2197 10.3673 23.2813C10.2339 23.3249 10.1283 23.1621 10.2651 23.0933Z" fill="#160516"/>
<path d="M16.038 23.0933C15.9109 23.0005 15.7485 22.9557 15.5902 22.8942C15.4227 22.8662 15.2508 22.8025 15.0788 22.8377C14.9954 22.8584 14.9108 22.8578 14.8416 22.8976C14.7746 22.9412 14.7116 22.9809 14.6537 23.0189C14.5368 23.0877 14.7587 23.2768 14.8098 23.269C14.9051 23.2399 15.009 23.2197 15.1322 23.2153C15.2468 23.1744 15.3881 23.1906 15.5277 23.1806C15.6645 23.2097 15.8138 23.2197 15.9341 23.2813C16.0686 23.3249 16.1753 23.1621 16.038 23.0933Z" fill="#160516"/>
<path d="M10.8592 26.1204C11.2987 26.1204 11.6549 25.9791 11.6549 25.8049C11.6549 25.6307 11.2987 25.4894 10.8592 25.4894C10.4197 25.4894 10.0635 25.6307 10.0635 25.8049C10.0635 25.9791 10.4197 26.1204 10.8592 26.1204Z" fill="#F69F89"/>
<path d="M16.5705 23.8076C16.5705 23.8076 17.2618 21.0719 16.5807 19.2072C15.899 17.3424 14.1543 16.8541 12.5839 16.7931C11.0089 16.7327 8.70456 16.8161 8.28797 17.8944C5.90986 17.3854 6.91332 25.2663 6.91332 25.2663C6.91332 25.2663 8.01951 24.2802 9.24886 23.9346C8.14097 21.0848 11.2461 20.8253 14.2616 21.0009C16.453 21.1273 16.5705 23.8076 16.5705 23.8076Z" fill="#160516"/>
<path d="M6.77544 25.806C6.78112 26.499 7.39069 27.6854 8.39528 27.4051C9.12347 27.2021 9.50488 26.8134 9.50488 26.0533C9.50488 25.2931 8.75399 26.1299 8.46907 25.4246C8.04623 24.3758 6.7658 24.778 6.77544 25.806Z" fill="#FAB587"/>
<path d="M8.28768 25.4889C8.09187 25.0711 7.62476 24.335 6.91303 25.2663C6.812 24.3048 7.34665 23.5022 7.45108 22.784C7.85179 20.0411 7.90287 22.5961 9.24857 23.9346C8.04703 24.5951 9.06808 25.9532 9.06808 25.9532L8.65433 26.3598C8.65433 26.3592 8.33535 25.8363 8.28768 25.4889Z" fill="#160516"/>
<path d="M15.3052 21.7123C12.3232 21.8046 6.52832 21.756 6.52832 21.5641C6.52832 17.777 8.48927 16.4581 11.8112 16.4581C14.9261 16.4581 16.7911 16.9615 17.0124 20.7598C17.0272 21.0132 16.291 21.2067 15.3052 21.7123Z" fill="#EE4632"/>
<path d="M16.4605 21.5026C15.188 22.4753 12.5828 22.4988 11.6821 22.3382C10.417 22.1134 10.2002 21.7498 10.2002 21.7498C10.2002 21.7498 13.7322 20.8504 15.9667 20.535C18.7801 20.1395 20.0418 20.5216 20.0418 20.5216C20.0418 20.5216 17.8493 20.441 16.4605 21.5026Z" fill="#ED332A"/>
<path d="M12.0228 38.7063C12.0717 39.0888 11.3832 39.7589 11.4399 39.0413C10.0171 32.198 8.28711 33.0017 8.28711 33.0017L9.17933 32.5912C9.17933 32.5906 11.4961 33.5426 12.0228 38.7063Z" fill="#B32627"/>
<path d="M15.1711 38.3136C15.2199 38.6962 14.5303 39.3657 14.5876 38.6487C13.9445 33.1214 13.1182 32.4049 13.1182 32.4049C13.1182 32.4049 14.6438 33.1511 15.1711 38.3136Z" fill="#B32627"/>
<path d="M19.1769 15.911C19.0946 16.2534 18.6473 16.0984 18.6871 15.8165C18.7359 15.4675 18.8011 14.8847 18.8999 14.4227C18.9777 14.0513 19.5895 14.2023 19.5129 14.5676C19.4351 14.9317 19.2739 15.5095 19.1769 15.911Z" fill="#FAB587"/>
<path d="M19.7638 15.9021C19.6883 16.2125 19.2388 16.0621 19.2734 15.8076C19.316 15.4899 19.3693 14.9608 19.4578 14.5435C19.5282 14.2073 20.1418 14.3556 20.0708 14.6867C20.0021 15.0161 19.8517 15.5397 19.7638 15.9021Z" fill="#FAB587"/>
<path d="M20.2726 15.8887C20.2051 16.1639 19.8197 16.0347 19.8515 15.8076C19.8889 15.5274 19.9377 15.0592 20.0172 14.69C20.0802 14.3914 20.6046 14.5195 20.5428 14.8114C20.4798 15.1039 20.3498 15.5676 20.2726 15.8887Z" fill="#FAB587"/>
<path d="M18.6381 15.6705C18.5626 15.9821 18.1148 15.8316 18.1483 15.5771C18.1903 15.2594 18.2436 14.7303 18.3322 14.3136C18.4031 13.9758 19.0155 14.1251 18.9463 14.4551C18.877 14.7846 18.7283 15.3087 18.6381 15.6705Z" fill="#FAB587"/>
<path d="M22.1445 34.9113C22.1445 34.9113 17.4223 42.4319 15.8706 43.0377C14.887 43.4214 8.72266 37.9064 8.72266 37.9064L9.89298 35.9745L15.6765 40.7747L21.6337 33.4005L22.8664 32.5906L23.5384 34.772L22.1445 34.9113Z" fill="#FAB587"/>
<path d="M12.9587 38.5194C12.9587 38.5194 10.1561 34.7753 9.60893 34.2149C8.36538 32.9447 6.53838 34.0544 7.00947 35.6859C7.17349 36.2531 10.8349 40.5045 10.8349 40.5045L12.9587 38.5194Z" fill="#F05A22"/>
<path d="M24.2562 33.787C24.6081 33.8581 24.4634 34.3039 24.1762 34.2725C23.8198 34.2362 23.2267 34.1881 22.7567 34.1047C22.3759 34.0387 22.511 33.4319 22.8844 33.4968C23.2562 33.5616 23.847 33.7037 24.2562 33.787Z" fill="#FAB587"/>
<path d="M24.2312 33.2098C24.5485 33.2747 24.41 33.7222 24.1495 33.6953C23.8271 33.6634 23.2896 33.6271 22.8617 33.5516C22.5194 33.4917 22.6506 32.8843 22.9894 32.943C23.326 33.0017 23.8612 33.1343 24.2312 33.2098Z" fill="#FAB587"/>
<path d="M24.2018 32.7098C24.4833 32.7674 24.3629 33.15 24.1337 33.1259C23.8465 33.0968 23.3708 33.0633 22.9945 32.9962C22.6892 32.9436 22.8038 32.4228 23.1018 32.4743C23.4004 32.5274 23.8731 32.6427 24.2018 32.7098Z" fill="#FAB587"/>
<path d="M24.0294 34.3251C24.3473 34.3889 24.2082 34.8369 23.9489 34.8112C23.6259 34.7782 23.0879 34.7418 22.6616 34.6669C22.3171 34.6065 22.4505 33.999 22.7876 34.0578C23.1259 34.1171 23.66 34.2479 24.0294 34.3251Z" fill="#FAB587"/>
<path d="M132.861 19.206C132.861 19.206 133.751 18.6036 134.218 18.2261C135.567 17.3642 137.436 17.7193 137.436 17.7193C137.436 17.7193 137.464 18.2625 136.026 18.9717C134.682 19.6361 132.861 19.206 132.861 19.206Z" fill="#90180D"/>
<path d="M140.757 43.8134C140.757 43.8134 132.758 42.4179 132.239 41.7283C131.276 40.4429 130.26 36.87 130.26 36.87L132.435 35.8833L134.023 39.9485L140.814 42.65L140.757 43.8134Z" fill="#FAB587"/>
<path d="M133.19 36.7934C132.55 34.3648 131.344 31.0995 131.168 30.652C130.508 28.9858 128.224 31.0967 128.518 32.2103C128.67 32.7892 129.369 34.9577 130.115 37.5814L133.19 36.7934Z" fill="#F05A22"/>
<path d="M142.901 45.1491C142.193 44.9606 140.757 43.8134 140.757 43.8134L140.814 42.6506C140.814 42.6506 142.159 42.4683 142.716 42.6506C143.271 42.8346 143.611 45.3381 142.901 45.1491Z" fill="#FAB587"/>
<path d="M127.035 79.6727C126.772 80.6767 126.417 81.7271 127.438 82.1763C128.033 82.4363 131.273 83.1305 132.437 83.14C133.273 83.1461 134.286 83.1814 134.392 82.8262C134.498 82.471 134.231 81.6947 133.752 81.6337C132.55 81.4821 131.367 81.2411 130.424 79.9619C130.096 79.5172 126.927 79.3181 127.035 79.6727Z" fill="#010000"/>
<path d="M132.69 49.9453C132.69 49.9453 125.332 41.7283 124.004 46.9451C122.646 52.2838 124.752 57.0464 124.752 57.0464L127.361 64.7902C128.159 70.4551 127.036 79.6727 127.036 79.6727L131.048 80.3685L132.186 64.7897L132.69 49.9453Z" fill="#7B1E1E"/>
<path d="M124.005 80.6073C123.667 81.5906 123.235 82.6125 124.222 83.1332C124.795 83.4358 127.828 84.4969 128.994 84.4969C129.571 84.4969 130.975 84.6278 131.107 84.2815C131.239 83.9353 131.03 83.1405 130.557 83.046C129.37 82.8088 128.207 82.4833 127.361 81.1398C127.068 80.6739 123.921 80.2466 124.005 80.6073Z" fill="#2A0000"/>
<path d="M130.125 55.0989C130.125 55.0989 133.338 52.0618 132.805 47.8624C132.447 45.0355 124.232 45.3331 123.687 47.76C123.143 50.1886 124.225 58.0068 124.225 58.0068L125.536 66.405L123.687 80.5967L127.955 81.5901L130.52 66.1466L130.125 55.0989Z" fill="#B32627"/>
<path d="M131.078 32.3708C129.968 32.3708 126.923 29.7655 126.923 29.7655C126.923 29.7655 127.522 27.9359 126.436 26.3463C126.327 26.1836 127.097 26.2227 128.009 26.3776C128.08 26.3927 128.159 26.4006 128.23 26.4168C128.238 26.4168 128.246 26.4168 128.246 26.4168C128.615 26.4862 129 26.5712 129.346 26.6724C129.356 26.6724 129.363 26.6724 129.363 26.6724C130.132 26.8816 130.724 27.1523 130.605 27.409C130.574 27.4862 130.535 27.5628 130.503 27.6328C130.494 27.6412 130.487 27.6563 130.487 27.6641C130.102 28.4936 129.755 29.1759 130.077 29.5568C130.157 29.6419 130.267 29.7118 130.417 29.7655C130.794 29.8354 132.187 32.3708 131.078 32.3708Z" fill="#FAB587"/>
<path d="M130.589 27.4085C130.557 27.4857 130.526 27.5556 130.503 27.6322C130.494 27.6406 130.487 27.6557 130.487 27.6635C130.101 28.493 129.755 29.1754 130.077 29.5563C129.456 29.3001 128.913 28.8499 128.52 28.3146C128.103 27.7334 128.031 27.0583 128.009 26.3765C128.08 26.3916 128.159 26.3995 128.229 26.4157C128.237 26.4157 128.245 26.4157 128.245 26.4157C128.622 26.485 128.999 26.5784 129.345 26.6713C129.355 26.6713 129.362 26.6713 129.362 26.6713C130.125 26.8889 130.707 27.1517 130.589 27.4085Z" fill="#DD956F"/>
<path d="M123.687 47.76L132.805 47.8624C132.805 47.8624 132.417 42.7255 132.658 38.9518C132.658 29.9987 130.416 29.7649 130.416 29.7649C130.416 29.7649 130.273 30.3919 129.093 30.3919C127.519 30.3919 126.922 29.7649 126.922 29.7649C126.922 29.7649 125.443 30.2571 124.373 31.081C122.7 32.3708 123.687 47.76 123.687 47.76Z" fill="#F16522"/>
<path d="M132.658 38.9518C132.658 37.7101 132.613 36.6423 132.539 35.7144H128.289V45.7945H123.58C123.637 46.9915 123.58 48.5061 123.58 48.5061L132.805 48.2169C132.805 48.2175 132.418 42.7255 132.658 38.9518Z" fill="#B32627"/>
<path d="M133.797 23.6364C133.622 27.7004 131.989 28.4701 130.105 28.4701C128.429 28.4701 125.603 27.6736 125.603 23.2963C125.603 18.8044 124.67 15.4725 129.04 15.4725C134.66 15.4725 133.991 19.149 133.797 23.6364Z" fill="#FAB587"/>
<path d="M131.769 25.2193C131.769 25.2193 131.488 25.985 130.522 26.051C129.816 26.1002 129.404 25.1964 129.404 25.1964L131.769 25.2193Z" fill="white"/>
<path d="M131.769 25.2193C131.626 25.5605 131.376 26.3659 130.482 26.315C129.779 26.2753 129.484 25.5476 129.404 25.1964C129.404 25.1964 129.676 26.0393 130.587 26.0533C131.282 26.0639 131.769 25.2193 131.769 25.2193Z" fill="#DD956F"/>
<path d="M130.964 23.7461C130.964 23.8305 130.737 23.9765 130.328 23.9765C129.92 23.9765 129.875 23.2964 129.875 23.2964C129.875 23.2964 129.92 23.6717 130.328 23.6717C130.737 23.6717 130.964 23.6616 130.964 23.7461Z" fill="#CFBEBC"/>
<path d="M132.759 22.383C132.978 22.383 133.156 22.2044 133.156 21.9842C133.156 21.7639 132.978 21.5854 132.759 21.5854C132.541 21.5854 132.363 21.7639 132.363 21.9842C132.363 22.2044 132.541 22.383 132.759 22.383Z" fill="#160516"/>
<path d="M132.837 21.9848C132.919 21.9848 132.985 21.9181 132.985 21.836C132.985 21.7538 132.919 21.6872 132.837 21.6872C132.756 21.6872 132.689 21.7538 132.689 21.836C132.689 21.9181 132.756 21.9848 132.837 21.9848Z" fill="white"/>
<path d="M132.86 23.3948C133.306 23.3948 133.667 23.2513 133.667 23.0743C133.667 22.8973 133.306 22.7538 132.86 22.7538C132.415 22.7538 132.054 22.8973 132.054 23.0743C132.054 23.2513 132.415 23.3948 132.86 23.3948Z" fill="#F69F89"/>
<path d="M128.228 22.383C128.447 22.383 128.624 22.2044 128.624 21.9842C128.624 21.7639 128.447 21.5854 128.228 21.5854C128.009 21.5854 127.832 21.7639 127.832 21.9842C127.832 22.2044 128.009 22.383 128.228 22.383Z" fill="#160516"/>
<path d="M128.15 21.9848C128.232 21.9848 128.298 21.9181 128.298 21.836C128.298 21.7538 128.232 21.6872 128.15 21.6872C128.069 21.6872 128.003 21.7538 128.003 21.836C128.003 21.9181 128.069 21.9848 128.15 21.9848Z" fill="white"/>
<path d="M127.524 20.3258C127.653 20.2307 127.818 20.186 127.979 20.1233C128.146 20.0948 128.322 20.0305 128.496 20.0657C128.581 20.0875 128.666 20.0858 128.737 20.1272C128.804 20.1703 128.868 20.2117 128.928 20.2503C129.046 20.3191 128.821 20.5115 128.769 20.5037C128.671 20.4746 128.568 20.4533 128.442 20.4488C128.326 20.408 128.183 20.4242 128.04 20.4142C127.903 20.4438 127.751 20.4533 127.627 20.516C127.492 20.5601 127.385 20.3951 127.524 20.3258Z" fill="#160516"/>
<path d="M133.377 20.3258C133.248 20.2307 133.083 20.186 132.922 20.1233C132.753 20.0948 132.579 20.0305 132.404 20.0657C132.321 20.0875 132.234 20.0858 132.163 20.1272C132.096 20.1703 132.032 20.2117 131.973 20.2503C131.854 20.3191 132.078 20.5115 132.131 20.5037C132.228 20.4746 132.332 20.4533 132.458 20.4488C132.574 20.408 132.718 20.4242 132.86 20.4142C132.998 20.4438 133.149 20.4533 133.273 20.516C133.407 20.5601 133.515 20.3951 133.377 20.3258Z" fill="#160516"/>
<path d="M128.126 23.3948C128.572 23.3948 128.934 23.2513 128.934 23.0743C128.934 22.8973 128.572 22.7538 128.126 22.7538C127.681 22.7538 127.319 22.8973 127.319 23.0743C127.319 23.2513 127.681 23.3948 128.126 23.3948Z" fill="#F69F89"/>
<path d="M133.917 21.0501C133.917 21.0501 134.618 18.277 133.926 16.3865C133.235 14.496 131.466 14.0004 129.875 13.9389C128.279 13.8774 125.943 13.9629 125.521 15.0553C123.109 14.539 124.126 22.5284 124.126 22.5284C124.126 22.5284 125.248 21.5283 126.495 21.1776C125.371 18.2898 128.52 18.027 131.576 18.2043C133.798 18.3335 133.917 21.0501 133.917 21.0501Z" fill="#160516"/>
<path d="M123.987 23.0754C123.994 23.7779 124.611 24.9816 125.63 24.6963C126.369 24.4911 126.757 24.0978 126.757 23.3271C126.757 22.5552 125.994 23.4032 125.705 22.6884C125.276 21.6262 123.979 22.0345 123.987 23.0754Z" fill="#FAB587"/>
<path d="M125.521 22.7532C125.32 22.3304 124.848 21.5848 124.126 22.529C124.023 21.5541 124.565 20.7402 124.672 20.0131C125.079 17.231 125.131 19.8207 126.495 21.1782C125.276 21.8477 126.311 23.2253 126.311 23.2253L125.891 23.6364C125.891 23.6364 125.568 23.1067 125.521 22.7532Z" fill="#160516"/>
<path d="M132.634 18.9258C129.61 19.0198 123.736 18.9694 123.736 18.7753C123.736 14.9356 125.725 13.5994 129.093 13.5994C132.25 13.5994 134.14 14.1106 134.365 17.961C134.379 18.2171 133.634 18.4135 132.634 18.9258Z" fill="#EE4632"/>
<path d="M133.806 18.7138C132.516 19.6999 129.874 19.7228 128.962 19.5606C127.679 19.3335 127.46 18.9644 127.46 18.9644C127.46 18.9644 131.04 18.0521 133.305 17.7339C136.158 17.3323 137.437 17.7205 137.437 17.7205C137.437 17.7205 135.213 17.6366 133.806 18.7138Z" fill="#ED332A"/>
<path d="M183.585 81.1818C183.585 82.6254 182.397 83.7961 180.931 83.7961C180.377 83.7961 180.034 83.7961 180.034 83.7961C180.034 83.7961 179.466 78.5664 180.931 78.5664C182.398 78.5664 183.585 79.7376 183.585 81.1818Z" fill="#140F19"/>
<path d="M180.035 83.7971C181.501 83.7971 182.689 82.6264 182.689 81.1822C182.689 79.7381 181.501 78.5674 180.035 78.5674C178.57 78.5674 177.382 79.7381 177.382 81.1822C177.382 82.6264 178.57 83.7971 180.035 83.7971Z" fill="#2D2932"/>
<path d="M180.036 82.669C180.869 82.669 181.545 82.0032 181.545 81.1818C181.545 80.3604 180.869 79.6945 180.036 79.6945C179.202 79.6945 178.526 80.3604 178.526 81.1818C178.526 82.0032 179.202 82.669 180.036 82.669Z" fill="#9C9EA1"/>
<path d="M180.246 82.4621C179.412 82.4621 178.738 81.7965 178.738 80.9754C178.738 80.6141 178.872 80.2886 179.09 80.0313C178.748 80.3037 178.526 80.7153 178.526 81.1824C178.526 82.0023 179.202 82.669 180.034 82.669C180.502 82.669 180.916 82.4548 181.193 82.1248C180.933 82.3334 180.605 82.4621 180.246 82.4621Z" fill="#6D6E70"/>
<path d="M155.941 80.4726C155.941 81.9156 154.754 83.0868 153.288 83.0868C152.734 83.0868 152.391 83.0868 152.391 83.0868C152.391 83.0868 151.822 77.8572 153.288 77.8572C154.754 77.8577 155.941 79.0278 155.941 80.4726Z" fill="#140F19"/>
<path d="M152.392 83.0877C153.857 83.0877 155.045 81.9173 155.045 80.4735C155.045 79.0296 153.857 77.8592 152.392 77.8592C150.927 77.8592 149.739 79.0296 149.739 80.4735C149.739 81.9173 150.927 83.0877 152.392 83.0877Z" fill="#2D2932"/>
<path d="M153.902 80.4725C153.902 81.2931 153.226 81.9587 152.391 81.9587C151.559 81.9587 150.883 81.2931 150.883 80.4725C150.883 79.6509 151.559 78.9847 152.391 78.9847C153.226 78.9847 153.902 79.6515 153.902 80.4725Z" fill="#9C9EA1"/>
<path d="M152.604 81.754C151.769 81.754 151.095 81.0873 151.095 80.2673C151.095 79.906 151.23 79.5799 151.446 79.3232C151.106 79.595 150.883 80.0067 150.883 80.4737C150.883 81.2942 151.559 81.9598 152.391 81.9598C152.859 81.9598 153.272 81.7462 153.55 81.4162C153.29 81.6237 152.962 81.754 152.604 81.754Z" fill="#6D6E70"/>
<path d="M152.84 81.1818C152.84 82.6254 151.651 83.7961 150.187 83.7961C149.632 83.7961 149.29 83.7961 149.29 83.7961C149.29 83.7961 148.722 78.5664 150.187 78.5664C151.651 78.5664 152.84 79.7376 152.84 81.1818Z" fill="#140F19"/>
<path d="M149.29 83.797C150.755 83.797 151.942 82.6265 151.942 81.1827C151.942 79.7389 150.755 78.5684 149.29 78.5684C147.824 78.5684 146.637 79.7389 146.637 81.1827C146.637 82.6265 147.824 83.797 149.29 83.797Z" fill="#2D2932"/>
<path d="M149.29 82.6696C150.124 82.6696 150.8 82.0035 150.8 81.1818C150.8 80.3601 150.124 79.694 149.29 79.694C148.456 79.694 147.78 80.3601 147.78 81.1818C147.78 82.0035 148.456 82.6696 149.29 82.6696Z" fill="#9C9EA1"/>
<path d="M149.502 82.4621C148.668 82.4621 147.992 81.7965 147.992 80.9754C147.992 80.6141 148.128 80.2886 148.345 80.0313C148.004 80.3037 147.781 80.7153 147.781 81.1824C147.781 82.0023 148.458 82.669 149.29 82.669C149.758 82.669 150.171 82.4548 150.448 82.1248C150.189 82.3334 149.861 82.4621 149.502 82.4621Z" fill="#6D6E70"/>
<path d="M180.483 81.1818C180.483 82.6254 179.295 83.7961 177.831 83.7961C177.275 83.7961 176.934 83.7961 176.934 83.7961C176.934 83.7961 176.365 78.5664 177.831 78.5664C179.295 78.5664 180.483 79.7376 180.483 81.1818Z" fill="#140F19"/>
<path d="M176.934 83.797C178.399 83.797 179.587 82.6265 179.587 81.1827C179.587 79.7389 178.399 78.5684 176.934 78.5684C175.469 78.5684 174.281 79.7389 174.281 81.1827C174.281 82.6265 175.469 83.797 176.934 83.797Z" fill="#2D2932"/>
<path d="M176.934 82.669C177.767 82.669 178.443 82.0032 178.443 81.1818C178.443 80.3604 177.767 79.6945 176.934 79.6945C176.1 79.6945 175.425 80.3604 175.425 81.1818C175.425 82.0032 176.1 82.669 176.934 82.669Z" fill="#9C9EA1"/>
<path d="M177.145 82.4621C176.311 82.4621 175.636 81.7965 175.636 80.9754C175.636 80.6141 175.772 80.2886 175.988 80.0313C175.648 80.3037 175.426 80.7153 175.426 81.1824C175.426 82.0023 176.102 82.669 176.934 82.669C177.402 82.669 177.815 82.4548 178.092 82.1248C177.832 82.3334 177.506 82.4621 177.145 82.4621Z" fill="#6D6E70"/>
<path d="M151.06 63.708C151.06 63.708 160.115 64.1918 160.115 68.1837C160.115 71.194 160.115 76.677 160.115 76.677H152.58L151.06 63.708Z" fill="#D4541E"/>
<path d="M138.842 41.5834C138.842 41.5834 141.896 45.1435 142.375 45.7286C144.004 47.7164 144.508 49.9777 142.956 51.2122C141.405 52.4455 139.267 51.484 137.639 49.4967C137.16 48.9117 134.273 45.2185 134.273 45.2185L133.198 46.0737C133.198 46.0737 136.181 49.7149 136.647 50.2848C138.851 52.9746 141.898 54.152 143.996 52.4824C146.095 50.8139 145.569 47.6303 143.367 44.941C142.899 44.37 139.915 40.7293 139.915 40.7293L138.842 41.5834Z" fill="#44535A"/>
<path d="M140.075 41.8844C140.299 42.1567 140.308 42.5153 140.094 42.6853L135.174 46.6C134.961 46.7684 134.608 46.685 134.384 46.4115C134.16 46.1391 134.151 45.7795 134.364 45.6111L139.284 41.697C139.498 41.5281 139.852 41.612 140.075 41.8844Z" fill="#44535A"/>
<path d="M148.753 63.8037L142.969 51.2748L144.196 50.7586L149.982 63.2868L148.753 63.8037Z" fill="#44535A"/>
<path d="M151.06 63.708C151.06 63.708 148.024 64.1169 148.024 67.484C148.024 70.0239 148.024 74.6506 148.024 74.6506H151.062L151.06 63.708Z" fill="#44535A"/>
<path d="M151.067 63.708C151.067 63.708 154.101 64.1918 154.101 68.1837C154.101 71.194 154.101 76.677 154.101 76.677H151.062L151.067 63.708Z" fill="#F26F21"/>
<path d="M149.543 65.3004C150.382 65.3004 151.062 64.6303 151.062 63.8036C151.062 62.977 150.382 62.3069 149.543 62.3069C148.704 62.3069 148.024 62.977 148.024 63.8036C148.024 64.6303 148.704 65.3004 149.543 65.3004Z" fill="#354248"/>
<path d="M149.543 64.5442C149.958 64.5442 150.295 64.2126 150.295 63.8036C150.295 63.3947 149.958 63.0631 149.543 63.0631C149.128 63.0631 148.792 63.3947 148.792 63.8036C148.792 64.2126 149.128 64.5442 149.543 64.5442Z" fill="#1F2B30"/>
<path d="M143.944 53.1055C144.783 53.1055 145.464 52.4351 145.464 51.6082C145.464 50.7812 144.783 50.1109 143.944 50.1109C143.105 50.1109 142.425 50.7812 142.425 51.6082C142.425 52.4351 143.105 53.1055 143.944 53.1055Z" fill="#354248"/>
<path d="M143.944 52.3487C144.359 52.3487 144.695 52.0171 144.695 51.6082C144.695 51.1992 144.359 50.8676 143.944 50.8676C143.529 50.8676 143.192 51.1992 143.192 51.6082C143.192 52.0171 143.529 52.3487 143.944 52.3487Z" fill="#1F2B30"/>
<path d="M151.062 73.7433H146.367V76.3733H151.062V73.7433Z" fill="#44535A"/>
<path d="M183.589 76.3733H145.287V79.0043H183.589V76.3733Z" fill="#F26F21"/>
<path d="M169.446 38.9401H164.699V48.2981H169.446V38.9401Z" fill="#D57D42"/>
<path d="M167.671 38.9401H166.178V41.7479H167.671V38.9401Z" fill="#E6D5C6"/>
<path d="M164.699 38.9401H155.941V48.2981H164.699V38.9401Z" fill="#F8A35A"/>
<path opacity="0.5" d="M156.285 47.9317V39.307H164.357L156.285 47.9317Z" fill="#FCD5BF"/>
<path d="M167.795 38.9401H166.353V41.6433H167.795V38.9401Z" fill="#E6E7E8"/>
<path d="M164.069 45.3818H160.837V45.8259H164.069V45.3818Z" fill="#703E16"/>
<path d="M164.068 46.2258H161.88V46.6693H164.068V46.2258Z" fill="#703E16"/>
<path d="M163.961 46.9356H163.188V47.623H163.961V46.9356Z" stroke="#703E16" stroke-width="0.3718" stroke-miterlimit="10" stroke-linecap="round" stroke-linejoin="round"/>
<path d="M162.771 46.9356H161.997V47.623H162.771V46.9356Z" stroke="#703E16" stroke-width="0.3718" stroke-miterlimit="10" stroke-linecap="round" stroke-linejoin="round"/>
<path d="M182.953 38.9401H178.205V48.2981H182.953V38.9401Z" fill="#D57D42"/>
<path d="M181.177 38.9401H179.684V41.7479H181.177V38.9401Z" fill="#E6D5C6"/>
<path d="M178.205 38.9401H169.446V48.2981H178.205V38.9401Z" fill="#F8A35A"/>
<path opacity="0.5" d="M169.791 47.9317V39.307H177.862L169.791 47.9317Z" fill="#FCD5BF"/>
<path d="M181.301 38.9401H179.858V41.6433H181.301V38.9401Z" fill="#E6E7E8"/>
<path d="M177.575 45.3818H174.343V45.8259H177.575V45.3818Z" fill="#703E16"/>
<path d="M177.575 46.2258H175.387V46.6693H177.575V46.2258Z" fill="#703E16"/>
<path d="M177.468 46.9356H176.694V47.623H177.468V46.9356Z" stroke="#703E16" stroke-width="0.3718" stroke-miterlimit="10" stroke-linecap="round" stroke-linejoin="round"/>
<path d="M176.277 46.9356H175.504V47.623H176.277V46.9356Z" stroke="#703E16" stroke-width="0.3718" stroke-miterlimit="10" stroke-linecap="round" stroke-linejoin="round"/>
<path d="M169.446 57.6567H164.699V67.0147H169.446V57.6567Z" fill="#D57D42"/>
<path d="M167.671 57.6567H166.178V60.4639H167.671V57.6567Z" fill="#E6D5C6"/>
<path d="M164.699 57.6567H155.941V67.0147H164.699V57.6567Z" fill="#F8A35A"/>
<path opacity="0.5" d="M156.285 66.6483V58.0236H164.357L156.285 66.6483Z" fill="#FCD5BF"/>
<path d="M167.795 57.6567H166.353V60.3599H167.795V57.6567Z" fill="#E6E7E8"/>
<path d="M164.069 64.0995H160.837V64.5431H164.069V64.0995Z" fill="#703E16"/>
<path d="M164.068 64.943H161.88V65.3854H164.068V64.943Z" fill="#703E16"/>
<path d="M163.961 65.6522H163.188V66.3396H163.961V65.6522Z" stroke="#703E16" stroke-width="0.3718" stroke-miterlimit="10" stroke-linecap="round" stroke-linejoin="round"/>
<path d="M162.771 65.6522H161.997V66.3396H162.771V65.6522Z" stroke="#703E16" stroke-width="0.3718" stroke-miterlimit="10" stroke-linecap="round" stroke-linejoin="round"/>
<path d="M182.953 57.6567H178.205V67.0147H182.953V57.6567Z" fill="#D57D42"/>
<path d="M181.177 57.6567H179.684V60.4639H181.177V57.6567Z" fill="#E6D5C6"/>
<path d="M178.205 57.6567H169.446V67.0147H178.205V57.6567Z" fill="#F8A35A"/>
<path opacity="0.5" d="M169.791 66.6483V58.0236H177.862L169.791 66.6483Z" fill="#FCD5BF"/>
<path d="M181.301 57.6567H179.858V60.3599H181.301V57.6567Z" fill="#E6E7E8"/>
<path d="M177.575 64.0995H174.343V64.5431H177.575V64.0995Z" fill="#703E16"/>
<path d="M177.575 64.943H175.387V65.3854H177.575V64.943Z" fill="#703E16"/>
<path d="M177.468 65.6522H176.694V66.3396H177.468V65.6522Z" stroke="#703E16" stroke-width="0.3718" stroke-miterlimit="10" stroke-linecap="round" stroke-linejoin="round"/>
<path d="M176.277 65.6522H175.504V66.3396H176.277V65.6522Z" stroke="#703E16" stroke-width="0.3718" stroke-miterlimit="10" stroke-linecap="round" stroke-linejoin="round"/>
<path d="M169.446 48.2981H164.699V57.6567H169.446V48.2981Z" fill="#CA713A"/>
<path d="M167.671 48.2981H166.178V51.1059H167.671V48.2981Z" fill="#E6D5C6"/>
<path d="M164.699 48.2981H155.941V57.6567H164.699V48.2981Z" fill="#E7934D"/>
<path opacity="0.5" d="M156.285 57.2892V48.6656H164.357L156.285 57.2892Z" fill="#FCD5BF"/>
<path d="M167.795 48.2981H166.353V51.0013H167.795V48.2981Z" fill="#E6E7E8"/>
<path d="M164.069 54.7409H160.837V55.1845H164.069V54.7409Z" fill="#703E16"/>
<path d="M164.068 55.5838H161.88V56.0274H164.068V55.5838Z" fill="#703E16"/>
<path d="M163.961 56.2942H163.188V56.981H163.961V56.2942Z" stroke="#703E16" stroke-width="0.3718" stroke-miterlimit="10" stroke-linecap="round" stroke-linejoin="round"/>
<path d="M162.771 56.2942H161.997V56.981H162.771V56.2942Z" stroke="#703E16" stroke-width="0.3718" stroke-miterlimit="10" stroke-linecap="round" stroke-linejoin="round"/>
<path d="M182.953 48.2981H178.205V57.6567H182.953V48.2981Z" fill="#CA713A"/>
<path d="M181.177 48.2981H179.684V51.1059H181.177V48.2981Z" fill="#E6D5C6"/>
<path d="M178.205 48.2981H169.446V57.6567H178.205V48.2981Z" fill="#E7934D"/>
<path opacity="0.5" d="M169.791 57.2892V48.6656H177.862L169.791 57.2892Z" fill="#FCD5BF"/>
<path d="M181.301 48.2981H179.858V51.0013H181.301V48.2981Z" fill="#E6E7E8"/>
<path d="M177.575 54.7409H174.343V55.1845H177.575V54.7409Z" fill="#703E16"/>
<path d="M177.575 55.5838H175.387V56.0274H177.575V55.5838Z" fill="#703E16"/>
<path d="M177.468 56.2942H176.694V56.981H177.468V56.2942Z" stroke="#703E16" stroke-width="0.3718" stroke-miterlimit="10" stroke-linecap="round" stroke-linejoin="round"/>
<path d="M176.277 56.2942H175.504V56.981H176.277V56.2942Z" stroke="#703E16" stroke-width="0.3718" stroke-miterlimit="10" stroke-linecap="round" stroke-linejoin="round"/>
<path d="M169.446 67.0153H164.699V76.3733H169.446V67.0153Z" fill="#CA713A"/>
<path d="M167.671 67.0153H166.178V69.8231H167.671V67.0153Z" fill="#E6D5C6"/>
<path d="M164.699 67.0153H155.941V76.3733H164.699V67.0153Z" fill="#E7934D"/>
<path opacity="0.5" d="M156.285 76.0064V67.3822H164.357L156.285 76.0064Z" fill="#FCD5BF"/>
<path d="M167.795 67.0153H166.353V69.7185H167.795V67.0153Z" fill="#E6E7E8"/>
<path d="M164.069 73.4576H160.837V73.9005H164.069V73.4576Z" fill="#703E16"/>
<path d="M164.068 74.3004H161.88V74.7451H164.068V74.3004Z" fill="#703E16"/>
<path d="M163.961 75.0119H163.188V75.6982H163.961V75.0119Z" stroke="#703E16" stroke-width="0.3718" stroke-miterlimit="10" stroke-linecap="round" stroke-linejoin="round"/>
<path d="M162.771 75.0119H161.997V75.6982H162.771V75.0119Z" stroke="#703E16" stroke-width="0.3718" stroke-miterlimit="10" stroke-linecap="round" stroke-linejoin="round"/>
<path d="M182.953 67.0153H178.205V76.3733H182.953V67.0153Z" fill="#CA713A"/>
<path d="M181.177 67.0153H179.684V69.8231H181.177V67.0153Z" fill="#E6D5C6"/>
<path d="M178.205 67.0153H169.446V76.3733H178.205V67.0153Z" fill="#E7934D"/>
<path opacity="0.5" d="M169.791 76.0064V67.3822H177.862L169.791 76.0064Z" fill="#FCD5BF"/>
<path d="M181.301 67.0153H179.858V69.7185H181.301V67.0153Z" fill="#E6E7E8"/>
<path d="M177.575 73.4576H174.343V73.9005H177.575V73.4576Z" fill="#703E16"/>
<path d="M177.575 74.3004H175.387V74.7451H177.575V74.3004Z" fill="#703E16"/>
<path d="M177.468 75.0119H176.694V75.6982H177.468V75.0119Z" stroke="#703E16" stroke-width="0.3718" stroke-miterlimit="10" stroke-linecap="round" stroke-linejoin="round"/>
<path d="M176.277 75.0119H175.504V75.6982H176.277V75.0119Z" stroke="#703E16" stroke-width="0.3718" stroke-miterlimit="10" stroke-linecap="round" stroke-linejoin="round"/>
<path d="M134.978 45.7314C134.978 45.7314 126.159 43.7838 125.834 42.9873C125.229 41.504 124.521 37.1211 124.521 37.1211L127.102 36.6854L128.013 41.7076L136.25 44.6323L134.978 45.7314Z" fill="#FAB587"/>
<path d="M127.568 37.8723C127.568 35.362 126.916 32.0771 126.859 31.5995C126.646 29.8225 123.896 31.2997 123.896 32.4502C123.896 33.0481 124.369 35.2519 124.42 37.9758L127.568 37.8723Z" fill="#F05A22"/>
<path d="M141.952 44.3453C141.65 44.5439 141.427 44.1238 141.653 43.9415C141.934 43.7155 142.392 43.3257 142.788 43.0516C143.106 42.829 143.455 43.3564 143.141 43.5757C142.829 43.7933 142.305 44.1132 141.952 44.3453Z" fill="#FAB587"/>
<path d="M142.393 44.7374C142.119 44.9164 141.889 44.4991 142.095 44.3336C142.348 44.1266 142.759 43.7703 143.117 43.5209C143.405 43.3195 143.755 43.8459 143.473 44.0439C143.189 44.2407 142.712 44.5277 142.393 44.7374Z" fill="#FAB587"/>
<path d="M142.779 45.0725C142.537 45.2319 142.342 44.8739 142.523 44.7274C142.748 44.545 143.112 44.2307 143.43 44.0097C143.686 43.8319 143.986 44.2838 143.735 44.4589C143.484 44.6334 143.063 44.8879 142.779 45.0725Z" fill="#FAB587"/>
<path d="M141.72 43.8C141.447 43.979 141.219 43.5623 141.421 43.3962C141.676 43.1898 142.085 42.8329 142.444 42.584C142.733 42.3832 143.084 42.9095 142.801 43.107C142.517 43.3044 142.04 43.5914 141.72 43.8Z" fill="#FAB587"/>
<path d="M141.595 43.6204C141.818 43.5981 141.846 44.069 141.673 44.1138C141.456 44.1686 141.099 44.276 140.806 44.3179C140.567 44.3509 140.493 43.7256 140.725 43.6926C140.956 43.6596 141.337 43.6445 141.595 43.6204Z" fill="#FAB587"/>
<path d="M136.524 46.3404C136.746 46.6234 136.335 46.8718 136.137 46.6609C135.888 46.3997 135.463 45.9769 135.159 45.6066C134.911 45.3085 135.423 44.9304 135.665 45.2229C135.908 45.5149 136.265 46.0093 136.524 46.3404Z" fill="#FAB587"/>
<path d="M136.892 45.8807C137.092 46.1374 136.687 46.3902 136.502 46.2C136.277 45.9657 135.888 45.5859 135.611 45.252C135.387 44.9818 135.898 44.6009 136.117 44.8661C136.335 45.1306 136.659 45.5803 136.892 45.8807Z" fill="#FAB587"/>
<path d="M137.206 45.4768C137.383 45.7051 137.034 45.9215 136.873 45.752C136.673 45.5434 136.331 45.2067 136.086 44.9097C135.887 44.6703 136.325 44.3448 136.518 44.5786C136.713 44.8146 136.998 45.2117 137.206 45.4768Z" fill="#FAB587"/>
<path d="M135.988 46.6055C136.189 46.8628 135.782 47.1157 135.601 46.9266C135.374 46.6911 134.986 46.3113 134.709 45.9774C134.485 45.7067 134.995 45.3264 135.214 45.5909C135.433 45.8555 135.756 46.3063 135.988 46.6055Z" fill="#FAB587"/>
<path d="M135.688 46.5899C135.653 46.3718 136.127 46.3125 136.183 46.4803C136.254 46.6906 136.335 46.8304 136.397 47.1168C136.447 47.3478 135.822 47.4406 135.773 47.2147C135.724 46.987 135.732 46.8427 135.688 46.5899Z" fill="#FAB587"/>
<path d="M129.307 36.1535C129.356 36.5406 128.658 37.2196 128.715 36.4925C127.273 29.5563 125.521 30.3696 125.521 30.3696L126.425 29.954C126.425 29.954 128.773 30.9194 129.307 36.1535Z" fill="#B32627"/>
<path d="M132.498 35.7553C132.547 36.1429 131.849 36.8219 131.905 36.0948C131.254 30.492 130.417 29.7649 130.417 29.7649C130.417 29.7649 131.962 30.5222 132.498 35.7553Z" fill="#B32627"/>
<path d="M176.791 26.0152C176.791 26.0152 175.902 25.4128 175.436 25.0347C174.086 24.1722 172.217 24.528 172.217 24.528C172.217 24.528 172.189 25.0716 173.626 25.7809C174.971 26.4442 176.791 26.0152 176.791 26.0152Z" fill="#90180D"/>
<path d="M168.898 50.6221C168.898 50.6221 176.896 49.2271 177.415 48.5369C178.378 47.2516 179.395 43.6786 179.395 43.6786L177.22 42.6931L175.631 46.7572L168.841 49.4592L168.898 50.6221Z" fill="#FAB587"/>
<path d="M176.463 43.6026C177.104 41.1729 178.309 37.9081 178.486 37.4612C179.146 35.7944 181.43 37.9053 181.135 39.0189C180.982 39.5973 180.285 41.7663 179.539 44.3907L176.463 43.6026Z" fill="#F05A22"/>
<path d="M167.909 51.8654C168.619 51.6764 168.897 50.6221 168.897 50.6221L168.84 49.4598C168.84 49.4598 167.084 49.4016 166.762 49.8899C166.545 50.2182 167.201 52.0545 167.909 51.8654Z" fill="#FAB587"/>
<path d="M180.134 85.205C180.359 86.2185 180.672 87.2823 179.634 87.6912C179.029 87.9283 175.765 88.4994 174.601 88.4625C173.766 88.4373 172.752 88.4345 172.66 88.0754C172.568 87.7164 172.866 86.9506 173.348 86.9093C174.552 86.803 175.745 86.6072 176.738 85.3644C177.082 84.9337 180.257 84.8554 180.134 85.205Z" fill="#010000"/>
<path d="M176.963 56.7545C176.963 56.7545 184.338 48.5324 185.649 53.7543C186.64 57.7076 181.461 60.6161 181.461 60.6161L179.791 71.1811L180.134 85.2056L176.236 85.4136L175.552 70.7924L176.963 56.7545Z" fill="#7B1E1E"/>
<path d="M188.048 86.0585C188.19 87.0871 188.416 88.1711 187.348 88.4978C186.727 88.6879 183.544 89.1622 182.399 88.943C181.834 88.8356 180.428 88.7008 180.366 88.3361C180.304 87.9703 180.661 87.2303 181.145 87.2259C182.356 87.2152 183.56 87.1134 184.65 85.9523C185.026 85.5507 188.198 85.7207 188.048 86.0585Z" fill="#2A0000"/>
<path d="M179.528 61.9081C179.528 61.9081 176.315 58.871 176.848 54.671C177.207 51.8436 185.421 52.1418 185.966 54.5692C186.511 56.9967 185.134 61.9719 185.134 61.9719L185.775 72.6572L188.049 86.058H183.971L181.676 73.5616L179.528 61.9081Z" fill="#B32627"/>
<path d="M178.575 39.1794C179.684 39.1794 182.729 36.5736 182.729 36.5736C182.729 36.5736 182.131 34.744 183.217 33.155C183.326 32.9917 182.556 33.0303 181.643 33.1857C181.572 33.2014 181.494 33.2092 181.423 33.2243C181.415 33.2243 181.407 33.2243 181.407 33.2243C181.038 33.2943 180.652 33.3793 180.306 33.4805C180.298 33.4805 180.29 33.4805 180.29 33.4805C179.52 33.6903 178.93 33.9604 179.048 34.2171C179.079 34.2949 179.118 34.3715 179.15 34.4414C179.157 34.4487 179.165 34.4649 179.165 34.4727C179.551 35.3022 179.896 35.9846 179.575 36.3638C179.495 36.45 179.386 36.5193 179.236 36.5736C178.858 36.6435 177.466 39.1794 178.575 39.1794Z" fill="#FAB587"/>
<path d="M179.063 34.2171C179.095 34.2949 179.127 34.3648 179.15 34.4414C179.157 34.4487 179.165 34.4649 179.165 34.4727C179.551 35.3022 179.896 35.9846 179.575 36.3638C180.196 36.1088 180.739 35.6591 181.132 35.1238C181.549 34.5421 181.62 33.8676 181.643 33.1852C181.572 33.2008 181.494 33.2087 181.423 33.2238C181.416 33.2238 181.407 33.2238 181.407 33.2238C181.03 33.2937 180.652 33.3865 180.307 33.4799C180.298 33.4799 180.291 33.4799 180.291 33.4799C179.527 33.6975 178.945 33.9604 179.063 34.2171Z" fill="#DD956F"/>
<path d="M185.966 54.5692L176.848 54.671C176.848 54.671 177.235 49.5336 176.995 45.7599C176.995 36.8085 179.237 36.5736 179.237 36.5736C179.237 36.5736 179.38 37.2006 180.56 37.2006C182.133 37.2006 182.729 36.5736 182.729 36.5736C182.729 36.5736 184.21 37.0658 185.28 37.8902C186.953 39.1795 185.966 54.5692 185.966 54.5692Z" fill="#F16522"/>
<path d="M176.995 45.7599C176.995 44.5193 177.04 43.4515 177.114 42.5231H181.364V52.6037H186.072C186.014 53.8001 186.072 55.3142 186.072 55.3142L176.848 55.0262C176.848 55.0262 177.235 49.5336 176.995 45.7599Z" fill="#B32627"/>
<path d="M175.855 30.4451C176.032 34.5097 177.664 35.2782 179.547 35.2782C181.224 35.2782 184.05 34.4823 184.05 30.105C184.05 25.6131 184.983 22.2812 180.611 22.2812C174.993 22.2806 175.662 25.9571 175.855 30.4451Z" fill="#FAB587"/>
<path d="M177.883 32.028C177.883 32.028 178.164 32.7937 179.129 32.8602C179.836 32.9083 180.248 32.005 180.248 32.005L177.883 32.028Z" fill="white"/>
<path d="M177.883 32.028C178.026 32.3697 178.276 33.1746 179.171 33.1237C179.873 33.084 180.167 32.3568 180.248 32.005C180.248 32.005 179.976 32.8485 179.065 32.8619C178.37 32.8725 177.883 32.028 177.883 32.028Z" fill="#DD956F"/>
<path d="M178.689 30.5552C178.689 30.6386 178.916 30.7846 179.325 30.7846C179.733 30.7846 179.778 30.1044 179.778 30.1044C179.778 30.1044 179.733 30.4803 179.325 30.4803C178.916 30.4809 178.689 30.4702 178.689 30.5552Z" fill="#CFBEBC"/>
<path d="M176.496 28.7928C176.496 29.0132 176.674 29.1922 176.892 29.1922C177.111 29.1922 177.288 29.0132 177.288 28.7928C177.288 28.5724 177.111 28.3935 176.892 28.3935C176.675 28.3935 176.496 28.5724 176.496 28.7928Z" fill="#160516"/>
<path d="M176.815 28.79C176.897 28.79 176.963 28.7247 176.963 28.644C176.963 28.5634 176.897 28.498 176.815 28.498C176.733 28.498 176.667 28.5634 176.667 28.644C176.667 28.7247 176.733 28.79 176.815 28.79Z" fill="white"/>
<path d="M175.985 29.8835C175.985 30.0597 176.346 30.2029 176.79 30.2029C177.237 30.2029 177.598 30.0597 177.598 29.8835C177.598 29.7062 177.237 29.5619 176.79 29.5619C176.346 29.5619 175.985 29.7062 175.985 29.8835Z" fill="#F69F89"/>
<path d="M181.821 28.7928C181.821 29.0132 181.642 29.1922 181.425 29.1922C181.205 29.1922 181.028 29.0132 181.028 28.7928C181.028 28.5724 181.206 28.3935 181.425 28.3935C181.642 28.3935 181.821 28.5724 181.821 28.7928Z" fill="#160516"/>
<path d="M181.503 28.79C181.584 28.79 181.651 28.7247 181.651 28.644C181.651 28.5634 181.584 28.498 181.503 28.498C181.421 28.498 181.354 28.5634 181.354 28.644C181.354 28.7247 181.421 28.79 181.503 28.79Z" fill="white"/>
<path d="M182.127 27.1339C181.998 27.0399 181.834 26.9952 181.674 26.9325C181.505 26.9034 181.33 26.8391 181.156 26.8744C181.072 26.8962 180.985 26.8956 180.914 26.9359C180.847 26.9801 180.784 27.0209 180.724 27.0595C180.605 27.1283 180.83 27.3196 180.882 27.3123C180.98 27.2832 181.084 27.262 181.21 27.2581C181.326 27.2167 181.469 27.2329 181.612 27.2228C181.75 27.2525 181.9 27.262 182.024 27.3246C182.16 27.3694 182.267 27.2044 182.127 27.1339Z" fill="#160516"/>
<path d="M176.276 27.1339C176.405 27.0399 176.57 26.9952 176.731 26.9325C176.9 26.9034 177.074 26.8391 177.249 26.8744C177.333 26.8962 177.419 26.8956 177.49 26.9359C177.556 26.9801 177.62 27.0209 177.68 27.0595C177.799 27.1283 177.574 27.3196 177.522 27.3123C177.424 27.2832 177.321 27.262 177.195 27.2581C177.079 27.2167 176.935 27.2329 176.792 27.2228C176.655 27.2525 176.504 27.262 176.38 27.3246C176.245 27.3694 176.138 27.2044 176.276 27.1339Z" fill="#160516"/>
<path d="M181.526 30.2029C181.971 30.2029 182.332 30.0599 182.332 29.8835C182.332 29.7071 181.971 29.5641 181.526 29.5641C181.081 29.5641 180.72 29.7071 180.72 29.8835C180.72 30.0599 181.081 30.2029 181.526 30.2029Z" fill="#F69F89"/>
<path d="M175.736 27.8582C175.736 27.8582 175.036 25.0856 175.727 23.1951C176.417 21.3046 178.186 20.8096 179.777 20.7481C181.374 20.6866 183.71 20.7716 184.132 21.8639C186.544 21.3482 185.526 29.337 185.526 29.337C185.526 29.337 184.405 28.3375 183.158 27.9868C184.281 25.0985 181.133 24.8351 178.076 25.0124C175.855 25.1421 175.736 27.8582 175.736 27.8582Z" fill="#160516"/>
<path d="M185.665 29.8841C185.659 30.5871 185.041 31.7897 184.023 31.5055C183.284 31.2997 182.897 30.9065 182.897 30.1358C182.897 29.3639 183.66 30.213 183.947 29.4976C184.377 28.4337 185.675 28.8426 185.665 29.8841Z" fill="#FAB587"/>
<path d="M184.132 29.5619C184.331 29.1396 184.805 28.3935 185.525 29.3376C185.629 28.3627 185.087 27.5494 184.981 26.8218C184.574 24.0397 184.522 26.6299 183.157 27.9874C184.376 28.6569 183.341 30.0334 183.341 30.0334L183.761 30.4451C183.761 30.4451 184.084 29.9159 184.132 29.5619Z" fill="#160516"/>
<path d="M177.018 25.7345C180.042 25.829 185.916 25.7781 185.916 25.584C185.916 21.7442 183.927 20.408 180.559 20.408C177.402 20.408 175.512 20.9198 175.287 24.7691C175.273 25.0263 176.019 25.2227 177.018 25.7345Z" fill="#EE4632"/>
<path d="M175.847 25.5213C177.138 26.508 179.779 26.5315 180.692 26.3687C181.975 26.1411 182.193 25.773 182.193 25.773C182.193 25.773 178.614 24.8602 176.349 24.542C173.497 24.1404 172.218 24.5285 172.218 24.5285C172.218 24.5285 174.44 24.4458 175.847 25.5213Z" fill="#ED332A"/>
<path d="M180.345 42.9622C180.296 43.3498 180.994 44.0288 180.937 43.3011C182.38 36.3638 184.133 37.1782 184.133 37.1782L183.227 36.7626C183.228 36.7626 180.88 37.728 180.345 42.9622Z" fill="#B32627"/>
<path d="M177.156 42.5645C177.106 42.9521 177.803 43.6306 177.747 42.9029C178.4 37.3001 179.237 36.5736 179.237 36.5736C179.237 36.5736 177.69 37.3303 177.156 42.5645Z" fill="#B32627"/>
<path d="M174.676 52.5394C174.676 52.5394 183.494 50.5924 183.818 49.7965C184.424 48.3132 185.133 43.9304 185.133 43.9304L182.551 43.4941L181.639 48.5162L173.849 51.2821L172.919 50.6221V52.7593L174.676 52.5394Z" fill="#FAB587"/>
<path d="M182.085 44.6809C182.085 42.1713 182.737 38.8858 182.794 38.4081C183.006 36.6312 185.757 38.1089 185.757 39.2589C185.757 39.8573 185.283 42.0605 185.232 44.785L182.085 44.6809Z" fill="#F05A22"/>
<path d="M171.449 51.5528C171.085 51.5483 171.132 52.0209 171.423 52.0506C171.784 52.0881 172.383 52.1664 172.867 52.1831C173.258 52.1966 173.256 51.5662 172.872 51.5528C172.489 51.5399 171.872 51.5556 171.449 51.5528Z" fill="#FAB587"/>
<path d="M171.599 50.9862C171.271 50.9851 171.311 51.456 171.575 51.4851C171.901 51.5215 172.442 51.597 172.882 51.6132C173.234 51.6249 173.235 50.9957 172.888 50.9828C172.541 50.9705 171.983 50.9884 171.599 50.9862Z" fill="#FAB587"/>
<path d="M171.736 50.4968C171.444 50.4945 171.481 50.8989 171.715 50.9247C172.005 50.9554 172.483 51.0214 172.871 51.0343C173.185 51.046 173.184 50.5057 172.878 50.4945C172.569 50.4839 172.076 50.4985 171.736 50.4968Z" fill="#FAB587"/>
<path d="M171.558 52.1333C171.229 52.1305 171.27 52.6037 171.532 52.6323C171.86 52.6675 172.4 52.7441 172.839 52.7592C173.193 52.7721 173.193 52.1417 172.847 52.13C172.5 52.1171 171.941 52.1345 171.558 52.1333Z" fill="#FAB587"/>
<path d="M173.513 51.7128L173.941 52.0486L176.468 48.9145L176.04 48.5788L173.513 51.7128Z" fill="#00507E"/>
<path d="M178.91 54.2677L178.995 54.0557L172.072 47.5374L165.931 47.6459L165.64 47.7606L178.91 54.2677Z" fill="#AF2C19"/>
<path d="M172.589 54.2677H178.91L171.96 47.7606H165.64L172.589 54.2677Z" fill="#F05A28"/>
<path d="M168.386 53.3672H173.768C173.768 53.3678 174.266 52.8957 173.893 52.2335C173.048 50.73 171.65 48.2405 171.558 48.0223C171.352 47.538 171.925 47.5413 171.925 47.5413C171.925 47.5413 171.794 47.2583 171.27 47.2583C170.692 47.2583 168.615 47.3416 166.99 47.3416C166.17 47.3416 166.189 47.8249 166.189 47.8249C166.189 47.8249 168.439 51.7172 168.617 52.3722C168.795 53.0272 168.386 53.3672 168.386 53.3672Z" fill="white"/>
<path d="M168.436 50.3485C168.741 50.1561 168.441 49.7853 168.18 49.9173C167.858 50.0795 167.314 50.3362 166.898 50.5823C166.562 50.7803 166.913 51.3072 167.241 51.112C167.57 50.9191 168.078 50.5734 168.436 50.3485Z" fill="#FAB587"/>
<path d="M168.622 50.9051C168.898 50.7294 168.604 50.3553 168.366 50.4733C168.072 50.6193 167.576 50.8463 167.201 51.0684C166.898 51.2479 167.246 51.7765 167.544 51.5992C167.841 51.4247 168.299 51.1087 168.622 50.9051Z" fill="#FAB587"/>
<path d="M168.779 51.3883C169.024 51.2329 168.769 50.9135 168.561 51.0186C168.3 51.1478 167.863 51.3503 167.531 51.5472C167.26 51.7066 167.561 52.1591 167.824 52.003C168.087 51.8475 168.493 51.5696 168.779 51.3883Z" fill="#FAB587"/>
<path d="M168.023 49.9207C168.299 49.7456 168.003 49.372 167.767 49.4889C167.472 49.6349 166.978 49.8619 166.601 50.084C166.298 50.2641 166.647 50.7915 166.944 50.6165C167.241 50.4397 167.699 50.1254 168.023 49.9207Z" fill="#FAB587"/>
</svg>
